<?xml version="1.0" encoding="UTF-8" standalone="no"?>
<!DOCTYPE svg PUBLIC "-//W3C//DTD SVG 1.1//EN"
 "http://www.w3.org/Graphics/SVG/1.1/DTD/svg11.dtd">
<!-- Generated by graphviz version 2.40.1 (20161225.0304)
 -->
<!-- Title: %3 Pages: 1 -->
<svg width="730pt" height="288pt"
 viewBox="0.00 0.00 730.00 288.00" xmlns="http://www.w3.org/2000/svg" xmlns:xlink="http://www.w3.org/1999/xlink">
<g id="graph0" class="graph" transform="scale(1 1) rotate(0) translate(4 284)">
<title>%3</title>
<g id="clust1" class="cluster">
<title>cluster_0</title>
<polygon fill="#deb887" stroke="#000000" points="8,-8 8,-272 714,-272 714,-8 8,-8"/>
<text text-anchor="middle" x="361" y="-256.8" font-family="Times,serif" font-size="14.00" fill="#000000">Overtrue\PHPLint</text>
</g>
<!-- Overtrue\\PHPLint\\Cache -->
<g id="node1" class="node">
<title>Overtrue\\PHPLint\\Cache</title>
<polygon fill="#fefece" stroke="transparent" points="705.5,-241 16.5,-241 16.5,-16 705.5,-16 705.5,-241"/>
<polygon fill="#eeeeee" stroke="transparent" points="25,-202.5 25,-236.5 698,-236.5 698,-202.5 25,-202.5"/>
<polygon fill="none" stroke="#000000" points="25,-202.5 25,-236.5 698,-236.5 698,-202.5 25,-202.5"/>
<text text-anchor="start" x="343" y="-209.3" font-family="Times,serif" font-weight="bold" font-size="14.00" fill="#000000">Cache</text>
<polygon fill="none" stroke="#000000" points="25,-196.5 25,-202.5 698,-202.5 698,-196.5 25,-196.5"/>
<polygon fill="none" stroke="#000000" points="25,-19.5 25,-196.5 698,-196.5 698,-19.5 25,-19.5"/>
<text text-anchor="start" x="30" y="-180.3" font-family="Times,serif" font-size="14.00" fill="#000000">+ __construct(cachePoolAdapter = «unknown»)</text>
<text text-anchor="start" x="30" y="-161.3" font-family="Times,serif" font-size="14.00" fill="#000000">+ createCachePool(adapter : Symfony\Component\Cache\Adapter\AdapterInterface) : Psr\Cache\CacheItemPoolInterface</text>
<text text-anchor="start" x="30" y="-142.3" font-family="Times,serif" font-size="14.00" fill="#000000">+ hasItem(filename : string) : bool</text>
<text text-anchor="start" x="30" y="-123.3" font-family="Times,serif" font-size="14.00" fill="#000000">+ getItem(filename : string) : Psr\Cache\CacheItemInterface</text>
<text text-anchor="start" x="30" y="-104.3" font-family="Times,serif" font-size="14.00" fill="#000000">+ saveItem(item : Psr\Cache\CacheItemInterface) : bool</text>
<text text-anchor="start" x="30" y="-85.3" font-family="Times,serif" font-size="14.00" fill="#000000">+ clear(prefix : string = &#39;&#39;) : bool</text>
<text text-anchor="start" x="30" y="-66.3" font-family="Times,serif" font-size="14.00" fill="#000000">+ isHit(filename : string) : bool</text>
<text text-anchor="start" x="30" y="-47.3" font-family="Times,serif" font-size="14.00" fill="#000000">+ getCalls() : array</text>
<text text-anchor="start" x="30" y="-28.3" font-family="Times,serif" font-size="14.00" fill="#000000">+ __debugInfo() : ?array</text>
</g>
</g>
</svg>
