<?xml version="1.0" encoding="UTF-8" standalone="no"?>
<!DOCTYPE svg PUBLIC "-//W3C//DTD SVG 1.1//EN"
 "http://www.w3.org/Graphics/SVG/1.1/DTD/svg11.dtd">
<!-- Generated by graphviz version 2.43.0 (0)
 -->
<!-- Title: %3 Pages: 1 -->
<svg width="925pt" height="289pt"
 viewBox="0.00 0.00 925.00 289.00" xmlns="http://www.w3.org/2000/svg" xmlns:xlink="http://www.w3.org/1999/xlink">
<g id="graph0" class="graph" transform="scale(1 1) rotate(0) translate(4 285)">
<title>%3</title>
<g id="clust1" class="cluster">
<title>cluster_0</title>
<polygon fill="#cdaa7d" stroke="black" points="8,-8 8,-273 909,-273 909,-8 8,-8"/>
<text text-anchor="middle" x="458.5" y="-257.8" font-family="Times,serif" font-size="14.00">Overtrue\PHPLint</text>
</g>
<!-- Overtrue\\PHPLint\\Cache -->
<g id="node1" class="node">
<title>Overtrue\\PHPLint\\Cache</title>
<polygon fill="#fefece" stroke="transparent" points="901,-241.5 16,-241.5 16,-16.5 901,-16.5 901,-241.5"/>
<polygon fill="#eeeeee" stroke="transparent" points="24.5,-203 24.5,-237 893.5,-237 893.5,-203 24.5,-203"/>
<polygon fill="none" stroke="black" points="24.5,-203 24.5,-237 893.5,-237 893.5,-203 24.5,-203"/>
<text text-anchor="start" x="434.5" y="-209.8" font-family="Times,serif" font-weight="bold" font-size="14.00">Cache</text>
<polygon fill="none" stroke="black" points="24.5,-197 24.5,-203 893.5,-203 893.5,-197 24.5,-197"/>
<polygon fill="none" stroke="black" points="24.5,-20 24.5,-197 893.5,-197 893.5,-20 24.5,-20"/>
<text text-anchor="start" x="29.5" y="-180.8" font-family="Times,serif" font-size="14.00">+ __construct(cachePoolAdapter = «unknown»)</text>
<text text-anchor="start" x="29.5" y="-161.8" font-family="Times,serif" font-size="14.00">+ createCachePool(adapter : Symfony\Component\Cache\Adapter\AdapterInterface) : Psr\Cache\CacheItemPoolInterface</text>
<text text-anchor="start" x="29.5" y="-142.8" font-family="Times,serif" font-size="14.00">+ hasItem(filename : string) : bool</text>
<text text-anchor="start" x="29.5" y="-123.8" font-family="Times,serif" font-size="14.00">+ getItem(filename : string) : Psr\Cache\CacheItemInterface</text>
<text text-anchor="start" x="29.5" y="-104.8" font-family="Times,serif" font-size="14.00">+ saveItem(item : Psr\Cache\CacheItemInterface) : bool</text>
<text text-anchor="start" x="29.5" y="-85.8" font-family="Times,serif" font-size="14.00">+ clear(prefix : string = &#39;&#39;) : bool</text>
<text text-anchor="start" x="29.5" y="-66.8" font-family="Times,serif" font-size="14.00">+ isHit(filename : string) : bool</text>
<text text-anchor="start" x="29.5" y="-47.8" font-family="Times,serif" font-size="14.00">+ getCalls() : array</text>
<text text-anchor="start" x="29.5" y="-28.8" font-family="Times,serif" font-size="14.00">+ __debugInfo() : ?array</text>
</g>
</g>
</svg>
