<?xml version="1.0" encoding="UTF-8" standalone="no"?>
<!DOCTYPE svg PUBLIC "-//W3C//DTD SVG 1.1//EN"
 "http://www.w3.org/Graphics/SVG/1.1/DTD/svg11.dtd">
<!-- Generated by graphviz version 2.43.0 (0)
 -->
<!-- Title: %3 Pages: 1 -->
<svg width="1608pt" height="987pt"
 viewBox="0.00 0.00 1608.00 987.00" xmlns="http://www.w3.org/2000/svg" xmlns:xlink="http://www.w3.org/1999/xlink">
<g id="graph0" class="graph" transform="scale(1 1) rotate(0) translate(4 983)">
<title>%3</title>
<g id="clust1" class="cluster">
<title>cluster_0</title>
<polygon fill="#cdaa7d" stroke="black" points="8,-8 8,-971 1592,-971 1592,-8 8,-8"/>
<text text-anchor="middle" x="800" y="-955.8" font-family="Times,serif" font-size="14.00">Overtrue\PHPLint\Configuration</text>
</g>
<!-- Overtrue\\PHPLint\\Configuration\\AbstractOptionsResolver -->
<g id="node1" class="node">
<title>Overtrue\\PHPLint\\Configuration\\AbstractOptionsResolver</title>
<polygon fill="#fefece" stroke="transparent" points="1448,-293 872,-293 872,-163 1448,-163 1448,-293"/>
<polygon fill="#eeeeee" stroke="transparent" points="880,-255 880,-289 1440,-289 1440,-255 880,-255"/>
<polygon fill="none" stroke="black" points="880,-255 880,-289 1440,-289 1440,-255 880,-255"/>
<text text-anchor="start" x="1129.5" y="-275.8" font-family="Times,serif" font-weight="bold" font-size="14.00">«abstract»</text>
<text text-anchor="start" x="1086" y="-261.8" font-family="Times,serif" font-weight="bold" font-size="14.00">AbstractOptionsResolver</text>
<polygon fill="none" stroke="black" points="880,-249 880,-255 1440,-255 1440,-249 880,-249"/>
<polygon fill="none" stroke="black" points="880,-167 880,-249 1440,-249 1440,-167 880,-167"/>
<text text-anchor="start" x="885" y="-232.8" font-family="Times,serif" font-size="14.00">+ __construct(input : Symfony\Component\Console\Input\InputInterface, configuration : array = [])</text>
<text text-anchor="start" x="885" y="-213.8" font-family="Times,serif" font-size="14.00">+ «abstract» factory() : Overtrue\PHPLint\Configuration\Options</text>
<text text-anchor="start" x="885" y="-194.8" font-family="Times,serif" font-size="14.00">+ getOptions() : array</text>
<text text-anchor="start" x="885" y="-175.8" font-family="Times,serif" font-size="14.00">+ getOption(name : string) : ?mixed</text>
</g>
<!-- Overtrue\\PHPLint\\Configuration\\Resolver -->
<g id="node2" class="node">
<title>Overtrue\\PHPLint\\Configuration\\Resolver</title>
<polygon fill="#fefece" stroke="transparent" points="1352.5,-127 967.5,-127 967.5,-16 1352.5,-16 1352.5,-127"/>
<polygon fill="#eeeeee" stroke="transparent" points="976,-88.5 976,-122.5 1345,-122.5 1345,-88.5 976,-88.5"/>
<polygon fill="none" stroke="black" points="976,-88.5 976,-122.5 1345,-122.5 1345,-88.5 976,-88.5"/>
<text text-anchor="start" x="1128" y="-109.3" font-family="Times,serif" font-weight="bold" font-size="14.00">«interface»</text>
<text text-anchor="start" x="1135" y="-95.3" font-family="Times,serif" font-weight="bold" font-size="14.00">Resolver</text>
<polygon fill="none" stroke="black" points="976,-82.5 976,-88.5 1345,-88.5 1345,-82.5 976,-82.5"/>
<polygon fill="none" stroke="black" points="976,-19.5 976,-82.5 1345,-82.5 1345,-19.5 976,-19.5"/>
<text text-anchor="start" x="981" y="-66.3" font-family="Times,serif" font-size="14.00">+ «abstract» factory() : Overtrue\PHPLint\Configuration\Options</text>
<text text-anchor="start" x="981" y="-47.3" font-family="Times,serif" font-size="14.00">+ «abstract» getOptions() : array</text>
<text text-anchor="start" x="981" y="-28.3" font-family="Times,serif" font-size="14.00">+ «abstract» getOption(name : string) : ?mixed</text>
</g>
<!-- Overtrue\\PHPLint\\Configuration\\AbstractOptionsResolver&#45;&gt;Overtrue\\PHPLint\\Configuration\\Resolver -->
<g id="edge1" class="edge">
<title>Overtrue\\PHPLint\\Configuration\\AbstractOptionsResolver&#45;&gt;Overtrue\\PHPLint\\Configuration\\Resolver</title>
<path fill="none" stroke="black" stroke-dasharray="5,2" d="M1160,-162.82C1160,-154.45 1160,-145.87 1160,-137.49"/>
<polygon fill="none" stroke="black" points="1163.5,-137.39 1160,-127.39 1156.5,-137.39 1163.5,-137.39"/>
</g>
<!-- Overtrue\\PHPLint\\Configuration\\ConsoleOptionsResolver -->
<g id="node3" class="node">
<title>Overtrue\\PHPLint\\Configuration\\ConsoleOptionsResolver</title>
<polygon fill="#fefece" stroke="transparent" points="1584,-671 1258,-671 1258,-598 1584,-598 1584,-671"/>
<polygon fill="#eeeeee" stroke="transparent" points="1266,-632.5 1266,-666.5 1576,-666.5 1576,-632.5 1266,-632.5"/>
<polygon fill="none" stroke="black" points="1266,-632.5 1266,-666.5 1576,-666.5 1576,-632.5 1266,-632.5"/>
<text text-anchor="start" x="1349.5" y="-639.3" font-family="Times,serif" font-weight="bold" font-size="14.00">ConsoleOptionsResolver</text>
<polygon fill="none" stroke="black" points="1266,-626.5 1266,-632.5 1576,-632.5 1576,-626.5 1266,-626.5"/>
<polygon fill="none" stroke="black" points="1266,-601.5 1266,-626.5 1576,-626.5 1576,-601.5 1266,-601.5"/>
<text text-anchor="start" x="1271" y="-610.3" font-family="Times,serif" font-size="14.00">+ factory() : Overtrue\PHPLint\Configuration\Options</text>
</g>
<!-- Overtrue\\PHPLint\\Configuration\\ConsoleOptionsResolver&#45;&gt;Overtrue\\PHPLint\\Configuration\\AbstractOptionsResolver -->
<g id="edge2" class="edge">
<title>Overtrue\\PHPLint\\Configuration\\ConsoleOptionsResolver&#45;&gt;Overtrue\\PHPLint\\Configuration\\AbstractOptionsResolver</title>
<path fill="none" stroke="black" d="M1403.96,-597.78C1375.39,-539.34 1314.51,-420.62 1249,-329 1242.29,-319.62 1234.84,-310.12 1227.19,-300.9"/>
<polygon fill="none" stroke="black" points="1229.85,-298.62 1220.73,-293.23 1224.5,-303.13 1229.85,-298.62"/>
</g>
<!-- Overtrue\\PHPLint\\Configuration\\FileOptionsResolver -->
<g id="node4" class="node">
<title>Overtrue\\PHPLint\\Configuration\\FileOptionsResolver</title>
<polygon fill="#fefece" stroke="transparent" points="1240,-680.5 808,-680.5 808,-588.5 1240,-588.5 1240,-680.5"/>
<polygon fill="#eeeeee" stroke="transparent" points="816,-642.5 816,-676.5 1232,-676.5 1232,-642.5 816,-642.5"/>
<polygon fill="none" stroke="black" points="816,-642.5 816,-676.5 1232,-676.5 1232,-642.5 816,-642.5"/>
<text text-anchor="start" x="964.5" y="-649.3" font-family="Times,serif" font-weight="bold" font-size="14.00">FileOptionsResolver</text>
<polygon fill="none" stroke="black" points="816,-636.5 816,-642.5 1232,-642.5 1232,-636.5 816,-636.5"/>
<polygon fill="none" stroke="black" points="816,-592.5 816,-636.5 1232,-636.5 1232,-592.5 816,-592.5"/>
<text text-anchor="start" x="821" y="-620.3" font-family="Times,serif" font-size="14.00">+ __construct(input : Symfony\Component\Console\Input\InputInterface)</text>
<text text-anchor="start" x="821" y="-601.3" font-family="Times,serif" font-size="14.00">+ factory() : Overtrue\PHPLint\Configuration\Options</text>
</g>
<!-- Overtrue\\PHPLint\\Configuration\\FileOptionsResolver&#45;&gt;Overtrue\\PHPLint\\Configuration\\AbstractOptionsResolver -->
<g id="edge3" class="edge">
<title>Overtrue\\PHPLint\\Configuration\\FileOptionsResolver&#45;&gt;Overtrue\\PHPLint\\Configuration\\AbstractOptionsResolver</title>
<path fill="none" stroke="black" d="M1039.21,-588.28C1062.47,-519.07 1107.16,-386.16 1135.18,-302.84"/>
<polygon fill="none" stroke="black" points="1138.55,-303.77 1138.42,-293.18 1131.92,-301.54 1138.55,-303.77"/>
</g>
<!-- Overtrue\\PHPLint\\Configuration\\OptionDefinition -->
<g id="node5" class="node">
<title>Overtrue\\PHPLint\\Configuration\\OptionDefinition</title>
<polygon fill="#fefece" stroke="transparent" points="790,-940 228,-940 228,-329 790,-329 790,-940"/>
<polygon fill="#eeeeee" stroke="transparent" points="236,-901.5 236,-935.5 782,-935.5 782,-901.5 236,-901.5"/>
<polygon fill="none" stroke="black" points="236,-901.5 236,-935.5 782,-935.5 782,-901.5 236,-901.5"/>
<text text-anchor="start" x="476.5" y="-922.3" font-family="Times,serif" font-weight="bold" font-size="14.00">«interface»</text>
<text text-anchor="start" x="459" y="-908.3" font-family="Times,serif" font-weight="bold" font-size="14.00">OptionDefinition</text>
<polygon fill="none" stroke="black" points="236,-344.5 236,-901.5 782,-901.5 782,-344.5 236,-344.5"/>
<text text-anchor="start" x="241" y="-885.3" font-family="Times,serif" font-size="14.00">+ «static» JOBS : string = &quot;jobs&quot; {readOnly}</text>
<text text-anchor="start" x="241" y="-866.3" font-family="Times,serif" font-size="14.00">+ «static» PATH : string = &quot;path&quot; {readOnly}</text>
<text text-anchor="start" x="241" y="-847.3" font-family="Times,serif" font-size="14.00">+ «static» EXCLUDE : string = &quot;exclude&quot; {readOnly}</text>
<text text-anchor="start" x="241" y="-828.3" font-family="Times,serif" font-size="14.00">+ «static» EXTENSIONS : string = &quot;extensions&quot; {readOnly}</text>
<text text-anchor="start" x="241" y="-809.3" font-family="Times,serif" font-size="14.00">+ «static» WARNING : string = &quot;warning&quot; {readOnly}</text>
<text text-anchor="start" x="241" y="-790.3" font-family="Times,serif" font-size="14.00">+ «static» CACHE : string = &quot;cache&quot; {readOnly}</text>
<text text-anchor="start" x="241" y="-771.3" font-family="Times,serif" font-size="14.00">+ «static» NO_CACHE : string = &quot;no\&#45;cache&quot; {readOnly}</text>
<text text-anchor="start" x="241" y="-752.3" font-family="Times,serif" font-size="14.00">+ «static» CACHE_TTL : string = &quot;cache\&#45;ttl&quot; {readOnly}</text>
<text text-anchor="start" x="241" y="-733.3" font-family="Times,serif" font-size="14.00">+ «static» CONFIGURATION : string = &quot;configuration&quot; {readOnly}</text>
<text text-anchor="start" x="241" y="-714.3" font-family="Times,serif" font-size="14.00">+ «static» NO_CONFIGURATION : string = &quot;no\&#45;configuration&quot; {readOnly}</text>
<text text-anchor="start" x="241" y="-695.3" font-family="Times,serif" font-size="14.00">+ «static» OPTION_MEMORY_LIMIT : string = &quot;memory\&#45;limit&quot; {readOnly}</text>
<text text-anchor="start" x="241" y="-676.3" font-family="Times,serif" font-size="14.00">+ «static» PROGRESS : string = &quot;progress&quot; {readOnly}</text>
<text text-anchor="start" x="241" y="-657.3" font-family="Times,serif" font-size="14.00">+ «static» NO_PROGRESS : string = &quot;no\&#45;progress&quot; {readOnly}</text>
<text text-anchor="start" x="241" y="-638.3" font-family="Times,serif" font-size="14.00">+ «static» OUTPUT_FILE : string = &quot;output&quot; {readOnly}</text>
<text text-anchor="start" x="241" y="-619.3" font-family="Times,serif" font-size="14.00">+ «static» OUTPUT_FORMAT : string = &quot;format&quot; {readOnly}</text>
<text text-anchor="start" x="241" y="-600.3" font-family="Times,serif" font-size="14.00">+ «static» IGNORE_EXIT_CODE : string = &quot;ignore\&#45;exit\&#45;code&quot; {readOnly}</text>
<text text-anchor="start" x="241" y="-581.3" font-family="Times,serif" font-size="14.00">+ «static» BOOTSTRAP : string = &quot;bootstrap&quot; {readOnly}</text>
<text text-anchor="start" x="241" y="-562.3" font-family="Times,serif" font-size="14.00">+ «static» DEFAULT_JOBS : int = 5 {readOnly}</text>
<text text-anchor="start" x="241" y="-543.3" font-family="Times,serif" font-size="14.00">+ «static» DEFAULT_PATH : string = &quot;\.&quot; {readOnly}</text>
<text text-anchor="start" x="241" y="-524.3" font-family="Times,serif" font-size="14.00">+ «static» DEFAULT_EXCLUDES : array = [] {readOnly}</text>
<text text-anchor="start" x="241" y="-505.3" font-family="Times,serif" font-size="14.00">+ «static» DEFAULT_EXTENSIONS : array = […] {readOnly}</text>
<text text-anchor="start" x="241" y="-486.3" font-family="Times,serif" font-size="14.00">+ «static» DEFAULT_CACHE_DIR : string = &quot;\.phplint\.cache&quot; {readOnly}</text>
<text text-anchor="start" x="241" y="-467.3" font-family="Times,serif" font-size="14.00">+ «static» DEFAULT_CACHE_TTL : int = 0 {readOnly}</text>
<text text-anchor="start" x="241" y="-448.3" font-family="Times,serif" font-size="14.00">+ «static» DEFAULT_CONFIG_FILE : string = &quot;\.phplint\.yml&quot; {readOnly}</text>
<text text-anchor="start" x="241" y="-429.3" font-family="Times,serif" font-size="14.00">+ «static» DEFAULT_PROGRESS_WIDGET : string = &quot;printer&quot; {readOnly}</text>
<text text-anchor="start" x="241" y="-410.3" font-family="Times,serif" font-size="14.00">+ «static» DEFAULT_STANDARD_OUTPUT_LABEL : string = &quot;standard\ output&quot; {readOnly}</text>
<text text-anchor="start" x="241" y="-391.3" font-family="Times,serif" font-size="14.00">+ «static» DEFAULT_STANDARD_OUTPUT : string = &quot;php\:\/\/stdout&quot; {readOnly}</text>
<text text-anchor="start" x="241" y="-372.3" font-family="Times,serif" font-size="14.00">+ «static» DEFAULT_BOOTSTRAP : string = &quot;&quot; {readOnly}</text>
<text text-anchor="start" x="241" y="-353.3" font-family="Times,serif" font-size="14.00">+ «static» DEFAULT_FORMATS : array = […] {readOnly}</text>
<polygon fill="none" stroke="black" points="236,-338.5 236,-344.5 782,-344.5 782,-338.5 236,-338.5"/>
<polygon fill="none" stroke="black" points="236,-332.5 236,-338.5 782,-338.5 782,-332.5 236,-332.5"/>
</g>
<!-- Overtrue\\PHPLint\\Configuration\\Options -->
<g id="node6" class="node">
<title>Overtrue\\PHPLint\\Configuration\\Options</title>
<polygon fill="#fefece" stroke="transparent" points="206,-264.5 20,-264.5 20,-191.5 206,-191.5 206,-264.5"/>
<polygon fill="#eeeeee" stroke="transparent" points="28,-226 28,-260 198,-260 198,-226 28,-226"/>
<polygon fill="none" stroke="black" points="28,-226 28,-260 198,-260 198,-226 28,-226"/>
<text text-anchor="start" x="80.5" y="-246.8" font-family="Times,serif" font-weight="bold" font-size="14.00">«interface»</text>
<text text-anchor="start" x="89.5" y="-232.8" font-family="Times,serif" font-weight="bold" font-size="14.00">Options</text>
<polygon fill="none" stroke="black" points="28,-220 28,-226 198,-226 198,-220 28,-220"/>
<polygon fill="none" stroke="black" points="28,-195 28,-220 198,-220 198,-195 28,-195"/>
<text text-anchor="start" x="33" y="-203.8" font-family="Times,serif" font-size="14.00">+ «abstract» resolve() : array</text>
</g>
<!-- Overtrue\\PHPLint\\Configuration\\OptionsFactory -->
<g id="node7" class="node">
<title>Overtrue\\PHPLint\\Configuration\\OptionsFactory</title>
<polygon fill="#fefece" stroke="transparent" points="210,-680.5 16,-680.5 16,-588.5 210,-588.5 210,-680.5"/>
<polygon fill="#eeeeee" stroke="transparent" points="24,-642.5 24,-676.5 202,-676.5 202,-642.5 24,-642.5"/>
<polygon fill="none" stroke="black" points="24,-642.5 24,-676.5 202,-676.5 202,-642.5 24,-642.5"/>
<text text-anchor="start" x="67" y="-649.3" font-family="Times,serif" font-weight="bold" font-size="14.00">OptionsFactory</text>
<polygon fill="none" stroke="black" points="24,-636.5 24,-642.5 202,-642.5 202,-636.5 24,-636.5"/>
<polygon fill="none" stroke="black" points="24,-592.5 24,-636.5 202,-636.5 202,-592.5 24,-592.5"/>
<text text-anchor="start" x="29" y="-620.3" font-family="Times,serif" font-size="14.00">+ __construct(defaults : array)</text>
<text text-anchor="start" x="29" y="-601.3" font-family="Times,serif" font-size="14.00">+ resolve() : array</text>
</g>
<!-- Overtrue\\PHPLint\\Configuration\\OptionsFactory&#45;&gt;Overtrue\\PHPLint\\Configuration\\Options -->
<g id="edge4" class="edge">
<title>Overtrue\\PHPLint\\Configuration\\OptionsFactory&#45;&gt;Overtrue\\PHPLint\\Configuration\\Options</title>
<path fill="none" stroke="black" stroke-dasharray="5,2" d="M113,-588.28C113,-510.7 113,-353.08 113,-274.99"/>
<polygon fill="none" stroke="black" points="116.5,-274.51 113,-264.51 109.5,-274.51 116.5,-274.51"/>
</g>
</g>
</svg>
