<?xml version="1.0" encoding="UTF-8" standalone="no"?>
<!DOCTYPE svg PUBLIC "-//W3C//DTD SVG 1.1//EN"
 "http://www.w3.org/Graphics/SVG/1.1/DTD/svg11.dtd">
<!-- Generated by graphviz version 2.40.1 (20161225.0304)
 -->
<!-- Title: %3 Pages: 1 -->
<svg width="1954pt" height="892pt"
 viewBox="0.00 0.00 1954.00 892.00" xmlns="http://www.w3.org/2000/svg" xmlns:xlink="http://www.w3.org/1999/xlink">
<g id="graph0" class="graph" transform="scale(1 1) rotate(0) translate(4 888)">
<title>%3</title>
<g id="clust1" class="cluster">
<title>cluster_0</title>
<polygon fill="#deb887" stroke="#000000" points="8,-8 8,-876 1938,-876 1938,-8 8,-8"/>
<text text-anchor="middle" x="973" y="-860.8" font-family="Times,serif" font-size="14.00" fill="#000000">Overtrue\PHPLint\Configuration</text>
</g>
<!-- Overtrue\\PHPLint\\Configuration\\Options -->
<g id="node1" class="node">
<title>Overtrue\\PHPLint\\Configuration\\Options</title>
<polygon fill="#fefece" stroke="transparent" points="204.5,-264.5 19.5,-264.5 19.5,-191.5 204.5,-191.5 204.5,-264.5"/>
<polygon fill="#eeeeee" stroke="transparent" points="28,-226 28,-260 197,-260 197,-226 28,-226"/>
<polygon fill="none" stroke="#000000" points="28,-226 28,-260 197,-260 197,-226 28,-226"/>
<text text-anchor="start" x="80" y="-246.8" font-family="Times,serif" font-weight="bold" font-size="14.00" fill="#000000">«interface»</text>
<text text-anchor="start" x="89" y="-232.8" font-family="Times,serif" font-weight="bold" font-size="14.00" fill="#000000">Options</text>
<polygon fill="none" stroke="#000000" points="28,-220 28,-226 197,-226 197,-220 28,-220"/>
<polygon fill="none" stroke="#000000" points="28,-195 28,-220 197,-220 197,-195 28,-195"/>
<text text-anchor="start" x="33" y="-203.8" font-family="Times,serif" font-size="14.00" fill="#000000">+ «abstract» resolve() : array</text>
</g>
<!-- Overtrue\\PHPLint\\Configuration\\Resolver -->
<g id="node2" class="node">
<title>Overtrue\\PHPLint\\Configuration\\Resolver</title>
<polygon fill="#fefece" stroke="transparent" points="1266.5,-127 885.5,-127 885.5,-16 1266.5,-16 1266.5,-127"/>
<polygon fill="#eeeeee" stroke="transparent" points="894,-88.5 894,-122.5 1259,-122.5 1259,-88.5 894,-88.5"/>
<polygon fill="none" stroke="#000000" points="894,-88.5 894,-122.5 1259,-122.5 1259,-88.5 894,-88.5"/>
<text text-anchor="start" x="1044" y="-109.3" font-family="Times,serif" font-weight="bold" font-size="14.00" fill="#000000">«interface»</text>
<text text-anchor="start" x="1051" y="-95.3" font-family="Times,serif" font-weight="bold" font-size="14.00" fill="#000000">Resolver</text>
<polygon fill="none" stroke="#000000" points="894,-82.5 894,-88.5 1259,-88.5 1259,-82.5 894,-82.5"/>
<polygon fill="none" stroke="#000000" points="894,-19.5 894,-82.5 1259,-82.5 1259,-19.5 894,-19.5"/>
<text text-anchor="start" x="899" y="-66.3" font-family="Times,serif" font-size="14.00" fill="#000000">+ «abstract» factory() : Overtrue\PHPLint\Configuration\Options</text>
<text text-anchor="start" x="899" y="-47.3" font-family="Times,serif" font-size="14.00" fill="#000000">+ «abstract» getOptions() : array</text>
<text text-anchor="start" x="899" y="-28.3" font-family="Times,serif" font-size="14.00" fill="#000000">+ «abstract» getOption(name : string) : ?mixed</text>
</g>
<!-- Overtrue\\PHPLint\\Configuration\\FileOptionsResolver -->
<g id="node3" class="node">
<title>Overtrue\\PHPLint\\Configuration\\FileOptionsResolver</title>
<polygon fill="#fefece" stroke="transparent" points="1930.5,-633 1145.5,-633 1145.5,-541 1930.5,-541 1930.5,-633"/>
<polygon fill="#eeeeee" stroke="transparent" points="1154,-595 1154,-629 1923,-629 1923,-595 1154,-595"/>
<polygon fill="none" stroke="#000000" points="1154,-595 1154,-629 1923,-629 1923,-595 1154,-595"/>
<text text-anchor="start" x="1479" y="-601.8" font-family="Times,serif" font-weight="bold" font-size="14.00" fill="#000000">FileOptionsResolver</text>
<polygon fill="none" stroke="#000000" points="1154,-589 1154,-595 1923,-595 1923,-589 1154,-589"/>
<polygon fill="none" stroke="#000000" points="1154,-545 1154,-589 1923,-589 1923,-545 1154,-545"/>
<text text-anchor="start" x="1159" y="-572.8" font-family="Times,serif" font-size="14.00" fill="#000000">+ __construct(input : Symfony\Component\Console\Input\InputInterface, definition : Symfony\Component\Console\Input\InputDefinition)</text>
<text text-anchor="start" x="1159" y="-553.8" font-family="Times,serif" font-size="14.00" fill="#000000">+ factory() : Overtrue\PHPLint\Configuration\Options</text>
</g>
<!-- Overtrue\\PHPLint\\Configuration\\AbstractOptionsResolver -->
<g id="node4" class="node">
<title>Overtrue\\PHPLint\\Configuration\\AbstractOptionsResolver</title>
<polygon fill="#fefece" stroke="transparent" points="1540.5,-293 611.5,-293 611.5,-163 1540.5,-163 1540.5,-293"/>
<polygon fill="#eeeeee" stroke="transparent" points="620,-255 620,-289 1533,-289 1533,-255 620,-255"/>
<polygon fill="none" stroke="#000000" points="620,-255 620,-289 1533,-289 1533,-255 620,-255"/>
<text text-anchor="start" x="1046" y="-275.8" font-family="Times,serif" font-weight="bold" font-size="14.00" fill="#000000">«abstract»</text>
<text text-anchor="start" x="1002.5" y="-261.8" font-family="Times,serif" font-weight="bold" font-size="14.00" fill="#000000">AbstractOptionsResolver</text>
<polygon fill="none" stroke="#000000" points="620,-249 620,-255 1533,-255 1533,-249 620,-249"/>
<polygon fill="none" stroke="#000000" points="620,-167 620,-249 1533,-249 1533,-167 620,-167"/>
<text text-anchor="start" x="625" y="-232.8" font-family="Times,serif" font-size="14.00" fill="#000000">+ __construct(input : Symfony\Component\Console\Input\InputInterface, definition : Symfony\Component\Console\Input\InputDefinition, configuration : array = [])</text>
<text text-anchor="start" x="625" y="-213.8" font-family="Times,serif" font-size="14.00" fill="#000000">+ «abstract» factory() : Overtrue\PHPLint\Configuration\Options</text>
<text text-anchor="start" x="625" y="-194.8" font-family="Times,serif" font-size="14.00" fill="#000000">+ getOptions() : array</text>
<text text-anchor="start" x="625" y="-175.8" font-family="Times,serif" font-size="14.00" fill="#000000">+ getOption(name : string) : ?mixed</text>
</g>
<!-- Overtrue\\PHPLint\\Configuration\\FileOptionsResolver&#45;&gt;Overtrue\\PHPLint\\Configuration\\AbstractOptionsResolver -->
<g id="edge2" class="edge">
<title>Overtrue\\PHPLint\\Configuration\\FileOptionsResolver&#45;&gt;Overtrue\\PHPLint\\Configuration\\AbstractOptionsResolver</title>
<path fill="none" stroke="#000000" d="M1478.5474,-540.802C1399.8091,-479.6179 1260.152,-371.0965 1167.8111,-299.3424"/>
<polygon fill="none" stroke="#000000" points="1169.9042,-296.5364 1159.8603,-293.1642 1165.6091,-302.0638 1169.9042,-296.5364"/>
</g>
<!-- Overtrue\\PHPLint\\Configuration\\AbstractOptionsResolver&#45;&gt;Overtrue\\PHPLint\\Configuration\\Resolver -->
<g id="edge1" class="edge">
<title>Overtrue\\PHPLint\\Configuration\\AbstractOptionsResolver&#45;&gt;Overtrue\\PHPLint\\Configuration\\Resolver</title>
<path fill="none" stroke="#000000" stroke-dasharray="5,2" d="M1076,-162.9895C1076,-154.5114 1076,-145.8197 1076,-137.3283"/>
<polygon fill="none" stroke="#000000" points="1079.5001,-137.0977 1076,-127.0978 1072.5001,-137.0978 1079.5001,-137.0977"/>
</g>
<!-- Overtrue\\PHPLint\\Configuration\\OptionDefinition -->
<g id="node5" class="node">
<title>Overtrue\\PHPLint\\Configuration\\OptionDefinition</title>
<polygon fill="#fefece" stroke="transparent" points="1127.5,-845 566.5,-845 566.5,-329 1127.5,-329 1127.5,-845"/>
<polygon fill="#eeeeee" stroke="transparent" points="575,-807 575,-841 1120,-841 1120,-807 575,-807"/>
<polygon fill="none" stroke="#000000" points="575,-807 575,-841 1120,-841 1120,-807 575,-807"/>
<text text-anchor="start" x="815" y="-827.8" font-family="Times,serif" font-weight="bold" font-size="14.00" fill="#000000">«interface»</text>
<text text-anchor="start" x="797.5" y="-813.8" font-family="Times,serif" font-weight="bold" font-size="14.00" fill="#000000">OptionDefinition</text>
<polygon fill="none" stroke="#000000" points="575,-345 575,-807 1120,-807 1120,-345 575,-345"/>
<text text-anchor="start" x="580" y="-790.8" font-family="Times,serif" font-size="14.00" fill="#000000">+ «static» OPTION_JOBS : string = &quot;jobs&quot; {readOnly}</text>
<text text-anchor="start" x="580" y="-771.8" font-family="Times,serif" font-size="14.00" fill="#000000">+ «static» OPTION_PATH : string = &quot;path&quot; {readOnly}</text>
<text text-anchor="start" x="580" y="-752.8" font-family="Times,serif" font-size="14.00" fill="#000000">+ «static» OPTION_EXCLUDE : string = &quot;exclude&quot; {readOnly}</text>
<text text-anchor="start" x="580" y="-733.8" font-family="Times,serif" font-size="14.00" fill="#000000">+ «static» OPTION_EXTENSIONS : string = &quot;extensions&quot; {readOnly}</text>
<text text-anchor="start" x="580" y="-714.8" font-family="Times,serif" font-size="14.00" fill="#000000">+ «static» OPTION_WARNING : string = &quot;warning&quot; {readOnly}</text>
<text text-anchor="start" x="580" y="-695.8" font-family="Times,serif" font-size="14.00" fill="#000000">+ «static» OPTION_CACHE : string = &quot;cache&quot; {readOnly}</text>
<text text-anchor="start" x="580" y="-676.8" font-family="Times,serif" font-size="14.00" fill="#000000">+ «static» OPTION_NO_CACHE : string = &quot;no\&#45;cache&quot; {readOnly}</text>
<text text-anchor="start" x="580" y="-657.8" font-family="Times,serif" font-size="14.00" fill="#000000">+ «static» OPTION_CONFIG_FILE : string = &quot;configuration&quot; {readOnly}</text>
<text text-anchor="start" x="580" y="-638.8" font-family="Times,serif" font-size="14.00" fill="#000000">+ «static» OPTION_NO_CONFIG_FILE : string = &quot;no\&#45;configuration&quot; {readOnly}</text>
<text text-anchor="start" x="580" y="-619.8" font-family="Times,serif" font-size="14.00" fill="#000000">+ «static» OPTION_MEMORY_LIMIT : string = &quot;memory\&#45;limit&quot; {readOnly}</text>
<text text-anchor="start" x="580" y="-600.8" font-family="Times,serif" font-size="14.00" fill="#000000">+ «static» OPTION_PROGRESS : string = &quot;progress&quot; {readOnly}</text>
<text text-anchor="start" x="580" y="-581.8" font-family="Times,serif" font-size="14.00" fill="#000000">+ «static» OPTION_NO_PROGRESS : string = &quot;no\&#45;progress&quot; {readOnly}</text>
<text text-anchor="start" x="580" y="-562.8" font-family="Times,serif" font-size="14.00" fill="#000000">+ «static» OPTION_JSON_FILE : string = &quot;log\&#45;json&quot; {readOnly}</text>
<text text-anchor="start" x="580" y="-543.8" font-family="Times,serif" font-size="14.00" fill="#000000">+ «static» OPTION_JUNIT_FILE : string = &quot;log\&#45;junit&quot; {readOnly}</text>
<text text-anchor="start" x="580" y="-524.8" font-family="Times,serif" font-size="14.00" fill="#000000">+ «static» OPTION_IGNORE_EXIT_CODE : string = &quot;ignore\&#45;exit\&#45;code&quot; {readOnly}</text>
<text text-anchor="start" x="580" y="-505.8" font-family="Times,serif" font-size="14.00" fill="#000000">+ «static» DEFAULT_JOBS : int = 5 {readOnly}</text>
<text text-anchor="start" x="580" y="-486.8" font-family="Times,serif" font-size="14.00" fill="#000000">+ «static» DEFAULT_PATH : string = &quot;\.&quot; {readOnly}</text>
<text text-anchor="start" x="580" y="-467.8" font-family="Times,serif" font-size="14.00" fill="#000000">+ «static» DEFAULT_EXCLUDES : array = [] {readOnly}</text>
<text text-anchor="start" x="580" y="-448.8" font-family="Times,serif" font-size="14.00" fill="#000000">+ «static» DEFAULT_EXTENSIONS : array = […] {readOnly}</text>
<text text-anchor="start" x="580" y="-429.8" font-family="Times,serif" font-size="14.00" fill="#000000">+ «static» DEFAULT_CACHE_DIR : string = &quot;\.phplint\.cache&quot; {readOnly}</text>
<text text-anchor="start" x="580" y="-410.8" font-family="Times,serif" font-size="14.00" fill="#000000">+ «static» DEFAULT_CONFIG_FILE : string = &quot;\.phplint\.yml&quot; {readOnly}</text>
<text text-anchor="start" x="580" y="-391.8" font-family="Times,serif" font-size="14.00" fill="#000000">+ «static» DEFAULT_PROGRESS_WIDGET : string = &quot;printer&quot; {readOnly}</text>
<text text-anchor="start" x="580" y="-372.8" font-family="Times,serif" font-size="14.00" fill="#000000">+ «static» DEFAULT_STANDARD_OUTPUT_LABEL : string = &quot;standard\ output&quot; {readOnly}</text>
<text text-anchor="start" x="580" y="-353.8" font-family="Times,serif" font-size="14.00" fill="#000000">+ «static» DEFAULT_STANDARD_OUTPUT : string = &quot;php\:\/\/stdout&quot; {readOnly}</text>
<polygon fill="none" stroke="#000000" points="575,-339 575,-345 1120,-345 1120,-339 575,-339"/>
<polygon fill="none" stroke="#000000" points="575,-333 575,-339 1120,-339 1120,-333 575,-333"/>
</g>
<!-- Overtrue\\PHPLint\\Configuration\\ConsoleOptionsResolver -->
<g id="node6" class="node">
<title>Overtrue\\PHPLint\\Configuration\\ConsoleOptionsResolver</title>
<polygon fill="#fefece" stroke="transparent" points="548,-623.5 226,-623.5 226,-550.5 548,-550.5 548,-623.5"/>
<polygon fill="#eeeeee" stroke="transparent" points="234,-585 234,-619 540,-619 540,-585 234,-585"/>
<polygon fill="none" stroke="#000000" points="234,-585 234,-619 540,-619 540,-585 234,-585"/>
<text text-anchor="start" x="315.5" y="-591.8" font-family="Times,serif" font-weight="bold" font-size="14.00" fill="#000000">ConsoleOptionsResolver</text>
<polygon fill="none" stroke="#000000" points="234,-579 234,-585 540,-585 540,-579 234,-579"/>
<polygon fill="none" stroke="#000000" points="234,-554 234,-579 540,-579 540,-554 234,-554"/>
<text text-anchor="start" x="239" y="-562.8" font-family="Times,serif" font-size="14.00" fill="#000000">+ factory() : Overtrue\PHPLint\Configuration\Options</text>
</g>
<!-- Overtrue\\PHPLint\\Configuration\\ConsoleOptionsResolver&#45;&gt;Overtrue\\PHPLint\\Configuration\\AbstractOptionsResolver -->
<g id="edge3" class="edge">
<title>Overtrue\\PHPLint\\Configuration\\ConsoleOptionsResolver&#45;&gt;Overtrue\\PHPLint\\Configuration\\AbstractOptionsResolver</title>
<path fill="none" stroke="#000000" d="M400.4609,-550.2902C423.416,-493.1815 475.7865,-383.9303 558,-329 576.1393,-316.8804 605.4536,-305.7749 641.1581,-295.7256"/>
<polygon fill="none" stroke="#000000" points="642.1629,-299.0793 650.8796,-293.0569 640.3098,-292.3291 642.1629,-299.0793"/>
</g>
<!-- Overtrue\\PHPLint\\Configuration\\OptionsFactory -->
<g id="node7" class="node">
<title>Overtrue\\PHPLint\\Configuration\\OptionsFactory</title>
<polygon fill="#fefece" stroke="transparent" points="208,-633 16,-633 16,-541 208,-541 208,-633"/>
<polygon fill="#eeeeee" stroke="transparent" points="24,-595 24,-629 200,-629 200,-595 24,-595"/>
<polygon fill="none" stroke="#000000" points="24,-595 24,-629 200,-629 200,-595 24,-595"/>
<text text-anchor="start" x="66" y="-601.8" font-family="Times,serif" font-weight="bold" font-size="14.00" fill="#000000">OptionsFactory</text>
<polygon fill="none" stroke="#000000" points="24,-589 24,-595 200,-595 200,-589 24,-589"/>
<polygon fill="none" stroke="#000000" points="24,-545 24,-589 200,-589 200,-545 24,-545"/>
<text text-anchor="start" x="29" y="-572.8" font-family="Times,serif" font-size="14.00" fill="#000000">+ __construct(defaults : array)</text>
<text text-anchor="start" x="29" y="-553.8" font-family="Times,serif" font-size="14.00" fill="#000000">+ resolve() : array</text>
</g>
<!-- Overtrue\\PHPLint\\Configuration\\OptionsFactory&#45;&gt;Overtrue\\PHPLint\\Configuration\\Options -->
<g id="edge4" class="edge">
<title>Overtrue\\PHPLint\\Configuration\\OptionsFactory&#45;&gt;Overtrue\\PHPLint\\Configuration\\Options</title>
<path fill="none" stroke="#000000" stroke-dasharray="5,2" d="M112,-540.802C112,-472.0829 112,-343.6491 112,-274.6623"/>
<polygon fill="none" stroke="#000000" points="115.5001,-274.5241 112,-264.5241 108.5001,-274.5242 115.5001,-274.5241"/>
</g>
</g>
</svg>
