<?xml version="1.0" encoding="UTF-8" standalone="no"?>
<!DOCTYPE svg PUBLIC "-//W3C//DTD SVG 1.1//EN"
 "http://www.w3.org/Graphics/SVG/1.1/DTD/svg11.dtd">
<!-- Generated by graphviz version 2.42.4 (0)
 -->
<!-- Pages: 1 -->
<svg width="1976pt" height="1006pt"
 viewBox="0.00 0.00 1976.00 1006.00" xmlns="http://www.w3.org/2000/svg" xmlns:xlink="http://www.w3.org/1999/xlink">
<g id="graph0" class="graph" transform="scale(1 1) rotate(0) translate(4 1002)">
<g id="clust1" class="cluster">
<title>cluster_0</title>
<polygon fill="#cdaa7d" stroke="black" points="8,-8 8,-990 1960,-990 1960,-8 8,-8"/>
<text text-anchor="middle" x="984" y="-974.8" font-family="Times,serif" font-size="14.00">Overtrue\PHPLint\Configuration</text>
</g>
<!-- Overtrue\\PHPLint\\Configuration\\AbstractOptionsResolver -->
<g id="node1" class="node">
<title>Overtrue\\PHPLint\\Configuration\\AbstractOptionsResolver</title>
<polygon fill="#fefece" stroke="transparent" points="1785,-293 1053,-293 1053,-163 1785,-163 1785,-293"/>
<polygon fill="#eeeeee" stroke="transparent" points="1061,-255 1061,-289 1777,-289 1777,-255 1061,-255"/>
<polygon fill="none" stroke="black" points="1061,-255 1061,-289 1777,-289 1777,-255 1061,-255"/>
<text text-anchor="start" x="1377" y="-275.8" font-family="Times,serif" font-weight="bold" font-size="14.00">«abstract»</text>
<text text-anchor="start" x="1320.5" y="-261.8" font-family="Times,serif" font-weight="bold" font-size="14.00">AbstractOptionsResolver</text>
<polygon fill="none" stroke="black" points="1061,-249 1061,-255 1777,-255 1777,-249 1061,-249"/>
<polygon fill="none" stroke="black" points="1061,-167 1061,-249 1777,-249 1777,-167 1061,-167"/>
<text text-anchor="start" x="1066" y="-232.8" font-family="Times,serif" font-size="14.00">+ __construct(input : Symfony\Component\Console\Input\InputInterface, configuration : array = [])</text>
<text text-anchor="start" x="1066" y="-213.8" font-family="Times,serif" font-size="14.00">+ «abstract» factory() : Overtrue\PHPLint\Configuration\Options</text>
<text text-anchor="start" x="1066" y="-194.8" font-family="Times,serif" font-size="14.00">+ getOptions() : array</text>
<text text-anchor="start" x="1066" y="-175.8" font-family="Times,serif" font-size="14.00">+ getOption(name : string) : ?mixed</text>
</g>
<!-- Overtrue\\PHPLint\\Configuration\\Resolver -->
<g id="node2" class="node">
<title>Overtrue\\PHPLint\\Configuration\\Resolver</title>
<polygon fill="#fefece" stroke="transparent" points="1663.5,-127 1174.5,-127 1174.5,-16 1663.5,-16 1663.5,-127"/>
<polygon fill="#eeeeee" stroke="transparent" points="1183,-88.5 1183,-122.5 1656,-122.5 1656,-88.5 1183,-88.5"/>
<polygon fill="none" stroke="black" points="1183,-88.5 1183,-122.5 1656,-122.5 1656,-88.5 1183,-88.5"/>
<text text-anchor="start" x="1374.5" y="-109.3" font-family="Times,serif" font-weight="bold" font-size="14.00">«interface»</text>
<text text-anchor="start" x="1385" y="-95.3" font-family="Times,serif" font-weight="bold" font-size="14.00">Resolver</text>
<polygon fill="none" stroke="black" points="1183,-82.5 1183,-88.5 1656,-88.5 1656,-82.5 1183,-82.5"/>
<polygon fill="none" stroke="black" points="1183,-19.5 1183,-82.5 1656,-82.5 1656,-19.5 1183,-19.5"/>
<text text-anchor="start" x="1188" y="-66.3" font-family="Times,serif" font-size="14.00">+ «abstract» factory() : Overtrue\PHPLint\Configuration\Options</text>
<text text-anchor="start" x="1188" y="-47.3" font-family="Times,serif" font-size="14.00">+ «abstract» getOptions() : array</text>
<text text-anchor="start" x="1188" y="-28.3" font-family="Times,serif" font-size="14.00">+ «abstract» getOption(name : string) : ?mixed</text>
</g>
<!-- Overtrue\\PHPLint\\Configuration\\AbstractOptionsResolver&#45;&gt;Overtrue\\PHPLint\\Configuration\\Resolver -->
<g id="edge1" class="edge">
<title>Overtrue\\PHPLint\\Configuration\\AbstractOptionsResolver&#45;&gt;Overtrue\\PHPLint\\Configuration\\Resolver</title>
<path fill="none" stroke="black" stroke-dasharray="5,2" d="M1419,-162.82C1419,-154.45 1419,-145.87 1419,-137.49"/>
<polygon fill="none" stroke="black" points="1422.5,-137.39 1419,-127.39 1415.5,-137.39 1422.5,-137.39"/>
</g>
<!-- Overtrue\\PHPLint\\Configuration\\ConsoleOptionsResolver -->
<g id="node3" class="node">
<title>Overtrue\\PHPLint\\Configuration\\ConsoleOptionsResolver</title>
<polygon fill="#fefece" stroke="transparent" points="1952,-680.5 1544,-680.5 1544,-607.5 1952,-607.5 1952,-680.5"/>
<polygon fill="#eeeeee" stroke="transparent" points="1552,-642 1552,-676 1944,-676 1944,-642 1552,-642"/>
<polygon fill="none" stroke="black" points="1552,-642 1552,-676 1944,-676 1944,-642 1552,-642"/>
<text text-anchor="start" x="1651.5" y="-648.8" font-family="Times,serif" font-weight="bold" font-size="14.00">ConsoleOptionsResolver</text>
<polygon fill="none" stroke="black" points="1552,-636 1552,-642 1944,-642 1944,-636 1552,-636"/>
<polygon fill="none" stroke="black" points="1552,-611 1552,-636 1944,-636 1944,-611 1552,-611"/>
<text text-anchor="start" x="1557" y="-619.8" font-family="Times,serif" font-size="14.00">+ factory() : Overtrue\PHPLint\Configuration\Options</text>
</g>
<!-- Overtrue\\PHPLint\\Configuration\\ConsoleOptionsResolver&#45;&gt;Overtrue\\PHPLint\\Configuration\\AbstractOptionsResolver -->
<g id="edge2" class="edge">
<title>Overtrue\\PHPLint\\Configuration\\ConsoleOptionsResolver&#45;&gt;Overtrue\\PHPLint\\Configuration\\AbstractOptionsResolver</title>
<path fill="none" stroke="black" d="M1728.06,-607.4C1693.23,-546.8 1617.15,-421.23 1535,-329 1526.18,-319.09 1516.39,-309.25 1506.34,-299.82"/>
<polygon fill="none" stroke="black" points="1508.71,-297.25 1498.99,-293.04 1503.96,-302.39 1508.71,-297.25"/>
</g>
<!-- Overtrue\\PHPLint\\Configuration\\FileOptionsResolver -->
<g id="node4" class="node">
<title>Overtrue\\PHPLint\\Configuration\\FileOptionsResolver</title>
<polygon fill="#fefece" stroke="transparent" points="1525.5,-690 980.5,-690 980.5,-598 1525.5,-598 1525.5,-690"/>
<polygon fill="#eeeeee" stroke="transparent" points="989,-652 989,-686 1518,-686 1518,-652 989,-652"/>
<polygon fill="none" stroke="black" points="989,-652 989,-686 1518,-686 1518,-652 989,-652"/>
<text text-anchor="start" x="1173.5" y="-658.8" font-family="Times,serif" font-weight="bold" font-size="14.00">FileOptionsResolver</text>
<polygon fill="none" stroke="black" points="989,-646 989,-652 1518,-652 1518,-646 989,-646"/>
<polygon fill="none" stroke="black" points="989,-602 989,-646 1518,-646 1518,-602 989,-602"/>
<text text-anchor="start" x="994" y="-629.8" font-family="Times,serif" font-size="14.00">+ __construct(input : Symfony\Component\Console\Input\InputInterface)</text>
<text text-anchor="start" x="994" y="-610.8" font-family="Times,serif" font-size="14.00">+ factory() : Overtrue\PHPLint\Configuration\Options</text>
</g>
<!-- Overtrue\\PHPLint\\Configuration\\FileOptionsResolver&#45;&gt;Overtrue\\PHPLint\\Configuration\\AbstractOptionsResolver -->
<g id="edge3" class="edge">
<title>Overtrue\\PHPLint\\Configuration\\FileOptionsResolver&#45;&gt;Overtrue\\PHPLint\\Configuration\\AbstractOptionsResolver</title>
<path fill="none" stroke="black" d="M1271.08,-597.91C1299.55,-526.9 1355.11,-388.34 1389.44,-302.71"/>
<polygon fill="none" stroke="black" points="1392.74,-303.89 1393.21,-293.31 1386.24,-301.29 1392.74,-303.89"/>
</g>
<!-- Overtrue\\PHPLint\\Configuration\\OptionDefinition -->
<g id="node5" class="node">
<title>Overtrue\\PHPLint\\Configuration\\OptionDefinition</title>
<polygon fill="#fefece" stroke="transparent" points="962.5,-959 277.5,-959 277.5,-329 962.5,-329 962.5,-959"/>
<polygon fill="#eeeeee" stroke="transparent" points="286,-921 286,-955 955,-955 955,-921 286,-921"/>
<polygon fill="none" stroke="black" points="286,-921 286,-955 955,-955 955,-921 286,-921"/>
<text text-anchor="start" x="575.5" y="-941.8" font-family="Times,serif" font-weight="bold" font-size="14.00">«interface»</text>
<text text-anchor="start" x="554" y="-927.8" font-family="Times,serif" font-weight="bold" font-size="14.00">OptionDefinition</text>
<polygon fill="none" stroke="black" points="286,-345 286,-921 955,-921 955,-345 286,-345"/>
<text text-anchor="start" x="291" y="-904.8" font-family="Times,serif" font-size="14.00">+ «static» JOBS : string = &quot;jobs&quot; {readOnly}</text>
<text text-anchor="start" x="291" y="-885.8" font-family="Times,serif" font-size="14.00">+ «static» PATH : string = &quot;path&quot; {readOnly}</text>
<text text-anchor="start" x="291" y="-866.8" font-family="Times,serif" font-size="14.00">+ «static» EXCLUDE : string = &quot;exclude&quot; {readOnly}</text>
<text text-anchor="start" x="291" y="-847.8" font-family="Times,serif" font-size="14.00">+ «static» EXTENSIONS : string = &quot;extensions&quot; {readOnly}</text>
<text text-anchor="start" x="291" y="-828.8" font-family="Times,serif" font-size="14.00">+ «static» WARNING : string = &quot;warning&quot; {readOnly}</text>
<text text-anchor="start" x="291" y="-809.8" font-family="Times,serif" font-size="14.00">+ «static» CACHE : string = &quot;cache&quot; {readOnly}</text>
<text text-anchor="start" x="291" y="-790.8" font-family="Times,serif" font-size="14.00">+ «static» CACHE_DIR : string = &quot;cache\&#45;dir&quot; {readOnly}</text>
<text text-anchor="start" x="291" y="-771.8" font-family="Times,serif" font-size="14.00">+ «static» NO_CACHE : string = &quot;no\&#45;cache&quot; {readOnly}</text>
<text text-anchor="start" x="291" y="-752.8" font-family="Times,serif" font-size="14.00">+ «static» CACHE_TTL : string = &quot;cache\&#45;ttl&quot; {readOnly}</text>
<text text-anchor="start" x="291" y="-733.8" font-family="Times,serif" font-size="14.00">+ «static» CONFIGURATION : string = &quot;configuration&quot; {readOnly}</text>
<text text-anchor="start" x="291" y="-714.8" font-family="Times,serif" font-size="14.00">+ «static» NO_CONFIGURATION : string = &quot;no\&#45;configuration&quot; {readOnly}</text>
<text text-anchor="start" x="291" y="-695.8" font-family="Times,serif" font-size="14.00">+ «static» OPTION_MEMORY_LIMIT : string = &quot;memory\&#45;limit&quot; {readOnly}</text>
<text text-anchor="start" x="291" y="-676.8" font-family="Times,serif" font-size="14.00">+ «static» PROGRESS : string = &quot;progress&quot; {readOnly}</text>
<text text-anchor="start" x="291" y="-657.8" font-family="Times,serif" font-size="14.00">+ «static» NO_PROGRESS : string = &quot;no\&#45;progress&quot; {readOnly}</text>
<text text-anchor="start" x="291" y="-638.8" font-family="Times,serif" font-size="14.00">+ «static» OUTPUT_FILE : string = &quot;output&quot; {readOnly}</text>
<text text-anchor="start" x="291" y="-619.8" font-family="Times,serif" font-size="14.00">+ «static» OUTPUT_FORMAT : string = &quot;format&quot; {readOnly}</text>
<text text-anchor="start" x="291" y="-600.8" font-family="Times,serif" font-size="14.00">+ «static» IGNORE_EXIT_CODE : string = &quot;ignore\&#45;exit\&#45;code&quot; {readOnly}</text>
<text text-anchor="start" x="291" y="-581.8" font-family="Times,serif" font-size="14.00">+ «static» BOOTSTRAP : string = &quot;bootstrap&quot; {readOnly}</text>
<text text-anchor="start" x="291" y="-562.8" font-family="Times,serif" font-size="14.00">+ «static» DEFAULT_JOBS : int = 5 {readOnly}</text>
<text text-anchor="start" x="291" y="-543.8" font-family="Times,serif" font-size="14.00">+ «static» DEFAULT_PATH : string = &quot;\.&quot; {readOnly}</text>
<text text-anchor="start" x="291" y="-524.8" font-family="Times,serif" font-size="14.00">+ «static» DEFAULT_EXCLUDES : array = [] {readOnly}</text>
<text text-anchor="start" x="291" y="-505.8" font-family="Times,serif" font-size="14.00">+ «static» DEFAULT_EXTENSIONS : array = […] {readOnly}</text>
<text text-anchor="start" x="291" y="-486.8" font-family="Times,serif" font-size="14.00">+ «static» DEFAULT_CACHE_DIR : string = &quot;\.phplint\.cache&quot; {readOnly}</text>
<text text-anchor="start" x="291" y="-467.8" font-family="Times,serif" font-size="14.00">+ «static» DEFAULT_CACHE_TTL : int = 3600 {readOnly}</text>
<text text-anchor="start" x="291" y="-448.8" font-family="Times,serif" font-size="14.00">+ «static» DEFAULT_CONFIG_FILE : string = &quot;\.phplint\.yml&quot; {readOnly}</text>
<text text-anchor="start" x="291" y="-429.8" font-family="Times,serif" font-size="14.00">+ «static» DEFAULT_PROGRESS_WIDGET : string = &quot;printer&quot; {readOnly}</text>
<text text-anchor="start" x="291" y="-410.8" font-family="Times,serif" font-size="14.00">+ «static» DEFAULT_STANDARD_OUTPUT_LABEL : string = &quot;standard\ output&quot; {readOnly}</text>
<text text-anchor="start" x="291" y="-391.8" font-family="Times,serif" font-size="14.00">+ «static» DEFAULT_STANDARD_OUTPUT : string = &quot;php\:\/\/stdout&quot; {readOnly}</text>
<text text-anchor="start" x="291" y="-372.8" font-family="Times,serif" font-size="14.00">+ «static» DEFAULT_BOOTSTRAP : string = &quot;&quot; {readOnly}</text>
<text text-anchor="start" x="291" y="-353.8" font-family="Times,serif" font-size="14.00">+ «static» DEFAULT_FORMATS : array = […] {readOnly}</text>
<polygon fill="none" stroke="black" points="286,-339 286,-345 955,-345 955,-339 286,-339"/>
<polygon fill="none" stroke="black" points="286,-333 286,-339 955,-339 955,-333 286,-333"/>
</g>
<!-- Overtrue\\PHPLint\\Configuration\\Options -->
<g id="node6" class="node">
<title>Overtrue\\PHPLint\\Configuration\\Options</title>
<polygon fill="#fefece" stroke="transparent" points="256.5,-264.5 19.5,-264.5 19.5,-191.5 256.5,-191.5 256.5,-264.5"/>
<polygon fill="#eeeeee" stroke="transparent" points="28,-226 28,-260 249,-260 249,-226 28,-226"/>
<polygon fill="none" stroke="black" points="28,-226 28,-260 249,-260 249,-226 28,-226"/>
<text text-anchor="start" x="93.5" y="-246.8" font-family="Times,serif" font-weight="bold" font-size="14.00">«interface»</text>
<text text-anchor="start" x="107.5" y="-232.8" font-family="Times,serif" font-weight="bold" font-size="14.00">Options</text>
<polygon fill="none" stroke="black" points="28,-220 28,-226 249,-226 249,-220 28,-220"/>
<polygon fill="none" stroke="black" points="28,-195 28,-220 249,-220 249,-195 28,-195"/>
<text text-anchor="start" x="33" y="-203.8" font-family="Times,serif" font-size="14.00">+ «abstract» resolve() : array</text>
</g>
<!-- Overtrue\\PHPLint\\Configuration\\OptionsFactory -->
<g id="node7" class="node">
<title>Overtrue\\PHPLint\\Configuration\\OptionsFactory</title>
<polygon fill="#fefece" stroke="transparent" points="260,-690 16,-690 16,-598 260,-598 260,-690"/>
<polygon fill="#eeeeee" stroke="transparent" points="24,-652 24,-686 252,-686 252,-652 24,-652"/>
<polygon fill="none" stroke="black" points="24,-652 24,-686 252,-686 252,-652 24,-652"/>
<text text-anchor="start" x="78" y="-658.8" font-family="Times,serif" font-weight="bold" font-size="14.00">OptionsFactory</text>
<polygon fill="none" stroke="black" points="24,-646 24,-652 252,-652 252,-646 24,-646"/>
<polygon fill="none" stroke="black" points="24,-602 24,-646 252,-646 252,-602 24,-602"/>
<text text-anchor="start" x="29" y="-629.8" font-family="Times,serif" font-size="14.00">+ __construct(defaults : array)</text>
<text text-anchor="start" x="29" y="-610.8" font-family="Times,serif" font-size="14.00">+ resolve() : array</text>
</g>
<!-- Overtrue\\PHPLint\\Configuration\\OptionsFactory&#45;&gt;Overtrue\\PHPLint\\Configuration\\Options -->
<g id="edge4" class="edge">
<title>Overtrue\\PHPLint\\Configuration\\OptionsFactory&#45;&gt;Overtrue\\PHPLint\\Configuration\\Options</title>
<path fill="none" stroke="black" stroke-dasharray="5,2" d="M138,-597.91C138,-518.58 138,-354.93 138,-274.98"/>
<polygon fill="none" stroke="black" points="141.5,-274.73 138,-264.73 134.5,-274.73 141.5,-274.73"/>
</g>
</g>
</svg>
