<?xml version="1.0" encoding="UTF-8" standalone="no"?>
<!DOCTYPE svg PUBLIC "-//W3C//DTD SVG 1.1//EN"
 "http://www.w3.org/Graphics/SVG/1.1/DTD/svg11.dtd">
<!-- Generated by graphviz version 2.43.0 (0)
 -->
<!-- Title: %3 Pages: 1 -->
<svg width="2393pt" height="892pt"
 viewBox="0.00 0.00 2393.00 892.00" xmlns="http://www.w3.org/2000/svg" xmlns:xlink="http://www.w3.org/1999/xlink">
<g id="graph0" class="graph" transform="scale(1 1) rotate(0) translate(4 888)">
<title>%3</title>
<g id="clust1" class="cluster">
<title>cluster_0</title>
<polygon fill="#cdaa7d" stroke="black" points="8,-8 8,-876 2377,-876 2377,-8 8,-8"/>
<text text-anchor="middle" x="1192.5" y="-860.8" font-family="Times,serif" font-size="14.00">Overtrue\PHPLint\Configuration</text>
</g>
<!-- Overtrue\\PHPLint\\Configuration\\AbstractOptionsResolver -->
<g id="node1" class="node">
<title>Overtrue\\PHPLint\\Configuration\\AbstractOptionsResolver</title>
<polygon fill="#fefece" stroke="transparent" points="2202,-293 1470,-293 1470,-163 2202,-163 2202,-293"/>
<polygon fill="#eeeeee" stroke="transparent" points="1478,-255 1478,-289 2194,-289 2194,-255 1478,-255"/>
<polygon fill="none" stroke="black" points="1478,-255 1478,-289 2194,-289 2194,-255 1478,-255"/>
<text text-anchor="start" x="1794" y="-275.8" font-family="Times,serif" font-weight="bold" font-size="14.00">«abstract»</text>
<text text-anchor="start" x="1737.5" y="-261.8" font-family="Times,serif" font-weight="bold" font-size="14.00">AbstractOptionsResolver</text>
<polygon fill="none" stroke="black" points="1478,-249 1478,-255 2194,-255 2194,-249 1478,-249"/>
<polygon fill="none" stroke="black" points="1478,-167 1478,-249 2194,-249 2194,-167 1478,-167"/>
<text text-anchor="start" x="1483" y="-232.8" font-family="Times,serif" font-size="14.00">+ __construct(input : Symfony\Component\Console\Input\InputInterface, configuration : array = [])</text>
<text text-anchor="start" x="1483" y="-213.8" font-family="Times,serif" font-size="14.00">+ «abstract» factory() : Overtrue\PHPLint\Configuration\Options</text>
<text text-anchor="start" x="1483" y="-194.8" font-family="Times,serif" font-size="14.00">+ getOptions() : array</text>
<text text-anchor="start" x="1483" y="-175.8" font-family="Times,serif" font-size="14.00">+ getOption(name : string) : ?mixed</text>
</g>
<!-- Overtrue\\PHPLint\\Configuration\\Resolver -->
<g id="node2" class="node">
<title>Overtrue\\PHPLint\\Configuration\\Resolver</title>
<polygon fill="#fefece" stroke="transparent" points="2080.5,-127 1591.5,-127 1591.5,-16 2080.5,-16 2080.5,-127"/>
<polygon fill="#eeeeee" stroke="transparent" points="1600,-88.5 1600,-122.5 2073,-122.5 2073,-88.5 1600,-88.5"/>
<polygon fill="none" stroke="black" points="1600,-88.5 1600,-122.5 2073,-122.5 2073,-88.5 1600,-88.5"/>
<text text-anchor="start" x="1791.5" y="-109.3" font-family="Times,serif" font-weight="bold" font-size="14.00">«interface»</text>
<text text-anchor="start" x="1802" y="-95.3" font-family="Times,serif" font-weight="bold" font-size="14.00">Resolver</text>
<polygon fill="none" stroke="black" points="1600,-82.5 1600,-88.5 2073,-88.5 2073,-82.5 1600,-82.5"/>
<polygon fill="none" stroke="black" points="1600,-19.5 1600,-82.5 2073,-82.5 2073,-19.5 1600,-19.5"/>
<text text-anchor="start" x="1605" y="-66.3" font-family="Times,serif" font-size="14.00">+ «abstract» factory() : Overtrue\PHPLint\Configuration\Options</text>
<text text-anchor="start" x="1605" y="-47.3" font-family="Times,serif" font-size="14.00">+ «abstract» getOptions() : array</text>
<text text-anchor="start" x="1605" y="-28.3" font-family="Times,serif" font-size="14.00">+ «abstract» getOption(name : string) : ?mixed</text>
</g>
<!-- Overtrue\\PHPLint\\Configuration\\AbstractOptionsResolver&#45;&gt;Overtrue\\PHPLint\\Configuration\\Resolver -->
<g id="edge1" class="edge">
<title>Overtrue\\PHPLint\\Configuration\\AbstractOptionsResolver&#45;&gt;Overtrue\\PHPLint\\Configuration\\Resolver</title>
<path fill="none" stroke="black" stroke-dasharray="5,2" d="M1836,-162.82C1836,-154.45 1836,-145.87 1836,-137.49"/>
<polygon fill="none" stroke="black" points="1839.5,-137.39 1836,-127.39 1832.5,-137.39 1839.5,-137.39"/>
</g>
<!-- Overtrue\\PHPLint\\Configuration\\ConsoleOptionsResolver -->
<g id="node3" class="node">
<title>Overtrue\\PHPLint\\Configuration\\ConsoleOptionsResolver</title>
<polygon fill="#fefece" stroke="transparent" points="2369,-623.5 1961,-623.5 1961,-550.5 2369,-550.5 2369,-623.5"/>
<polygon fill="#eeeeee" stroke="transparent" points="1969,-585 1969,-619 2361,-619 2361,-585 1969,-585"/>
<polygon fill="none" stroke="black" points="1969,-585 1969,-619 2361,-619 2361,-585 1969,-585"/>
<text text-anchor="start" x="2068.5" y="-591.8" font-family="Times,serif" font-weight="bold" font-size="14.00">ConsoleOptionsResolver</text>
<polygon fill="none" stroke="black" points="1969,-579 1969,-585 2361,-585 2361,-579 1969,-579"/>
<polygon fill="none" stroke="black" points="1969,-554 1969,-579 2361,-579 2361,-554 1969,-554"/>
<text text-anchor="start" x="1974" y="-562.8" font-family="Times,serif" font-size="14.00">+ factory() : Overtrue\PHPLint\Configuration\Options</text>
</g>
<!-- Overtrue\\PHPLint\\Configuration\\ConsoleOptionsResolver&#45;&gt;Overtrue\\PHPLint\\Configuration\\AbstractOptionsResolver -->
<g id="edge2" class="edge">
<title>Overtrue\\PHPLint\\Configuration\\ConsoleOptionsResolver&#45;&gt;Overtrue\\PHPLint\\Configuration\\AbstractOptionsResolver</title>
<path fill="none" stroke="black" d="M2138.5,-550.33C2099.83,-499.2 2024.63,-403.06 1952,-329 1942.49,-319.3 1932.15,-309.49 1921.7,-300"/>
<polygon fill="none" stroke="black" points="1923.85,-297.23 1914.07,-293.15 1919.17,-302.43 1923.85,-297.23"/>
</g>
<!-- Overtrue\\PHPLint\\Configuration\\FileOptionsResolver -->
<g id="node4" class="node">
<title>Overtrue\\PHPLint\\Configuration\\FileOptionsResolver</title>
<polygon fill="#fefece" stroke="transparent" points="1942.5,-633 1397.5,-633 1397.5,-541 1942.5,-541 1942.5,-633"/>
<polygon fill="#eeeeee" stroke="transparent" points="1406,-595 1406,-629 1935,-629 1935,-595 1406,-595"/>
<polygon fill="none" stroke="black" points="1406,-595 1406,-629 1935,-629 1935,-595 1406,-595"/>
<text text-anchor="start" x="1590.5" y="-601.8" font-family="Times,serif" font-weight="bold" font-size="14.00">FileOptionsResolver</text>
<polygon fill="none" stroke="black" points="1406,-589 1406,-595 1935,-595 1935,-589 1406,-589"/>
<polygon fill="none" stroke="black" points="1406,-545 1406,-589 1935,-589 1935,-545 1406,-545"/>
<text text-anchor="start" x="1411" y="-572.8" font-family="Times,serif" font-size="14.00">+ __construct(input : Symfony\Component\Console\Input\InputInterface)</text>
<text text-anchor="start" x="1411" y="-553.8" font-family="Times,serif" font-size="14.00">+ factory() : Overtrue\PHPLint\Configuration\Options</text>
</g>
<!-- Overtrue\\PHPLint\\Configuration\\FileOptionsResolver&#45;&gt;Overtrue\\PHPLint\\Configuration\\AbstractOptionsResolver -->
<g id="edge3" class="edge">
<title>Overtrue\\PHPLint\\Configuration\\FileOptionsResolver&#45;&gt;Overtrue\\PHPLint\\Configuration\\AbstractOptionsResolver</title>
<path fill="none" stroke="black" d="M1691.02,-540.79C1718.91,-480.81 1768.48,-374.2 1801.8,-302.56"/>
<polygon fill="none" stroke="black" points="1805.14,-303.67 1806.18,-293.13 1798.79,-300.72 1805.14,-303.67"/>
</g>
<!-- Overtrue\\PHPLint\\Configuration\\OptionDefinition -->
<g id="node5" class="node">
<title>Overtrue\\PHPLint\\Configuration\\OptionDefinition</title>
<polygon fill="#fefece" stroke="transparent" points="1379.5,-845 694.5,-845 694.5,-329 1379.5,-329 1379.5,-845"/>
<polygon fill="#eeeeee" stroke="transparent" points="703,-807 703,-841 1372,-841 1372,-807 703,-807"/>
<polygon fill="none" stroke="black" points="703,-807 703,-841 1372,-841 1372,-807 703,-807"/>
<text text-anchor="start" x="992.5" y="-827.8" font-family="Times,serif" font-weight="bold" font-size="14.00">«interface»</text>
<text text-anchor="start" x="971" y="-813.8" font-family="Times,serif" font-weight="bold" font-size="14.00">OptionDefinition</text>
<polygon fill="none" stroke="black" points="703,-345 703,-807 1372,-807 1372,-345 703,-345"/>
<text text-anchor="start" x="708" y="-790.8" font-family="Times,serif" font-size="14.00">+ «static» JOBS : string = &quot;jobs&quot; {readOnly}</text>
<text text-anchor="start" x="708" y="-771.8" font-family="Times,serif" font-size="14.00">+ «static» PATH : string = &quot;path&quot; {readOnly}</text>
<text text-anchor="start" x="708" y="-752.8" font-family="Times,serif" font-size="14.00">+ «static» EXCLUDE : string = &quot;exclude&quot; {readOnly}</text>
<text text-anchor="start" x="708" y="-733.8" font-family="Times,serif" font-size="14.00">+ «static» EXTENSIONS : string = &quot;extensions&quot; {readOnly}</text>
<text text-anchor="start" x="708" y="-714.8" font-family="Times,serif" font-size="14.00">+ «static» WARNING : string = &quot;warning&quot; {readOnly}</text>
<text text-anchor="start" x="708" y="-695.8" font-family="Times,serif" font-size="14.00">+ «static» CACHE : string = &quot;cache&quot; {readOnly}</text>
<text text-anchor="start" x="708" y="-676.8" font-family="Times,serif" font-size="14.00">+ «static» NO_CACHE : string = &quot;no\&#45;cache&quot; {readOnly}</text>
<text text-anchor="start" x="708" y="-657.8" font-family="Times,serif" font-size="14.00">+ «static» CONFIGURATION : string = &quot;configuration&quot; {readOnly}</text>
<text text-anchor="start" x="708" y="-638.8" font-family="Times,serif" font-size="14.00">+ «static» NO_CONFIGURATION : string = &quot;no\&#45;configuration&quot; {readOnly}</text>
<text text-anchor="start" x="708" y="-619.8" font-family="Times,serif" font-size="14.00">+ «static» OPTION_MEMORY_LIMIT : string = &quot;memory\&#45;limit&quot; {readOnly}</text>
<text text-anchor="start" x="708" y="-600.8" font-family="Times,serif" font-size="14.00">+ «static» PROGRESS : string = &quot;progress&quot; {readOnly}</text>
<text text-anchor="start" x="708" y="-581.8" font-family="Times,serif" font-size="14.00">+ «static» NO_PROGRESS : string = &quot;no\&#45;progress&quot; {readOnly}</text>
<text text-anchor="start" x="708" y="-562.8" font-family="Times,serif" font-size="14.00">+ «static» LOG_JSON : string = &quot;log\&#45;json&quot; {readOnly}</text>
<text text-anchor="start" x="708" y="-543.8" font-family="Times,serif" font-size="14.00">+ «static» LOG_JUNIT : string = &quot;log\&#45;junit&quot; {readOnly}</text>
<text text-anchor="start" x="708" y="-524.8" font-family="Times,serif" font-size="14.00">+ «static» IGNORE_EXIT_CODE : string = &quot;ignore\&#45;exit\&#45;code&quot; {readOnly}</text>
<text text-anchor="start" x="708" y="-505.8" font-family="Times,serif" font-size="14.00">+ «static» DEFAULT_JOBS : int = 5 {readOnly}</text>
<text text-anchor="start" x="708" y="-486.8" font-family="Times,serif" font-size="14.00">+ «static» DEFAULT_PATH : string = &quot;\.&quot; {readOnly}</text>
<text text-anchor="start" x="708" y="-467.8" font-family="Times,serif" font-size="14.00">+ «static» DEFAULT_EXCLUDES : array = [] {readOnly}</text>
<text text-anchor="start" x="708" y="-448.8" font-family="Times,serif" font-size="14.00">+ «static» DEFAULT_EXTENSIONS : array = […] {readOnly}</text>
<text text-anchor="start" x="708" y="-429.8" font-family="Times,serif" font-size="14.00">+ «static» DEFAULT_CACHE_DIR : string = &quot;\.phplint\.cache&quot; {readOnly}</text>
<text text-anchor="start" x="708" y="-410.8" font-family="Times,serif" font-size="14.00">+ «static» DEFAULT_CONFIG_FILE : string = &quot;\.phplint\.yml&quot; {readOnly}</text>
<text text-anchor="start" x="708" y="-391.8" font-family="Times,serif" font-size="14.00">+ «static» DEFAULT_PROGRESS_WIDGET : string = &quot;printer&quot; {readOnly}</text>
<text text-anchor="start" x="708" y="-372.8" font-family="Times,serif" font-size="14.00">+ «static» DEFAULT_STANDARD_OUTPUT_LABEL : string = &quot;standard\ output&quot; {readOnly}</text>
<text text-anchor="start" x="708" y="-353.8" font-family="Times,serif" font-size="14.00">+ «static» DEFAULT_STANDARD_OUTPUT : string = &quot;php\:\/\/stdout&quot; {readOnly}</text>
<polygon fill="none" stroke="black" points="703,-339 703,-345 1372,-345 1372,-339 703,-339"/>
<polygon fill="none" stroke="black" points="703,-333 703,-339 1372,-339 1372,-333 703,-333"/>
</g>
<!-- Overtrue\\PHPLint\\Configuration\\Options -->
<g id="node6" class="node">
<title>Overtrue\\PHPLint\\Configuration\\Options</title>
<polygon fill="#fefece" stroke="transparent" points="464.5,-264.5 227.5,-264.5 227.5,-191.5 464.5,-191.5 464.5,-264.5"/>
<polygon fill="#eeeeee" stroke="transparent" points="236,-226 236,-260 457,-260 457,-226 236,-226"/>
<polygon fill="none" stroke="black" points="236,-226 236,-260 457,-260 457,-226 236,-226"/>
<text text-anchor="start" x="301.5" y="-246.8" font-family="Times,serif" font-weight="bold" font-size="14.00">«interface»</text>
<text text-anchor="start" x="315.5" y="-232.8" font-family="Times,serif" font-weight="bold" font-size="14.00">Options</text>
<polygon fill="none" stroke="black" points="236,-220 236,-226 457,-226 457,-220 236,-220"/>
<polygon fill="none" stroke="black" points="236,-195 236,-220 457,-220 457,-195 236,-195"/>
<text text-anchor="start" x="241" y="-203.8" font-family="Times,serif" font-size="14.00">+ «abstract» resolve() : array</text>
</g>
<!-- Overtrue\\PHPLint\\Configuration\\OptionsFactory -->
<g id="node7" class="node">
<title>Overtrue\\PHPLint\\Configuration\\OptionsFactory</title>
<polygon fill="#fefece" stroke="transparent" points="676,-652 16,-652 16,-522 676,-522 676,-652"/>
<polygon fill="#eeeeee" stroke="transparent" points="24,-614 24,-648 668,-648 668,-614 24,-614"/>
<polygon fill="none" stroke="black" points="24,-614 24,-648 668,-648 668,-614 24,-614"/>
<text text-anchor="start" x="286" y="-620.8" font-family="Times,serif" font-weight="bold" font-size="14.00">OptionsFactory</text>
<polygon fill="none" stroke="black" points="24,-608 24,-614 668,-614 668,-608 24,-608"/>
<polygon fill="none" stroke="black" points="24,-526 24,-608 668,-608 668,-526 24,-526"/>
<text text-anchor="start" x="29" y="-591.8" font-family="Times,serif" font-size="14.00">+ __construct(defaults : array)</text>
<text text-anchor="start" x="29" y="-572.8" font-family="Times,serif" font-size="14.00">+ resolve() : array</text>
<text text-anchor="start" x="29" y="-553.8" font-family="Times,serif" font-size="14.00">+ «static» logNormalizer(options : Symfony\Component\OptionsResolver\Options, value)</text>
<text text-anchor="start" x="29" y="-534.8" font-family="Times,serif" font-size="14.00">+ «static» toBool(value : mixed)</text>
</g>
<!-- Overtrue\\PHPLint\\Configuration\\OptionsFactory&#45;&gt;Overtrue\\PHPLint\\Configuration\\Options -->
<g id="edge4" class="edge">
<title>Overtrue\\PHPLint\\Configuration\\OptionsFactory&#45;&gt;Overtrue\\PHPLint\\Configuration\\Options</title>
<path fill="none" stroke="black" stroke-dasharray="5,2" d="M346,-521.76C346,-450.64 346,-337.77 346,-274.98"/>
<polygon fill="none" stroke="black" points="349.5,-274.98 346,-264.98 342.5,-274.98 349.5,-274.98"/>
</g>
</g>
</svg>
