<?xml version="1.0" encoding="UTF-8" standalone="no"?>
<!DOCTYPE svg PUBLIC "-//W3C//DTD SVG 1.1//EN"
 "http://www.w3.org/Graphics/SVG/1.1/DTD/svg11.dtd">
<!-- Generated by graphviz version 2.42.4 (0)
 -->
<!-- Pages: 1 -->
<svg width="2524pt" height="1209pt"
 viewBox="0.00 0.00 2524.00 1208.50" xmlns="http://www.w3.org/2000/svg" xmlns:xlink="http://www.w3.org/1999/xlink">
<g id="graph0" class="graph" transform="scale(1 1) rotate(0) translate(4 1204.5)">
<g id="clust1" class="cluster">
<title>cluster_0</title>
<polygon fill="#cdaa7d" stroke="black" points="193,-1039.5 193,-1170.5 1288,-1170.5 1288,-1039.5 193,-1039.5"/>
<text text-anchor="middle" x="740.5" y="-1155.3" font-family="Times,serif" font-size="14.00">Overtrue\PHPLint\Command</text>
</g>
<g id="clust2" class="cluster">
<title>cluster_1</title>
<polygon fill="transparent" stroke="black" points="8,-8 8,-1003 1236,-1003 1236,-8 8,-8"/>
<text text-anchor="middle" x="622" y="-987.8" font-family="Times,serif" font-size="14.00">Symfony\Component\Console\Command</text>
</g>
<g id="clust3" class="cluster">
<title>cluster_2</title>
<polygon fill="#cdaa7d" stroke="black" points="1296,-1017.5 1296,-1192.5 2492,-1192.5 2492,-1017.5 1296,-1017.5"/>
<text text-anchor="middle" x="1894" y="-1177.3" font-family="Times,serif" font-size="14.00">Overtrue\PHPLint\Console</text>
</g>
<g id="clust4" class="cluster">
<title>cluster_3</title>
<polygon fill="transparent" stroke="black" points="1280,-137.5 1280,-1009.5 2508,-1009.5 2508,-137.5 1280,-137.5"/>
<text text-anchor="middle" x="1894" y="-994.3" font-family="Times,serif" font-size="14.00">Symfony\Component\Console</text>
</g>
<g id="clust5" class="cluster">
<title>cluster_4</title>
<polygon fill="transparent" stroke="black" points="1789,-17.5 1789,-129.5 2000,-129.5 2000,-17.5 1789,-17.5"/>
<text text-anchor="middle" x="1894.5" y="-114.3" font-family="Times,serif" font-size="14.00">Symfony\Contracts\Service</text>
</g>
<!-- Overtrue\\PHPLint\\Command\\ConfigureCommandTrait -->
<g id="node1" class="node">
<title>Overtrue\\PHPLint\\Command\\ConfigureCommandTrait</title>
<polygon fill="#fefece" stroke="transparent" points="1280,-1120.5 1062,-1120.5 1062,-1066.5 1280,-1066.5 1280,-1120.5"/>
<polygon fill="#eeeeee" stroke="transparent" points="1070,-1082.5 1070,-1116.5 1272,-1116.5 1272,-1082.5 1070,-1082.5"/>
<polygon fill="none" stroke="black" points="1070,-1082.5 1070,-1116.5 1272,-1116.5 1272,-1082.5 1070,-1082.5"/>
<text text-anchor="start" x="1073" y="-1089.3" font-family="Times,serif" font-weight="bold" font-size="14.00">ConfigureCommandTrait</text>
<polygon fill="none" stroke="black" points="1070,-1076.5 1070,-1082.5 1272,-1082.5 1272,-1076.5 1070,-1076.5"/>
<polygon fill="none" stroke="black" points="1070,-1070.5 1070,-1076.5 1272,-1076.5 1272,-1070.5 1070,-1070.5"/>
</g>
<!-- Overtrue\\PHPLint\\Command\\LintCommand -->
<g id="node2" class="node">
<title>Overtrue\\PHPLint\\Command\\LintCommand</title>
<polygon fill="#fefece" stroke="transparent" points="1043.5,-1139.5 200.5,-1139.5 200.5,-1047.5 1043.5,-1047.5 1043.5,-1139.5"/>
<polygon fill="#eeeeee" stroke="transparent" points="209,-1101.5 209,-1135.5 1036,-1135.5 1036,-1101.5 209,-1101.5"/>
<polygon fill="none" stroke="black" points="209,-1101.5 209,-1135.5 1036,-1135.5 1036,-1101.5 209,-1101.5"/>
<text text-anchor="start" x="566.5" y="-1108.3" font-family="Times,serif" font-weight="bold" font-size="14.00">LintCommand</text>
<polygon fill="none" stroke="black" points="209,-1095.5 209,-1101.5 1036,-1101.5 1036,-1095.5 209,-1095.5"/>
<polygon fill="none" stroke="black" points="209,-1051.5 209,-1095.5 1036,-1095.5 1036,-1051.5 209,-1051.5"/>
<text text-anchor="start" x="214" y="-1079.3" font-family="Times,serif" font-size="14.00">+ __construct(dispatcher : Symfony\Component\EventDispatcher\EventDispatcherInterface, name : string = &#39;lint&#39;)</text>
<text text-anchor="start" x="214" y="-1060.3" font-family="Times,serif" font-size="14.00">+ getResults() : Overtrue\PHPLint\Output\LinterOutput</text>
</g>
<!-- Symfony\\Component\\Console\\Command\\Command -->
<g id="node3" class="node">
<title>Symfony\\Component\\Console\\Command\\Command</title>
<polygon fill="#fefece" stroke="transparent" points="1227.5,-972 16.5,-972 16.5,-152 1227.5,-152 1227.5,-972"/>
<polygon fill="#eeeeee" stroke="transparent" points="25,-934 25,-968 1220,-968 1220,-934 25,-934"/>
<polygon fill="none" stroke="black" points="25,-934 25,-968 1220,-968 1220,-934 25,-934"/>
<text text-anchor="start" x="582.5" y="-940.8" font-family="Times,serif" font-weight="bold" font-size="14.00">Command</text>
<polygon fill="none" stroke="black" points="25,-871 25,-934 1220,-934 1220,-871 25,-871"/>
<text text-anchor="start" x="30" y="-917.8" font-family="Times,serif" font-size="14.00">+ «static» SUCCESS : int = 0 {readOnly}</text>
<text text-anchor="start" x="30" y="-898.8" font-family="Times,serif" font-size="14.00">+ «static» FAILURE : int = 1 {readOnly}</text>
<text text-anchor="start" x="30" y="-879.8" font-family="Times,serif" font-size="14.00">+ «static» INVALID : int = 2 {readOnly}</text>
<polygon fill="none" stroke="black" points="25,-865 25,-871 1220,-871 1220,-865 25,-865"/>
<polygon fill="none" stroke="black" points="25,-156 25,-865 1220,-865 1220,-156 25,-156"/>
<text text-anchor="start" x="30" y="-848.8" font-family="Times,serif" font-size="14.00">+ «static» getDefaultName() : ?string</text>
<text text-anchor="start" x="30" y="-829.8" font-family="Times,serif" font-size="14.00">+ «static» getDefaultDescription() : ?string</text>
<text text-anchor="start" x="30" y="-810.8" font-family="Times,serif" font-size="14.00">+ __construct(name : string = «unknown», code : callable = «unknown»)</text>
<text text-anchor="start" x="30" y="-791.8" font-family="Times,serif" font-size="14.00">+ ignoreValidationErrors() : void</text>
<text text-anchor="start" x="30" y="-772.8" font-family="Times,serif" font-size="14.00">+ setApplication(application : Symfony\Component\Console\Application) : void</text>
<text text-anchor="start" x="30" y="-753.8" font-family="Times,serif" font-size="14.00">+ setHelperSet(helperSet : Symfony\Component\Console\Helper\HelperSet) : void</text>
<text text-anchor="start" x="30" y="-734.8" font-family="Times,serif" font-size="14.00">+ getHelperSet() : ?Symfony\Component\Console\Helper\HelperSet</text>
<text text-anchor="start" x="30" y="-715.8" font-family="Times,serif" font-size="14.00">+ getApplication() : ?Symfony\Component\Console\Application</text>
<text text-anchor="start" x="30" y="-696.8" font-family="Times,serif" font-size="14.00">+ isEnabled() : bool</text>
<text text-anchor="start" x="30" y="-677.8" font-family="Times,serif" font-size="14.00">+ run(input : Symfony\Component\Console\Input\InputInterface, output : Symfony\Component\Console\Output\OutputInterface) : int</text>
<text text-anchor="start" x="30" y="-658.8" font-family="Times,serif" font-size="14.00">+ complete(input : Symfony\Component\Console\Completion\CompletionInput, suggestions : Symfony\Component\Console\Completion\CompletionSuggestions) : void</text>
<text text-anchor="start" x="30" y="-639.8" font-family="Times,serif" font-size="14.00">+ getCode() : ?callable</text>
<text text-anchor="start" x="30" y="-620.8" font-family="Times,serif" font-size="14.00">+ setCode(code : callable) : static</text>
<text text-anchor="start" x="30" y="-601.8" font-family="Times,serif" font-size="14.00">+ mergeApplicationDefinition(mergeArgs : bool = true) : void</text>
<text text-anchor="start" x="30" y="-582.8" font-family="Times,serif" font-size="14.00">+ setDefinition(definition) : static</text>
<text text-anchor="start" x="30" y="-563.8" font-family="Times,serif" font-size="14.00">+ getDefinition() : Symfony\Component\Console\Input\InputDefinition</text>
<text text-anchor="start" x="30" y="-544.8" font-family="Times,serif" font-size="14.00">+ getNativeDefinition() : Symfony\Component\Console\Input\InputDefinition</text>
<text text-anchor="start" x="30" y="-525.8" font-family="Times,serif" font-size="14.00">+ addArgument(name : string, mode : int = «unknown», description : string = &#39;&#39;, default : mixed = «unknown», suggestedValues = []) : static</text>
<text text-anchor="start" x="30" y="-506.8" font-family="Times,serif" font-size="14.00">+ addOption(name : string, shortcut = «unknown», mode : int = «unknown», description : string = &#39;&#39;, default : mixed = «unknown», suggestedValues = []) : static</text>
<text text-anchor="start" x="30" y="-487.8" font-family="Times,serif" font-size="14.00">+ setName(name : string) : static</text>
<text text-anchor="start" x="30" y="-468.8" font-family="Times,serif" font-size="14.00">+ setProcessTitle(title : string) : static</text>
<text text-anchor="start" x="30" y="-449.8" font-family="Times,serif" font-size="14.00">+ getName() : ?string</text>
<text text-anchor="start" x="30" y="-430.8" font-family="Times,serif" font-size="14.00">+ setHidden(hidden : bool = true) : static</text>
<text text-anchor="start" x="30" y="-411.8" font-family="Times,serif" font-size="14.00">+ isHidden() : bool</text>
<text text-anchor="start" x="30" y="-392.8" font-family="Times,serif" font-size="14.00">+ setDescription(description : string) : static</text>
<text text-anchor="start" x="30" y="-373.8" font-family="Times,serif" font-size="14.00">+ getDescription() : string</text>
<text text-anchor="start" x="30" y="-354.8" font-family="Times,serif" font-size="14.00">+ setHelp(help : string) : static</text>
<text text-anchor="start" x="30" y="-335.8" font-family="Times,serif" font-size="14.00">+ getHelp() : string</text>
<text text-anchor="start" x="30" y="-316.8" font-family="Times,serif" font-size="14.00">+ getProcessedHelp() : string</text>
<text text-anchor="start" x="30" y="-297.8" font-family="Times,serif" font-size="14.00">+ setAliases(aliases : iterable) : static</text>
<text text-anchor="start" x="30" y="-278.8" font-family="Times,serif" font-size="14.00">+ getAliases() : array</text>
<text text-anchor="start" x="30" y="-259.8" font-family="Times,serif" font-size="14.00">+ getSynopsis(short : bool = false) : string</text>
<text text-anchor="start" x="30" y="-240.8" font-family="Times,serif" font-size="14.00">+ addUsage(usage : string) : static</text>
<text text-anchor="start" x="30" y="-221.8" font-family="Times,serif" font-size="14.00">+ getUsages() : array</text>
<text text-anchor="start" x="30" y="-202.8" font-family="Times,serif" font-size="14.00">+ getHelper(name : string) : Symfony\Component\Console\Helper\HelperInterface</text>
<text text-anchor="start" x="30" y="-183.8" font-family="Times,serif" font-size="14.00">+ getSubscribedSignals() : array</text>
<text text-anchor="start" x="30" y="-164.8" font-family="Times,serif" font-size="14.00">+ handleSignal(signal : int, previousExitCode = 0)</text>
</g>
<!-- Overtrue\\PHPLint\\Command\\LintCommand&#45;&gt;Symfony\\Component\\Console\\Command\\Command -->
<g id="edge2" class="edge">
<title>Overtrue\\PHPLint\\Command\\LintCommand&#45;&gt;Symfony\\Component\\Console\\Command\\Command</title>
<path fill="none" stroke="black" d="M622,-1047.36C622,-1029.53 622,-1007.27 622,-982.17"/>
<polygon fill="none" stroke="black" points="625.5,-982.03 622,-972.03 618.5,-982.03 625.5,-982.03"/>
</g>
<!-- Symfony\\Component\\Console\\Command\\SignalableCommandInterface -->
<g id="node4" class="node">
<title>Symfony\\Component\\Console\\Command\\SignalableCommandInterface</title>
<polygon fill="#fefece" stroke="transparent" points="856,-108 388,-108 388,-16 856,-16 856,-108"/>
<polygon fill="#eeeeee" stroke="transparent" points="396,-70 396,-104 848,-104 848,-70 396,-70"/>
<polygon fill="none" stroke="black" points="396,-70 396,-104 848,-104 848,-70 396,-70"/>
<text text-anchor="start" x="577" y="-90.8" font-family="Times,serif" font-weight="bold" font-size="14.00">«interface»</text>
<text text-anchor="start" x="504.5" y="-76.8" font-family="Times,serif" font-weight="bold" font-size="14.00">SignalableCommandInterface</text>
<polygon fill="none" stroke="black" points="396,-64 396,-70 848,-70 848,-64 396,-64"/>
<polygon fill="none" stroke="black" points="396,-20 396,-64 848,-64 848,-20 396,-20"/>
<text text-anchor="start" x="401" y="-47.8" font-family="Times,serif" font-size="14.00">+ «abstract» getSubscribedSignals() : array</text>
<text text-anchor="start" x="401" y="-28.8" font-family="Times,serif" font-size="14.00">+ «abstract» handleSignal(signal : int, previousExitCode = 0)</text>
</g>
<!-- Symfony\\Component\\Console\\Command\\Command&#45;&gt;Symfony\\Component\\Console\\Command\\SignalableCommandInterface -->
<g id="edge1" class="edge">
<title>Symfony\\Component\\Console\\Command\\Command&#45;&gt;Symfony\\Component\\Console\\Command\\SignalableCommandInterface</title>
<path fill="none" stroke="black" stroke-dasharray="5,2" d="M622,-151.75C622,-139.68 622,-128.48 622,-118.39"/>
<polygon fill="none" stroke="black" points="625.5,-118.29 622,-108.29 618.5,-118.29 625.5,-118.29"/>
</g>
<!-- Overtrue\\PHPLint\\Console\\Application -->
<g id="node5" class="node">
<title>Overtrue\\PHPLint\\Console\\Application</title>
<polygon fill="#fefece" stroke="transparent" points="2483.5,-1161.5 1304.5,-1161.5 1304.5,-1025.5 2483.5,-1025.5 2483.5,-1161.5"/>
<polygon fill="#eeeeee" stroke="transparent" points="1313,-1123.5 1313,-1157.5 2476,-1157.5 2476,-1123.5 1313,-1123.5"/>
<polygon fill="none" stroke="black" points="1313,-1123.5 1313,-1157.5 2476,-1157.5 2476,-1123.5 1313,-1123.5"/>
<text text-anchor="start" x="1849.5" y="-1130.3" font-family="Times,serif" font-weight="bold" font-size="14.00">Application</text>
<polygon fill="none" stroke="black" points="1313,-1079.5 1313,-1123.5 2476,-1123.5 2476,-1079.5 1313,-1079.5"/>
<text text-anchor="start" x="1318" y="-1107.3" font-family="Times,serif" font-size="14.00">+ «static» NAME : string = &quot;phplint&quot; {readOnly}</text>
<text text-anchor="start" x="1318" y="-1088.3" font-family="Times,serif" font-size="14.00">+ «static» PACKAGE_NAME : string = &quot;overtrue\/phplint&quot; {readOnly}</text>
<polygon fill="none" stroke="black" points="1313,-1073.5 1313,-1079.5 2476,-1079.5 2476,-1073.5 1313,-1073.5"/>
<polygon fill="none" stroke="black" points="1313,-1029.5 1313,-1073.5 2476,-1073.5 2476,-1029.5 1313,-1029.5"/>
<text text-anchor="start" x="1318" y="-1057.3" font-family="Times,serif" font-size="14.00">+ __construct()</text>
<text text-anchor="start" x="1318" y="-1038.3" font-family="Times,serif" font-size="14.00">+ run(input : Symfony\Component\Console\Input\InputInterface = «unknown», output : Symfony\Component\Console\Output\OutputInterface = «unknown») : int</text>
</g>
<!-- Symfony\\Component\\Console\\Application -->
<g id="node6" class="node">
<title>Symfony\\Component\\Console\\Application</title>
<polygon fill="#fefece" stroke="transparent" points="2499.5,-978.5 1288.5,-978.5 1288.5,-145.5 2499.5,-145.5 2499.5,-978.5"/>
<polygon fill="#eeeeee" stroke="transparent" points="1297,-940 1297,-974 2492,-974 2492,-940 1297,-940"/>
<polygon fill="none" stroke="black" points="1297,-940 1297,-974 2492,-974 2492,-940 1297,-940"/>
<text text-anchor="start" x="1849.5" y="-946.8" font-family="Times,serif" font-weight="bold" font-size="14.00">Application</text>
<polygon fill="none" stroke="black" points="1297,-934 1297,-940 2492,-940 2492,-934 1297,-934"/>
<polygon fill="none" stroke="black" points="1297,-149 1297,-934 2492,-934 2492,-149 1297,-149"/>
<text text-anchor="start" x="1302" y="-917.8" font-family="Times,serif" font-size="14.00">+ __construct(name : string = &#39;UNKNOWN&#39;, version : string = &#39;UNKNOWN&#39;)</text>
<text text-anchor="start" x="1302" y="-898.8" font-family="Times,serif" font-size="14.00">+ setDispatcher(dispatcher : Symfony\Contracts\EventDispatcher\EventDispatcherInterface) : void</text>
<text text-anchor="start" x="1302" y="-879.8" font-family="Times,serif" font-size="14.00">+ setCommandLoader(commandLoader : Symfony\Component\Console\CommandLoader\CommandLoaderInterface) : void</text>
<text text-anchor="start" x="1302" y="-860.8" font-family="Times,serif" font-size="14.00">+ getSignalRegistry() : Symfony\Component\Console\SignalRegistry\SignalRegistry</text>
<text text-anchor="start" x="1302" y="-841.8" font-family="Times,serif" font-size="14.00">+ setSignalsToDispatchEvent(signalsToDispatchEvent : int = «unknown») : void</text>
<text text-anchor="start" x="1302" y="-822.8" font-family="Times,serif" font-size="14.00">+ setAlarmInterval(seconds : int) : void</text>
<text text-anchor="start" x="1302" y="-803.8" font-family="Times,serif" font-size="14.00">+ getAlarmInterval() : ?int</text>
<text text-anchor="start" x="1302" y="-784.8" font-family="Times,serif" font-size="14.00">+ run(input : Symfony\Component\Console\Input\InputInterface = «unknown», output : Symfony\Component\Console\Output\OutputInterface = «unknown») : int</text>
<text text-anchor="start" x="1302" y="-765.8" font-family="Times,serif" font-size="14.00">+ doRun(input : Symfony\Component\Console\Input\InputInterface, output : Symfony\Component\Console\Output\OutputInterface) : int</text>
<text text-anchor="start" x="1302" y="-746.8" font-family="Times,serif" font-size="14.00">+ reset() : void</text>
<text text-anchor="start" x="1302" y="-727.8" font-family="Times,serif" font-size="14.00">+ setHelperSet(helperSet : Symfony\Component\Console\Helper\HelperSet) : void</text>
<text text-anchor="start" x="1302" y="-708.8" font-family="Times,serif" font-size="14.00">+ getHelperSet() : Symfony\Component\Console\Helper\HelperSet</text>
<text text-anchor="start" x="1302" y="-689.8" font-family="Times,serif" font-size="14.00">+ setDefinition(definition : Symfony\Component\Console\Input\InputDefinition) : void</text>
<text text-anchor="start" x="1302" y="-670.8" font-family="Times,serif" font-size="14.00">+ getDefinition() : Symfony\Component\Console\Input\InputDefinition</text>
<text text-anchor="start" x="1302" y="-651.8" font-family="Times,serif" font-size="14.00">+ complete(input : Symfony\Component\Console\Completion\CompletionInput, suggestions : Symfony\Component\Console\Completion\CompletionSuggestions) : void</text>
<text text-anchor="start" x="1302" y="-632.8" font-family="Times,serif" font-size="14.00">+ getHelp() : string</text>
<text text-anchor="start" x="1302" y="-613.8" font-family="Times,serif" font-size="14.00">+ areExceptionsCaught() : bool</text>
<text text-anchor="start" x="1302" y="-594.8" font-family="Times,serif" font-size="14.00">+ setCatchExceptions(boolean : bool) : void</text>
<text text-anchor="start" x="1302" y="-575.8" font-family="Times,serif" font-size="14.00">+ setCatchErrors(catchErrors : bool = true) : void</text>
<text text-anchor="start" x="1302" y="-556.8" font-family="Times,serif" font-size="14.00">+ isAutoExitEnabled() : bool</text>
<text text-anchor="start" x="1302" y="-537.8" font-family="Times,serif" font-size="14.00">+ setAutoExit(boolean : bool) : void</text>
<text text-anchor="start" x="1302" y="-518.8" font-family="Times,serif" font-size="14.00">+ getName() : string</text>
<text text-anchor="start" x="1302" y="-499.8" font-family="Times,serif" font-size="14.00">+ setName(name : string) : void</text>
<text text-anchor="start" x="1302" y="-480.8" font-family="Times,serif" font-size="14.00">+ getVersion() : string</text>
<text text-anchor="start" x="1302" y="-461.8" font-family="Times,serif" font-size="14.00">+ setVersion(version : string) : void</text>
<text text-anchor="start" x="1302" y="-442.8" font-family="Times,serif" font-size="14.00">+ getLongVersion() : string</text>
<text text-anchor="start" x="1302" y="-423.8" font-family="Times,serif" font-size="14.00">+ register(name : string) : Symfony\Component\Console\Command\Command</text>
<text text-anchor="start" x="1302" y="-404.8" font-family="Times,serif" font-size="14.00">+ addCommands(commands : array) : void</text>
<text text-anchor="start" x="1302" y="-385.8" font-family="Times,serif" font-size="14.00">+ add(command : Symfony\Component\Console\Command\Command) : ?Symfony\Component\Console\Command\Command</text>
<text text-anchor="start" x="1302" y="-366.8" font-family="Times,serif" font-size="14.00">+ addCommand(command) : ?Symfony\Component\Console\Command\Command</text>
<text text-anchor="start" x="1302" y="-347.8" font-family="Times,serif" font-size="14.00">+ get(name : string) : Symfony\Component\Console\Command\Command</text>
<text text-anchor="start" x="1302" y="-328.8" font-family="Times,serif" font-size="14.00">+ has(name : string) : bool</text>
<text text-anchor="start" x="1302" y="-309.8" font-family="Times,serif" font-size="14.00">+ getNamespaces() : array</text>
<text text-anchor="start" x="1302" y="-290.8" font-family="Times,serif" font-size="14.00">+ findNamespace(namespace : string) : string</text>
<text text-anchor="start" x="1302" y="-271.8" font-family="Times,serif" font-size="14.00">+ find(name : string) : Symfony\Component\Console\Command\Command</text>
<text text-anchor="start" x="1302" y="-252.8" font-family="Times,serif" font-size="14.00">+ all(namespace : string = «unknown») : array</text>
<text text-anchor="start" x="1302" y="-233.8" font-family="Times,serif" font-size="14.00">+ «static» getAbbreviations(names : array) : array</text>
<text text-anchor="start" x="1302" y="-214.8" font-family="Times,serif" font-size="14.00">+ renderThrowable(e : Throwable, output : Symfony\Component\Console\Output\OutputInterface) : void</text>
<text text-anchor="start" x="1302" y="-195.8" font-family="Times,serif" font-size="14.00">+ extractNamespace(name : string, limit : int = «unknown») : string</text>
<text text-anchor="start" x="1302" y="-176.8" font-family="Times,serif" font-size="14.00">+ setDefaultCommand(commandName : string, isSingleCommand : bool = false) : static</text>
<text text-anchor="start" x="1302" y="-157.8" font-family="Times,serif" font-size="14.00">+ isSingleCommand() : bool</text>
</g>
<!-- Overtrue\\PHPLint\\Console\\Application&#45;&gt;Symfony\\Component\\Console\\Application -->
<g id="edge4" class="edge">
<title>Overtrue\\PHPLint\\Console\\Application&#45;&gt;Symfony\\Component\\Console\\Application</title>
<path fill="none" stroke="black" d="M1894,-1025.44C1894,-1014.24 1894,-1001.94 1894,-988.79"/>
<polygon fill="none" stroke="black" points="1897.5,-988.58 1894,-978.58 1890.5,-988.58 1897.5,-988.58"/>
</g>
<!-- Symfony\\Contracts\\Service\\ResetInterface -->
<g id="node7" class="node">
<title>Symfony\\Contracts\\Service\\ResetInterface</title>
<polygon fill="#fefece" stroke="transparent" points="1979.5,-98.5 1808.5,-98.5 1808.5,-25.5 1979.5,-25.5 1979.5,-98.5"/>
<polygon fill="#eeeeee" stroke="transparent" points="1817,-60 1817,-94 1972,-94 1972,-60 1817,-60"/>
<polygon fill="none" stroke="black" points="1817,-60 1817,-94 1972,-94 1972,-60 1817,-60"/>
<text text-anchor="start" x="1849.5" y="-80.8" font-family="Times,serif" font-weight="bold" font-size="14.00">«interface»</text>
<text text-anchor="start" x="1835.5" y="-66.8" font-family="Times,serif" font-weight="bold" font-size="14.00">ResetInterface</text>
<polygon fill="none" stroke="black" points="1817,-54 1817,-60 1972,-60 1972,-54 1817,-54"/>
<polygon fill="none" stroke="black" points="1817,-29 1817,-54 1972,-54 1972,-29 1817,-29"/>
<text text-anchor="start" x="1822" y="-37.8" font-family="Times,serif" font-size="14.00">+ «abstract» reset()</text>
</g>
<!-- Symfony\\Component\\Console\\Application&#45;&gt;Symfony\\Contracts\\Service\\ResetInterface -->
<g id="edge3" class="edge">
<title>Symfony\\Component\\Console\\Application&#45;&gt;Symfony\\Contracts\\Service\\ResetInterface</title>
<path fill="none" stroke="black" stroke-dasharray="5,2" d="M1894,-145.23C1894,-131.85 1894,-119.65 1894,-108.99"/>
<polygon fill="none" stroke="black" points="1897.5,-108.85 1894,-98.85 1890.5,-108.85 1897.5,-108.85"/>
</g>
</g>
</svg>
