<?xml version="1.0" encoding="UTF-8" standalone="no"?>
<!DOCTYPE svg PUBLIC "-//W3C//DTD SVG 1.1//EN"
 "http://www.w3.org/Graphics/SVG/1.1/DTD/svg11.dtd">
<!-- Generated by graphviz version 2.43.0 (0)
 -->
<!-- Title: %3 Pages: 1 -->
<svg width="1997pt" height="1142pt"
 viewBox="0.00 0.00 1997.00 1142.00" xmlns="http://www.w3.org/2000/svg" xmlns:xlink="http://www.w3.org/1999/xlink">
<g id="graph0" class="graph" transform="scale(1 1) rotate(0) translate(4 1138)">
<title>%3</title>
<g id="clust1" class="cluster">
<title>cluster_0</title>
<polygon fill="#cdaa7d" stroke="black" points="159,-973 159,-1104 1017,-1104 1017,-973 159,-973"/>
<text text-anchor="middle" x="588" y="-1088.8" font-family="Times,serif" font-size="14.00">Overtrue\PHPLint\Command</text>
</g>
<g id="clust2" class="cluster">
<title>cluster_1</title>
<polygon fill="transparent" stroke="black" points="8,-134.5 8,-936.5 978,-936.5 978,-134.5 8,-134.5"/>
<text text-anchor="middle" x="493" y="-921.3" font-family="Times,serif" font-size="14.00">Symfony\Component\Console\Command</text>
</g>
<g id="clust3" class="cluster">
<title>cluster_2</title>
<polygon fill="#cdaa7d" stroke="black" points="1025,-951 1025,-1126 1967,-1126 1967,-951 1025,-951"/>
<text text-anchor="middle" x="1496" y="-1110.8" font-family="Times,serif" font-size="14.00">Overtrue\PHPLint\Console</text>
</g>
<g id="clust4" class="cluster">
<title>cluster_3</title>
<polygon fill="transparent" stroke="black" points="1011,-128 1011,-943 1981,-943 1981,-128 1011,-128"/>
<text text-anchor="middle" x="1496" y="-927.8" font-family="Times,serif" font-size="14.00">Symfony\Component\Console</text>
</g>
<g id="clust5" class="cluster">
<title>cluster_4</title>
<polygon fill="transparent" stroke="black" points="1412,-8 1412,-120 1581,-120 1581,-8 1412,-8"/>
<text text-anchor="middle" x="1496.5" y="-104.8" font-family="Times,serif" font-size="14.00">Symfony\Contracts\Service</text>
</g>
<!-- Overtrue\\PHPLint\\Command\\ConfigureCommandTrait -->
<g id="node1" class="node">
<title>Overtrue\\PHPLint\\Command\\ConfigureCommandTrait</title>
<polygon fill="#fefece" stroke="transparent" points="1009,-1054 837,-1054 837,-1000 1009,-1000 1009,-1054"/>
<polygon fill="#eeeeee" stroke="transparent" points="845,-1016 845,-1050 1001,-1050 1001,-1016 845,-1016"/>
<polygon fill="none" stroke="black" points="845,-1016 845,-1050 1001,-1050 1001,-1016 845,-1016"/>
<text text-anchor="start" x="848" y="-1022.8" font-family="Times,serif" font-weight="bold" font-size="14.00">ConfigureCommandTrait</text>
<polygon fill="none" stroke="black" points="845,-1010 845,-1016 1001,-1016 1001,-1010 845,-1010"/>
<polygon fill="none" stroke="black" points="845,-1004 845,-1010 1001,-1010 1001,-1004 845,-1004"/>
</g>
<!-- Overtrue\\PHPLint\\Command\\LintCommand -->
<g id="node2" class="node">
<title>Overtrue\\PHPLint\\Command\\LintCommand</title>
<polygon fill="#fefece" stroke="transparent" points="818.5,-1073 167.5,-1073 167.5,-981 818.5,-981 818.5,-1073"/>
<polygon fill="#eeeeee" stroke="transparent" points="176,-1035 176,-1069 811,-1069 811,-1035 176,-1035"/>
<polygon fill="none" stroke="black" points="176,-1035 176,-1069 811,-1069 811,-1035 176,-1035"/>
<text text-anchor="start" x="449.5" y="-1041.8" font-family="Times,serif" font-weight="bold" font-size="14.00">LintCommand</text>
<polygon fill="none" stroke="black" points="176,-1029 176,-1035 811,-1035 811,-1029 176,-1029"/>
<polygon fill="none" stroke="black" points="176,-985 176,-1029 811,-1029 811,-985 176,-985"/>
<text text-anchor="start" x="181" y="-1012.8" font-family="Times,serif" font-size="14.00">+ __construct(dispatcher : Symfony\Component\EventDispatcher\EventDispatcherInterface, name : string = &#39;lint&#39;)</text>
<text text-anchor="start" x="181" y="-993.8" font-family="Times,serif" font-size="14.00">+ getResults() : Overtrue\PHPLint\Output\LinterOutput</text>
</g>
<!-- Symfony\\Component\\Console\\Command\\Command -->
<g id="node3" class="node">
<title>Symfony\\Component\\Console\\Command\\Command</title>
<polygon fill="#fefece" stroke="transparent" points="969.5,-905.5 16.5,-905.5 16.5,-142.5 969.5,-142.5 969.5,-905.5"/>
<polygon fill="#eeeeee" stroke="transparent" points="25,-867 25,-901 962,-901 962,-867 25,-867"/>
<polygon fill="none" stroke="black" points="25,-867 25,-901 962,-901 962,-867 25,-867"/>
<text text-anchor="start" x="462" y="-873.8" font-family="Times,serif" font-weight="bold" font-size="14.00">Command</text>
<polygon fill="none" stroke="black" points="25,-804 25,-867 962,-867 962,-804 25,-804"/>
<text text-anchor="start" x="30" y="-850.8" font-family="Times,serif" font-size="14.00">+ «static» SUCCESS : int = 0 {readOnly}</text>
<text text-anchor="start" x="30" y="-831.8" font-family="Times,serif" font-size="14.00">+ «static» FAILURE : int = 1 {readOnly}</text>
<text text-anchor="start" x="30" y="-812.8" font-family="Times,serif" font-size="14.00">+ «static» INVALID : int = 2 {readOnly}</text>
<polygon fill="none" stroke="black" points="25,-798 25,-804 962,-804 962,-798 25,-798"/>
<polygon fill="none" stroke="black" points="25,-146 25,-798 962,-798 962,-146 25,-146"/>
<text text-anchor="start" x="30" y="-781.8" font-family="Times,serif" font-size="14.00">+ «static» getDefaultName() : ?string</text>
<text text-anchor="start" x="30" y="-762.8" font-family="Times,serif" font-size="14.00">+ «static» getDefaultDescription() : ?string</text>
<text text-anchor="start" x="30" y="-743.8" font-family="Times,serif" font-size="14.00">+ __construct(name : string = «unknown»)</text>
<text text-anchor="start" x="30" y="-724.8" font-family="Times,serif" font-size="14.00">+ ignoreValidationErrors()</text>
<text text-anchor="start" x="30" y="-705.8" font-family="Times,serif" font-size="14.00">+ setApplication(application : Symfony\Component\Console\Application = «unknown»)</text>
<text text-anchor="start" x="30" y="-686.8" font-family="Times,serif" font-size="14.00">+ setHelperSet(helperSet : Symfony\Component\Console\Helper\HelperSet)</text>
<text text-anchor="start" x="30" y="-667.8" font-family="Times,serif" font-size="14.00">+ getHelperSet() : ?Symfony\Component\Console\Helper\HelperSet</text>
<text text-anchor="start" x="30" y="-648.8" font-family="Times,serif" font-size="14.00">+ getApplication() : ?Symfony\Component\Console\Application</text>
<text text-anchor="start" x="30" y="-629.8" font-family="Times,serif" font-size="14.00">+ isEnabled()</text>
<text text-anchor="start" x="30" y="-610.8" font-family="Times,serif" font-size="14.00">+ run(input : Symfony\Component\Console\Input\InputInterface, output : Symfony\Component\Console\Output\OutputInterface) : int</text>
<text text-anchor="start" x="30" y="-591.8" font-family="Times,serif" font-size="14.00">+ complete(input : Symfony\Component\Console\Completion\CompletionInput, suggestions : Symfony\Component\Console\Completion\CompletionSuggestions) : void</text>
<text text-anchor="start" x="30" y="-572.8" font-family="Times,serif" font-size="14.00">+ setCode(code : callable) : static</text>
<text text-anchor="start" x="30" y="-553.8" font-family="Times,serif" font-size="14.00">+ mergeApplicationDefinition(mergeArgs : bool = true) : void</text>
<text text-anchor="start" x="30" y="-534.8" font-family="Times,serif" font-size="14.00">+ setDefinition(definition) : static</text>
<text text-anchor="start" x="30" y="-515.8" font-family="Times,serif" font-size="14.00">+ getDefinition() : Symfony\Component\Console\Input\InputDefinition</text>
<text text-anchor="start" x="30" y="-496.8" font-family="Times,serif" font-size="14.00">+ getNativeDefinition() : Symfony\Component\Console\Input\InputDefinition</text>
<text text-anchor="start" x="30" y="-477.8" font-family="Times,serif" font-size="14.00">+ addArgument(name : string, mode : int = «unknown», description : string = &#39;&#39;, default : mixed = «unknown») : static</text>
<text text-anchor="start" x="30" y="-458.8" font-family="Times,serif" font-size="14.00">+ addOption(name : string, shortcut = «unknown», mode : int = «unknown», description : string = &#39;&#39;, default : mixed = «unknown») : static</text>
<text text-anchor="start" x="30" y="-439.8" font-family="Times,serif" font-size="14.00">+ setName(name : string) : static</text>
<text text-anchor="start" x="30" y="-420.8" font-family="Times,serif" font-size="14.00">+ setProcessTitle(title : string) : static</text>
<text text-anchor="start" x="30" y="-401.8" font-family="Times,serif" font-size="14.00">+ getName() : ?string</text>
<text text-anchor="start" x="30" y="-382.8" font-family="Times,serif" font-size="14.00">+ setHidden(hidden : bool = true) : static</text>
<text text-anchor="start" x="30" y="-363.8" font-family="Times,serif" font-size="14.00">+ isHidden() : bool</text>
<text text-anchor="start" x="30" y="-344.8" font-family="Times,serif" font-size="14.00">+ setDescription(description : string) : static</text>
<text text-anchor="start" x="30" y="-325.8" font-family="Times,serif" font-size="14.00">+ getDescription() : string</text>
<text text-anchor="start" x="30" y="-306.8" font-family="Times,serif" font-size="14.00">+ setHelp(help : string) : static</text>
<text text-anchor="start" x="30" y="-287.8" font-family="Times,serif" font-size="14.00">+ getHelp() : string</text>
<text text-anchor="start" x="30" y="-268.8" font-family="Times,serif" font-size="14.00">+ getProcessedHelp() : string</text>
<text text-anchor="start" x="30" y="-249.8" font-family="Times,serif" font-size="14.00">+ setAliases(aliases : iterable) : static</text>
<text text-anchor="start" x="30" y="-230.8" font-family="Times,serif" font-size="14.00">+ getAliases() : array</text>
<text text-anchor="start" x="30" y="-211.8" font-family="Times,serif" font-size="14.00">+ getSynopsis(short : bool = false) : string</text>
<text text-anchor="start" x="30" y="-192.8" font-family="Times,serif" font-size="14.00">+ addUsage(usage : string) : static</text>
<text text-anchor="start" x="30" y="-173.8" font-family="Times,serif" font-size="14.00">+ getUsages() : array</text>
<text text-anchor="start" x="30" y="-154.8" font-family="Times,serif" font-size="14.00">+ getHelper(name : string) : ?mixed</text>
</g>
<!-- Overtrue\\PHPLint\\Command\\LintCommand&#45;&gt;Symfony\\Component\\Console\\Command\\Command -->
<g id="edge1" class="edge">
<title>Overtrue\\PHPLint\\Command\\LintCommand&#45;&gt;Symfony\\Component\\Console\\Command\\Command</title>
<path fill="none" stroke="black" d="M493,-980.66C493,-962.85 493,-940.68 493,-915.78"/>
<polygon fill="none" stroke="black" points="496.5,-915.73 493,-905.73 489.5,-915.73 496.5,-915.73"/>
</g>
<!-- Overtrue\\PHPLint\\Console\\Application -->
<g id="node4" class="node">
<title>Overtrue\\PHPLint\\Console\\Application</title>
<polygon fill="#fefece" stroke="transparent" points="1958.5,-1095 1033.5,-1095 1033.5,-959 1958.5,-959 1958.5,-1095"/>
<polygon fill="#eeeeee" stroke="transparent" points="1042,-1057 1042,-1091 1951,-1091 1951,-1057 1042,-1057"/>
<polygon fill="none" stroke="black" points="1042,-1057 1042,-1091 1951,-1091 1951,-1057 1042,-1057"/>
<text text-anchor="start" x="1462.5" y="-1063.8" font-family="Times,serif" font-weight="bold" font-size="14.00">Application</text>
<polygon fill="none" stroke="black" points="1042,-1013 1042,-1057 1951,-1057 1951,-1013 1042,-1013"/>
<text text-anchor="start" x="1047" y="-1040.8" font-family="Times,serif" font-size="14.00">+ «static» NAME : string = &quot;phplint&quot; {readOnly}</text>
<text text-anchor="start" x="1047" y="-1021.8" font-family="Times,serif" font-size="14.00">+ «static» PACKAGE_NAME : string = &quot;overtrue\/phplint&quot; {readOnly}</text>
<polygon fill="none" stroke="black" points="1042,-1007 1042,-1013 1951,-1013 1951,-1007 1042,-1007"/>
<polygon fill="none" stroke="black" points="1042,-963 1042,-1007 1951,-1007 1951,-963 1042,-963"/>
<text text-anchor="start" x="1047" y="-990.8" font-family="Times,serif" font-size="14.00">+ __construct()</text>
<text text-anchor="start" x="1047" y="-971.8" font-family="Times,serif" font-size="14.00">+ run(input : Symfony\Component\Console\Input\InputInterface = «unknown», output : Symfony\Component\Console\Output\OutputInterface = «unknown») : int</text>
</g>
<!-- Symfony\\Component\\Console\\Application -->
<g id="node5" class="node">
<title>Symfony\\Component\\Console\\Application</title>
<polygon fill="#fefece" stroke="transparent" points="1972.5,-912 1019.5,-912 1019.5,-136 1972.5,-136 1972.5,-912"/>
<polygon fill="#eeeeee" stroke="transparent" points="1028,-874 1028,-908 1965,-908 1965,-874 1028,-874"/>
<polygon fill="none" stroke="black" points="1028,-874 1028,-908 1965,-908 1965,-874 1028,-874"/>
<text text-anchor="start" x="1462.5" y="-880.8" font-family="Times,serif" font-weight="bold" font-size="14.00">Application</text>
<polygon fill="none" stroke="black" points="1028,-868 1028,-874 1965,-874 1965,-868 1028,-868"/>
<polygon fill="none" stroke="black" points="1028,-140 1028,-868 1965,-868 1965,-140 1028,-140"/>
<text text-anchor="start" x="1033" y="-851.8" font-family="Times,serif" font-size="14.00">+ __construct(name : string = &#39;UNKNOWN&#39;, version : string = &#39;UNKNOWN&#39;)</text>
<text text-anchor="start" x="1033" y="-832.8" font-family="Times,serif" font-size="14.00">+ setDispatcher(dispatcher : Symfony\Contracts\EventDispatcher\EventDispatcherInterface) : void</text>
<text text-anchor="start" x="1033" y="-813.8" font-family="Times,serif" font-size="14.00">+ setCommandLoader(commandLoader : Symfony\Component\Console\CommandLoader\CommandLoaderInterface)</text>
<text text-anchor="start" x="1033" y="-794.8" font-family="Times,serif" font-size="14.00">+ getSignalRegistry() : Symfony\Component\Console\SignalRegistry\SignalRegistry</text>
<text text-anchor="start" x="1033" y="-775.8" font-family="Times,serif" font-size="14.00">+ setSignalsToDispatchEvent(signalsToDispatchEvent : int = «unknown»)</text>
<text text-anchor="start" x="1033" y="-756.8" font-family="Times,serif" font-size="14.00">+ run(input : Symfony\Component\Console\Input\InputInterface = «unknown», output : Symfony\Component\Console\Output\OutputInterface = «unknown») : int</text>
<text text-anchor="start" x="1033" y="-737.8" font-family="Times,serif" font-size="14.00">+ doRun(input : Symfony\Component\Console\Input\InputInterface, output : Symfony\Component\Console\Output\OutputInterface)</text>
<text text-anchor="start" x="1033" y="-718.8" font-family="Times,serif" font-size="14.00">+ reset()</text>
<text text-anchor="start" x="1033" y="-699.8" font-family="Times,serif" font-size="14.00">+ setHelperSet(helperSet : Symfony\Component\Console\Helper\HelperSet)</text>
<text text-anchor="start" x="1033" y="-680.8" font-family="Times,serif" font-size="14.00">+ getHelperSet() : Symfony\Component\Console\Helper\HelperSet</text>
<text text-anchor="start" x="1033" y="-661.8" font-family="Times,serif" font-size="14.00">+ setDefinition(definition : Symfony\Component\Console\Input\InputDefinition)</text>
<text text-anchor="start" x="1033" y="-642.8" font-family="Times,serif" font-size="14.00">+ getDefinition() : Symfony\Component\Console\Input\InputDefinition</text>
<text text-anchor="start" x="1033" y="-623.8" font-family="Times,serif" font-size="14.00">+ complete(input : Symfony\Component\Console\Completion\CompletionInput, suggestions : Symfony\Component\Console\Completion\CompletionSuggestions) : void</text>
<text text-anchor="start" x="1033" y="-604.8" font-family="Times,serif" font-size="14.00">+ getHelp() : string</text>
<text text-anchor="start" x="1033" y="-585.8" font-family="Times,serif" font-size="14.00">+ areExceptionsCaught() : bool</text>
<text text-anchor="start" x="1033" y="-566.8" font-family="Times,serif" font-size="14.00">+ setCatchExceptions(boolean : bool)</text>
<text text-anchor="start" x="1033" y="-547.8" font-family="Times,serif" font-size="14.00">+ setCatchErrors(catchErrors : bool = true) : void</text>
<text text-anchor="start" x="1033" y="-528.8" font-family="Times,serif" font-size="14.00">+ isAutoExitEnabled() : bool</text>
<text text-anchor="start" x="1033" y="-509.8" font-family="Times,serif" font-size="14.00">+ setAutoExit(boolean : bool)</text>
<text text-anchor="start" x="1033" y="-490.8" font-family="Times,serif" font-size="14.00">+ getName() : string</text>
<text text-anchor="start" x="1033" y="-471.8" font-family="Times,serif" font-size="14.00">+ setName(name : string)</text>
<text text-anchor="start" x="1033" y="-452.8" font-family="Times,serif" font-size="14.00">+ getVersion() : string</text>
<text text-anchor="start" x="1033" y="-433.8" font-family="Times,serif" font-size="14.00">+ setVersion(version : string)</text>
<text text-anchor="start" x="1033" y="-414.8" font-family="Times,serif" font-size="14.00">+ getLongVersion()</text>
<text text-anchor="start" x="1033" y="-395.8" font-family="Times,serif" font-size="14.00">+ register(name : string) : Symfony\Component\Console\Command\Command</text>
<text text-anchor="start" x="1033" y="-376.8" font-family="Times,serif" font-size="14.00">+ addCommands(commands : array)</text>
<text text-anchor="start" x="1033" y="-357.8" font-family="Times,serif" font-size="14.00">+ add(command : Symfony\Component\Console\Command\Command)</text>
<text text-anchor="start" x="1033" y="-338.8" font-family="Times,serif" font-size="14.00">+ get(name : string)</text>
<text text-anchor="start" x="1033" y="-319.8" font-family="Times,serif" font-size="14.00">+ has(name : string) : bool</text>
<text text-anchor="start" x="1033" y="-300.8" font-family="Times,serif" font-size="14.00">+ getNamespaces() : array</text>
<text text-anchor="start" x="1033" y="-281.8" font-family="Times,serif" font-size="14.00">+ findNamespace(namespace : string) : string</text>
<text text-anchor="start" x="1033" y="-262.8" font-family="Times,serif" font-size="14.00">+ find(name : string)</text>
<text text-anchor="start" x="1033" y="-243.8" font-family="Times,serif" font-size="14.00">+ all(namespace : string = «unknown»)</text>
<text text-anchor="start" x="1033" y="-224.8" font-family="Times,serif" font-size="14.00">+ «static» getAbbreviations(names : array) : array</text>
<text text-anchor="start" x="1033" y="-205.8" font-family="Times,serif" font-size="14.00">+ renderThrowable(e : Throwable, output : Symfony\Component\Console\Output\OutputInterface) : void</text>
<text text-anchor="start" x="1033" y="-186.8" font-family="Times,serif" font-size="14.00">+ extractNamespace(name : string, limit : int = «unknown») : string</text>
<text text-anchor="start" x="1033" y="-167.8" font-family="Times,serif" font-size="14.00">+ setDefaultCommand(commandName : string, isSingleCommand : bool = false) : static</text>
<text text-anchor="start" x="1033" y="-148.8" font-family="Times,serif" font-size="14.00">+ isSingleCommand() : bool</text>
</g>
<!-- Overtrue\\PHPLint\\Console\\Application&#45;&gt;Symfony\\Component\\Console\\Application -->
<g id="edge3" class="edge">
<title>Overtrue\\PHPLint\\Console\\Application&#45;&gt;Symfony\\Component\\Console\\Application</title>
<path fill="none" stroke="black" d="M1496,-958.95C1496,-947.8 1496,-935.57 1496,-922.51"/>
<polygon fill="none" stroke="black" points="1499.5,-922.38 1496,-912.38 1492.5,-922.38 1499.5,-922.38"/>
</g>
<!-- Symfony\\Contracts\\Service\\ResetInterface -->
<g id="node6" class="node">
<title>Symfony\\Contracts\\Service\\ResetInterface</title>
<polygon fill="#fefece" stroke="transparent" points="1562,-89 1430,-89 1430,-16 1562,-16 1562,-89"/>
<polygon fill="#eeeeee" stroke="transparent" points="1438,-50.5 1438,-84.5 1554,-84.5 1554,-50.5 1438,-50.5"/>
<polygon fill="none" stroke="black" points="1438,-50.5 1438,-84.5 1554,-84.5 1554,-50.5 1438,-50.5"/>
<text text-anchor="start" x="1463.5" y="-71.3" font-family="Times,serif" font-weight="bold" font-size="14.00">«interface»</text>
<text text-anchor="start" x="1453.5" y="-57.3" font-family="Times,serif" font-weight="bold" font-size="14.00">ResetInterface</text>
<polygon fill="none" stroke="black" points="1438,-44.5 1438,-50.5 1554,-50.5 1554,-44.5 1438,-44.5"/>
<polygon fill="none" stroke="black" points="1438,-19.5 1438,-44.5 1554,-44.5 1554,-19.5 1438,-19.5"/>
<text text-anchor="start" x="1443" y="-28.3" font-family="Times,serif" font-size="14.00">+ «abstract» reset()</text>
</g>
<!-- Symfony\\Component\\Console\\Application&#45;&gt;Symfony\\Contracts\\Service\\ResetInterface -->
<g id="edge2" class="edge">
<title>Symfony\\Component\\Console\\Application&#45;&gt;Symfony\\Contracts\\Service\\ResetInterface</title>
<path fill="none" stroke="black" stroke-dasharray="5,2" d="M1496,-135.82C1496,-122.34 1496,-110.04 1496,-99.29"/>
<polygon fill="none" stroke="black" points="1499.5,-99.08 1496,-89.08 1492.5,-99.08 1499.5,-99.08"/>
</g>
</g>
</svg>
