<?xml version="1.0" encoding="UTF-8" standalone="no"?>
<!DOCTYPE svg PUBLIC "-//W3C//DTD SVG 1.1//EN"
 "http://www.w3.org/Graphics/SVG/1.1/DTD/svg11.dtd">
<!-- Generated by graphviz version 2.43.0 (0)
 -->
<!-- Title: %3 Pages: 1 -->
<svg width="2524pt" height="1142pt"
 viewBox="0.00 0.00 2524.00 1142.00" xmlns="http://www.w3.org/2000/svg" xmlns:xlink="http://www.w3.org/1999/xlink">
<g id="graph0" class="graph" transform="scale(1 1) rotate(0) translate(4 1138)">
<title>%3</title>
<g id="clust1" class="cluster">
<title>cluster_0</title>
<polygon fill="#cdaa7d" stroke="black" points="193,-973 193,-1104 1288,-1104 1288,-973 193,-973"/>
<text text-anchor="middle" x="740.5" y="-1088.8" font-family="Times,serif" font-size="14.00">Overtrue\PHPLint\Command</text>
</g>
<g id="clust2" class="cluster">
<title>cluster_1</title>
<polygon fill="transparent" stroke="black" points="8,-134.5 8,-936.5 1236,-936.5 1236,-134.5 8,-134.5"/>
<text text-anchor="middle" x="622" y="-921.3" font-family="Times,serif" font-size="14.00">Symfony\Component\Console\Command</text>
</g>
<g id="clust3" class="cluster">
<title>cluster_2</title>
<polygon fill="#cdaa7d" stroke="black" points="1296,-951 1296,-1126 2492,-1126 2492,-951 1296,-951"/>
<text text-anchor="middle" x="1894" y="-1110.8" font-family="Times,serif" font-size="14.00">Overtrue\PHPLint\Console</text>
</g>
<g id="clust4" class="cluster">
<title>cluster_3</title>
<polygon fill="transparent" stroke="black" points="1280,-128 1280,-943 2508,-943 2508,-128 1280,-128"/>
<text text-anchor="middle" x="1894" y="-927.8" font-family="Times,serif" font-size="14.00">Symfony\Component\Console</text>
</g>
<g id="clust5" class="cluster">
<title>cluster_4</title>
<polygon fill="transparent" stroke="black" points="1789,-8 1789,-120 2000,-120 2000,-8 1789,-8"/>
<text text-anchor="middle" x="1894.5" y="-104.8" font-family="Times,serif" font-size="14.00">Symfony\Contracts\Service</text>
</g>
<!-- Overtrue\\PHPLint\\Command\\ConfigureCommandTrait -->
<g id="node1" class="node">
<title>Overtrue\\PHPLint\\Command\\ConfigureCommandTrait</title>
<polygon fill="#fefece" stroke="transparent" points="1280,-1054 1062,-1054 1062,-1000 1280,-1000 1280,-1054"/>
<polygon fill="#eeeeee" stroke="transparent" points="1070,-1016 1070,-1050 1272,-1050 1272,-1016 1070,-1016"/>
<polygon fill="none" stroke="black" points="1070,-1016 1070,-1050 1272,-1050 1272,-1016 1070,-1016"/>
<text text-anchor="start" x="1073" y="-1022.8" font-family="Times,serif" font-weight="bold" font-size="14.00">ConfigureCommandTrait</text>
<polygon fill="none" stroke="black" points="1070,-1010 1070,-1016 1272,-1016 1272,-1010 1070,-1010"/>
<polygon fill="none" stroke="black" points="1070,-1004 1070,-1010 1272,-1010 1272,-1004 1070,-1004"/>
</g>
<!-- Overtrue\\PHPLint\\Command\\LintCommand -->
<g id="node2" class="node">
<title>Overtrue\\PHPLint\\Command\\LintCommand</title>
<polygon fill="#fefece" stroke="transparent" points="1043.5,-1073 200.5,-1073 200.5,-981 1043.5,-981 1043.5,-1073"/>
<polygon fill="#eeeeee" stroke="transparent" points="209,-1035 209,-1069 1036,-1069 1036,-1035 209,-1035"/>
<polygon fill="none" stroke="black" points="209,-1035 209,-1069 1036,-1069 1036,-1035 209,-1035"/>
<text text-anchor="start" x="566.5" y="-1041.8" font-family="Times,serif" font-weight="bold" font-size="14.00">LintCommand</text>
<polygon fill="none" stroke="black" points="209,-1029 209,-1035 1036,-1035 1036,-1029 209,-1029"/>
<polygon fill="none" stroke="black" points="209,-985 209,-1029 1036,-1029 1036,-985 209,-985"/>
<text text-anchor="start" x="214" y="-1012.8" font-family="Times,serif" font-size="14.00">+ __construct(dispatcher : Symfony\Component\EventDispatcher\EventDispatcherInterface, name : string = &#39;lint&#39;)</text>
<text text-anchor="start" x="214" y="-993.8" font-family="Times,serif" font-size="14.00">+ getResults() : Overtrue\PHPLint\Output\LinterOutput</text>
</g>
<!-- Symfony\\Component\\Console\\Command\\Command -->
<g id="node3" class="node">
<title>Symfony\\Component\\Console\\Command\\Command</title>
<polygon fill="#fefece" stroke="transparent" points="1227.5,-905.5 16.5,-905.5 16.5,-142.5 1227.5,-142.5 1227.5,-905.5"/>
<polygon fill="#eeeeee" stroke="transparent" points="25,-867 25,-901 1220,-901 1220,-867 25,-867"/>
<polygon fill="none" stroke="black" points="25,-867 25,-901 1220,-901 1220,-867 25,-867"/>
<text text-anchor="start" x="582.5" y="-873.8" font-family="Times,serif" font-weight="bold" font-size="14.00">Command</text>
<polygon fill="none" stroke="black" points="25,-804 25,-867 1220,-867 1220,-804 25,-804"/>
<text text-anchor="start" x="30" y="-850.8" font-family="Times,serif" font-size="14.00">+ «static» SUCCESS : int = 0 {readOnly}</text>
<text text-anchor="start" x="30" y="-831.8" font-family="Times,serif" font-size="14.00">+ «static» FAILURE : int = 1 {readOnly}</text>
<text text-anchor="start" x="30" y="-812.8" font-family="Times,serif" font-size="14.00">+ «static» INVALID : int = 2 {readOnly}</text>
<polygon fill="none" stroke="black" points="25,-798 25,-804 1220,-804 1220,-798 25,-798"/>
<polygon fill="none" stroke="black" points="25,-146 25,-798 1220,-798 1220,-146 25,-146"/>
<text text-anchor="start" x="30" y="-781.8" font-family="Times,serif" font-size="14.00">+ «static» getDefaultName() : ?string</text>
<text text-anchor="start" x="30" y="-762.8" font-family="Times,serif" font-size="14.00">+ «static» getDefaultDescription() : ?string</text>
<text text-anchor="start" x="30" y="-743.8" font-family="Times,serif" font-size="14.00">+ __construct(name : string = «unknown»)</text>
<text text-anchor="start" x="30" y="-724.8" font-family="Times,serif" font-size="14.00">+ ignoreValidationErrors()</text>
<text text-anchor="start" x="30" y="-705.8" font-family="Times,serif" font-size="14.00">+ setApplication(application : Symfony\Component\Console\Application = «unknown»)</text>
<text text-anchor="start" x="30" y="-686.8" font-family="Times,serif" font-size="14.00">+ setHelperSet(helperSet : Symfony\Component\Console\Helper\HelperSet)</text>
<text text-anchor="start" x="30" y="-667.8" font-family="Times,serif" font-size="14.00">+ getHelperSet() : ?Symfony\Component\Console\Helper\HelperSet</text>
<text text-anchor="start" x="30" y="-648.8" font-family="Times,serif" font-size="14.00">+ getApplication() : ?Symfony\Component\Console\Application</text>
<text text-anchor="start" x="30" y="-629.8" font-family="Times,serif" font-size="14.00">+ isEnabled()</text>
<text text-anchor="start" x="30" y="-610.8" font-family="Times,serif" font-size="14.00">+ run(input : Symfony\Component\Console\Input\InputInterface, output : Symfony\Component\Console\Output\OutputInterface) : int</text>
<text text-anchor="start" x="30" y="-591.8" font-family="Times,serif" font-size="14.00">+ complete(input : Symfony\Component\Console\Completion\CompletionInput, suggestions : Symfony\Component\Console\Completion\CompletionSuggestions) : void</text>
<text text-anchor="start" x="30" y="-572.8" font-family="Times,serif" font-size="14.00">+ setCode(code : callable) : static</text>
<text text-anchor="start" x="30" y="-553.8" font-family="Times,serif" font-size="14.00">+ mergeApplicationDefinition(mergeArgs : bool = true) : void</text>
<text text-anchor="start" x="30" y="-534.8" font-family="Times,serif" font-size="14.00">+ setDefinition(definition) : static</text>
<text text-anchor="start" x="30" y="-515.8" font-family="Times,serif" font-size="14.00">+ getDefinition() : Symfony\Component\Console\Input\InputDefinition</text>
<text text-anchor="start" x="30" y="-496.8" font-family="Times,serif" font-size="14.00">+ getNativeDefinition() : Symfony\Component\Console\Input\InputDefinition</text>
<text text-anchor="start" x="30" y="-477.8" font-family="Times,serif" font-size="14.00">+ addArgument(name : string, mode : int = «unknown», description : string = &#39;&#39;, default : mixed = «unknown») : static</text>
<text text-anchor="start" x="30" y="-458.8" font-family="Times,serif" font-size="14.00">+ addOption(name : string, shortcut = «unknown», mode : int = «unknown», description : string = &#39;&#39;, default : mixed = «unknown») : static</text>
<text text-anchor="start" x="30" y="-439.8" font-family="Times,serif" font-size="14.00">+ setName(name : string) : static</text>
<text text-anchor="start" x="30" y="-420.8" font-family="Times,serif" font-size="14.00">+ setProcessTitle(title : string) : static</text>
<text text-anchor="start" x="30" y="-401.8" font-family="Times,serif" font-size="14.00">+ getName() : ?string</text>
<text text-anchor="start" x="30" y="-382.8" font-family="Times,serif" font-size="14.00">+ setHidden(hidden : bool = true) : static</text>
<text text-anchor="start" x="30" y="-363.8" font-family="Times,serif" font-size="14.00">+ isHidden() : bool</text>
<text text-anchor="start" x="30" y="-344.8" font-family="Times,serif" font-size="14.00">+ setDescription(description : string) : static</text>
<text text-anchor="start" x="30" y="-325.8" font-family="Times,serif" font-size="14.00">+ getDescription() : string</text>
<text text-anchor="start" x="30" y="-306.8" font-family="Times,serif" font-size="14.00">+ setHelp(help : string) : static</text>
<text text-anchor="start" x="30" y="-287.8" font-family="Times,serif" font-size="14.00">+ getHelp() : string</text>
<text text-anchor="start" x="30" y="-268.8" font-family="Times,serif" font-size="14.00">+ getProcessedHelp() : string</text>
<text text-anchor="start" x="30" y="-249.8" font-family="Times,serif" font-size="14.00">+ setAliases(aliases : iterable) : static</text>
<text text-anchor="start" x="30" y="-230.8" font-family="Times,serif" font-size="14.00">+ getAliases() : array</text>
<text text-anchor="start" x="30" y="-211.8" font-family="Times,serif" font-size="14.00">+ getSynopsis(short : bool = false) : string</text>
<text text-anchor="start" x="30" y="-192.8" font-family="Times,serif" font-size="14.00">+ addUsage(usage : string) : static</text>
<text text-anchor="start" x="30" y="-173.8" font-family="Times,serif" font-size="14.00">+ getUsages() : array</text>
<text text-anchor="start" x="30" y="-154.8" font-family="Times,serif" font-size="14.00">+ getHelper(name : string) : ?mixed</text>
</g>
<!-- Overtrue\\PHPLint\\Command\\LintCommand&#45;&gt;Symfony\\Component\\Console\\Command\\Command -->
<g id="edge1" class="edge">
<title>Overtrue\\PHPLint\\Command\\LintCommand&#45;&gt;Symfony\\Component\\Console\\Command\\Command</title>
<path fill="none" stroke="black" d="M622,-980.66C622,-962.85 622,-940.68 622,-915.78"/>
<polygon fill="none" stroke="black" points="625.5,-915.73 622,-905.73 618.5,-915.73 625.5,-915.73"/>
</g>
<!-- Overtrue\\PHPLint\\Console\\Application -->
<g id="node4" class="node">
<title>Overtrue\\PHPLint\\Console\\Application</title>
<polygon fill="#fefece" stroke="transparent" points="2483.5,-1095 1304.5,-1095 1304.5,-959 2483.5,-959 2483.5,-1095"/>
<polygon fill="#eeeeee" stroke="transparent" points="1313,-1057 1313,-1091 2476,-1091 2476,-1057 1313,-1057"/>
<polygon fill="none" stroke="black" points="1313,-1057 1313,-1091 2476,-1091 2476,-1057 1313,-1057"/>
<text text-anchor="start" x="1849.5" y="-1063.8" font-family="Times,serif" font-weight="bold" font-size="14.00">Application</text>
<polygon fill="none" stroke="black" points="1313,-1013 1313,-1057 2476,-1057 2476,-1013 1313,-1013"/>
<text text-anchor="start" x="1318" y="-1040.8" font-family="Times,serif" font-size="14.00">+ «static» NAME : string = &quot;phplint&quot; {readOnly}</text>
<text text-anchor="start" x="1318" y="-1021.8" font-family="Times,serif" font-size="14.00">+ «static» VERSION : string = &quot;9\.1\.0&quot; {readOnly}</text>
<polygon fill="none" stroke="black" points="1313,-1007 1313,-1013 2476,-1013 2476,-1007 1313,-1007"/>
<polygon fill="none" stroke="black" points="1313,-963 1313,-1007 2476,-1007 2476,-963 1313,-963"/>
<text text-anchor="start" x="1318" y="-990.8" font-family="Times,serif" font-size="14.00">+ __construct()</text>
<text text-anchor="start" x="1318" y="-971.8" font-family="Times,serif" font-size="14.00">+ run(input : Symfony\Component\Console\Input\InputInterface = «unknown», output : Symfony\Component\Console\Output\OutputInterface = «unknown») : int</text>
</g>
<!-- Symfony\\Component\\Console\\Application -->
<g id="node5" class="node">
<title>Symfony\\Component\\Console\\Application</title>
<polygon fill="#fefece" stroke="transparent" points="2499.5,-912 1288.5,-912 1288.5,-136 2499.5,-136 2499.5,-912"/>
<polygon fill="#eeeeee" stroke="transparent" points="1297,-874 1297,-908 2492,-908 2492,-874 1297,-874"/>
<polygon fill="none" stroke="black" points="1297,-874 1297,-908 2492,-908 2492,-874 1297,-874"/>
<text text-anchor="start" x="1849.5" y="-880.8" font-family="Times,serif" font-weight="bold" font-size="14.00">Application</text>
<polygon fill="none" stroke="black" points="1297,-868 1297,-874 2492,-874 2492,-868 1297,-868"/>
<polygon fill="none" stroke="black" points="1297,-140 1297,-868 2492,-868 2492,-140 1297,-140"/>
<text text-anchor="start" x="1302" y="-851.8" font-family="Times,serif" font-size="14.00">+ __construct(name : string = &#39;UNKNOWN&#39;, version : string = &#39;UNKNOWN&#39;)</text>
<text text-anchor="start" x="1302" y="-832.8" font-family="Times,serif" font-size="14.00">+ setDispatcher(dispatcher : Symfony\Contracts\EventDispatcher\EventDispatcherInterface) : void</text>
<text text-anchor="start" x="1302" y="-813.8" font-family="Times,serif" font-size="14.00">+ setCommandLoader(commandLoader : Symfony\Component\Console\CommandLoader\CommandLoaderInterface)</text>
<text text-anchor="start" x="1302" y="-794.8" font-family="Times,serif" font-size="14.00">+ getSignalRegistry() : Symfony\Component\Console\SignalRegistry\SignalRegistry</text>
<text text-anchor="start" x="1302" y="-775.8" font-family="Times,serif" font-size="14.00">+ setSignalsToDispatchEvent(signalsToDispatchEvent : int = «unknown»)</text>
<text text-anchor="start" x="1302" y="-756.8" font-family="Times,serif" font-size="14.00">+ run(input : Symfony\Component\Console\Input\InputInterface = «unknown», output : Symfony\Component\Console\Output\OutputInterface = «unknown») : int</text>
<text text-anchor="start" x="1302" y="-737.8" font-family="Times,serif" font-size="14.00">+ doRun(input : Symfony\Component\Console\Input\InputInterface, output : Symfony\Component\Console\Output\OutputInterface)</text>
<text text-anchor="start" x="1302" y="-718.8" font-family="Times,serif" font-size="14.00">+ reset()</text>
<text text-anchor="start" x="1302" y="-699.8" font-family="Times,serif" font-size="14.00">+ setHelperSet(helperSet : Symfony\Component\Console\Helper\HelperSet)</text>
<text text-anchor="start" x="1302" y="-680.8" font-family="Times,serif" font-size="14.00">+ getHelperSet() : Symfony\Component\Console\Helper\HelperSet</text>
<text text-anchor="start" x="1302" y="-661.8" font-family="Times,serif" font-size="14.00">+ setDefinition(definition : Symfony\Component\Console\Input\InputDefinition)</text>
<text text-anchor="start" x="1302" y="-642.8" font-family="Times,serif" font-size="14.00">+ getDefinition() : Symfony\Component\Console\Input\InputDefinition</text>
<text text-anchor="start" x="1302" y="-623.8" font-family="Times,serif" font-size="14.00">+ complete(input : Symfony\Component\Console\Completion\CompletionInput, suggestions : Symfony\Component\Console\Completion\CompletionSuggestions) : void</text>
<text text-anchor="start" x="1302" y="-604.8" font-family="Times,serif" font-size="14.00">+ getHelp() : string</text>
<text text-anchor="start" x="1302" y="-585.8" font-family="Times,serif" font-size="14.00">+ areExceptionsCaught() : bool</text>
<text text-anchor="start" x="1302" y="-566.8" font-family="Times,serif" font-size="14.00">+ setCatchExceptions(boolean : bool)</text>
<text text-anchor="start" x="1302" y="-547.8" font-family="Times,serif" font-size="14.00">+ setCatchErrors(catchErrors : bool = true) : void</text>
<text text-anchor="start" x="1302" y="-528.8" font-family="Times,serif" font-size="14.00">+ isAutoExitEnabled() : bool</text>
<text text-anchor="start" x="1302" y="-509.8" font-family="Times,serif" font-size="14.00">+ setAutoExit(boolean : bool)</text>
<text text-anchor="start" x="1302" y="-490.8" font-family="Times,serif" font-size="14.00">+ getName() : string</text>
<text text-anchor="start" x="1302" y="-471.8" font-family="Times,serif" font-size="14.00">+ setName(name : string)</text>
<text text-anchor="start" x="1302" y="-452.8" font-family="Times,serif" font-size="14.00">+ getVersion() : string</text>
<text text-anchor="start" x="1302" y="-433.8" font-family="Times,serif" font-size="14.00">+ setVersion(version : string)</text>
<text text-anchor="start" x="1302" y="-414.8" font-family="Times,serif" font-size="14.00">+ getLongVersion()</text>
<text text-anchor="start" x="1302" y="-395.8" font-family="Times,serif" font-size="14.00">+ register(name : string) : Symfony\Component\Console\Command\Command</text>
<text text-anchor="start" x="1302" y="-376.8" font-family="Times,serif" font-size="14.00">+ addCommands(commands : array)</text>
<text text-anchor="start" x="1302" y="-357.8" font-family="Times,serif" font-size="14.00">+ add(command : Symfony\Component\Console\Command\Command)</text>
<text text-anchor="start" x="1302" y="-338.8" font-family="Times,serif" font-size="14.00">+ get(name : string)</text>
<text text-anchor="start" x="1302" y="-319.8" font-family="Times,serif" font-size="14.00">+ has(name : string) : bool</text>
<text text-anchor="start" x="1302" y="-300.8" font-family="Times,serif" font-size="14.00">+ getNamespaces() : array</text>
<text text-anchor="start" x="1302" y="-281.8" font-family="Times,serif" font-size="14.00">+ findNamespace(namespace : string) : string</text>
<text text-anchor="start" x="1302" y="-262.8" font-family="Times,serif" font-size="14.00">+ find(name : string)</text>
<text text-anchor="start" x="1302" y="-243.8" font-family="Times,serif" font-size="14.00">+ all(namespace : string = «unknown»)</text>
<text text-anchor="start" x="1302" y="-224.8" font-family="Times,serif" font-size="14.00">+ «static» getAbbreviations(names : array) : array</text>
<text text-anchor="start" x="1302" y="-205.8" font-family="Times,serif" font-size="14.00">+ renderThrowable(e : Throwable, output : Symfony\Component\Console\Output\OutputInterface) : void</text>
<text text-anchor="start" x="1302" y="-186.8" font-family="Times,serif" font-size="14.00">+ extractNamespace(name : string, limit : int = «unknown») : string</text>
<text text-anchor="start" x="1302" y="-167.8" font-family="Times,serif" font-size="14.00">+ setDefaultCommand(commandName : string, isSingleCommand : bool = false) : static</text>
<text text-anchor="start" x="1302" y="-148.8" font-family="Times,serif" font-size="14.00">+ isSingleCommand() : bool</text>
</g>
<!-- Overtrue\\PHPLint\\Console\\Application&#45;&gt;Symfony\\Component\\Console\\Application -->
<g id="edge3" class="edge">
<title>Overtrue\\PHPLint\\Console\\Application&#45;&gt;Symfony\\Component\\Console\\Application</title>
<path fill="none" stroke="black" d="M1894,-958.95C1894,-947.8 1894,-935.57 1894,-922.51"/>
<polygon fill="none" stroke="black" points="1897.5,-922.38 1894,-912.38 1890.5,-922.38 1897.5,-922.38"/>
</g>
<!-- Symfony\\Contracts\\Service\\ResetInterface -->
<g id="node6" class="node">
<title>Symfony\\Contracts\\Service\\ResetInterface</title>
<polygon fill="#fefece" stroke="transparent" points="1979.5,-89 1808.5,-89 1808.5,-16 1979.5,-16 1979.5,-89"/>
<polygon fill="#eeeeee" stroke="transparent" points="1817,-50.5 1817,-84.5 1972,-84.5 1972,-50.5 1817,-50.5"/>
<polygon fill="none" stroke="black" points="1817,-50.5 1817,-84.5 1972,-84.5 1972,-50.5 1817,-50.5"/>
<text text-anchor="start" x="1849.5" y="-71.3" font-family="Times,serif" font-weight="bold" font-size="14.00">«interface»</text>
<text text-anchor="start" x="1835.5" y="-57.3" font-family="Times,serif" font-weight="bold" font-size="14.00">ResetInterface</text>
<polygon fill="none" stroke="black" points="1817,-44.5 1817,-50.5 1972,-50.5 1972,-44.5 1817,-44.5"/>
<polygon fill="none" stroke="black" points="1817,-19.5 1817,-44.5 1972,-44.5 1972,-19.5 1817,-19.5"/>
<text text-anchor="start" x="1822" y="-28.3" font-family="Times,serif" font-size="14.00">+ «abstract» reset()</text>
</g>
<!-- Symfony\\Component\\Console\\Application&#45;&gt;Symfony\\Contracts\\Service\\ResetInterface -->
<g id="edge2" class="edge">
<title>Symfony\\Component\\Console\\Application&#45;&gt;Symfony\\Contracts\\Service\\ResetInterface</title>
<path fill="none" stroke="black" stroke-dasharray="5,2" d="M1894,-135.82C1894,-122.34 1894,-110.04 1894,-99.29"/>
<polygon fill="none" stroke="black" points="1897.5,-99.08 1894,-89.08 1890.5,-99.08 1897.5,-99.08"/>
</g>
</g>
</svg>
