<?xml version="1.0" encoding="UTF-8" standalone="no"?>
<!DOCTYPE svg PUBLIC "-//W3C//DTD SVG 1.1//EN"
 "http://www.w3.org/Graphics/SVG/1.1/DTD/svg11.dtd">
<!-- Generated by graphviz version 2.42.4 (0)
 -->
<!-- Pages: 1 -->
<svg width="4513pt" height="1784pt"
 viewBox="0.00 0.00 4513.00 1784.00" xmlns="http://www.w3.org/2000/svg" xmlns:xlink="http://www.w3.org/1999/xlink">
<g id="graph0" class="graph" transform="scale(1 1) rotate(0) translate(4 1780)">
<g id="clust1" class="cluster">
<title>cluster_0</title>
<polygon fill="transparent" stroke="black" points="932.5,-1059 932.5,-1629 4406.5,-1629 4406.5,-1059 932.5,-1059"/>
<text text-anchor="middle" x="2669.5" y="-1613.8" font-family="Times,serif" font-size="14.00">Overtrue\PHPLint\Extension</text>
</g>
<g id="clust2" class="cluster">
<title>cluster_1</title>
<polygon fill="transparent" stroke="black" points="3788,-688 3788,-801 4286,-801 4286,-688 3788,-688"/>
<text text-anchor="middle" x="4037" y="-785.8" font-family="Times,serif" font-size="14.00">Psr\Log</text>
</g>
<g id="clust3" class="cluster">
<title>cluster_2</title>
<polygon fill="transparent" stroke="black" points="2890,-938 2890,-1051 3254,-1051 3254,-938 2890,-938"/>
<text text-anchor="middle" x="3072" y="-1035.8" font-family="Times,serif" font-size="14.00">Symfony\Component\EventDispatcher</text>
</g>
<g id="clust4" class="cluster">
<title>cluster_3</title>
<polygon fill="transparent" stroke="black" points="2887.5,-1637 2887.5,-1768 4187.5,-1768 4187.5,-1637 2887.5,-1637"/>
<text text-anchor="middle" x="3537.5" y="-1752.8" font-family="Times,serif" font-size="14.00">0</text>
</g>
<g id="clust5" class="cluster">
<title>cluster_4</title>
<polygon fill="transparent" stroke="black" points="8,-1646 8,-1759 2567,-1759 2567,-1646 8,-1646"/>
<text text-anchor="middle" x="1287.5" y="-1743.8" font-family="Times,serif" font-size="14.00">Overtrue\PHPLint\Command</text>
</g>
<g id="clust6" class="cluster">
<title>cluster_5</title>
<polygon fill="#cdaa7d" stroke="black" points="3577,-246 3577,-635 4497,-635 4497,-246 3577,-246"/>
<text text-anchor="middle" x="4037" y="-619.8" font-family="Times,serif" font-size="14.00">Overtrue\PHPLint\Environment</text>
</g>
<g id="clust7" class="cluster">
<title>cluster_6</title>
<polygon fill="#cdaa7d" stroke="black" points="2587,-8 2587,-930 3557,-930 3557,-8 2587,-8"/>
<text text-anchor="middle" x="3072" y="-914.8" font-family="Times,serif" font-size="14.00">Overtrue\PHPLint\Environment\Provider</text>
</g>
<!-- Overtrue\\PHPLint\\Extension\\DiagnoseManager -->
<g id="node1" class="node">
<title>Overtrue\\PHPLint\\Extension\\DiagnoseManager</title>
<polygon fill="#fefece" stroke="transparent" points="1613.5,-1215.5 961.5,-1215.5 961.5,-1066.5 1613.5,-1066.5 1613.5,-1215.5"/>
<polygon fill="#eeeeee" stroke="transparent" points="969.5,-1177 969.5,-1211 1605.5,-1211 1605.5,-1177 969.5,-1177"/>
<polygon fill="none" stroke="black" points="969.5,-1177 969.5,-1211 1605.5,-1211 1605.5,-1177 969.5,-1177"/>
<text text-anchor="start" x="1215.5" y="-1183.8" font-family="Times,serif" font-weight="bold" font-size="14.00">DiagnoseManager</text>
<polygon fill="none" stroke="black" points="969.5,-1171 969.5,-1177 1605.5,-1177 1605.5,-1171 969.5,-1171"/>
<polygon fill="none" stroke="black" points="969.5,-1070 969.5,-1171 1605.5,-1171 1605.5,-1070 969.5,-1070"/>
<text text-anchor="start" x="974.5" y="-1154.8" font-family="Times,serif" font-size="14.00">+ getName() : string</text>
<text text-anchor="start" x="974.5" y="-1135.8" font-family="Times,serif" font-size="14.00">+ «static» getDefinition() : Symfony\Component\Console\Input\InputDefinition</text>
<text text-anchor="start" x="974.5" y="-1116.8" font-family="Times,serif" font-size="14.00">+ «static» getSubscribedEvents() : array</text>
<text text-anchor="start" x="974.5" y="-1097.8" font-family="Times,serif" font-size="14.00">+ initialize(event : Symfony\Component\Console\Event\ConsoleCommandEvent) : void</text>
<text text-anchor="start" x="974.5" y="-1078.8" font-family="Times,serif" font-size="14.00">+ terminate(event : Symfony\Component\Console\Event\ConsoleTerminateEvent) : void</text>
</g>
<!-- Overtrue\\PHPLint\\Extension\\AbstractManager -->
<g id="node2" class="node">
<title>Overtrue\\PHPLint\\Extension\\AbstractManager</title>
<polygon fill="#fefece" stroke="transparent" points="3273,-1140.5 2871,-1140.5 2871,-1067.5 3273,-1067.5 3273,-1140.5"/>
<polygon fill="#eeeeee" stroke="transparent" points="2879,-1102 2879,-1136 3265,-1136 3265,-1102 2879,-1102"/>
<polygon fill="none" stroke="black" points="2879,-1102 2879,-1136 3265,-1136 3265,-1102 2879,-1102"/>
<text text-anchor="start" x="3030" y="-1122.8" font-family="Times,serif" font-weight="bold" font-size="14.00">«abstract»</text>
<text text-anchor="start" x="3003" y="-1108.8" font-family="Times,serif" font-weight="bold" font-size="14.00">AbstractManager</text>
<polygon fill="none" stroke="black" points="2879,-1096 2879,-1102 3265,-1102 3265,-1096 2879,-1096"/>
<polygon fill="none" stroke="black" points="2879,-1071 2879,-1096 3265,-1096 3265,-1071 2879,-1071"/>
<text text-anchor="start" x="2884" y="-1079.8" font-family="Times,serif" font-size="14.00">+ setLogger(logger : Psr\Log\LoggerInterface) : void</text>
</g>
<!-- Overtrue\\PHPLint\\Extension\\DiagnoseManager&#45;&gt;Overtrue\\PHPLint\\Extension\\AbstractManager -->
<g id="edge2" class="edge">
<title>Overtrue\\PHPLint\\Extension\\DiagnoseManager&#45;&gt;Overtrue\\PHPLint\\Extension\\AbstractManager</title>
<path fill="none" stroke="black" d="M1613.62,-1134.25C1976.32,-1126.72 2552.45,-1114.76 2860.47,-1108.37"/>
<polygon fill="none" stroke="black" points="2860.93,-1111.86 2870.86,-1108.15 2860.79,-1104.86 2860.93,-1111.86"/>
</g>
<!-- Overtrue\\PHPLint\\Extension\\ExtensionInterface -->
<g id="node3" class="node">
<title>Overtrue\\PHPLint\\Extension\\ExtensionInterface</title>
<polygon fill="#fefece" stroke="transparent" points="3405,-1251 2739,-1251 2739,-1159 3405,-1159 3405,-1251"/>
<polygon fill="#eeeeee" stroke="transparent" points="2747,-1213 2747,-1247 3397,-1247 3397,-1213 2747,-1213"/>
<polygon fill="none" stroke="black" points="2747,-1213 2747,-1247 3397,-1247 3397,-1213 2747,-1213"/>
<text text-anchor="start" x="3027" y="-1233.8" font-family="Times,serif" font-weight="bold" font-size="14.00">«interface»</text>
<text text-anchor="start" x="2996.5" y="-1219.8" font-family="Times,serif" font-weight="bold" font-size="14.00">ExtensionInterface</text>
<polygon fill="none" stroke="black" points="2747,-1207 2747,-1213 3397,-1213 3397,-1207 2747,-1207"/>
<polygon fill="none" stroke="black" points="2747,-1163 2747,-1207 3397,-1207 3397,-1163 2747,-1163"/>
<text text-anchor="start" x="2752" y="-1190.8" font-family="Times,serif" font-size="14.00">+ «abstract» getName() : string</text>
<text text-anchor="start" x="2752" y="-1171.8" font-family="Times,serif" font-size="14.00">+ «abstract» «static» getDefinition() : Symfony\Component\Console\Input\InputDefinition</text>
</g>
<!-- Overtrue\\PHPLint\\Extension\\DiagnoseManager&#45;&gt;Overtrue\\PHPLint\\Extension\\ExtensionInterface -->
<g id="edge4" class="edge">
<title>Overtrue\\PHPLint\\Extension\\DiagnoseManager&#45;&gt;Overtrue\\PHPLint\\Extension\\ExtensionInterface</title>
<path fill="none" stroke="black" stroke-dasharray="5,2" d="M1613.62,-1152.67C1929.31,-1164.01 2406.68,-1181.15 2728.23,-1192.69"/>
<polygon fill="none" stroke="black" points="2728.53,-1196.21 2738.65,-1193.07 2728.78,-1189.21 2728.53,-1196.21"/>
</g>
<!-- Symfony\\Component\\EventDispatcher\\EventSubscriberInterface -->
<g id="node7" class="node">
<title>Symfony\\Component\\EventDispatcher\\EventSubscriberInterface</title>
<polygon fill="#fefece" stroke="transparent" points="3246,-1019.5 2898,-1019.5 2898,-946.5 3246,-946.5 3246,-1019.5"/>
<polygon fill="#eeeeee" stroke="transparent" points="2906,-981 2906,-1015 3238,-1015 3238,-981 2906,-981"/>
<polygon fill="none" stroke="black" points="2906,-981 2906,-1015 3238,-1015 3238,-981 2906,-981"/>
<text text-anchor="start" x="3027" y="-1001.8" font-family="Times,serif" font-weight="bold" font-size="14.00">«interface»</text>
<text text-anchor="start" x="2970" y="-987.8" font-family="Times,serif" font-weight="bold" font-size="14.00">EventSubscriberInterface</text>
<polygon fill="none" stroke="black" points="2906,-975 2906,-981 3238,-981 3238,-975 2906,-975"/>
<polygon fill="none" stroke="black" points="2906,-950 2906,-975 3238,-975 3238,-950 2906,-950"/>
<text text-anchor="start" x="2911" y="-958.8" font-family="Times,serif" font-size="14.00">+ «abstract» «static» getSubscribedEvents()</text>
</g>
<!-- Overtrue\\PHPLint\\Extension\\DiagnoseManager&#45;&gt;Symfony\\Component\\EventDispatcher\\EventSubscriberInterface -->
<g id="edge5" class="edge">
<title>Overtrue\\PHPLint\\Extension\\DiagnoseManager&#45;&gt;Symfony\\Component\\EventDispatcher\\EventSubscriberInterface</title>
<path fill="none" stroke="black" stroke-dasharray="5,2" d="M1613.62,-1112.18C1987.37,-1079.05 2587.75,-1025.84 2887.85,-999.23"/>
<polygon fill="none" stroke="black" points="2888.31,-1002.71 2897.96,-998.34 2887.69,-995.73 2888.31,-1002.71"/>
</g>
<!-- Psr\\Log\\LoggerAwareInterface -->
<g id="node6" class="node">
<title>Psr\\Log\\LoggerAwareInterface</title>
<polygon fill="#fefece" stroke="transparent" points="4278,-769.5 3796,-769.5 3796,-696.5 4278,-696.5 4278,-769.5"/>
<polygon fill="#eeeeee" stroke="transparent" points="3804,-731 3804,-765 4270,-765 4270,-731 3804,-731"/>
<polygon fill="none" stroke="black" points="3804,-731 3804,-765 4270,-765 4270,-731 3804,-731"/>
<text text-anchor="start" x="3992" y="-751.8" font-family="Times,serif" font-weight="bold" font-size="14.00">«interface»</text>
<text text-anchor="start" x="3949" y="-737.8" font-family="Times,serif" font-weight="bold" font-size="14.00">LoggerAwareInterface</text>
<polygon fill="none" stroke="black" points="3804,-725 3804,-731 4270,-731 4270,-725 3804,-725"/>
<polygon fill="none" stroke="black" points="3804,-700 3804,-725 4270,-725 4270,-700 3804,-700"/>
<text text-anchor="start" x="3809" y="-708.8" font-family="Times,serif" font-size="14.00">+ «abstract» setLogger(logger : Psr\Log\LoggerInterface) : void</text>
</g>
<!-- Overtrue\\PHPLint\\Extension\\AbstractManager&#45;&gt;Psr\\Log\\LoggerAwareInterface -->
<g id="edge1" class="edge">
<title>Overtrue\\PHPLint\\Extension\\AbstractManager&#45;&gt;Psr\\Log\\LoggerAwareInterface</title>
<path fill="none" stroke="black" stroke-dasharray="5,2" d="M3273.02,-1105.56C3362.18,-1100.77 3467.13,-1087.44 3557,-1055 3733.45,-991.32 3907.99,-848.57 3989.05,-776.46"/>
<polygon fill="none" stroke="black" points="3991.48,-778.98 3996.6,-769.71 3986.81,-773.76 3991.48,-778.98"/>
</g>
<!-- Overtrue\\PHPLint\\Extension\\ExtensionEventInterface -->
<g id="node4" class="node">
<title>Overtrue\\PHPLint\\Extension\\ExtensionEventInterface</title>
<polygon fill="#fefece" stroke="transparent" points="4398.5,-1241.5 3675.5,-1241.5 3675.5,-1168.5 4398.5,-1168.5 4398.5,-1241.5"/>
<polygon fill="#eeeeee" stroke="transparent" points="3684,-1203 3684,-1237 4391,-1237 4391,-1203 3684,-1203"/>
<polygon fill="none" stroke="black" points="3684,-1203 3684,-1237 4391,-1237 4391,-1203 3684,-1203"/>
<text text-anchor="start" x="3992.5" y="-1223.8" font-family="Times,serif" font-weight="bold" font-size="14.00">«interface»</text>
<text text-anchor="start" x="3939.5" y="-1209.8" font-family="Times,serif" font-weight="bold" font-size="14.00">ExtensionEventInterface</text>
<polygon fill="none" stroke="black" points="3684,-1197 3684,-1203 4391,-1203 4391,-1197 3684,-1197"/>
<polygon fill="none" stroke="black" points="3684,-1172 3684,-1197 4391,-1197 4391,-1172 3684,-1172"/>
<text text-anchor="start" x="3689" y="-1180.8" font-family="Times,serif" font-size="14.00">+ «abstract» initialize(event : Symfony\Component\Console\Event\ConsoleCommandEvent) : void</text>
</g>
<!-- Overtrue\\PHPLint\\Extension\\ExtensionInterface&#45;&gt;Overtrue\\PHPLint\\Extension\\ExtensionEventInterface -->
<g id="edge3" class="edge">
<title>Overtrue\\PHPLint\\Extension\\ExtensionInterface&#45;&gt;Overtrue\\PHPLint\\Extension\\ExtensionEventInterface</title>
<path fill="none" stroke="black" stroke-dasharray="5,2" d="M3405.08,-1205C3488.92,-1205 3579.46,-1205 3665.07,-1205"/>
<polygon fill="none" stroke="black" points="3665.22,-1208.5 3675.22,-1205 3665.22,-1201.5 3665.22,-1208.5"/>
</g>
<!-- Overtrue\\PHPLint\\Extension\\DiagnoseEnum -->
<g id="node5" class="node">
<title>Overtrue\\PHPLint\\Extension\\DiagnoseEnum</title>
<polygon fill="#fefece" stroke="transparent" points="1634.5,-1598 940.5,-1598 940.5,-1234 1634.5,-1234 1634.5,-1598"/>
<polygon fill="#eeeeee" stroke="transparent" points="948.5,-1560 948.5,-1594 1626.5,-1594 1626.5,-1560 948.5,-1560"/>
<polygon fill="none" stroke="black" points="948.5,-1560 948.5,-1594 1626.5,-1594 1626.5,-1560 948.5,-1560"/>
<text text-anchor="start" x="1227.5" y="-1566.8" font-family="Times,serif" font-weight="bold" font-size="14.00">DiagnoseEnum</text>
<polygon fill="none" stroke="black" points="948.5,-1345 948.5,-1560 1626.5,-1560 1626.5,-1345 948.5,-1345"/>
<text text-anchor="start" x="953.5" y="-1543.8" font-family="Times,serif" font-size="14.00">+ «static» AUTO : object = Overtrue\PHPLintxtension\DiagnoseEnum\{…\} {readOnly}</text>
<text text-anchor="start" x="953.5" y="-1524.8" font-family="Times,serif" font-size="14.00">+ «static» ALWAYS : object = Overtrue\PHPLintxtension\DiagnoseEnum\{…\} {readOnly}</text>
<text text-anchor="start" x="953.5" y="-1505.8" font-family="Times,serif" font-size="14.00">+ «static» CI : object = Overtrue\PHPLintxtension\DiagnoseEnum\{…\} {readOnly}</text>
<text text-anchor="start" x="953.5" y="-1486.8" font-family="Times,serif" font-size="14.00">+ «static» CPU : object = Overtrue\PHPLintxtension\DiagnoseEnum\{…\} {readOnly}</text>
<text text-anchor="start" x="953.5" y="-1467.8" font-family="Times,serif" font-size="14.00">+ «static» DOTENV : object = Overtrue\PHPLintxtension\DiagnoseEnum\{…\} {readOnly}</text>
<text text-anchor="start" x="953.5" y="-1448.8" font-family="Times,serif" font-size="14.00">+ «static» METADATA : object = Overtrue\PHPLintxtension\DiagnoseEnum\{…\} {readOnly}</text>
<text text-anchor="start" x="953.5" y="-1429.8" font-family="Times,serif" font-size="14.00">+ «static» NEVER : object = Overtrue\PHPLintxtension\DiagnoseEnum\{…\} {readOnly}</text>
<text text-anchor="start" x="953.5" y="-1410.8" font-family="Times,serif" font-size="14.00">+ «static» PHP : object = Overtrue\PHPLintxtension\DiagnoseEnum\{…\} {readOnly}</text>
<text text-anchor="start" x="953.5" y="-1391.8" font-family="Times,serif" font-size="14.00">+ «static» PROFILER : object = Overtrue\PHPLintxtension\DiagnoseEnum\{…\} {readOnly}</text>
<text text-anchor="start" x="953.5" y="-1372.8" font-family="Times,serif" font-size="14.00">+ «static» UNAME : object = Overtrue\PHPLintxtension\DiagnoseEnum\{…\} {readOnly}</text>
<text text-anchor="start" x="953.5" y="-1353.8" font-family="Times,serif" font-size="14.00">+ «static» VCS : object = Overtrue\PHPLintxtension\DiagnoseEnum\{…\} {readOnly}</text>
<polygon fill="none" stroke="black" points="948.5,-1301 948.5,-1345 1626.5,-1345 1626.5,-1301 948.5,-1301"/>
<text text-anchor="start" x="953.5" y="-1328.8" font-family="Times,serif" font-size="14.00">+ name</text>
<text text-anchor="start" x="953.5" y="-1309.8" font-family="Times,serif" font-size="14.00">+ value</text>
<polygon fill="none" stroke="black" points="948.5,-1238 948.5,-1301 1626.5,-1301 1626.5,-1238 948.5,-1238"/>
<text text-anchor="start" x="953.5" y="-1284.8" font-family="Times,serif" font-size="14.00">+ «static» cases() : array</text>
<text text-anchor="start" x="953.5" y="-1265.8" font-family="Times,serif" font-size="14.00">+ «static» from(value) : static</text>
<text text-anchor="start" x="953.5" y="-1246.8" font-family="Times,serif" font-size="14.00">+ «static» tryFrom(value) : ?static</text>
</g>
<!-- BackedEnum -->
<g id="node8" class="node">
<title>BackedEnum</title>
<polygon fill="#fefece" stroke="transparent" points="3248.5,-1737 2895.5,-1737 2895.5,-1645 3248.5,-1645 3248.5,-1737"/>
<polygon fill="#eeeeee" stroke="transparent" points="2904,-1699 2904,-1733 3241,-1733 3241,-1699 2904,-1699"/>
<polygon fill="none" stroke="black" points="2904,-1699 2904,-1733 3241,-1733 3241,-1699 2904,-1699"/>
<text text-anchor="start" x="3027.5" y="-1719.8" font-family="Times,serif" font-weight="bold" font-size="14.00">«interface»</text>
<text text-anchor="start" x="3020" y="-1705.8" font-family="Times,serif" font-weight="bold" font-size="14.00">BackedEnum</text>
<polygon fill="none" stroke="black" points="2904,-1693 2904,-1699 3241,-1699 3241,-1693 2904,-1693"/>
<polygon fill="none" stroke="black" points="2904,-1649 2904,-1693 3241,-1693 3241,-1649 2904,-1649"/>
<text text-anchor="start" x="2909" y="-1676.8" font-family="Times,serif" font-size="14.00">+ «abstract» «static» from(value) : static</text>
<text text-anchor="start" x="2909" y="-1657.8" font-family="Times,serif" font-size="14.00">+ «abstract» «static» tryFrom(value) : ?static</text>
</g>
<!-- Overtrue\\PHPLint\\Extension\\DiagnoseEnum&#45;&gt;BackedEnum -->
<g id="edge7" class="edge">
<title>Overtrue\\PHPLint\\Extension\\DiagnoseEnum&#45;&gt;BackedEnum</title>
<path fill="none" stroke="black" stroke-dasharray="5,2" d="M1634.69,-1478.34C1895.89,-1524.28 2263.33,-1586.59 2587,-1633 2685.31,-1647.1 2795.19,-1660.46 2885.38,-1670.79"/>
<polygon fill="none" stroke="black" points="2885.1,-1674.29 2895.44,-1671.94 2885.9,-1667.33 2885.1,-1674.29"/>
</g>
<!-- UnitEnum -->
<g id="node9" class="node">
<title>UnitEnum</title>
<polygon fill="#fefece" stroke="transparent" points="4179.5,-1727.5 3894.5,-1727.5 3894.5,-1654.5 4179.5,-1654.5 4179.5,-1727.5"/>
<polygon fill="#eeeeee" stroke="transparent" points="3903,-1689 3903,-1723 4172,-1723 4172,-1689 3903,-1689"/>
<polygon fill="none" stroke="black" points="3903,-1689 3903,-1723 4172,-1723 4172,-1689 3903,-1689"/>
<text text-anchor="start" x="3992.5" y="-1709.8" font-family="Times,serif" font-weight="bold" font-size="14.00">«interface»</text>
<text text-anchor="start" x="3996.5" y="-1695.8" font-family="Times,serif" font-weight="bold" font-size="14.00">UnitEnum</text>
<polygon fill="none" stroke="black" points="3903,-1683 3903,-1689 4172,-1689 4172,-1683 3903,-1683"/>
<polygon fill="none" stroke="black" points="3903,-1658 3903,-1683 4172,-1683 4172,-1658 3903,-1658"/>
<text text-anchor="start" x="3908" y="-1666.8" font-family="Times,serif" font-size="14.00">+ «abstract» «static» cases() : array</text>
</g>
<!-- BackedEnum&#45;&gt;UnitEnum -->
<g id="edge6" class="edge">
<title>BackedEnum&#45;&gt;UnitEnum</title>
<path fill="none" stroke="black" stroke-dasharray="5,2" d="M3248.51,-1691C3430.29,-1691 3711.42,-1691 3884.01,-1691"/>
<polygon fill="none" stroke="black" points="3884.19,-1694.5 3894.19,-1691 3884.19,-1687.5 3884.19,-1694.5"/>
</g>
<!-- Overtrue\\PHPLint\\Command\\DiagnoseCommand -->
<g id="node10" class="node">
<title>Overtrue\\PHPLint\\Command\\DiagnoseCommand</title>
<polygon fill="#fefece" stroke="transparent" points="2559,-1727.5 16,-1727.5 16,-1654.5 2559,-1654.5 2559,-1727.5"/>
<polygon fill="#eeeeee" stroke="transparent" points="24.5,-1689 24.5,-1723 2551.5,-1723 2551.5,-1689 24.5,-1689"/>
<polygon fill="none" stroke="black" points="24.5,-1689 24.5,-1723 2551.5,-1723 2551.5,-1689 24.5,-1689"/>
<text text-anchor="start" x="1211.5" y="-1695.8" font-family="Times,serif" font-weight="bold" font-size="14.00">DiagnoseCommand</text>
<polygon fill="none" stroke="black" points="24.5,-1683 24.5,-1689 2551.5,-1689 2551.5,-1683 24.5,-1683"/>
<polygon fill="none" stroke="black" points="24.5,-1658 24.5,-1683 2551.5,-1683 2551.5,-1658 24.5,-1658"/>
<text text-anchor="start" x="29.5" y="-1666.8" font-family="Times,serif" font-size="14.00">+ __invoke(input : Symfony\Component\Console\Input\InputInterface, output : Symfony\Component\Console\Output\OutputInterface, io : Symfony\Component\Console\Style\SymfonyStyle, application : Symfony\Component\Console\Application, logger : Psr\Log\LoggerInterface, metadataCollection : Overtrue\PHPLint\Metadata\MetadataCollection) : int</text>
</g>
<!-- Overtrue\\PHPLint\\Environment\\Supplier -->
<g id="node11" class="node">
<title>Overtrue\\PHPLint\\Environment\\Supplier</title>
<polygon fill="#fefece" stroke="transparent" points="4489,-604 3585,-604 3585,-474 4489,-474 4489,-604"/>
<polygon fill="#eeeeee" stroke="transparent" points="3593,-566 3593,-600 4481,-600 4481,-566 3593,-566"/>
<polygon fill="none" stroke="black" points="3593,-566 3593,-600 4481,-600 4481,-566 3593,-566"/>
<text text-anchor="start" x="4003.5" y="-572.8" font-family="Times,serif" font-weight="bold" font-size="14.00">Supplier</text>
<polygon fill="none" stroke="black" points="3593,-560 3593,-566 4481,-566 4481,-560 3593,-560"/>
<polygon fill="none" stroke="black" points="3593,-478 3593,-560 4481,-560 4481,-478 3593,-478"/>
<text text-anchor="start" x="3598" y="-543.8" font-family="Times,serif" font-size="14.00">+ __construct(logger : Psr\Log\LoggerInterface, providers : array = «unknown»)</text>
<text text-anchor="start" x="3598" y="-524.8" font-family="Times,serif" font-size="14.00">+ addProvider(provider : Overtrue\PHPLint\Environment\ProviderInterface) : void</text>
<text text-anchor="start" x="3598" y="-505.8" font-family="Times,serif" font-size="14.00">+ describe(provider : Overtrue\PHPLint\Environment\ProviderInterface = «unknown», part : string = «unknown») : ?array</text>
<text text-anchor="start" x="3598" y="-486.8" font-family="Times,serif" font-size="14.00">+ __debugInfo() : array</text>
</g>
<!-- Overtrue\\PHPLint\\Environment\\ProviderInterface -->
<g id="node12" class="node">
<title>Overtrue\\PHPLint\\Environment\\ProviderInterface</title>
<polygon fill="#fefece" stroke="transparent" points="4164,-455.5 3910,-455.5 3910,-382.5 4164,-382.5 4164,-455.5"/>
<polygon fill="#eeeeee" stroke="transparent" points="3918,-417 3918,-451 4156,-451 4156,-417 3918,-417"/>
<polygon fill="none" stroke="black" points="3918,-417 3918,-451 4156,-451 4156,-417 3918,-417"/>
<text text-anchor="start" x="3992" y="-437.8" font-family="Times,serif" font-weight="bold" font-size="14.00">«interface»</text>
<text text-anchor="start" x="3967" y="-423.8" font-family="Times,serif" font-weight="bold" font-size="14.00">ProviderInterface</text>
<polygon fill="none" stroke="black" points="3918,-411 3918,-417 4156,-417 4156,-411 3918,-411"/>
<polygon fill="none" stroke="black" points="3918,-386 3918,-411 4156,-411 4156,-386 3918,-386"/>
<text text-anchor="start" x="3923" y="-394.8" font-family="Times,serif" font-size="14.00">+ «abstract» describe() : ?array</text>
</g>
<!-- Overtrue\\PHPLint\\Environment\\ProviderData -->
<g id="node13" class="node">
<title>Overtrue\\PHPLint\\Environment\\ProviderData</title>
<polygon fill="#fefece" stroke="transparent" points="4333,-364.5 3741,-364.5 3741,-253.5 4333,-253.5 4333,-364.5"/>
<polygon fill="#eeeeee" stroke="transparent" points="3749,-326 3749,-360 4325,-360 4325,-326 3749,-326"/>
<polygon fill="none" stroke="black" points="3749,-326 3749,-360 4325,-360 4325,-326 3749,-326"/>
<text text-anchor="start" x="3985" y="-332.8" font-family="Times,serif" font-weight="bold" font-size="14.00">ProviderData</text>
<polygon fill="none" stroke="black" points="3749,-320 3749,-326 4325,-326 4325,-320 3749,-320"/>
<polygon fill="none" stroke="black" points="3749,-257 3749,-320 4325,-320 4325,-257 3749,-257"/>
<text text-anchor="start" x="3754" y="-303.8" font-family="Times,serif" font-size="14.00">+ __construct(setting : string, value : string, description : string = «unknown»)</text>
<text text-anchor="start" x="3754" y="-284.8" font-family="Times,serif" font-size="14.00">+ describe() : array</text>
<text text-anchor="start" x="3754" y="-265.8" font-family="Times,serif" font-size="14.00">+ __debugInfo() : array</text>
</g>
<!-- Overtrue\\PHPLint\\Environment\\Provider\\CI -->
<g id="node14" class="node">
<title>Overtrue\\PHPLint\\Environment\\Provider\\CI</title>
<polygon fill="#fefece" stroke="transparent" points="3273,-899 2871,-899 2871,-807 3273,-807 3273,-899"/>
<polygon fill="#eeeeee" stroke="transparent" points="2879,-861 2879,-895 3265,-895 3265,-861 2879,-861"/>
<polygon fill="none" stroke="black" points="2879,-861 2879,-895 3265,-895 3265,-861 2879,-861"/>
<text text-anchor="start" x="3062.5" y="-867.8" font-family="Times,serif" font-weight="bold" font-size="14.00">CI</text>
<polygon fill="none" stroke="black" points="2879,-855 2879,-861 3265,-861 3265,-855 2879,-855"/>
<polygon fill="none" stroke="black" points="2879,-811 2879,-855 3265,-855 3265,-811 2879,-811"/>
<text text-anchor="start" x="2884" y="-838.8" font-family="Times,serif" font-size="14.00">+ describe() : ?array</text>
<text text-anchor="start" x="2884" y="-819.8" font-family="Times,serif" font-size="14.00">+ setLogger(logger : Psr\Log\LoggerInterface) : void</text>
</g>
<!-- Overtrue\\PHPLint\\Environment\\Provider\\CI&#45;&gt;Psr\\Log\\LoggerAwareInterface -->
<g id="edge9" class="edge">
<title>Overtrue\\PHPLint\\Environment\\Provider\\CI&#45;&gt;Psr\\Log\\LoggerAwareInterface</title>
<path fill="none" stroke="black" stroke-dasharray="5,2" d="M3273.25,-830.63C3360.46,-820.68 3463.83,-808.61 3557,-797 3631.25,-787.75 3711.89,-777.17 3785.47,-767.32"/>
<polygon fill="none" stroke="black" points="3786.36,-770.73 3795.8,-765.94 3785.43,-763.8 3786.36,-770.73"/>
</g>
<!-- Overtrue\\PHPLint\\Environment\\Provider\\CI&#45;&gt;Overtrue\\PHPLint\\Environment\\ProviderInterface -->
<g id="edge8" class="edge">
<title>Overtrue\\PHPLint\\Environment\\Provider\\CI&#45;&gt;Overtrue\\PHPLint\\Environment\\ProviderInterface</title>
<path fill="none" stroke="black" stroke-dasharray="5,2" d="M3273.09,-884.62C3372.35,-888.25 3485.92,-872.11 3557,-797 3607.81,-743.32 3525.78,-518.29 3577,-465 3658.18,-380.53 3796.45,-377.58 3900.07,-390.56"/>
<polygon fill="none" stroke="black" points="3899.61,-394.03 3909.98,-391.86 3900.52,-387.09 3899.61,-394.03"/>
</g>
<!-- Overtrue\\PHPLint\\Environment\\Provider\\Cpu -->
<g id="node15" class="node">
<title>Overtrue\\PHPLint\\Environment\\Provider\\Cpu</title>
<polygon fill="#fefece" stroke="transparent" points="3273,-788.5 2871,-788.5 2871,-677.5 3273,-677.5 3273,-788.5"/>
<polygon fill="#eeeeee" stroke="transparent" points="2879,-750 2879,-784 3265,-784 3265,-750 2879,-750"/>
<polygon fill="none" stroke="black" points="2879,-750 2879,-784 3265,-784 3265,-750 2879,-750"/>
<text text-anchor="start" x="3056" y="-756.8" font-family="Times,serif" font-weight="bold" font-size="14.00">Cpu</text>
<polygon fill="none" stroke="black" points="2879,-744 2879,-750 3265,-750 3265,-744 2879,-744"/>
<polygon fill="none" stroke="black" points="2879,-681 2879,-744 3265,-744 3265,-681 2879,-681"/>
<text text-anchor="start" x="2884" y="-727.8" font-family="Times,serif" font-size="14.00">+ __construct(countLimit : int = «unknown»)</text>
<text text-anchor="start" x="2884" y="-708.8" font-family="Times,serif" font-size="14.00">+ describe() : ?array</text>
<text text-anchor="start" x="2884" y="-689.8" font-family="Times,serif" font-size="14.00">+ setLogger(logger : Psr\Log\LoggerInterface) : void</text>
</g>
<!-- Overtrue\\PHPLint\\Environment\\Provider\\Cpu&#45;&gt;Psr\\Log\\LoggerAwareInterface -->
<g id="edge11" class="edge">
<title>Overtrue\\PHPLint\\Environment\\Provider\\Cpu&#45;&gt;Psr\\Log\\LoggerAwareInterface</title>
<path fill="none" stroke="black" stroke-dasharray="5,2" d="M3273.12,-733C3421.81,-733 3625.66,-733 3785.23,-733"/>
<polygon fill="none" stroke="black" points="3785.68,-736.5 3795.68,-733 3785.67,-729.5 3785.68,-736.5"/>
</g>
<!-- Overtrue\\PHPLint\\Environment\\Provider\\Cpu&#45;&gt;Overtrue\\PHPLint\\Environment\\ProviderInterface -->
<g id="edge10" class="edge">
<title>Overtrue\\PHPLint\\Environment\\Provider\\Cpu&#45;&gt;Overtrue\\PHPLint\\Environment\\ProviderInterface</title>
<path fill="none" stroke="black" stroke-dasharray="5,2" d="M3273.26,-759.39C3372.11,-760.63 3485.24,-742.34 3557,-668 3588.48,-635.39 3544.97,-497.08 3577,-465 3659.41,-382.45 3796.63,-378.94 3899.61,-391.26"/>
<polygon fill="none" stroke="black" points="3899.42,-394.76 3909.78,-392.54 3900.29,-387.82 3899.42,-394.76"/>
</g>
<!-- Overtrue\\PHPLint\\Environment\\Provider\\DotEnv -->
<g id="node16" class="node">
<title>Overtrue\\PHPLint\\Environment\\Provider\\DotEnv</title>
<polygon fill="#fefece" stroke="transparent" points="3273,-659.5 2871,-659.5 2871,-548.5 3273,-548.5 3273,-659.5"/>
<polygon fill="#eeeeee" stroke="transparent" points="2879,-621 2879,-655 3265,-655 3265,-621 2879,-621"/>
<polygon fill="none" stroke="black" points="2879,-621 2879,-655 3265,-655 3265,-621 2879,-621"/>
<text text-anchor="start" x="3043" y="-627.8" font-family="Times,serif" font-weight="bold" font-size="14.00">DotEnv</text>
<polygon fill="none" stroke="black" points="2879,-615 2879,-621 3265,-621 3265,-615 2879,-615"/>
<polygon fill="none" stroke="black" points="2879,-552 2879,-615 3265,-615 3265,-552 2879,-552"/>
<text text-anchor="start" x="2884" y="-598.8" font-family="Times,serif" font-size="14.00">+ __construct(options : array = [])</text>
<text text-anchor="start" x="2884" y="-579.8" font-family="Times,serif" font-size="14.00">+ describe() : ?array</text>
<text text-anchor="start" x="2884" y="-560.8" font-family="Times,serif" font-size="14.00">+ setLogger(logger : Psr\Log\LoggerInterface) : void</text>
</g>
<!-- Overtrue\\PHPLint\\Environment\\Provider\\DotEnv&#45;&gt;Psr\\Log\\LoggerAwareInterface -->
<g id="edge13" class="edge">
<title>Overtrue\\PHPLint\\Environment\\Provider\\DotEnv&#45;&gt;Psr\\Log\\LoggerAwareInterface</title>
<path fill="none" stroke="black" stroke-dasharray="5,2" d="M3273.18,-630.31C3360.37,-641.82 3463.75,-655.51 3557,-668 3631.18,-677.94 3711.81,-688.84 3785.38,-698.83"/>
<polygon fill="none" stroke="black" points="3785.34,-702.35 3795.72,-700.23 3786.28,-695.42 3785.34,-702.35"/>
</g>
<!-- Overtrue\\PHPLint\\Environment\\Provider\\DotEnv&#45;&gt;Overtrue\\PHPLint\\Environment\\ProviderInterface -->
<g id="edge12" class="edge">
<title>Overtrue\\PHPLint\\Environment\\Provider\\DotEnv&#45;&gt;Overtrue\\PHPLint\\Environment\\ProviderInterface</title>
<path fill="none" stroke="black" stroke-dasharray="5,2" d="M3273.21,-625.26C3369.63,-624.53 3480.6,-606.03 3557,-539 3582.61,-516.53 3551.02,-487.04 3577,-465 3664.91,-390.45 3799.06,-385.18 3899.67,-394.87"/>
<polygon fill="none" stroke="black" points="3899.61,-398.38 3909.91,-395.91 3900.32,-391.41 3899.61,-398.38"/>
</g>
<!-- Overtrue\\PHPLint\\Environment\\Provider\\Git -->
<g id="node17" class="node">
<title>Overtrue\\PHPLint\\Environment\\Provider\\Git</title>
<polygon fill="#fefece" stroke="transparent" points="3549,-108 2595,-108 2595,-16 3549,-16 3549,-108"/>
<polygon fill="#eeeeee" stroke="transparent" points="2603,-70 2603,-104 3541,-104 3541,-70 2603,-70"/>
<polygon fill="none" stroke="black" points="2603,-70 2603,-104 3541,-104 3541,-70 2603,-70"/>
<text text-anchor="start" x="3059.5" y="-76.8" font-family="Times,serif" font-weight="bold" font-size="14.00">Git</text>
<polygon fill="none" stroke="black" points="2603,-64 2603,-70 3541,-70 3541,-64 2603,-64"/>
<polygon fill="none" stroke="black" points="2603,-20 2603,-64 3541,-64 3541,-20 2603,-20"/>
<text text-anchor="start" x="2608" y="-47.8" font-family="Times,serif" font-size="14.00">+ __construct(workingDirectory : string = «unknown», exeFinder : Symfony\Component\Process\ExecutableFinder = «unknown»)</text>
<text text-anchor="start" x="2608" y="-28.8" font-family="Times,serif" font-size="14.00">+ describe() : ?array</text>
</g>
<!-- Overtrue\\PHPLint\\Environment\\Provider\\Git&#45;&gt;Overtrue\\PHPLint\\Environment\\ProviderInterface -->
<g id="edge14" class="edge">
<title>Overtrue\\PHPLint\\Environment\\Provider\\Git&#45;&gt;Overtrue\\PHPLint\\Environment\\ProviderInterface</title>
<path fill="none" stroke="black" stroke-dasharray="5,2" d="M3547.98,-108.16C3551.06,-111.01 3554.06,-113.96 3557,-117 3596.63,-158.05 3537.1,-332.21 3577,-373 3658.71,-456.52 3796.36,-459.78 3899.65,-447.14"/>
<polygon fill="none" stroke="black" points="3900.38,-450.58 3909.85,-445.83 3899.49,-443.63 3900.38,-450.58"/>
</g>
<!-- Overtrue\\PHPLint\\Environment\\Provider\\Metadata -->
<g id="node18" class="node">
<title>Overtrue\\PHPLint\\Environment\\Provider\\Metadata</title>
<polygon fill="#fefece" stroke="transparent" points="3455.5,-420 2688.5,-420 2688.5,-328 3455.5,-328 3455.5,-420"/>
<polygon fill="#eeeeee" stroke="transparent" points="2697,-382 2697,-416 3448,-416 3448,-382 2697,-382"/>
<polygon fill="none" stroke="black" points="2697,-382 2697,-416 3448,-416 3448,-382 2697,-382"/>
<text text-anchor="start" x="3034.5" y="-388.8" font-family="Times,serif" font-weight="bold" font-size="14.00">Metadata</text>
<polygon fill="none" stroke="black" points="2697,-376 2697,-382 3448,-382 3448,-376 2697,-376"/>
<polygon fill="none" stroke="black" points="2697,-332 2697,-376 3448,-376 3448,-332 2697,-332"/>
<text text-anchor="start" x="2702" y="-359.8" font-family="Times,serif" font-size="14.00">+ __construct(metadataCollection : Overtrue\PHPLint\Metadata\MetadataCollection, filters : array = [])</text>
<text text-anchor="start" x="2702" y="-340.8" font-family="Times,serif" font-size="14.00">+ describe() : ?array</text>
</g>
<!-- Overtrue\\PHPLint\\Environment\\Provider\\Metadata&#45;&gt;Overtrue\\PHPLint\\Environment\\ProviderInterface -->
<g id="edge15" class="edge">
<title>Overtrue\\PHPLint\\Environment\\Provider\\Metadata&#45;&gt;Overtrue\\PHPLint\\Environment\\ProviderInterface</title>
<path fill="none" stroke="black" stroke-dasharray="5,2" d="M3455.68,-391.88C3612.46,-399.21 3783.85,-407.22 3899.42,-412.62"/>
<polygon fill="none" stroke="black" points="3899.58,-416.13 3909.73,-413.1 3899.91,-409.14 3899.58,-416.13"/>
</g>
<!-- Overtrue\\PHPLint\\Environment\\Provider\\Php -->
<g id="node19" class="node">
<title>Overtrue\\PHPLint\\Environment\\Provider\\Php</title>
<polygon fill="#fefece" stroke="transparent" points="3403,-310 2741,-310 2741,-218 3403,-218 3403,-310"/>
<polygon fill="#eeeeee" stroke="transparent" points="2749,-272 2749,-306 3395,-306 3395,-272 2749,-272"/>
<polygon fill="none" stroke="black" points="2749,-272 2749,-306 3395,-306 3395,-272 2749,-272"/>
<text text-anchor="start" x="3056.5" y="-278.8" font-family="Times,serif" font-weight="bold" font-size="14.00">Php</text>
<polygon fill="none" stroke="black" points="2749,-266 2749,-272 3395,-272 3395,-266 2749,-266"/>
<polygon fill="none" stroke="black" points="2749,-222 2749,-266 3395,-266 3395,-222 2749,-222"/>
<text text-anchor="start" x="2754" y="-249.8" font-family="Times,serif" font-size="14.00">+ __construct(exeFinder : Symfony\Component\Process\ExecutableFinder = «unknown»)</text>
<text text-anchor="start" x="2754" y="-230.8" font-family="Times,serif" font-size="14.00">+ describe() : ?array</text>
</g>
<!-- Overtrue\\PHPLint\\Environment\\Provider\\Php&#45;&gt;Overtrue\\PHPLint\\Environment\\ProviderInterface -->
<g id="edge16" class="edge">
<title>Overtrue\\PHPLint\\Environment\\Provider\\Php&#45;&gt;Overtrue\\PHPLint\\Environment\\ProviderInterface</title>
<path fill="none" stroke="black" stroke-dasharray="5,2" d="M3403.22,-252.78C3458.8,-263.94 3512.73,-284.31 3557,-319 3577.15,-334.78 3556.75,-357.35 3577,-373 3667.67,-443.08 3800.38,-449.19 3899.8,-440.95"/>
<polygon fill="none" stroke="black" points="3900.27,-444.42 3909.93,-440.05 3899.65,-437.45 3900.27,-444.42"/>
</g>
<!-- Overtrue\\PHPLint\\Environment\\Provider\\Profiler -->
<g id="node20" class="node">
<title>Overtrue\\PHPLint\\Environment\\Provider\\Profiler</title>
<polygon fill="#fefece" stroke="transparent" points="3273,-530 2871,-530 2871,-438 3273,-438 3273,-530"/>
<polygon fill="#eeeeee" stroke="transparent" points="2879,-492 2879,-526 3265,-526 3265,-492 2879,-492"/>
<polygon fill="none" stroke="black" points="2879,-492 2879,-526 3265,-526 3265,-492 2879,-492"/>
<text text-anchor="start" x="3042" y="-498.8" font-family="Times,serif" font-weight="bold" font-size="14.00">Profiler</text>
<polygon fill="none" stroke="black" points="2879,-486 2879,-492 3265,-492 3265,-486 2879,-486"/>
<polygon fill="none" stroke="black" points="2879,-442 2879,-486 3265,-486 3265,-442 2879,-442"/>
<text text-anchor="start" x="2884" y="-469.8" font-family="Times,serif" font-size="14.00">+ describe() : array</text>
<text text-anchor="start" x="2884" y="-450.8" font-family="Times,serif" font-size="14.00">+ setLogger(logger : Psr\Log\LoggerInterface) : void</text>
</g>
<!-- Overtrue\\PHPLint\\Environment\\Provider\\Profiler&#45;&gt;Psr\\Log\\LoggerAwareInterface -->
<g id="edge18" class="edge">
<title>Overtrue\\PHPLint\\Environment\\Provider\\Profiler&#45;&gt;Psr\\Log\\LoggerAwareInterface</title>
<path fill="none" stroke="black" stroke-dasharray="5,2" d="M3273.19,-455.96C3370.34,-453.81 3481.97,-470.04 3557,-539 3590.37,-569.67 3545.02,-606.88 3577,-639 3631.78,-694.03 3709.53,-721.09 3785.51,-733.39"/>
<polygon fill="none" stroke="black" points="3785.31,-736.9 3795.73,-734.96 3786.37,-729.98 3785.31,-736.9"/>
</g>
<!-- Overtrue\\PHPLint\\Environment\\Provider\\Profiler&#45;&gt;Overtrue\\PHPLint\\Environment\\ProviderInterface -->
<g id="edge17" class="edge">
<title>Overtrue\\PHPLint\\Environment\\Provider\\Profiler&#45;&gt;Overtrue\\PHPLint\\Environment\\ProviderInterface</title>
<path fill="none" stroke="black" stroke-dasharray="5,2" d="M3273.12,-470.49C3460.69,-457.83 3736.02,-439.25 3899.54,-428.21"/>
<polygon fill="none" stroke="black" points="3899.92,-431.69 3909.66,-427.53 3899.44,-424.71 3899.92,-431.69"/>
</g>
<!-- Overtrue\\PHPLint\\Environment\\Provider\\Uname -->
<g id="node21" class="node">
<title>Overtrue\\PHPLint\\Environment\\Provider\\Uname</title>
<polygon fill="#fefece" stroke="transparent" points="3159,-199.5 2985,-199.5 2985,-126.5 3159,-126.5 3159,-199.5"/>
<polygon fill="#eeeeee" stroke="transparent" points="2993,-161 2993,-195 3151,-195 3151,-161 2993,-161"/>
<polygon fill="none" stroke="black" points="2993,-161 2993,-195 3151,-195 3151,-161 2993,-161"/>
<text text-anchor="start" x="3044" y="-167.8" font-family="Times,serif" font-weight="bold" font-size="14.00">Uname</text>
<polygon fill="none" stroke="black" points="2993,-155 2993,-161 3151,-161 3151,-155 2993,-155"/>
<polygon fill="none" stroke="black" points="2993,-130 2993,-155 3151,-155 3151,-130 2993,-130"/>
<text text-anchor="start" x="2998" y="-138.8" font-family="Times,serif" font-size="14.00">+ describe() : ?array</text>
</g>
<!-- Overtrue\\PHPLint\\Environment\\Provider\\Uname&#45;&gt;Overtrue\\PHPLint\\Environment\\ProviderInterface -->
<g id="edge19" class="edge">
<title>Overtrue\\PHPLint\\Environment\\Provider\\Uname&#45;&gt;Overtrue\\PHPLint\\Environment\\ProviderInterface</title>
<path fill="none" stroke="black" stroke-dasharray="5,2" d="M3159.18,-142.33C3267.6,-121.98 3452.23,-106.98 3557,-209 3609.61,-260.23 3524.52,-321.64 3577,-373 3660.22,-454.46 3796.99,-458.22 3899.62,-446.27"/>
<polygon fill="none" stroke="black" points="3900.26,-449.72 3909.76,-445.02 3899.41,-442.77 3900.26,-449.72"/>
</g>
</g>
</svg>
