<?xml version="1.0" encoding="UTF-8" standalone="no"?>
<!DOCTYPE svg PUBLIC "-//W3C//DTD SVG 1.1//EN"
 "http://www.w3.org/Graphics/SVG/1.1/DTD/svg11.dtd">
<!-- Generated by graphviz version 2.42.4 (0)
 -->
<!-- Pages: 1 -->
<svg width="3817pt" height="947pt"
 viewBox="0.00 0.00 3817.00 947.00" xmlns="http://www.w3.org/2000/svg" xmlns:xlink="http://www.w3.org/1999/xlink">
<g id="graph0" class="graph" transform="scale(1 1) rotate(0) translate(4 943)">
<g id="clust1" class="cluster">
<title>cluster_0</title>
<polygon fill="#cdaa7d" stroke="black" points="8,-819 8,-931 3801,-931 3801,-819 8,-819"/>
<text text-anchor="middle" x="1904.5" y="-915.8" font-family="Times,serif" font-size="14.00">Overtrue\PHPLint\Event</text>
</g>
<g id="clust2" class="cluster">
<title>cluster_1</title>
<polygon fill="transparent" stroke="black" points="2271,-267 2271,-811 3601,-811 3601,-267 2271,-267"/>
<text text-anchor="middle" x="2936" y="-795.8" font-family="Times,serif" font-size="14.00">Symfony\Component\EventDispatcher</text>
</g>
<g id="clust3" class="cluster">
<title>cluster_2</title>
<polygon fill="transparent" stroke="black" points="2636,-128 2636,-259 3523,-259 3523,-128 2636,-128"/>
<text text-anchor="middle" x="3079.5" y="-243.8" font-family="Times,serif" font-size="14.00">Symfony\Contracts\EventDispatcher</text>
</g>
<g id="clust4" class="cluster">
<title>cluster_3</title>
<polygon fill="transparent" stroke="black" points="2846,-8 2846,-120 3506,-120 3506,-8 2846,-8"/>
<text text-anchor="middle" x="3176" y="-104.8" font-family="Times,serif" font-size="14.00">Psr\EventDispatcher</text>
</g>
<g id="clust5" class="cluster">
<title>cluster_4</title>
<polygon fill="transparent" stroke="black" points="1618,-147 1618,-464.5 2263,-464.5 2263,-147 1618,-147"/>
<text text-anchor="middle" x="1940.5" y="-449.3" font-family="Times,serif" font-size="14.00">0</text>
</g>
<!-- Overtrue\\PHPLint\\Event\\EventDispatcher -->
<g id="node1" class="node">
<title>Overtrue\\PHPLint\\Event\\EventDispatcher</title>
<polygon fill="#fefece" stroke="transparent" points="3793,-900 3513,-900 3513,-827 3793,-827 3793,-900"/>
<polygon fill="#eeeeee" stroke="transparent" points="3521,-861.5 3521,-895.5 3785,-895.5 3785,-861.5 3521,-861.5"/>
<polygon fill="none" stroke="black" points="3521,-861.5 3521,-895.5 3785,-895.5 3785,-861.5 3521,-861.5"/>
<text text-anchor="start" x="3587" y="-868.3" font-family="Times,serif" font-weight="bold" font-size="14.00">EventDispatcher</text>
<polygon fill="none" stroke="black" points="3521,-855.5 3521,-861.5 3785,-861.5 3785,-855.5 3521,-855.5"/>
<polygon fill="none" stroke="black" points="3521,-830.5 3521,-855.5 3785,-855.5 3785,-830.5 3521,-830.5"/>
<text text-anchor="start" x="3526" y="-839.3" font-family="Times,serif" font-size="14.00">+ __construct(extensions : iterable)</text>
</g>
<!-- Symfony\\Component\\EventDispatcher\\EventDispatcher -->
<g id="node10" class="node">
<title>Symfony\\Component\\EventDispatcher\\EventDispatcher</title>
<polygon fill="#fefece" stroke="transparent" points="3593,-751.5 2813,-751.5 2813,-526.5 3593,-526.5 3593,-751.5"/>
<polygon fill="#eeeeee" stroke="transparent" points="2821,-713 2821,-747 3585,-747 3585,-713 2821,-713"/>
<polygon fill="none" stroke="black" points="2821,-713 2821,-747 3585,-747 3585,-713 2821,-713"/>
<text text-anchor="start" x="3137" y="-719.8" font-family="Times,serif" font-weight="bold" font-size="14.00">EventDispatcher</text>
<polygon fill="none" stroke="black" points="2821,-707 2821,-713 3585,-713 3585,-707 2821,-707"/>
<polygon fill="none" stroke="black" points="2821,-530 2821,-707 3585,-707 3585,-530 2821,-530"/>
<text text-anchor="start" x="2826" y="-690.8" font-family="Times,serif" font-size="14.00">+ __construct()</text>
<text text-anchor="start" x="2826" y="-671.8" font-family="Times,serif" font-size="14.00">+ dispatch(event : object, eventName : string = «unknown») : object</text>
<text text-anchor="start" x="2826" y="-652.8" font-family="Times,serif" font-size="14.00">+ getListeners(eventName : string = «unknown») : array</text>
<text text-anchor="start" x="2826" y="-633.8" font-family="Times,serif" font-size="14.00">+ getListenerPriority(eventName : string, listener) : ?int</text>
<text text-anchor="start" x="2826" y="-614.8" font-family="Times,serif" font-size="14.00">+ hasListeners(eventName : string = «unknown») : bool</text>
<text text-anchor="start" x="2826" y="-595.8" font-family="Times,serif" font-size="14.00">+ addListener(eventName : string, listener, priority : int = 0) : void</text>
<text text-anchor="start" x="2826" y="-576.8" font-family="Times,serif" font-size="14.00">+ removeListener(eventName : string, listener) : void</text>
<text text-anchor="start" x="2826" y="-557.8" font-family="Times,serif" font-size="14.00">+ addSubscriber(subscriber : Symfony\Component\EventDispatcher\EventSubscriberInterface) : void</text>
<text text-anchor="start" x="2826" y="-538.8" font-family="Times,serif" font-size="14.00">+ removeSubscriber(subscriber : Symfony\Component\EventDispatcher\EventSubscriberInterface) : void</text>
</g>
<!-- Overtrue\\PHPLint\\Event\\EventDispatcher&#45;&gt;Symfony\\Component\\EventDispatcher\\EventDispatcher -->
<g id="edge4" class="edge">
<title>Overtrue\\PHPLint\\Event\\EventDispatcher&#45;&gt;Symfony\\Component\\EventDispatcher\\EventDispatcher</title>
<path fill="none" stroke="black" d="M3581.2,-827C3541.67,-807.46 3490.14,-781.97 3437.89,-756.14"/>
<polygon fill="none" stroke="black" points="3439.33,-752.95 3428.82,-751.65 3436.23,-759.22 3439.33,-752.95"/>
</g>
<!-- Overtrue\\PHPLint\\Event\\AfterCheckingEvent -->
<g id="node2" class="node">
<title>Overtrue\\PHPLint\\Event\\AfterCheckingEvent</title>
<polygon fill="#fefece" stroke="transparent" points="3495,-890.5 3313,-890.5 3313,-836.5 3495,-836.5 3495,-890.5"/>
<polygon fill="#eeeeee" stroke="transparent" points="3321,-852.5 3321,-886.5 3487,-886.5 3487,-852.5 3321,-852.5"/>
<polygon fill="none" stroke="black" points="3321,-852.5 3321,-886.5 3487,-886.5 3487,-852.5 3321,-852.5"/>
<text text-anchor="start" x="3324" y="-859.3" font-family="Times,serif" font-weight="bold" font-size="14.00">AfterCheckingEvent</text>
<polygon fill="none" stroke="black" points="3321,-846.5 3321,-852.5 3487,-852.5 3487,-846.5 3321,-846.5"/>
<polygon fill="none" stroke="black" points="3321,-840.5 3321,-846.5 3487,-846.5 3487,-840.5 3321,-840.5"/>
</g>
<!-- Symfony\\Component\\EventDispatcher\\GenericEvent -->
<g id="node12" class="node">
<title>Symfony\\Component\\EventDispatcher\\GenericEvent</title>
<polygon fill="#fefece" stroke="transparent" points="2794.5,-780 2279.5,-780 2279.5,-498 2794.5,-498 2794.5,-780"/>
<polygon fill="#eeeeee" stroke="transparent" points="2288,-742 2288,-776 2787,-776 2787,-742 2288,-742"/>
<polygon fill="none" stroke="black" points="2288,-742 2288,-776 2787,-776 2787,-742 2288,-742"/>
<text text-anchor="start" x="2484" y="-748.8" font-family="Times,serif" font-weight="bold" font-size="14.00">GenericEvent</text>
<polygon fill="none" stroke="black" points="2288,-736 2288,-742 2787,-742 2787,-736 2288,-736"/>
<polygon fill="none" stroke="black" points="2288,-502 2288,-736 2787,-736 2787,-502 2288,-502"/>
<text text-anchor="start" x="2293" y="-719.8" font-family="Times,serif" font-size="14.00">+ __construct(subject : mixed = «unknown», arguments : array = [])</text>
<text text-anchor="start" x="2293" y="-700.8" font-family="Times,serif" font-size="14.00">+ getSubject() : ?mixed</text>
<text text-anchor="start" x="2293" y="-681.8" font-family="Times,serif" font-size="14.00">+ getArgument(key : string) : ?mixed</text>
<text text-anchor="start" x="2293" y="-662.8" font-family="Times,serif" font-size="14.00">+ setArgument(key : string, value : mixed) : static</text>
<text text-anchor="start" x="2293" y="-643.8" font-family="Times,serif" font-size="14.00">+ getArguments() : array</text>
<text text-anchor="start" x="2293" y="-624.8" font-family="Times,serif" font-size="14.00">+ setArguments(args : array = []) : static</text>
<text text-anchor="start" x="2293" y="-605.8" font-family="Times,serif" font-size="14.00">+ hasArgument(key : string) : bool</text>
<text text-anchor="start" x="2293" y="-586.8" font-family="Times,serif" font-size="14.00">+ offsetGet(key : mixed) : ?mixed</text>
<text text-anchor="start" x="2293" y="-567.8" font-family="Times,serif" font-size="14.00">+ offsetSet(key : mixed, value : mixed) : void</text>
<text text-anchor="start" x="2293" y="-548.8" font-family="Times,serif" font-size="14.00">+ offsetUnset(key : mixed) : void</text>
<text text-anchor="start" x="2293" y="-529.8" font-family="Times,serif" font-size="14.00">+ offsetExists(key : mixed) : bool</text>
<text text-anchor="start" x="2293" y="-510.8" font-family="Times,serif" font-size="14.00">+ getIterator() : ArrayIterator</text>
</g>
<!-- Overtrue\\PHPLint\\Event\\AfterCheckingEvent&#45;&gt;Symfony\\Component\\EventDispatcher\\GenericEvent -->
<g id="edge10" class="edge">
<title>Overtrue\\PHPLint\\Event\\AfterCheckingEvent&#45;&gt;Symfony\\Component\\EventDispatcher\\GenericEvent</title>
<path fill="none" stroke="black" d="M3354.68,-836.47C3338.92,-829.41 3321.12,-822.7 3304,-819 3249.69,-807.25 2857.2,-827.04 2804,-811 2781.86,-804.33 2759.81,-795.24 2738.39,-784.71"/>
<polygon fill="none" stroke="black" points="2739.77,-781.48 2729.26,-780.11 2736.62,-787.74 2739.77,-781.48"/>
</g>
<!-- Overtrue\\PHPLint\\Event\\AfterCheckingInterface -->
<g id="node3" class="node">
<title>Overtrue\\PHPLint\\Event\\AfterCheckingInterface</title>
<polygon fill="#fefece" stroke="transparent" points="3294.5,-900 2639.5,-900 2639.5,-827 3294.5,-827 3294.5,-900"/>
<polygon fill="#eeeeee" stroke="transparent" points="2648,-861.5 2648,-895.5 3287,-895.5 3287,-861.5 2648,-861.5"/>
<polygon fill="none" stroke="black" points="2648,-861.5 2648,-895.5 3287,-895.5 3287,-861.5 2648,-861.5"/>
<text text-anchor="start" x="2922.5" y="-882.3" font-family="Times,serif" font-weight="bold" font-size="14.00">«interface»</text>
<text text-anchor="start" x="2874" y="-868.3" font-family="Times,serif" font-weight="bold" font-size="14.00">AfterCheckingInterface</text>
<polygon fill="none" stroke="black" points="2648,-855.5 2648,-861.5 3287,-861.5 3287,-855.5 2648,-855.5"/>
<polygon fill="none" stroke="black" points="2648,-830.5 2648,-855.5 3287,-855.5 3287,-830.5 2648,-830.5"/>
<text text-anchor="start" x="2653" y="-839.3" font-family="Times,serif" font-size="14.00">+ «abstract» afterChecking(event : Overtrue\PHPLint\Event\AfterCheckingEvent) : void</text>
</g>
<!-- Overtrue\\PHPLint\\Event\\AfterLintFileEvent -->
<g id="node4" class="node">
<title>Overtrue\\PHPLint\\Event\\AfterLintFileEvent</title>
<polygon fill="#fefece" stroke="transparent" points="2621.5,-890.5 2452.5,-890.5 2452.5,-836.5 2621.5,-836.5 2621.5,-890.5"/>
<polygon fill="#eeeeee" stroke="transparent" points="2461,-852.5 2461,-886.5 2614,-886.5 2614,-852.5 2461,-852.5"/>
<polygon fill="none" stroke="black" points="2461,-852.5 2461,-886.5 2614,-886.5 2614,-852.5 2461,-852.5"/>
<text text-anchor="start" x="2464" y="-859.3" font-family="Times,serif" font-weight="bold" font-size="14.00">AfterLintFileEvent</text>
<polygon fill="none" stroke="black" points="2461,-846.5 2461,-852.5 2614,-852.5 2614,-846.5 2461,-846.5"/>
<polygon fill="none" stroke="black" points="2461,-840.5 2461,-846.5 2614,-846.5 2614,-840.5 2461,-840.5"/>
</g>
<!-- Overtrue\\PHPLint\\Event\\AfterLintFileEvent&#45;&gt;Symfony\\Component\\EventDispatcher\\GenericEvent -->
<g id="edge11" class="edge">
<title>Overtrue\\PHPLint\\Event\\AfterLintFileEvent&#45;&gt;Symfony\\Component\\EventDispatcher\\GenericEvent</title>
<path fill="none" stroke="black" d="M2537,-836.1C2537,-823.69 2537,-807.81 2537,-790.46"/>
<polygon fill="none" stroke="black" points="2540.5,-790.1 2537,-780.1 2533.5,-790.1 2540.5,-790.1"/>
</g>
<!-- Overtrue\\PHPLint\\Event\\AfterLintFileInterface -->
<g id="node5" class="node">
<title>Overtrue\\PHPLint\\Event\\AfterLintFileInterface</title>
<polygon fill="#fefece" stroke="transparent" points="2434,-900 1800,-900 1800,-827 2434,-827 2434,-900"/>
<polygon fill="#eeeeee" stroke="transparent" points="1808,-861.5 1808,-895.5 2426,-895.5 2426,-861.5 1808,-861.5"/>
<polygon fill="none" stroke="black" points="1808,-861.5 1808,-895.5 2426,-895.5 2426,-861.5 1808,-861.5"/>
<text text-anchor="start" x="2072" y="-882.3" font-family="Times,serif" font-weight="bold" font-size="14.00">«interface»</text>
<text text-anchor="start" x="2029.5" y="-868.3" font-family="Times,serif" font-weight="bold" font-size="14.00">AfterLintFileInterface</text>
<polygon fill="none" stroke="black" points="1808,-855.5 1808,-861.5 2426,-861.5 2426,-855.5 1808,-855.5"/>
<polygon fill="none" stroke="black" points="1808,-830.5 1808,-855.5 2426,-855.5 2426,-830.5 1808,-830.5"/>
<text text-anchor="start" x="1813" y="-839.3" font-family="Times,serif" font-size="14.00">+ «abstract» afterLintFile(event : Overtrue\PHPLint\Event\AfterLintFileEvent) : void</text>
</g>
<!-- Overtrue\\PHPLint\\Event\\BeforeCheckingEvent -->
<g id="node6" class="node">
<title>Overtrue\\PHPLint\\Event\\BeforeCheckingEvent</title>
<polygon fill="#fefece" stroke="transparent" points="1782,-890.5 1588,-890.5 1588,-836.5 1782,-836.5 1782,-890.5"/>
<polygon fill="#eeeeee" stroke="transparent" points="1596,-852.5 1596,-886.5 1774,-886.5 1774,-852.5 1596,-852.5"/>
<polygon fill="none" stroke="black" points="1596,-852.5 1596,-886.5 1774,-886.5 1774,-852.5 1596,-852.5"/>
<text text-anchor="start" x="1599" y="-859.3" font-family="Times,serif" font-weight="bold" font-size="14.00">BeforeCheckingEvent</text>
<polygon fill="none" stroke="black" points="1596,-846.5 1596,-852.5 1774,-852.5 1774,-846.5 1596,-846.5"/>
<polygon fill="none" stroke="black" points="1596,-840.5 1596,-846.5 1774,-846.5 1774,-840.5 1596,-840.5"/>
</g>
<!-- Overtrue\\PHPLint\\Event\\BeforeCheckingEvent&#45;&gt;Symfony\\Component\\EventDispatcher\\GenericEvent -->
<g id="edge12" class="edge">
<title>Overtrue\\PHPLint\\Event\\BeforeCheckingEvent&#45;&gt;Symfony\\Component\\EventDispatcher\\GenericEvent</title>
<path fill="none" stroke="black" d="M1743.83,-836.48C1759.02,-830.28 1775.48,-824.01 1791,-819 1947.26,-768.52 2126.04,-725.15 2269.41,-693.74"/>
<polygon fill="none" stroke="black" points="2270.21,-697.15 2279.23,-691.59 2268.72,-690.31 2270.21,-697.15"/>
</g>
<!-- Overtrue\\PHPLint\\Event\\BeforeCheckingInterface -->
<g id="node7" class="node">
<title>Overtrue\\PHPLint\\Event\\BeforeCheckingInterface</title>
<polygon fill="#fefece" stroke="transparent" points="1570,-900 892,-900 892,-827 1570,-827 1570,-900"/>
<polygon fill="#eeeeee" stroke="transparent" points="900,-861.5 900,-895.5 1562,-895.5 1562,-861.5 900,-861.5"/>
<polygon fill="none" stroke="black" points="900,-861.5 900,-895.5 1562,-895.5 1562,-861.5 900,-861.5"/>
<text text-anchor="start" x="1186" y="-882.3" font-family="Times,serif" font-weight="bold" font-size="14.00">«interface»</text>
<text text-anchor="start" x="1131" y="-868.3" font-family="Times,serif" font-weight="bold" font-size="14.00">BeforeCheckingInterface</text>
<polygon fill="none" stroke="black" points="900,-855.5 900,-861.5 1562,-861.5 1562,-855.5 900,-855.5"/>
<polygon fill="none" stroke="black" points="900,-830.5 900,-855.5 1562,-855.5 1562,-830.5 900,-830.5"/>
<text text-anchor="start" x="905" y="-839.3" font-family="Times,serif" font-size="14.00">+ «abstract» beforeChecking(event : Overtrue\PHPLint\Event\BeforeCheckingEvent) : void</text>
</g>
<!-- Overtrue\\PHPLint\\Event\\BeforeLintFileEvent -->
<g id="node8" class="node">
<title>Overtrue\\PHPLint\\Event\\BeforeLintFileEvent</title>
<polygon fill="#fefece" stroke="transparent" points="874,-890.5 692,-890.5 692,-836.5 874,-836.5 874,-890.5"/>
<polygon fill="#eeeeee" stroke="transparent" points="700,-852.5 700,-886.5 866,-886.5 866,-852.5 700,-852.5"/>
<polygon fill="none" stroke="black" points="700,-852.5 700,-886.5 866,-886.5 866,-852.5 700,-852.5"/>
<text text-anchor="start" x="703" y="-859.3" font-family="Times,serif" font-weight="bold" font-size="14.00">BeforeLintFileEvent</text>
<polygon fill="none" stroke="black" points="700,-846.5 700,-852.5 866,-852.5 866,-846.5 700,-846.5"/>
<polygon fill="none" stroke="black" points="700,-840.5 700,-846.5 866,-846.5 866,-840.5 700,-840.5"/>
</g>
<!-- Overtrue\\PHPLint\\Event\\BeforeLintFileEvent&#45;&gt;Symfony\\Component\\EventDispatcher\\GenericEvent -->
<g id="edge13" class="edge">
<title>Overtrue\\PHPLint\\Event\\BeforeLintFileEvent&#45;&gt;Symfony\\Component\\EventDispatcher\\GenericEvent</title>
<path fill="none" stroke="black" d="M834.87,-836.4C850.05,-829.74 866.9,-823.27 883,-819 1360.53,-692.45 1938.29,-655.1 2269.19,-644.24"/>
<polygon fill="none" stroke="black" points="2269.51,-647.74 2279.39,-643.92 2269.28,-640.74 2269.51,-647.74"/>
</g>
<!-- Overtrue\\PHPLint\\Event\\BeforeLintFileInterface -->
<g id="node9" class="node">
<title>Overtrue\\PHPLint\\Event\\BeforeLintFileInterface</title>
<polygon fill="#fefece" stroke="transparent" points="673.5,-900 16.5,-900 16.5,-827 673.5,-827 673.5,-900"/>
<polygon fill="#eeeeee" stroke="transparent" points="25,-861.5 25,-895.5 666,-895.5 666,-861.5 25,-861.5"/>
<polygon fill="none" stroke="black" points="25,-861.5 25,-895.5 666,-895.5 666,-861.5 25,-861.5"/>
<text text-anchor="start" x="300.5" y="-882.3" font-family="Times,serif" font-weight="bold" font-size="14.00">«interface»</text>
<text text-anchor="start" x="252" y="-868.3" font-family="Times,serif" font-weight="bold" font-size="14.00">BeforeLintFileInterface</text>
<polygon fill="none" stroke="black" points="25,-855.5 25,-861.5 666,-861.5 666,-855.5 25,-855.5"/>
<polygon fill="none" stroke="black" points="25,-830.5 25,-855.5 666,-855.5 666,-830.5 25,-830.5"/>
<text text-anchor="start" x="30" y="-839.3" font-family="Times,serif" font-size="14.00">+ «abstract» beforeLintFile(event : Overtrue\PHPLint\Event\BeforeLintFileEvent) : void</text>
</g>
<!-- Symfony\\Component\\EventDispatcher\\EventDispatcherInterface -->
<g id="node11" class="node">
<title>Symfony\\Component\\EventDispatcher\\EventDispatcherInterface</title>
<polygon fill="#fefece" stroke="transparent" points="3366,-462 2506,-462 2506,-275 3366,-275 3366,-462"/>
<polygon fill="#eeeeee" stroke="transparent" points="2514,-423.5 2514,-457.5 3358,-457.5 3358,-423.5 2514,-423.5"/>
<polygon fill="none" stroke="black" points="2514,-423.5 2514,-457.5 3358,-457.5 3358,-423.5 2514,-423.5"/>
<text text-anchor="start" x="2891" y="-444.3" font-family="Times,serif" font-weight="bold" font-size="14.00">«interface»</text>
<text text-anchor="start" x="2833.5" y="-430.3" font-family="Times,serif" font-weight="bold" font-size="14.00">EventDispatcherInterface</text>
<polygon fill="none" stroke="black" points="2514,-417.5 2514,-423.5 3358,-423.5 3358,-417.5 2514,-417.5"/>
<polygon fill="none" stroke="black" points="2514,-278.5 2514,-417.5 3358,-417.5 3358,-278.5 2514,-278.5"/>
<text text-anchor="start" x="2519" y="-401.3" font-family="Times,serif" font-size="14.00">+ «abstract» addListener(eventName : string, listener : callable, priority : int = 0) : void</text>
<text text-anchor="start" x="2519" y="-382.3" font-family="Times,serif" font-size="14.00">+ «abstract» addSubscriber(subscriber : Symfony\Component\EventDispatcher\EventSubscriberInterface) : void</text>
<text text-anchor="start" x="2519" y="-363.3" font-family="Times,serif" font-size="14.00">+ «abstract» removeListener(eventName : string, listener : callable) : void</text>
<text text-anchor="start" x="2519" y="-344.3" font-family="Times,serif" font-size="14.00">+ «abstract» removeSubscriber(subscriber : Symfony\Component\EventDispatcher\EventSubscriberInterface) : void</text>
<text text-anchor="start" x="2519" y="-325.3" font-family="Times,serif" font-size="14.00">+ «abstract» getListeners(eventName : string = «unknown») : array</text>
<text text-anchor="start" x="2519" y="-306.3" font-family="Times,serif" font-size="14.00">+ «abstract» getListenerPriority(eventName : string, listener : callable) : ?int</text>
<text text-anchor="start" x="2519" y="-287.3" font-family="Times,serif" font-size="14.00">+ «abstract» hasListeners(eventName : string = «unknown») : bool</text>
</g>
<!-- Symfony\\Component\\EventDispatcher\\EventDispatcher&#45;&gt;Symfony\\Component\\EventDispatcher\\EventDispatcherInterface -->
<g id="edge3" class="edge">
<title>Symfony\\Component\\EventDispatcher\\EventDispatcher&#45;&gt;Symfony\\Component\\EventDispatcher\\EventDispatcherInterface</title>
<path fill="none" stroke="black" stroke-dasharray="5,2" d="M3092.09,-526.46C3073.37,-507.64 3054.04,-488.2 3035.63,-469.69"/>
<polygon fill="none" stroke="black" points="3037.88,-466.99 3028.35,-462.37 3032.92,-471.93 3037.88,-466.99"/>
</g>
<!-- Symfony\\Contracts\\EventDispatcher\\EventDispatcherInterface -->
<g id="node13" class="node">
<title>Symfony\\Contracts\\EventDispatcher\\EventDispatcherInterface</title>
<polygon fill="#fefece" stroke="transparent" points="3241.5,-218.5 2644.5,-218.5 2644.5,-145.5 3241.5,-145.5 3241.5,-218.5"/>
<polygon fill="#eeeeee" stroke="transparent" points="2653,-180 2653,-214 3234,-214 3234,-180 2653,-180"/>
<polygon fill="none" stroke="black" points="2653,-180 2653,-214 3234,-214 3234,-180 2653,-180"/>
<text text-anchor="start" x="2898.5" y="-200.8" font-family="Times,serif" font-weight="bold" font-size="14.00">«interface»</text>
<text text-anchor="start" x="2841" y="-186.8" font-family="Times,serif" font-weight="bold" font-size="14.00">EventDispatcherInterface</text>
<polygon fill="none" stroke="black" points="2653,-174 2653,-180 3234,-180 3234,-174 2653,-174"/>
<polygon fill="none" stroke="black" points="2653,-149 2653,-174 3234,-174 3234,-149 2653,-149"/>
<text text-anchor="start" x="2658" y="-157.8" font-family="Times,serif" font-size="14.00">+ «abstract» dispatch(event : object, eventName : string = «unknown») : object</text>
</g>
<!-- Symfony\\Component\\EventDispatcher\\EventDispatcherInterface&#45;&gt;Symfony\\Contracts\\EventDispatcher\\EventDispatcherInterface -->
<g id="edge2" class="edge">
<title>Symfony\\Component\\EventDispatcher\\EventDispatcherInterface&#45;&gt;Symfony\\Contracts\\EventDispatcher\\EventDispatcherInterface</title>
<path fill="none" stroke="black" stroke-dasharray="5,2" d="M2939.51,-274.98C2940.11,-259.07 2940.72,-243.18 2941.25,-229.19"/>
<polygon fill="none" stroke="black" points="2944.76,-229.01 2941.64,-218.89 2937.76,-228.75 2944.76,-229.01"/>
</g>
<!-- Symfony\\Contracts\\EventDispatcher\\Event -->
<g id="node14" class="node">
<title>Symfony\\Contracts\\EventDispatcher\\Event</title>
<polygon fill="#fefece" stroke="transparent" points="3514.5,-228 3259.5,-228 3259.5,-136 3514.5,-136 3514.5,-228"/>
<polygon fill="#eeeeee" stroke="transparent" points="3268,-190 3268,-224 3507,-224 3507,-190 3268,-190"/>
<polygon fill="none" stroke="black" points="3268,-190 3268,-224 3507,-224 3507,-190 3268,-190"/>
<text text-anchor="start" x="3364.5" y="-196.8" font-family="Times,serif" font-weight="bold" font-size="14.00">Event</text>
<polygon fill="none" stroke="black" points="3268,-184 3268,-190 3507,-190 3507,-184 3268,-184"/>
<polygon fill="none" stroke="black" points="3268,-140 3268,-184 3507,-184 3507,-140 3268,-140"/>
<text text-anchor="start" x="3273" y="-167.8" font-family="Times,serif" font-size="14.00">+ isPropagationStopped() : bool</text>
<text text-anchor="start" x="3273" y="-148.8" font-family="Times,serif" font-size="14.00">+ stopPropagation() : void</text>
</g>
<!-- Symfony\\Component\\EventDispatcher\\GenericEvent&#45;&gt;Symfony\\Contracts\\EventDispatcher\\Event -->
<g id="edge6" class="edge">
<title>Symfony\\Component\\EventDispatcher\\GenericEvent&#45;&gt;Symfony\\Contracts\\EventDispatcher\\Event</title>
<path fill="none" stroke="black" d="M2794.53,-500.74C2797.69,-499.79 2800.85,-498.87 2804,-498 2865.24,-481 3330.42,-509.8 3375,-464.5 3432.97,-405.59 3419.65,-301.82 3403.89,-238.07"/>
<polygon fill="none" stroke="black" points="3407.23,-237 3401.35,-228.19 3400.45,-238.75 3407.23,-237"/>
</g>
<!-- ArrayAccess -->
<g id="node17" class="node">
<title>ArrayAccess</title>
<polygon fill="#fefece" stroke="transparent" points="2255.5,-433.5 1856.5,-433.5 1856.5,-303.5 2255.5,-303.5 2255.5,-433.5"/>
<polygon fill="#eeeeee" stroke="transparent" points="1865,-395.5 1865,-429.5 2248,-429.5 2248,-395.5 1865,-395.5"/>
<polygon fill="none" stroke="black" points="1865,-395.5 1865,-429.5 2248,-429.5 2248,-395.5 1865,-395.5"/>
<text text-anchor="start" x="2011.5" y="-416.3" font-family="Times,serif" font-weight="bold" font-size="14.00">«interface»</text>
<text text-anchor="start" x="2008.5" y="-402.3" font-family="Times,serif" font-weight="bold" font-size="14.00">ArrayAccess</text>
<polygon fill="none" stroke="black" points="1865,-389.5 1865,-395.5 2248,-395.5 2248,-389.5 1865,-389.5"/>
<polygon fill="none" stroke="black" points="1865,-307.5 1865,-389.5 2248,-389.5 2248,-307.5 1865,-307.5"/>
<text text-anchor="start" x="1870" y="-373.3" font-family="Times,serif" font-size="14.00">+ «abstract» offsetExists(offset : mixed)</text>
<text text-anchor="start" x="1870" y="-354.3" font-family="Times,serif" font-size="14.00">+ «abstract» offsetGet(offset : mixed)</text>
<text text-anchor="start" x="1870" y="-335.3" font-family="Times,serif" font-size="14.00">+ «abstract» offsetSet(offset : mixed, value : mixed)</text>
<text text-anchor="start" x="1870" y="-316.3" font-family="Times,serif" font-size="14.00">+ «abstract» offsetUnset(offset : mixed)</text>
</g>
<!-- Symfony\\Component\\EventDispatcher\\GenericEvent&#45;&gt;ArrayAccess -->
<g id="edge7" class="edge">
<title>Symfony\\Component\\EventDispatcher\\GenericEvent&#45;&gt;ArrayAccess</title>
<path fill="none" stroke="black" stroke-dasharray="5,2" d="M2285.93,-497.85C2249.08,-477.28 2212.56,-456.89 2179.84,-438.63"/>
<polygon fill="none" stroke="black" points="2181.15,-435.35 2170.71,-433.53 2177.74,-441.46 2181.15,-435.35"/>
</g>
<!-- IteratorAggregate -->
<g id="node18" class="node">
<title>IteratorAggregate</title>
<polygon fill="#fefece" stroke="transparent" points="1838.5,-405 1625.5,-405 1625.5,-332 1838.5,-332 1838.5,-405"/>
<polygon fill="#eeeeee" stroke="transparent" points="1634,-366.5 1634,-400.5 1831,-400.5 1831,-366.5 1634,-366.5"/>
<polygon fill="none" stroke="black" points="1634,-366.5 1634,-400.5 1831,-400.5 1831,-366.5 1634,-366.5"/>
<text text-anchor="start" x="1687.5" y="-387.3" font-family="Times,serif" font-weight="bold" font-size="14.00">«interface»</text>
<text text-anchor="start" x="1660.5" y="-373.3" font-family="Times,serif" font-weight="bold" font-size="14.00">IteratorAggregate</text>
<polygon fill="none" stroke="black" points="1634,-360.5 1634,-366.5 1831,-366.5 1831,-360.5 1634,-360.5"/>
<polygon fill="none" stroke="black" points="1634,-335.5 1634,-360.5 1831,-360.5 1831,-335.5 1634,-335.5"/>
<text text-anchor="start" x="1639" y="-344.3" font-family="Times,serif" font-size="14.00">+ «abstract» getIterator()</text>
</g>
<!-- Symfony\\Component\\EventDispatcher\\GenericEvent&#45;&gt;IteratorAggregate -->
<g id="edge9" class="edge">
<title>Symfony\\Component\\EventDispatcher\\GenericEvent&#45;&gt;IteratorAggregate</title>
<path fill="none" stroke="black" stroke-dasharray="5,2" d="M2279.19,-600.86C2145.53,-574.84 1982.55,-532.25 1848,-464.5 1821.3,-451.06 1795.22,-430.56 1774.56,-412.04"/>
<polygon fill="none" stroke="black" points="1776.67,-409.22 1766.93,-405.06 1771.95,-414.39 1776.67,-409.22"/>
</g>
<!-- Psr\\EventDispatcher\\EventDispatcherInterface -->
<g id="node15" class="node">
<title>Psr\\EventDispatcher\\EventDispatcherInterface</title>
<polygon fill="#fefece" stroke="transparent" points="3144.5,-89 2853.5,-89 2853.5,-16 3144.5,-16 3144.5,-89"/>
<polygon fill="#eeeeee" stroke="transparent" points="2862,-50.5 2862,-84.5 3137,-84.5 3137,-50.5 2862,-50.5"/>
<polygon fill="none" stroke="black" points="2862,-50.5 2862,-84.5 3137,-84.5 3137,-50.5 2862,-50.5"/>
<text text-anchor="start" x="2954.5" y="-71.3" font-family="Times,serif" font-weight="bold" font-size="14.00">«interface»</text>
<text text-anchor="start" x="2897" y="-57.3" font-family="Times,serif" font-weight="bold" font-size="14.00">EventDispatcherInterface</text>
<polygon fill="none" stroke="black" points="2862,-44.5 2862,-50.5 3137,-50.5 3137,-44.5 2862,-44.5"/>
<polygon fill="none" stroke="black" points="2862,-19.5 2862,-44.5 3137,-44.5 3137,-19.5 2862,-19.5"/>
<text text-anchor="start" x="2867" y="-28.3" font-family="Times,serif" font-size="14.00">+ «abstract» dispatch(event : object)</text>
</g>
<!-- Symfony\\Contracts\\EventDispatcher\\EventDispatcherInterface&#45;&gt;Psr\\EventDispatcher\\EventDispatcherInterface -->
<g id="edge1" class="edge">
<title>Symfony\\Contracts\\EventDispatcher\\EventDispatcherInterface&#45;&gt;Psr\\EventDispatcher\\EventDispatcherInterface</title>
<path fill="none" stroke="black" stroke-dasharray="5,2" d="M2958.6,-145.48C2964.98,-130.96 2972.43,-113.99 2979.19,-98.6"/>
<polygon fill="none" stroke="black" points="2982.47,-99.83 2983.29,-89.27 2976.06,-97.02 2982.47,-99.83"/>
</g>
<!-- Psr\\EventDispatcher\\StoppableEventInterface -->
<g id="node16" class="node">
<title>Psr\\EventDispatcher\\StoppableEventInterface</title>
<polygon fill="#fefece" stroke="transparent" points="3498,-89 3162,-89 3162,-16 3498,-16 3498,-89"/>
<polygon fill="#eeeeee" stroke="transparent" points="3170,-50.5 3170,-84.5 3490,-84.5 3490,-50.5 3170,-50.5"/>
<polygon fill="none" stroke="black" points="3170,-50.5 3170,-84.5 3490,-84.5 3490,-50.5 3170,-50.5"/>
<text text-anchor="start" x="3285" y="-71.3" font-family="Times,serif" font-weight="bold" font-size="14.00">«interface»</text>
<text text-anchor="start" x="3232" y="-57.3" font-family="Times,serif" font-weight="bold" font-size="14.00">StoppableEventInterface</text>
<polygon fill="none" stroke="black" points="3170,-44.5 3170,-50.5 3490,-50.5 3490,-44.5 3170,-44.5"/>
<polygon fill="none" stroke="black" points="3170,-19.5 3170,-44.5 3490,-44.5 3490,-19.5 3170,-19.5"/>
<text text-anchor="start" x="3175" y="-28.3" font-family="Times,serif" font-size="14.00">+ «abstract» isPropagationStopped() : bool</text>
</g>
<!-- Symfony\\Contracts\\EventDispatcher\\Event&#45;&gt;Psr\\EventDispatcher\\StoppableEventInterface -->
<g id="edge5" class="edge">
<title>Symfony\\Contracts\\EventDispatcher\\Event&#45;&gt;Psr\\EventDispatcher\\StoppableEventInterface</title>
<path fill="none" stroke="black" stroke-dasharray="5,2" d="M3366.74,-135.69C3361.34,-123.6 3355.5,-110.55 3350.11,-98.48"/>
<polygon fill="none" stroke="black" points="3353.17,-96.75 3345.89,-89.05 3346.78,-99.61 3353.17,-96.75"/>
</g>
<!-- Traversable -->
<g id="node19" class="node">
<title>Traversable</title>
<polygon fill="#fefece" stroke="transparent" points="1789.5,-209 1674.5,-209 1674.5,-155 1789.5,-155 1789.5,-209"/>
<polygon fill="#eeeeee" stroke="transparent" points="1683,-171 1683,-205 1782,-205 1782,-171 1683,-171"/>
<polygon fill="none" stroke="black" points="1683,-171 1683,-205 1782,-205 1782,-171 1683,-171"/>
<text text-anchor="start" x="1687.5" y="-191.8" font-family="Times,serif" font-weight="bold" font-size="14.00">«interface»</text>
<text text-anchor="start" x="1686" y="-177.8" font-family="Times,serif" font-weight="bold" font-size="14.00">Traversable</text>
<polygon fill="none" stroke="black" points="1683,-165 1683,-171 1782,-171 1782,-165 1683,-165"/>
<polygon fill="none" stroke="black" points="1683,-159 1683,-165 1782,-165 1782,-159 1683,-159"/>
</g>
<!-- IteratorAggregate&#45;&gt;Traversable -->
<g id="edge8" class="edge">
<title>IteratorAggregate&#45;&gt;Traversable</title>
<path fill="none" stroke="black" stroke-dasharray="5,2" d="M1732,-331.93C1732,-299.52 1732,-251.87 1732,-219.25"/>
<polygon fill="none" stroke="black" points="1735.5,-219.23 1732,-209.23 1728.5,-219.23 1735.5,-219.23"/>
</g>
</g>
</svg>
