<?xml version="1.0" encoding="UTF-8" standalone="no"?>
<!DOCTYPE svg PUBLIC "-//W3C//DTD SVG 1.1//EN"
 "http://www.w3.org/Graphics/SVG/1.1/DTD/svg11.dtd">
<!-- Generated by graphviz version 2.43.0 (0)
 -->
<!-- Title: %3 Pages: 1 -->
<svg width="3027pt" height="947pt"
 viewBox="0.00 0.00 3027.00 947.00" xmlns="http://www.w3.org/2000/svg" xmlns:xlink="http://www.w3.org/1999/xlink">
<g id="graph0" class="graph" transform="scale(1 1) rotate(0) translate(4 943)">
<title>%3</title>
<g id="clust1" class="cluster">
<title>cluster_0</title>
<polygon fill="#cdaa7d" stroke="black" points="8,-819 8,-931 3011,-931 3011,-819 8,-819"/>
<text text-anchor="middle" x="1509.5" y="-915.8" font-family="Times,serif" font-size="14.00">Overtrue\PHPLint\Event</text>
</g>
<g id="clust2" class="cluster">
<title>cluster_1</title>
<polygon fill="transparent" stroke="black" points="1794,-267 1794,-811 2803,-811 2803,-267 1794,-267"/>
<text text-anchor="middle" x="2298.5" y="-795.8" font-family="Times,serif" font-size="14.00">Symfony\Component\EventDispatcher</text>
</g>
<g id="clust3" class="cluster">
<title>cluster_2</title>
<polygon fill="transparent" stroke="black" points="2057,-128 2057,-259 2755,-259 2755,-128 2057,-128"/>
<text text-anchor="middle" x="2406" y="-243.8" font-family="Times,serif" font-size="14.00">Symfony\Contracts\EventDispatcher</text>
</g>
<g id="clust4" class="cluster">
<title>cluster_3</title>
<polygon fill="transparent" stroke="black" points="2219,-8 2219,-120 2740,-120 2740,-8 2219,-8"/>
<text text-anchor="middle" x="2479.5" y="-104.8" font-family="Times,serif" font-size="14.00">Psr\EventDispatcher</text>
</g>
<g id="clust5" class="cluster">
<title>cluster_4</title>
<polygon fill="transparent" stroke="black" points="1276,-147 1276,-464.5 1786,-464.5 1786,-147 1276,-147"/>
<text text-anchor="middle" x="1531" y="-449.3" font-family="Times,serif" font-size="14.00">0</text>
</g>
<!-- Overtrue\\PHPLint\\Event\\EventDispatcher -->
<g id="node1" class="node">
<title>Overtrue\\PHPLint\\Event\\EventDispatcher</title>
<polygon fill="#fefece" stroke="transparent" points="3003,-900 2783,-900 2783,-827 3003,-827 3003,-900"/>
<polygon fill="#eeeeee" stroke="transparent" points="2791,-861.5 2791,-895.5 2995,-895.5 2995,-861.5 2791,-861.5"/>
<polygon fill="none" stroke="black" points="2791,-861.5 2791,-895.5 2995,-895.5 2995,-861.5 2791,-861.5"/>
<text text-anchor="start" x="2844.5" y="-868.3" font-family="Times,serif" font-weight="bold" font-size="14.00">EventDispatcher</text>
<polygon fill="none" stroke="black" points="2791,-855.5 2791,-861.5 2995,-861.5 2995,-855.5 2791,-855.5"/>
<polygon fill="none" stroke="black" points="2791,-830.5 2791,-855.5 2995,-855.5 2995,-830.5 2791,-830.5"/>
<text text-anchor="start" x="2796" y="-839.3" font-family="Times,serif" font-size="14.00">+ __construct(extensions : iterable)</text>
</g>
<!-- Symfony\\Component\\EventDispatcher\\EventDispatcher -->
<g id="node10" class="node">
<title>Symfony\\Component\\EventDispatcher\\EventDispatcher</title>
<polygon fill="#fefece" stroke="transparent" points="2794.5,-751.5 2225.5,-751.5 2225.5,-526.5 2794.5,-526.5 2794.5,-751.5"/>
<polygon fill="#eeeeee" stroke="transparent" points="2234,-713 2234,-747 2787,-747 2787,-713 2234,-713"/>
<polygon fill="none" stroke="black" points="2234,-713 2234,-747 2787,-747 2787,-713 2234,-713"/>
<text text-anchor="start" x="2462" y="-719.8" font-family="Times,serif" font-weight="bold" font-size="14.00">EventDispatcher</text>
<polygon fill="none" stroke="black" points="2234,-707 2234,-713 2787,-713 2787,-707 2234,-707"/>
<polygon fill="none" stroke="black" points="2234,-530 2234,-707 2787,-707 2787,-530 2234,-530"/>
<text text-anchor="start" x="2239" y="-690.8" font-family="Times,serif" font-size="14.00">+ __construct()</text>
<text text-anchor="start" x="2239" y="-671.8" font-family="Times,serif" font-size="14.00">+ dispatch(event : object, eventName : string = «unknown») : object</text>
<text text-anchor="start" x="2239" y="-652.8" font-family="Times,serif" font-size="14.00">+ getListeners(eventName : string = «unknown») : array</text>
<text text-anchor="start" x="2239" y="-633.8" font-family="Times,serif" font-size="14.00">+ getListenerPriority(eventName : string, listener) : ?int</text>
<text text-anchor="start" x="2239" y="-614.8" font-family="Times,serif" font-size="14.00">+ hasListeners(eventName : string = «unknown») : bool</text>
<text text-anchor="start" x="2239" y="-595.8" font-family="Times,serif" font-size="14.00">+ addListener(eventName : string, listener, priority : int = 0)</text>
<text text-anchor="start" x="2239" y="-576.8" font-family="Times,serif" font-size="14.00">+ removeListener(eventName : string, listener)</text>
<text text-anchor="start" x="2239" y="-557.8" font-family="Times,serif" font-size="14.00">+ addSubscriber(subscriber : Symfony\Component\EventDispatcher\EventSubscriberInterface)</text>
<text text-anchor="start" x="2239" y="-538.8" font-family="Times,serif" font-size="14.00">+ removeSubscriber(subscriber : Symfony\Component\EventDispatcher\EventSubscriberInterface)</text>
</g>
<!-- Overtrue\\PHPLint\\Event\\EventDispatcher&#45;&gt;Symfony\\Component\\EventDispatcher\\EventDispatcher -->
<g id="edge4" class="edge">
<title>Overtrue\\PHPLint\\Event\\EventDispatcher&#45;&gt;Symfony\\Component\\EventDispatcher\\EventDispatcher</title>
<path fill="none" stroke="black" d="M2831.89,-827C2798.53,-807.62 2755.11,-782.39 2711.02,-756.78"/>
<polygon fill="none" stroke="black" points="2712.6,-753.65 2702.19,-751.65 2709.08,-759.7 2712.6,-753.65"/>
</g>
<!-- Overtrue\\PHPLint\\Event\\AfterCheckingEvent -->
<g id="node2" class="node">
<title>Overtrue\\PHPLint\\Event\\AfterCheckingEvent</title>
<polygon fill="#fefece" stroke="transparent" points="2764.5,-890.5 2621.5,-890.5 2621.5,-836.5 2764.5,-836.5 2764.5,-890.5"/>
<polygon fill="#eeeeee" stroke="transparent" points="2630,-852.5 2630,-886.5 2757,-886.5 2757,-852.5 2630,-852.5"/>
<polygon fill="none" stroke="black" points="2630,-852.5 2630,-886.5 2757,-886.5 2757,-852.5 2630,-852.5"/>
<text text-anchor="start" x="2633" y="-859.3" font-family="Times,serif" font-weight="bold" font-size="14.00">AfterCheckingEvent</text>
<polygon fill="none" stroke="black" points="2630,-846.5 2630,-852.5 2757,-852.5 2757,-846.5 2630,-846.5"/>
<polygon fill="none" stroke="black" points="2630,-840.5 2630,-846.5 2757,-846.5 2757,-840.5 2630,-840.5"/>
</g>
<!-- Symfony\\Component\\EventDispatcher\\GenericEvent -->
<g id="node12" class="node">
<title>Symfony\\Component\\EventDispatcher\\GenericEvent</title>
<polygon fill="#fefece" stroke="transparent" points="2207.5,-780 1802.5,-780 1802.5,-498 2207.5,-498 2207.5,-780"/>
<polygon fill="#eeeeee" stroke="transparent" points="1811,-742 1811,-776 2200,-776 2200,-742 1811,-742"/>
<polygon fill="none" stroke="black" points="1811,-742 1811,-776 2200,-776 2200,-742 1811,-742"/>
<text text-anchor="start" x="1965" y="-748.8" font-family="Times,serif" font-weight="bold" font-size="14.00">GenericEvent</text>
<polygon fill="none" stroke="black" points="1811,-736 1811,-742 2200,-742 2200,-736 1811,-736"/>
<polygon fill="none" stroke="black" points="1811,-502 1811,-736 2200,-736 2200,-502 1811,-502"/>
<text text-anchor="start" x="1816" y="-719.8" font-family="Times,serif" font-size="14.00">+ __construct(subject : mixed = «unknown», arguments : array = [])</text>
<text text-anchor="start" x="1816" y="-700.8" font-family="Times,serif" font-size="14.00">+ getSubject() : ?mixed</text>
<text text-anchor="start" x="1816" y="-681.8" font-family="Times,serif" font-size="14.00">+ getArgument(key : string) : ?mixed</text>
<text text-anchor="start" x="1816" y="-662.8" font-family="Times,serif" font-size="14.00">+ setArgument(key : string, value : mixed) : static</text>
<text text-anchor="start" x="1816" y="-643.8" font-family="Times,serif" font-size="14.00">+ getArguments() : array</text>
<text text-anchor="start" x="1816" y="-624.8" font-family="Times,serif" font-size="14.00">+ setArguments(args : array = []) : static</text>
<text text-anchor="start" x="1816" y="-605.8" font-family="Times,serif" font-size="14.00">+ hasArgument(key : string) : bool</text>
<text text-anchor="start" x="1816" y="-586.8" font-family="Times,serif" font-size="14.00">+ offsetGet(key : mixed) : ?mixed</text>
<text text-anchor="start" x="1816" y="-567.8" font-family="Times,serif" font-size="14.00">+ offsetSet(key : mixed, value : mixed) : void</text>
<text text-anchor="start" x="1816" y="-548.8" font-family="Times,serif" font-size="14.00">+ offsetUnset(key : mixed) : void</text>
<text text-anchor="start" x="1816" y="-529.8" font-family="Times,serif" font-size="14.00">+ offsetExists(key : mixed) : bool</text>
<text text-anchor="start" x="1816" y="-510.8" font-family="Times,serif" font-size="14.00">+ getIterator() : ArrayIterator</text>
</g>
<!-- Overtrue\\PHPLint\\Event\\AfterCheckingEvent&#45;&gt;Symfony\\Component\\EventDispatcher\\GenericEvent -->
<g id="edge10" class="edge">
<title>Overtrue\\PHPLint\\Event\\AfterCheckingEvent&#45;&gt;Symfony\\Component\\EventDispatcher\\GenericEvent</title>
<path fill="none" stroke="black" d="M2653.88,-836.4C2641.35,-829.39 2627.06,-822.73 2613,-819 2570.46,-807.72 2258.35,-826.07 2217,-811 2198.93,-804.42 2181.26,-795.61 2164.31,-785.45"/>
<polygon fill="none" stroke="black" points="2165.86,-782.3 2155.51,-780.02 2162.18,-788.25 2165.86,-782.3"/>
</g>
<!-- Overtrue\\PHPLint\\Event\\AfterCheckingInterface -->
<g id="node3" class="node">
<title>Overtrue\\PHPLint\\Event\\AfterCheckingInterface</title>
<polygon fill="#fefece" stroke="transparent" points="2603.5,-900 2090.5,-900 2090.5,-827 2603.5,-827 2603.5,-900"/>
<polygon fill="#eeeeee" stroke="transparent" points="2099,-861.5 2099,-895.5 2596,-895.5 2596,-861.5 2099,-861.5"/>
<polygon fill="none" stroke="black" points="2099,-861.5 2099,-895.5 2596,-895.5 2596,-861.5 2099,-861.5"/>
<text text-anchor="start" x="2315" y="-882.3" font-family="Times,serif" font-weight="bold" font-size="14.00">«interface»</text>
<text text-anchor="start" x="2278" y="-868.3" font-family="Times,serif" font-weight="bold" font-size="14.00">AfterCheckingInterface</text>
<polygon fill="none" stroke="black" points="2099,-855.5 2099,-861.5 2596,-861.5 2596,-855.5 2099,-855.5"/>
<polygon fill="none" stroke="black" points="2099,-830.5 2099,-855.5 2596,-855.5 2596,-830.5 2099,-830.5"/>
<text text-anchor="start" x="2104" y="-839.3" font-family="Times,serif" font-size="14.00">+ «abstract» afterChecking(event : Overtrue\PHPLint\Event\AfterCheckingEvent) : void</text>
</g>
<!-- Overtrue\\PHPLint\\Event\\AfterLintFileEvent -->
<g id="node4" class="node">
<title>Overtrue\\PHPLint\\Event\\AfterLintFileEvent</title>
<polygon fill="#fefece" stroke="transparent" points="2072,-890.5 1938,-890.5 1938,-836.5 2072,-836.5 2072,-890.5"/>
<polygon fill="#eeeeee" stroke="transparent" points="1946,-852.5 1946,-886.5 2064,-886.5 2064,-852.5 1946,-852.5"/>
<polygon fill="none" stroke="black" points="1946,-852.5 1946,-886.5 2064,-886.5 2064,-852.5 1946,-852.5"/>
<text text-anchor="start" x="1949" y="-859.3" font-family="Times,serif" font-weight="bold" font-size="14.00">AfterLintFileEvent</text>
<polygon fill="none" stroke="black" points="1946,-846.5 1946,-852.5 2064,-852.5 2064,-846.5 1946,-846.5"/>
<polygon fill="none" stroke="black" points="1946,-840.5 1946,-846.5 2064,-846.5 2064,-840.5 1946,-840.5"/>
</g>
<!-- Overtrue\\PHPLint\\Event\\AfterLintFileEvent&#45;&gt;Symfony\\Component\\EventDispatcher\\GenericEvent -->
<g id="edge11" class="edge">
<title>Overtrue\\PHPLint\\Event\\AfterLintFileEvent&#45;&gt;Symfony\\Component\\EventDispatcher\\GenericEvent</title>
<path fill="none" stroke="black" d="M2005,-836.1C2005,-823.69 2005,-807.81 2005,-790.46"/>
<polygon fill="none" stroke="black" points="2008.5,-790.1 2005,-780.1 2001.5,-790.1 2008.5,-790.1"/>
</g>
<!-- Overtrue\\PHPLint\\Event\\AfterLintFileInterface -->
<g id="node5" class="node">
<title>Overtrue\\PHPLint\\Event\\AfterLintFileInterface</title>
<polygon fill="#fefece" stroke="transparent" points="1919.5,-900 1424.5,-900 1424.5,-827 1919.5,-827 1919.5,-900"/>
<polygon fill="#eeeeee" stroke="transparent" points="1433,-861.5 1433,-895.5 1912,-895.5 1912,-861.5 1433,-861.5"/>
<polygon fill="none" stroke="black" points="1433,-861.5 1433,-895.5 1912,-895.5 1912,-861.5 1433,-861.5"/>
<text text-anchor="start" x="1640" y="-882.3" font-family="Times,serif" font-weight="bold" font-size="14.00">«interface»</text>
<text text-anchor="start" x="1607.5" y="-868.3" font-family="Times,serif" font-weight="bold" font-size="14.00">AfterLintFileInterface</text>
<polygon fill="none" stroke="black" points="1433,-855.5 1433,-861.5 1912,-861.5 1912,-855.5 1433,-855.5"/>
<polygon fill="none" stroke="black" points="1433,-830.5 1433,-855.5 1912,-855.5 1912,-830.5 1433,-830.5"/>
<text text-anchor="start" x="1438" y="-839.3" font-family="Times,serif" font-size="14.00">+ «abstract» afterLintFile(event : Overtrue\PHPLint\Event\AfterLintFileEvent) : void</text>
</g>
<!-- Overtrue\\PHPLint\\Event\\BeforeCheckingEvent -->
<g id="node6" class="node">
<title>Overtrue\\PHPLint\\Event\\BeforeCheckingEvent</title>
<polygon fill="#fefece" stroke="transparent" points="1406,-890.5 1256,-890.5 1256,-836.5 1406,-836.5 1406,-890.5"/>
<polygon fill="#eeeeee" stroke="transparent" points="1264,-852.5 1264,-886.5 1398,-886.5 1398,-852.5 1264,-852.5"/>
<polygon fill="none" stroke="black" points="1264,-852.5 1264,-886.5 1398,-886.5 1398,-852.5 1264,-852.5"/>
<text text-anchor="start" x="1267" y="-859.3" font-family="Times,serif" font-weight="bold" font-size="14.00">BeforeCheckingEvent</text>
<polygon fill="none" stroke="black" points="1264,-846.5 1264,-852.5 1398,-852.5 1398,-846.5 1264,-846.5"/>
<polygon fill="none" stroke="black" points="1264,-840.5 1264,-846.5 1398,-846.5 1398,-840.5 1264,-840.5"/>
</g>
<!-- Overtrue\\PHPLint\\Event\\BeforeCheckingEvent&#45;&gt;Symfony\\Component\\EventDispatcher\\GenericEvent -->
<g id="edge12" class="edge">
<title>Overtrue\\PHPLint\\Event\\BeforeCheckingEvent&#45;&gt;Symfony\\Component\\EventDispatcher\\GenericEvent</title>
<path fill="none" stroke="black" d="M1378.4,-836.36C1390.47,-830.23 1403.55,-824.03 1416,-819 1538.04,-769.69 1678.98,-726.39 1792.39,-694.74"/>
<polygon fill="none" stroke="black" points="1793.54,-698.05 1802.23,-692 1791.66,-691.31 1793.54,-698.05"/>
</g>
<!-- Overtrue\\PHPLint\\Event\\BeforeCheckingInterface -->
<g id="node7" class="node">
<title>Overtrue\\PHPLint\\Event\\BeforeCheckingInterface</title>
<polygon fill="#fefece" stroke="transparent" points="1237.5,-900 706.5,-900 706.5,-827 1237.5,-827 1237.5,-900"/>
<polygon fill="#eeeeee" stroke="transparent" points="715,-861.5 715,-895.5 1230,-895.5 1230,-861.5 715,-861.5"/>
<polygon fill="none" stroke="black" points="715,-861.5 715,-895.5 1230,-895.5 1230,-861.5 715,-861.5"/>
<text text-anchor="start" x="940" y="-882.3" font-family="Times,serif" font-weight="bold" font-size="14.00">«interface»</text>
<text text-anchor="start" x="899" y="-868.3" font-family="Times,serif" font-weight="bold" font-size="14.00">BeforeCheckingInterface</text>
<polygon fill="none" stroke="black" points="715,-855.5 715,-861.5 1230,-861.5 1230,-855.5 715,-855.5"/>
<polygon fill="none" stroke="black" points="715,-830.5 715,-855.5 1230,-855.5 1230,-830.5 715,-830.5"/>
<text text-anchor="start" x="720" y="-839.3" font-family="Times,serif" font-size="14.00">+ «abstract» beforeChecking(event : Overtrue\PHPLint\Event\BeforeCheckingEvent) : void</text>
</g>
<!-- Overtrue\\PHPLint\\Event\\BeforeLintFileEvent -->
<g id="node8" class="node">
<title>Overtrue\\PHPLint\\Event\\BeforeLintFileEvent</title>
<polygon fill="#fefece" stroke="transparent" points="688.5,-890.5 547.5,-890.5 547.5,-836.5 688.5,-836.5 688.5,-890.5"/>
<polygon fill="#eeeeee" stroke="transparent" points="556,-852.5 556,-886.5 681,-886.5 681,-852.5 556,-852.5"/>
<polygon fill="none" stroke="black" points="556,-852.5 556,-886.5 681,-886.5 681,-852.5 556,-852.5"/>
<text text-anchor="start" x="559" y="-859.3" font-family="Times,serif" font-weight="bold" font-size="14.00">BeforeLintFileEvent</text>
<polygon fill="none" stroke="black" points="556,-846.5 556,-852.5 681,-852.5 681,-846.5 556,-846.5"/>
<polygon fill="none" stroke="black" points="556,-840.5 556,-846.5 681,-846.5 681,-840.5 556,-840.5"/>
</g>
<!-- Overtrue\\PHPLint\\Event\\BeforeLintFileEvent&#45;&gt;Symfony\\Component\\EventDispatcher\\GenericEvent -->
<g id="edge13" class="edge">
<title>Overtrue\\PHPLint\\Event\\BeforeLintFileEvent&#45;&gt;Symfony\\Component\\EventDispatcher\\GenericEvent</title>
<path fill="none" stroke="black" d="M658.51,-836.48C670.5,-829.82 683.92,-823.33 697,-819 1069.59,-695.67 1528.95,-657.24 1792.3,-645.31"/>
<polygon fill="none" stroke="black" points="1792.53,-648.81 1802.37,-644.87 1792.22,-641.81 1792.53,-648.81"/>
</g>
<!-- Overtrue\\PHPLint\\Event\\BeforeLintFileInterface -->
<g id="node9" class="node">
<title>Overtrue\\PHPLint\\Event\\BeforeLintFileInterface</title>
<polygon fill="#fefece" stroke="transparent" points="529.5,-900 16.5,-900 16.5,-827 529.5,-827 529.5,-900"/>
<polygon fill="#eeeeee" stroke="transparent" points="25,-861.5 25,-895.5 522,-895.5 522,-861.5 25,-861.5"/>
<polygon fill="none" stroke="black" points="25,-861.5 25,-895.5 522,-895.5 522,-861.5 25,-861.5"/>
<text text-anchor="start" x="241" y="-882.3" font-family="Times,serif" font-weight="bold" font-size="14.00">«interface»</text>
<text text-anchor="start" x="204.5" y="-868.3" font-family="Times,serif" font-weight="bold" font-size="14.00">BeforeLintFileInterface</text>
<polygon fill="none" stroke="black" points="25,-855.5 25,-861.5 522,-861.5 522,-855.5 25,-855.5"/>
<polygon fill="none" stroke="black" points="25,-830.5 25,-855.5 522,-855.5 522,-830.5 25,-830.5"/>
<text text-anchor="start" x="30" y="-839.3" font-family="Times,serif" font-size="14.00">+ «abstract» beforeLintFile(event : Overtrue\PHPLint\Event\BeforeLintFileEvent) : void</text>
</g>
<!-- Symfony\\Component\\EventDispatcher\\EventDispatcherInterface -->
<g id="node11" class="node">
<title>Symfony\\Component\\EventDispatcher\\EventDispatcherInterface</title>
<polygon fill="#fefece" stroke="transparent" points="2612,-462 1984,-462 1984,-275 2612,-275 2612,-462"/>
<polygon fill="#eeeeee" stroke="transparent" points="1992,-423.5 1992,-457.5 2604,-457.5 2604,-423.5 1992,-423.5"/>
<polygon fill="none" stroke="black" points="1992,-423.5 1992,-457.5 2604,-457.5 2604,-423.5 1992,-423.5"/>
<text text-anchor="start" x="2265.5" y="-444.3" font-family="Times,serif" font-weight="bold" font-size="14.00">«interface»</text>
<text text-anchor="start" x="2223" y="-430.3" font-family="Times,serif" font-weight="bold" font-size="14.00">EventDispatcherInterface</text>
<polygon fill="none" stroke="black" points="1992,-417.5 1992,-423.5 2604,-423.5 2604,-417.5 1992,-417.5"/>
<polygon fill="none" stroke="black" points="1992,-278.5 1992,-417.5 2604,-417.5 2604,-278.5 1992,-278.5"/>
<text text-anchor="start" x="1997" y="-401.3" font-family="Times,serif" font-size="14.00">+ «abstract» addListener(eventName : string, listener : callable, priority : int = 0)</text>
<text text-anchor="start" x="1997" y="-382.3" font-family="Times,serif" font-size="14.00">+ «abstract» addSubscriber(subscriber : Symfony\Component\EventDispatcher\EventSubscriberInterface)</text>
<text text-anchor="start" x="1997" y="-363.3" font-family="Times,serif" font-size="14.00">+ «abstract» removeListener(eventName : string, listener : callable)</text>
<text text-anchor="start" x="1997" y="-344.3" font-family="Times,serif" font-size="14.00">+ «abstract» removeSubscriber(subscriber : Symfony\Component\EventDispatcher\EventSubscriberInterface)</text>
<text text-anchor="start" x="1997" y="-325.3" font-family="Times,serif" font-size="14.00">+ «abstract» getListeners(eventName : string = «unknown») : array</text>
<text text-anchor="start" x="1997" y="-306.3" font-family="Times,serif" font-size="14.00">+ «abstract» getListenerPriority(eventName : string, listener : callable) : ?int</text>
<text text-anchor="start" x="1997" y="-287.3" font-family="Times,serif" font-size="14.00">+ «abstract» hasListeners(eventName : string = «unknown») : bool</text>
</g>
<!-- Symfony\\Component\\EventDispatcher\\EventDispatcher&#45;&gt;Symfony\\Component\\EventDispatcher\\EventDispatcherInterface -->
<g id="edge3" class="edge">
<title>Symfony\\Component\\EventDispatcher\\EventDispatcher&#45;&gt;Symfony\\Component\\EventDispatcher\\EventDispatcherInterface</title>
<path fill="none" stroke="black" stroke-dasharray="5,2" d="M2421.93,-526.46C2407.33,-507.97 2392.27,-488.89 2377.88,-470.67"/>
<polygon fill="none" stroke="black" points="2380.27,-468.05 2371.32,-462.37 2374.77,-472.38 2380.27,-468.05"/>
</g>
<!-- Symfony\\Contracts\\EventDispatcher\\EventDispatcherInterface -->
<g id="node13" class="node">
<title>Symfony\\Contracts\\EventDispatcher\\EventDispatcherInterface</title>
<polygon fill="#fefece" stroke="transparent" points="2527,-218.5 2065,-218.5 2065,-145.5 2527,-145.5 2527,-218.5"/>
<polygon fill="#eeeeee" stroke="transparent" points="2073,-180 2073,-214 2519,-214 2519,-180 2073,-180"/>
<polygon fill="none" stroke="black" points="2073,-180 2073,-214 2519,-214 2519,-180 2073,-180"/>
<text text-anchor="start" x="2263.5" y="-200.8" font-family="Times,serif" font-weight="bold" font-size="14.00">«interface»</text>
<text text-anchor="start" x="2221" y="-186.8" font-family="Times,serif" font-weight="bold" font-size="14.00">EventDispatcherInterface</text>
<polygon fill="none" stroke="black" points="2073,-174 2073,-180 2519,-180 2519,-174 2073,-174"/>
<polygon fill="none" stroke="black" points="2073,-149 2073,-174 2519,-174 2519,-149 2073,-149"/>
<text text-anchor="start" x="2078" y="-157.8" font-family="Times,serif" font-size="14.00">+ «abstract» dispatch(event : object, eventName : string = «unknown») : object</text>
</g>
<!-- Symfony\\Component\\EventDispatcher\\EventDispatcherInterface&#45;&gt;Symfony\\Contracts\\EventDispatcher\\EventDispatcherInterface -->
<g id="edge2" class="edge">
<title>Symfony\\Component\\EventDispatcher\\EventDispatcherInterface&#45;&gt;Symfony\\Contracts\\EventDispatcher\\EventDispatcherInterface</title>
<path fill="none" stroke="black" stroke-dasharray="5,2" d="M2297,-274.98C2296.82,-259.07 2296.65,-243.18 2296.5,-229.19"/>
<polygon fill="none" stroke="black" points="2300,-228.85 2296.39,-218.89 2293,-228.92 2300,-228.85"/>
</g>
<!-- Symfony\\Contracts\\EventDispatcher\\Event -->
<g id="node14" class="node">
<title>Symfony\\Contracts\\EventDispatcher\\Event</title>
<polygon fill="#fefece" stroke="transparent" points="2746.5,-228 2545.5,-228 2545.5,-136 2746.5,-136 2746.5,-228"/>
<polygon fill="#eeeeee" stroke="transparent" points="2554,-190 2554,-224 2739,-224 2739,-190 2554,-190"/>
<polygon fill="none" stroke="black" points="2554,-190 2554,-224 2739,-224 2739,-190 2554,-190"/>
<text text-anchor="start" x="2629.5" y="-196.8" font-family="Times,serif" font-weight="bold" font-size="14.00">Event</text>
<polygon fill="none" stroke="black" points="2554,-184 2554,-190 2739,-190 2739,-184 2554,-184"/>
<polygon fill="none" stroke="black" points="2554,-140 2554,-184 2739,-184 2739,-140 2554,-140"/>
<text text-anchor="start" x="2559" y="-167.8" font-family="Times,serif" font-size="14.00">+ isPropagationStopped() : bool</text>
<text text-anchor="start" x="2559" y="-148.8" font-family="Times,serif" font-size="14.00">+ stopPropagation() : void</text>
</g>
<!-- Symfony\\Component\\EventDispatcher\\GenericEvent&#45;&gt;Symfony\\Contracts\\EventDispatcher\\Event -->
<g id="edge6" class="edge">
<title>Symfony\\Component\\EventDispatcher\\GenericEvent&#45;&gt;Symfony\\Contracts\\EventDispatcher\\Event</title>
<path fill="none" stroke="black" d="M2207.63,-501.41C2210.75,-500.22 2213.87,-499.08 2217,-498 2302.13,-468.54 2557.11,-528.01 2621,-464.5 2679.87,-405.97 2671.84,-301.84 2659.63,-237.96"/>
<polygon fill="none" stroke="black" points="2663.05,-237.18 2657.65,-228.06 2656.18,-238.56 2663.05,-237.18"/>
</g>
<!-- ArrayAccess -->
<g id="node17" class="node">
<title>ArrayAccess</title>
<polygon fill="#fefece" stroke="transparent" points="1778,-433.5 1466,-433.5 1466,-303.5 1778,-303.5 1778,-433.5"/>
<polygon fill="#eeeeee" stroke="transparent" points="1474,-395.5 1474,-429.5 1770,-429.5 1770,-395.5 1474,-395.5"/>
<polygon fill="none" stroke="black" points="1474,-395.5 1474,-429.5 1770,-429.5 1770,-395.5 1474,-395.5"/>
<text text-anchor="start" x="1589.5" y="-416.3" font-family="Times,serif" font-weight="bold" font-size="14.00">«interface»</text>
<text text-anchor="start" x="1585" y="-402.3" font-family="Times,serif" font-weight="bold" font-size="14.00">ArrayAccess</text>
<polygon fill="none" stroke="black" points="1474,-389.5 1474,-395.5 1770,-395.5 1770,-389.5 1474,-389.5"/>
<polygon fill="none" stroke="black" points="1474,-307.5 1474,-389.5 1770,-389.5 1770,-307.5 1474,-307.5"/>
<text text-anchor="start" x="1479" y="-373.3" font-family="Times,serif" font-size="14.00">+ «abstract» offsetExists(offset : mixed)</text>
<text text-anchor="start" x="1479" y="-354.3" font-family="Times,serif" font-size="14.00">+ «abstract» offsetGet(offset : mixed)</text>
<text text-anchor="start" x="1479" y="-335.3" font-family="Times,serif" font-size="14.00">+ «abstract» offsetSet(offset : mixed, value : mixed)</text>
<text text-anchor="start" x="1479" y="-316.3" font-family="Times,serif" font-size="14.00">+ «abstract» offsetUnset(offset : mixed)</text>
</g>
<!-- Symfony\\Component\\EventDispatcher\\GenericEvent&#45;&gt;ArrayAccess -->
<g id="edge7" class="edge">
<title>Symfony\\Component\\EventDispatcher\\GenericEvent&#45;&gt;ArrayAccess</title>
<path fill="none" stroke="black" stroke-dasharray="5,2" d="M1805.09,-497.85C1776.12,-477.54 1747.41,-457.42 1721.61,-439.33"/>
<polygon fill="none" stroke="black" points="1723.54,-436.41 1713.34,-433.53 1719.52,-442.14 1723.54,-436.41"/>
</g>
<!-- IteratorAggregate -->
<g id="node18" class="node">
<title>IteratorAggregate</title>
<polygon fill="#fefece" stroke="transparent" points="1447.5,-405 1284.5,-405 1284.5,-332 1447.5,-332 1447.5,-405"/>
<polygon fill="#eeeeee" stroke="transparent" points="1293,-366.5 1293,-400.5 1440,-400.5 1440,-366.5 1293,-366.5"/>
<polygon fill="none" stroke="black" points="1293,-366.5 1293,-400.5 1440,-400.5 1440,-366.5 1293,-366.5"/>
<text text-anchor="start" x="1334" y="-387.3" font-family="Times,serif" font-weight="bold" font-size="14.00">«interface»</text>
<text text-anchor="start" x="1313.5" y="-373.3" font-family="Times,serif" font-weight="bold" font-size="14.00">IteratorAggregate</text>
<polygon fill="none" stroke="black" points="1293,-360.5 1293,-366.5 1440,-366.5 1440,-360.5 1293,-360.5"/>
<polygon fill="none" stroke="black" points="1293,-335.5 1293,-360.5 1440,-360.5 1440,-335.5 1293,-335.5"/>
<text text-anchor="start" x="1298" y="-344.3" font-family="Times,serif" font-size="14.00">+ «abstract» getIterator()</text>
</g>
<!-- Symfony\\Component\\EventDispatcher\\GenericEvent&#45;&gt;IteratorAggregate -->
<g id="edge9" class="edge">
<title>Symfony\\Component\\EventDispatcher\\GenericEvent&#45;&gt;IteratorAggregate</title>
<path fill="none" stroke="black" stroke-dasharray="5,2" d="M1802.28,-599.42C1694.18,-572.73 1562.16,-529.96 1457,-464.5 1435.28,-450.98 1415.15,-431.11 1399.37,-413.03"/>
<polygon fill="none" stroke="black" points="1402.04,-410.76 1392.89,-405.41 1396.71,-415.3 1402.04,-410.76"/>
</g>
<!-- Psr\\EventDispatcher\\EventDispatcherInterface -->
<g id="node15" class="node">
<title>Psr\\EventDispatcher\\EventDispatcherInterface</title>
<polygon fill="#fefece" stroke="transparent" points="2452.5,-89 2227.5,-89 2227.5,-16 2452.5,-16 2452.5,-89"/>
<polygon fill="#eeeeee" stroke="transparent" points="2236,-50.5 2236,-84.5 2445,-84.5 2445,-50.5 2236,-50.5"/>
<polygon fill="none" stroke="black" points="2236,-50.5 2236,-84.5 2445,-84.5 2445,-50.5 2236,-50.5"/>
<text text-anchor="start" x="2308" y="-71.3" font-family="Times,serif" font-weight="bold" font-size="14.00">«interface»</text>
<text text-anchor="start" x="2265.5" y="-57.3" font-family="Times,serif" font-weight="bold" font-size="14.00">EventDispatcherInterface</text>
<polygon fill="none" stroke="black" points="2236,-44.5 2236,-50.5 2445,-50.5 2445,-44.5 2236,-44.5"/>
<polygon fill="none" stroke="black" points="2236,-19.5 2236,-44.5 2445,-44.5 2445,-19.5 2236,-19.5"/>
<text text-anchor="start" x="2241" y="-28.3" font-family="Times,serif" font-size="14.00">+ «abstract» dispatch(event : object)</text>
</g>
<!-- Symfony\\Contracts\\EventDispatcher\\EventDispatcherInterface&#45;&gt;Psr\\EventDispatcher\\EventDispatcherInterface -->
<g id="edge1" class="edge">
<title>Symfony\\Contracts\\EventDispatcher\\EventDispatcherInterface&#45;&gt;Psr\\EventDispatcher\\EventDispatcherInterface</title>
<path fill="none" stroke="black" stroke-dasharray="5,2" d="M2308.26,-145.48C2313.22,-131.1 2319.01,-114.31 2324.28,-99.04"/>
<polygon fill="none" stroke="black" points="2327.7,-99.86 2327.66,-89.27 2321.09,-97.58 2327.7,-99.86"/>
</g>
<!-- Psr\\EventDispatcher\\StoppableEventInterface -->
<g id="node16" class="node">
<title>Psr\\EventDispatcher\\StoppableEventInterface</title>
<polygon fill="#fefece" stroke="transparent" points="2731.5,-89 2470.5,-89 2470.5,-16 2731.5,-16 2731.5,-89"/>
<polygon fill="#eeeeee" stroke="transparent" points="2479,-50.5 2479,-84.5 2724,-84.5 2724,-50.5 2479,-50.5"/>
<polygon fill="none" stroke="black" points="2479,-50.5 2479,-84.5 2724,-84.5 2724,-50.5 2479,-50.5"/>
<text text-anchor="start" x="2569" y="-71.3" font-family="Times,serif" font-weight="bold" font-size="14.00">«interface»</text>
<text text-anchor="start" x="2529" y="-57.3" font-family="Times,serif" font-weight="bold" font-size="14.00">StoppableEventInterface</text>
<polygon fill="none" stroke="black" points="2479,-44.5 2479,-50.5 2724,-50.5 2724,-44.5 2479,-44.5"/>
<polygon fill="none" stroke="black" points="2479,-19.5 2479,-44.5 2724,-44.5 2724,-19.5 2479,-19.5"/>
<text text-anchor="start" x="2484" y="-28.3" font-family="Times,serif" font-size="14.00">+ «abstract» isPropagationStopped() : bool</text>
</g>
<!-- Symfony\\Contracts\\EventDispatcher\\Event&#45;&gt;Psr\\EventDispatcher\\StoppableEventInterface -->
<g id="edge5" class="edge">
<title>Symfony\\Contracts\\EventDispatcher\\Event&#45;&gt;Psr\\EventDispatcher\\StoppableEventInterface</title>
<path fill="none" stroke="black" stroke-dasharray="5,2" d="M2630.01,-135.69C2625.74,-123.6 2621.13,-110.55 2616.88,-98.48"/>
<polygon fill="none" stroke="black" points="2620.18,-97.32 2613.55,-89.05 2613.57,-99.65 2620.18,-97.32"/>
</g>
<!-- Traversable -->
<g id="node19" class="node">
<title>Traversable</title>
<polygon fill="#fefece" stroke="transparent" points="1412,-209 1320,-209 1320,-155 1412,-155 1412,-209"/>
<polygon fill="#eeeeee" stroke="transparent" points="1328,-171 1328,-205 1404,-205 1404,-171 1328,-171"/>
<polygon fill="none" stroke="black" points="1328,-171 1328,-205 1404,-205 1404,-171 1328,-171"/>
<text text-anchor="start" x="1333.5" y="-191.8" font-family="Times,serif" font-weight="bold" font-size="14.00">«interface»</text>
<text text-anchor="start" x="1331" y="-177.8" font-family="Times,serif" font-weight="bold" font-size="14.00">Traversable</text>
<polygon fill="none" stroke="black" points="1328,-165 1328,-171 1404,-171 1404,-165 1328,-165"/>
<polygon fill="none" stroke="black" points="1328,-159 1328,-165 1404,-165 1404,-159 1328,-159"/>
</g>
<!-- IteratorAggregate&#45;&gt;Traversable -->
<g id="edge8" class="edge">
<title>IteratorAggregate&#45;&gt;Traversable</title>
<path fill="none" stroke="black" stroke-dasharray="5,2" d="M1366,-331.93C1366,-299.52 1366,-251.87 1366,-219.25"/>
<polygon fill="none" stroke="black" points="1369.5,-219.23 1366,-209.23 1362.5,-219.23 1369.5,-219.23"/>
</g>
</g>
</svg>
