<?xml version="1.0" encoding="UTF-8" standalone="no"?>
<!DOCTYPE svg PUBLIC "-//W3C//DTD SVG 1.1//EN"
 "http://www.w3.org/Graphics/SVG/1.1/DTD/svg11.dtd">
<!-- Generated by graphviz version 2.43.0 (0)
 -->
<!-- Title: %3 Pages: 1 -->
<svg width="4055pt" height="966pt"
 viewBox="0.00 0.00 4055.00 966.00" xmlns="http://www.w3.org/2000/svg" xmlns:xlink="http://www.w3.org/1999/xlink">
<g id="graph0" class="graph" transform="scale(1 1) rotate(0) translate(4 962)">
<title>%3</title>
<g id="clust1" class="cluster">
<title>cluster_0</title>
<polygon fill="#cdaa7d" stroke="black" points="8,-819 8,-950 4039,-950 4039,-819 8,-819"/>
<text text-anchor="middle" x="2023.5" y="-934.8" font-family="Times,serif" font-size="14.00">Overtrue\PHPLint\Event</text>
</g>
<g id="clust2" class="cluster">
<title>cluster_1</title>
<polygon fill="transparent" stroke="black" points="2271,-267 2271,-811 3557,-811 3557,-267 2271,-267"/>
<text text-anchor="middle" x="2914" y="-795.8" font-family="Times,serif" font-size="14.00">Symfony\Component\EventDispatcher</text>
</g>
<g id="clust3" class="cluster">
<title>cluster_2</title>
<polygon fill="transparent" stroke="black" points="2605,-128 2605,-259 3492,-259 3492,-128 2605,-128"/>
<text text-anchor="middle" x="3048.5" y="-243.8" font-family="Times,serif" font-size="14.00">Symfony\Contracts\EventDispatcher</text>
</g>
<g id="clust4" class="cluster">
<title>cluster_3</title>
<polygon fill="transparent" stroke="black" points="2815,-8 2815,-120 3475,-120 3475,-8 2815,-8"/>
<text text-anchor="middle" x="3145" y="-104.8" font-family="Times,serif" font-size="14.00">Psr\EventDispatcher</text>
</g>
<g id="clust5" class="cluster">
<title>cluster_4</title>
<polygon fill="transparent" stroke="black" points="1618,-147 1618,-464.5 2263,-464.5 2263,-147 1618,-147"/>
<text text-anchor="middle" x="1940.5" y="-449.3" font-family="Times,serif" font-size="14.00">0</text>
</g>
<!-- Overtrue\\PHPLint\\Event\\EventDispatcher -->
<g id="node1" class="node">
<title>Overtrue\\PHPLint\\Event\\EventDispatcher</title>
<polygon fill="#fefece" stroke="transparent" points="4030.5,-919 3513.5,-919 3513.5,-827 4030.5,-827 4030.5,-919"/>
<polygon fill="#eeeeee" stroke="transparent" points="3522,-881 3522,-915 4023,-915 4023,-881 3522,-881"/>
<polygon fill="none" stroke="black" points="3522,-881 3522,-915 4023,-915 4023,-881 3522,-881"/>
<text text-anchor="start" x="3706.5" y="-887.8" font-family="Times,serif" font-weight="bold" font-size="14.00">EventDispatcher</text>
<polygon fill="none" stroke="black" points="3522,-875 3522,-881 4023,-881 4023,-875 3522,-875"/>
<polygon fill="none" stroke="black" points="3522,-831 3522,-875 4023,-875 4023,-831 3522,-831"/>
<text text-anchor="start" x="3527" y="-858.8" font-family="Times,serif" font-size="14.00">+ __construct(extensions : iterable)</text>
<text text-anchor="start" x="3527" y="-839.8" font-family="Times,serif" font-size="14.00">+ dispatch(event : object, eventName : string = «unknown») : object</text>
</g>
<!-- Symfony\\Component\\EventDispatcher\\EventDispatcher -->
<g id="node10" class="node">
<title>Symfony\\Component\\EventDispatcher\\EventDispatcher</title>
<polygon fill="#fefece" stroke="transparent" points="3549,-751.5 2813,-751.5 2813,-526.5 3549,-526.5 3549,-751.5"/>
<polygon fill="#eeeeee" stroke="transparent" points="2821,-713 2821,-747 3541,-747 3541,-713 2821,-713"/>
<polygon fill="none" stroke="black" points="2821,-713 2821,-747 3541,-747 3541,-713 2821,-713"/>
<text text-anchor="start" x="3115" y="-719.8" font-family="Times,serif" font-weight="bold" font-size="14.00">EventDispatcher</text>
<polygon fill="none" stroke="black" points="2821,-707 2821,-713 3541,-713 3541,-707 2821,-707"/>
<polygon fill="none" stroke="black" points="2821,-530 2821,-707 3541,-707 3541,-530 2821,-530"/>
<text text-anchor="start" x="2826" y="-690.8" font-family="Times,serif" font-size="14.00">+ __construct()</text>
<text text-anchor="start" x="2826" y="-671.8" font-family="Times,serif" font-size="14.00">+ dispatch(event : object, eventName : string = «unknown») : object</text>
<text text-anchor="start" x="2826" y="-652.8" font-family="Times,serif" font-size="14.00">+ getListeners(eventName : string = «unknown») : array</text>
<text text-anchor="start" x="2826" y="-633.8" font-family="Times,serif" font-size="14.00">+ getListenerPriority(eventName : string, listener) : ?int</text>
<text text-anchor="start" x="2826" y="-614.8" font-family="Times,serif" font-size="14.00">+ hasListeners(eventName : string = «unknown») : bool</text>
<text text-anchor="start" x="2826" y="-595.8" font-family="Times,serif" font-size="14.00">+ addListener(eventName : string, listener, priority : int = 0)</text>
<text text-anchor="start" x="2826" y="-576.8" font-family="Times,serif" font-size="14.00">+ removeListener(eventName : string, listener)</text>
<text text-anchor="start" x="2826" y="-557.8" font-family="Times,serif" font-size="14.00">+ addSubscriber(subscriber : Symfony\Component\EventDispatcher\EventSubscriberInterface)</text>
<text text-anchor="start" x="2826" y="-538.8" font-family="Times,serif" font-size="14.00">+ removeSubscriber(subscriber : Symfony\Component\EventDispatcher\EventSubscriberInterface)</text>
</g>
<!-- Overtrue\\PHPLint\\Event\\EventDispatcher&#45;&gt;Symfony\\Component\\EventDispatcher\\EventDispatcher -->
<g id="edge4" class="edge">
<title>Overtrue\\PHPLint\\Event\\EventDispatcher&#45;&gt;Symfony\\Component\\EventDispatcher\\EventDispatcher</title>
<path fill="none" stroke="black" d="M3657.35,-826.99C3604.72,-806.33 3539.65,-780.79 3474.7,-755.29"/>
<polygon fill="none" stroke="black" points="3475.71,-751.93 3465.12,-751.53 3473.15,-758.45 3475.71,-751.93"/>
</g>
<!-- Overtrue\\PHPLint\\Event\\AfterCheckingEvent -->
<g id="node2" class="node">
<title>Overtrue\\PHPLint\\Event\\AfterCheckingEvent</title>
<polygon fill="#fefece" stroke="transparent" points="3495,-900 3313,-900 3313,-846 3495,-846 3495,-900"/>
<polygon fill="#eeeeee" stroke="transparent" points="3321,-862 3321,-896 3487,-896 3487,-862 3321,-862"/>
<polygon fill="none" stroke="black" points="3321,-862 3321,-896 3487,-896 3487,-862 3321,-862"/>
<text text-anchor="start" x="3324" y="-868.8" font-family="Times,serif" font-weight="bold" font-size="14.00">AfterCheckingEvent</text>
<polygon fill="none" stroke="black" points="3321,-856 3321,-862 3487,-862 3487,-856 3321,-856"/>
<polygon fill="none" stroke="black" points="3321,-850 3321,-856 3487,-856 3487,-850 3321,-850"/>
</g>
<!-- Symfony\\Component\\EventDispatcher\\GenericEvent -->
<g id="node12" class="node">
<title>Symfony\\Component\\EventDispatcher\\GenericEvent</title>
<polygon fill="#fefece" stroke="transparent" points="2794.5,-780 2279.5,-780 2279.5,-498 2794.5,-498 2794.5,-780"/>
<polygon fill="#eeeeee" stroke="transparent" points="2288,-742 2288,-776 2787,-776 2787,-742 2288,-742"/>
<polygon fill="none" stroke="black" points="2288,-742 2288,-776 2787,-776 2787,-742 2288,-742"/>
<text text-anchor="start" x="2484" y="-748.8" font-family="Times,serif" font-weight="bold" font-size="14.00">GenericEvent</text>
<polygon fill="none" stroke="black" points="2288,-736 2288,-742 2787,-742 2787,-736 2288,-736"/>
<polygon fill="none" stroke="black" points="2288,-502 2288,-736 2787,-736 2787,-502 2288,-502"/>
<text text-anchor="start" x="2293" y="-719.8" font-family="Times,serif" font-size="14.00">+ __construct(subject : mixed = «unknown», arguments : array = [])</text>
<text text-anchor="start" x="2293" y="-700.8" font-family="Times,serif" font-size="14.00">+ getSubject() : ?mixed</text>
<text text-anchor="start" x="2293" y="-681.8" font-family="Times,serif" font-size="14.00">+ getArgument(key : string) : ?mixed</text>
<text text-anchor="start" x="2293" y="-662.8" font-family="Times,serif" font-size="14.00">+ setArgument(key : string, value : mixed) : static</text>
<text text-anchor="start" x="2293" y="-643.8" font-family="Times,serif" font-size="14.00">+ getArguments() : array</text>
<text text-anchor="start" x="2293" y="-624.8" font-family="Times,serif" font-size="14.00">+ setArguments(args : array = []) : static</text>
<text text-anchor="start" x="2293" y="-605.8" font-family="Times,serif" font-size="14.00">+ hasArgument(key : string) : bool</text>
<text text-anchor="start" x="2293" y="-586.8" font-family="Times,serif" font-size="14.00">+ offsetGet(key : mixed) : ?mixed</text>
<text text-anchor="start" x="2293" y="-567.8" font-family="Times,serif" font-size="14.00">+ offsetSet(key : mixed, value : mixed) : void</text>
<text text-anchor="start" x="2293" y="-548.8" font-family="Times,serif" font-size="14.00">+ offsetUnset(key : mixed) : void</text>
<text text-anchor="start" x="2293" y="-529.8" font-family="Times,serif" font-size="14.00">+ offsetExists(key : mixed) : bool</text>
<text text-anchor="start" x="2293" y="-510.8" font-family="Times,serif" font-size="14.00">+ getIterator() : ArrayIterator</text>
</g>
<!-- Overtrue\\PHPLint\\Event\\AfterCheckingEvent&#45;&gt;Symfony\\Component\\EventDispatcher\\GenericEvent -->
<g id="edge10" class="edge">
<title>Overtrue\\PHPLint\\Event\\AfterCheckingEvent&#45;&gt;Symfony\\Component\\EventDispatcher\\GenericEvent</title>
<path fill="none" stroke="black" d="M3364.9,-845.76C3347.12,-835.31 3325.31,-824.48 3304,-819 3250.19,-805.16 2857.2,-827.04 2804,-811 2781.86,-804.33 2759.81,-795.24 2738.39,-784.71"/>
<polygon fill="none" stroke="black" points="2739.77,-781.48 2729.26,-780.11 2736.62,-787.74 2739.77,-781.48"/>
</g>
<!-- Overtrue\\PHPLint\\Event\\AfterCheckingInterface -->
<g id="node3" class="node">
<title>Overtrue\\PHPLint\\Event\\AfterCheckingInterface</title>
<polygon fill="#fefece" stroke="transparent" points="3294.5,-909.5 2639.5,-909.5 2639.5,-836.5 3294.5,-836.5 3294.5,-909.5"/>
<polygon fill="#eeeeee" stroke="transparent" points="2648,-871 2648,-905 3287,-905 3287,-871 2648,-871"/>
<polygon fill="none" stroke="black" points="2648,-871 2648,-905 3287,-905 3287,-871 2648,-871"/>
<text text-anchor="start" x="2922.5" y="-891.8" font-family="Times,serif" font-weight="bold" font-size="14.00">«interface»</text>
<text text-anchor="start" x="2874" y="-877.8" font-family="Times,serif" font-weight="bold" font-size="14.00">AfterCheckingInterface</text>
<polygon fill="none" stroke="black" points="2648,-865 2648,-871 3287,-871 3287,-865 2648,-865"/>
<polygon fill="none" stroke="black" points="2648,-840 2648,-865 3287,-865 3287,-840 2648,-840"/>
<text text-anchor="start" x="2653" y="-848.8" font-family="Times,serif" font-size="14.00">+ «abstract» afterChecking(event : Overtrue\PHPLint\Event\AfterCheckingEvent) : void</text>
</g>
<!-- Overtrue\\PHPLint\\Event\\AfterLintFileEvent -->
<g id="node4" class="node">
<title>Overtrue\\PHPLint\\Event\\AfterLintFileEvent</title>
<polygon fill="#fefece" stroke="transparent" points="2621.5,-900 2452.5,-900 2452.5,-846 2621.5,-846 2621.5,-900"/>
<polygon fill="#eeeeee" stroke="transparent" points="2461,-862 2461,-896 2614,-896 2614,-862 2461,-862"/>
<polygon fill="none" stroke="black" points="2461,-862 2461,-896 2614,-896 2614,-862 2461,-862"/>
<text text-anchor="start" x="2464" y="-868.8" font-family="Times,serif" font-weight="bold" font-size="14.00">AfterLintFileEvent</text>
<polygon fill="none" stroke="black" points="2461,-856 2461,-862 2614,-862 2614,-856 2461,-856"/>
<polygon fill="none" stroke="black" points="2461,-850 2461,-856 2614,-856 2614,-850 2461,-850"/>
</g>
<!-- Overtrue\\PHPLint\\Event\\AfterLintFileEvent&#45;&gt;Symfony\\Component\\EventDispatcher\\GenericEvent -->
<g id="edge11" class="edge">
<title>Overtrue\\PHPLint\\Event\\AfterLintFileEvent&#45;&gt;Symfony\\Component\\EventDispatcher\\GenericEvent</title>
<path fill="none" stroke="black" d="M2537,-845.84C2537,-831.21 2537,-811.67 2537,-790.43"/>
<polygon fill="none" stroke="black" points="2540.5,-790.23 2537,-780.23 2533.5,-790.23 2540.5,-790.23"/>
</g>
<!-- Overtrue\\PHPLint\\Event\\AfterLintFileInterface -->
<g id="node5" class="node">
<title>Overtrue\\PHPLint\\Event\\AfterLintFileInterface</title>
<polygon fill="#fefece" stroke="transparent" points="2434,-909.5 1800,-909.5 1800,-836.5 2434,-836.5 2434,-909.5"/>
<polygon fill="#eeeeee" stroke="transparent" points="1808,-871 1808,-905 2426,-905 2426,-871 1808,-871"/>
<polygon fill="none" stroke="black" points="1808,-871 1808,-905 2426,-905 2426,-871 1808,-871"/>
<text text-anchor="start" x="2072" y="-891.8" font-family="Times,serif" font-weight="bold" font-size="14.00">«interface»</text>
<text text-anchor="start" x="2029.5" y="-877.8" font-family="Times,serif" font-weight="bold" font-size="14.00">AfterLintFileInterface</text>
<polygon fill="none" stroke="black" points="1808,-865 1808,-871 2426,-871 2426,-865 1808,-865"/>
<polygon fill="none" stroke="black" points="1808,-840 1808,-865 2426,-865 2426,-840 1808,-840"/>
<text text-anchor="start" x="1813" y="-848.8" font-family="Times,serif" font-size="14.00">+ «abstract» afterLintFile(event : Overtrue\PHPLint\Event\AfterLintFileEvent) : void</text>
</g>
<!-- Overtrue\\PHPLint\\Event\\BeforeCheckingEvent -->
<g id="node6" class="node">
<title>Overtrue\\PHPLint\\Event\\BeforeCheckingEvent</title>
<polygon fill="#fefece" stroke="transparent" points="1782,-900 1588,-900 1588,-846 1782,-846 1782,-900"/>
<polygon fill="#eeeeee" stroke="transparent" points="1596,-862 1596,-896 1774,-896 1774,-862 1596,-862"/>
<polygon fill="none" stroke="black" points="1596,-862 1596,-896 1774,-896 1774,-862 1596,-862"/>
<text text-anchor="start" x="1599" y="-868.8" font-family="Times,serif" font-weight="bold" font-size="14.00">BeforeCheckingEvent</text>
<polygon fill="none" stroke="black" points="1596,-856 1596,-862 1774,-862 1774,-856 1596,-856"/>
<polygon fill="none" stroke="black" points="1596,-850 1596,-856 1774,-856 1774,-850 1596,-850"/>
</g>
<!-- Overtrue\\PHPLint\\Event\\BeforeCheckingEvent&#45;&gt;Symfony\\Component\\EventDispatcher\\GenericEvent -->
<g id="edge12" class="edge">
<title>Overtrue\\PHPLint\\Event\\BeforeCheckingEvent&#45;&gt;Symfony\\Component\\EventDispatcher\\GenericEvent</title>
<path fill="none" stroke="black" d="M1731.47,-845.89C1749.63,-836.45 1770.9,-826.33 1791,-819 1945.89,-762.54 2125.41,-718.83 2269.52,-688.74"/>
<polygon fill="none" stroke="black" points="2270.32,-692.15 2279.4,-686.68 2268.89,-685.29 2270.32,-692.15"/>
</g>
<!-- Overtrue\\PHPLint\\Event\\BeforeCheckingInterface -->
<g id="node7" class="node">
<title>Overtrue\\PHPLint\\Event\\BeforeCheckingInterface</title>
<polygon fill="#fefece" stroke="transparent" points="1570,-909.5 892,-909.5 892,-836.5 1570,-836.5 1570,-909.5"/>
<polygon fill="#eeeeee" stroke="transparent" points="900,-871 900,-905 1562,-905 1562,-871 900,-871"/>
<polygon fill="none" stroke="black" points="900,-871 900,-905 1562,-905 1562,-871 900,-871"/>
<text text-anchor="start" x="1186" y="-891.8" font-family="Times,serif" font-weight="bold" font-size="14.00">«interface»</text>
<text text-anchor="start" x="1131" y="-877.8" font-family="Times,serif" font-weight="bold" font-size="14.00">BeforeCheckingInterface</text>
<polygon fill="none" stroke="black" points="900,-865 900,-871 1562,-871 1562,-865 900,-865"/>
<polygon fill="none" stroke="black" points="900,-840 900,-865 1562,-865 1562,-840 900,-840"/>
<text text-anchor="start" x="905" y="-848.8" font-family="Times,serif" font-size="14.00">+ «abstract» beforeChecking(event : Overtrue\PHPLint\Event\BeforeCheckingEvent) : void</text>
</g>
<!-- Overtrue\\PHPLint\\Event\\BeforeLintFileEvent -->
<g id="node8" class="node">
<title>Overtrue\\PHPLint\\Event\\BeforeLintFileEvent</title>
<polygon fill="#fefece" stroke="transparent" points="874,-900 692,-900 692,-846 874,-846 874,-900"/>
<polygon fill="#eeeeee" stroke="transparent" points="700,-862 700,-896 866,-896 866,-862 700,-862"/>
<polygon fill="none" stroke="black" points="700,-862 700,-896 866,-896 866,-862 700,-862"/>
<text text-anchor="start" x="703" y="-868.8" font-family="Times,serif" font-weight="bold" font-size="14.00">BeforeLintFileEvent</text>
<polygon fill="none" stroke="black" points="700,-856 700,-862 866,-862 866,-856 700,-856"/>
<polygon fill="none" stroke="black" points="700,-850 700,-856 866,-856 866,-850 700,-850"/>
</g>
<!-- Overtrue\\PHPLint\\Event\\BeforeLintFileEvent&#45;&gt;Symfony\\Component\\EventDispatcher\\GenericEvent -->
<g id="edge13" class="edge">
<title>Overtrue\\PHPLint\\Event\\BeforeLintFileEvent&#45;&gt;Symfony\\Component\\EventDispatcher\\GenericEvent</title>
<path fill="none" stroke="black" d="M823.8,-845.85C841.36,-835.82 862.52,-825.28 883,-819 1135.11,-741.68 1869.05,-683.59 2269.21,-656.64"/>
<polygon fill="none" stroke="black" points="2269.45,-660.13 2279.19,-655.97 2268.98,-653.15 2269.45,-660.13"/>
</g>
<!-- Overtrue\\PHPLint\\Event\\BeforeLintFileInterface -->
<g id="node9" class="node">
<title>Overtrue\\PHPLint\\Event\\BeforeLintFileInterface</title>
<polygon fill="#fefece" stroke="transparent" points="673.5,-909.5 16.5,-909.5 16.5,-836.5 673.5,-836.5 673.5,-909.5"/>
<polygon fill="#eeeeee" stroke="transparent" points="25,-871 25,-905 666,-905 666,-871 25,-871"/>
<polygon fill="none" stroke="black" points="25,-871 25,-905 666,-905 666,-871 25,-871"/>
<text text-anchor="start" x="300.5" y="-891.8" font-family="Times,serif" font-weight="bold" font-size="14.00">«interface»</text>
<text text-anchor="start" x="252" y="-877.8" font-family="Times,serif" font-weight="bold" font-size="14.00">BeforeLintFileInterface</text>
<polygon fill="none" stroke="black" points="25,-865 25,-871 666,-871 666,-865 25,-865"/>
<polygon fill="none" stroke="black" points="25,-840 25,-865 666,-865 666,-840 25,-840"/>
<text text-anchor="start" x="30" y="-848.8" font-family="Times,serif" font-size="14.00">+ «abstract» beforeLintFile(event : Overtrue\PHPLint\Event\BeforeLintFileEvent) : void</text>
</g>
<!-- Symfony\\Component\\EventDispatcher\\EventDispatcherInterface -->
<g id="node11" class="node">
<title>Symfony\\Component\\EventDispatcher\\EventDispatcherInterface</title>
<polygon fill="#fefece" stroke="transparent" points="3322,-462 2506,-462 2506,-275 3322,-275 3322,-462"/>
<polygon fill="#eeeeee" stroke="transparent" points="2514,-423.5 2514,-457.5 3314,-457.5 3314,-423.5 2514,-423.5"/>
<polygon fill="none" stroke="black" points="2514,-423.5 2514,-457.5 3314,-457.5 3314,-423.5 2514,-423.5"/>
<text text-anchor="start" x="2869" y="-444.3" font-family="Times,serif" font-weight="bold" font-size="14.00">«interface»</text>
<text text-anchor="start" x="2811.5" y="-430.3" font-family="Times,serif" font-weight="bold" font-size="14.00">EventDispatcherInterface</text>
<polygon fill="none" stroke="black" points="2514,-417.5 2514,-423.5 3314,-423.5 3314,-417.5 2514,-417.5"/>
<polygon fill="none" stroke="black" points="2514,-278.5 2514,-417.5 3314,-417.5 3314,-278.5 2514,-278.5"/>
<text text-anchor="start" x="2519" y="-401.3" font-family="Times,serif" font-size="14.00">+ «abstract» addListener(eventName : string, listener : callable, priority : int = 0)</text>
<text text-anchor="start" x="2519" y="-382.3" font-family="Times,serif" font-size="14.00">+ «abstract» addSubscriber(subscriber : Symfony\Component\EventDispatcher\EventSubscriberInterface)</text>
<text text-anchor="start" x="2519" y="-363.3" font-family="Times,serif" font-size="14.00">+ «abstract» removeListener(eventName : string, listener : callable)</text>
<text text-anchor="start" x="2519" y="-344.3" font-family="Times,serif" font-size="14.00">+ «abstract» removeSubscriber(subscriber : Symfony\Component\EventDispatcher\EventSubscriberInterface)</text>
<text text-anchor="start" x="2519" y="-325.3" font-family="Times,serif" font-size="14.00">+ «abstract» getListeners(eventName : string = «unknown») : array</text>
<text text-anchor="start" x="2519" y="-306.3" font-family="Times,serif" font-size="14.00">+ «abstract» getListenerPriority(eventName : string, listener : callable) : ?int</text>
<text text-anchor="start" x="2519" y="-287.3" font-family="Times,serif" font-size="14.00">+ «abstract» hasListeners(eventName : string = «unknown») : bool</text>
</g>
<!-- Symfony\\Component\\EventDispatcher\\EventDispatcher&#45;&gt;Symfony\\Component\\EventDispatcher\\EventDispatcherInterface -->
<g id="edge3" class="edge">
<title>Symfony\\Component\\EventDispatcher\\EventDispatcher&#45;&gt;Symfony\\Component\\EventDispatcher\\EventDispatcherInterface</title>
<path fill="none" stroke="black" stroke-dasharray="5,2" d="M3070.09,-526.46C3051.37,-507.64 3032.04,-488.2 3013.63,-469.69"/>
<polygon fill="none" stroke="black" points="3015.88,-466.99 3006.35,-462.37 3010.92,-471.93 3015.88,-466.99"/>
</g>
<!-- Symfony\\Contracts\\EventDispatcher\\EventDispatcherInterface -->
<g id="node13" class="node">
<title>Symfony\\Contracts\\EventDispatcher\\EventDispatcherInterface</title>
<polygon fill="#fefece" stroke="transparent" points="3210.5,-218.5 2613.5,-218.5 2613.5,-145.5 3210.5,-145.5 3210.5,-218.5"/>
<polygon fill="#eeeeee" stroke="transparent" points="2622,-180 2622,-214 3203,-214 3203,-180 2622,-180"/>
<polygon fill="none" stroke="black" points="2622,-180 2622,-214 3203,-214 3203,-180 2622,-180"/>
<text text-anchor="start" x="2867.5" y="-200.8" font-family="Times,serif" font-weight="bold" font-size="14.00">«interface»</text>
<text text-anchor="start" x="2810" y="-186.8" font-family="Times,serif" font-weight="bold" font-size="14.00">EventDispatcherInterface</text>
<polygon fill="none" stroke="black" points="2622,-174 2622,-180 3203,-180 3203,-174 2622,-174"/>
<polygon fill="none" stroke="black" points="2622,-149 2622,-174 3203,-174 3203,-149 2622,-149"/>
<text text-anchor="start" x="2627" y="-157.8" font-family="Times,serif" font-size="14.00">+ «abstract» dispatch(event : object, eventName : string = «unknown») : object</text>
</g>
<!-- Symfony\\Component\\EventDispatcher\\EventDispatcherInterface&#45;&gt;Symfony\\Contracts\\EventDispatcher\\EventDispatcherInterface -->
<g id="edge2" class="edge">
<title>Symfony\\Component\\EventDispatcher\\EventDispatcherInterface&#45;&gt;Symfony\\Contracts\\EventDispatcher\\EventDispatcherInterface</title>
<path fill="none" stroke="black" stroke-dasharray="5,2" d="M2913,-274.98C2912.82,-259.07 2912.65,-243.18 2912.5,-229.19"/>
<polygon fill="none" stroke="black" points="2916,-228.85 2912.39,-218.89 2909,-228.92 2916,-228.85"/>
</g>
<!-- Symfony\\Contracts\\EventDispatcher\\Event -->
<g id="node14" class="node">
<title>Symfony\\Contracts\\EventDispatcher\\Event</title>
<polygon fill="#fefece" stroke="transparent" points="3483.5,-228 3228.5,-228 3228.5,-136 3483.5,-136 3483.5,-228"/>
<polygon fill="#eeeeee" stroke="transparent" points="3237,-190 3237,-224 3476,-224 3476,-190 3237,-190"/>
<polygon fill="none" stroke="black" points="3237,-190 3237,-224 3476,-224 3476,-190 3237,-190"/>
<text text-anchor="start" x="3333.5" y="-196.8" font-family="Times,serif" font-weight="bold" font-size="14.00">Event</text>
<polygon fill="none" stroke="black" points="3237,-184 3237,-190 3476,-190 3476,-184 3237,-184"/>
<polygon fill="none" stroke="black" points="3237,-140 3237,-184 3476,-184 3476,-140 3237,-140"/>
<text text-anchor="start" x="3242" y="-167.8" font-family="Times,serif" font-size="14.00">+ isPropagationStopped() : bool</text>
<text text-anchor="start" x="3242" y="-148.8" font-family="Times,serif" font-size="14.00">+ stopPropagation() : void</text>
</g>
<!-- Symfony\\Component\\EventDispatcher\\GenericEvent&#45;&gt;Symfony\\Contracts\\EventDispatcher\\Event -->
<g id="edge6" class="edge">
<title>Symfony\\Component\\EventDispatcher\\GenericEvent&#45;&gt;Symfony\\Contracts\\EventDispatcher\\Event</title>
<path fill="none" stroke="black" d="M2794.54,-500.77C2797.69,-499.81 2800.85,-498.88 2804,-498 2860.5,-482.17 3288.99,-505.46 3331,-464.5 3390.43,-406.54 3382.22,-302.23 3369.83,-238.15"/>
<polygon fill="none" stroke="black" points="3373.23,-237.33 3367.81,-228.23 3366.37,-238.72 3373.23,-237.33"/>
</g>
<!-- ArrayAccess -->
<g id="node17" class="node">
<title>ArrayAccess</title>
<polygon fill="#fefece" stroke="transparent" points="2255.5,-433.5 1856.5,-433.5 1856.5,-303.5 2255.5,-303.5 2255.5,-433.5"/>
<polygon fill="#eeeeee" stroke="transparent" points="1865,-395.5 1865,-429.5 2248,-429.5 2248,-395.5 1865,-395.5"/>
<polygon fill="none" stroke="black" points="1865,-395.5 1865,-429.5 2248,-429.5 2248,-395.5 1865,-395.5"/>
<text text-anchor="start" x="2011.5" y="-416.3" font-family="Times,serif" font-weight="bold" font-size="14.00">«interface»</text>
<text text-anchor="start" x="2008.5" y="-402.3" font-family="Times,serif" font-weight="bold" font-size="14.00">ArrayAccess</text>
<polygon fill="none" stroke="black" points="1865,-389.5 1865,-395.5 2248,-395.5 2248,-389.5 1865,-389.5"/>
<polygon fill="none" stroke="black" points="1865,-307.5 1865,-389.5 2248,-389.5 2248,-307.5 1865,-307.5"/>
<text text-anchor="start" x="1870" y="-373.3" font-family="Times,serif" font-size="14.00">+ «abstract» offsetExists(offset : mixed)</text>
<text text-anchor="start" x="1870" y="-354.3" font-family="Times,serif" font-size="14.00">+ «abstract» offsetGet(offset : mixed)</text>
<text text-anchor="start" x="1870" y="-335.3" font-family="Times,serif" font-size="14.00">+ «abstract» offsetSet(offset : mixed, value : mixed)</text>
<text text-anchor="start" x="1870" y="-316.3" font-family="Times,serif" font-size="14.00">+ «abstract» offsetUnset(offset : mixed)</text>
</g>
<!-- Symfony\\Component\\EventDispatcher\\GenericEvent&#45;&gt;ArrayAccess -->
<g id="edge7" class="edge">
<title>Symfony\\Component\\EventDispatcher\\GenericEvent&#45;&gt;ArrayAccess</title>
<path fill="none" stroke="black" stroke-dasharray="5,2" d="M2285.93,-497.85C2249.08,-477.28 2212.56,-456.89 2179.84,-438.63"/>
<polygon fill="none" stroke="black" points="2181.15,-435.35 2170.71,-433.53 2177.74,-441.46 2181.15,-435.35"/>
</g>
<!-- IteratorAggregate -->
<g id="node18" class="node">
<title>IteratorAggregate</title>
<polygon fill="#fefece" stroke="transparent" points="1838.5,-405 1625.5,-405 1625.5,-332 1838.5,-332 1838.5,-405"/>
<polygon fill="#eeeeee" stroke="transparent" points="1634,-366.5 1634,-400.5 1831,-400.5 1831,-366.5 1634,-366.5"/>
<polygon fill="none" stroke="black" points="1634,-366.5 1634,-400.5 1831,-400.5 1831,-366.5 1634,-366.5"/>
<text text-anchor="start" x="1687.5" y="-387.3" font-family="Times,serif" font-weight="bold" font-size="14.00">«interface»</text>
<text text-anchor="start" x="1660.5" y="-373.3" font-family="Times,serif" font-weight="bold" font-size="14.00">IteratorAggregate</text>
<polygon fill="none" stroke="black" points="1634,-360.5 1634,-366.5 1831,-366.5 1831,-360.5 1634,-360.5"/>
<polygon fill="none" stroke="black" points="1634,-335.5 1634,-360.5 1831,-360.5 1831,-335.5 1634,-335.5"/>
<text text-anchor="start" x="1639" y="-344.3" font-family="Times,serif" font-size="14.00">+ «abstract» getIterator()</text>
</g>
<!-- Symfony\\Component\\EventDispatcher\\GenericEvent&#45;&gt;IteratorAggregate -->
<g id="edge9" class="edge">
<title>Symfony\\Component\\EventDispatcher\\GenericEvent&#45;&gt;IteratorAggregate</title>
<path fill="none" stroke="black" stroke-dasharray="5,2" d="M2279.19,-600.86C2145.53,-574.84 1982.55,-532.25 1848,-464.5 1821.3,-451.06 1795.22,-430.56 1774.56,-412.04"/>
<polygon fill="none" stroke="black" points="1776.67,-409.22 1766.93,-405.06 1771.95,-414.39 1776.67,-409.22"/>
</g>
<!-- Psr\\EventDispatcher\\EventDispatcherInterface -->
<g id="node15" class="node">
<title>Psr\\EventDispatcher\\EventDispatcherInterface</title>
<polygon fill="#fefece" stroke="transparent" points="3113.5,-89 2822.5,-89 2822.5,-16 3113.5,-16 3113.5,-89"/>
<polygon fill="#eeeeee" stroke="transparent" points="2831,-50.5 2831,-84.5 3106,-84.5 3106,-50.5 2831,-50.5"/>
<polygon fill="none" stroke="black" points="2831,-50.5 2831,-84.5 3106,-84.5 3106,-50.5 2831,-50.5"/>
<text text-anchor="start" x="2923.5" y="-71.3" font-family="Times,serif" font-weight="bold" font-size="14.00">«interface»</text>
<text text-anchor="start" x="2866" y="-57.3" font-family="Times,serif" font-weight="bold" font-size="14.00">EventDispatcherInterface</text>
<polygon fill="none" stroke="black" points="2831,-44.5 2831,-50.5 3106,-50.5 3106,-44.5 2831,-44.5"/>
<polygon fill="none" stroke="black" points="2831,-19.5 2831,-44.5 3106,-44.5 3106,-19.5 2831,-19.5"/>
<text text-anchor="start" x="2836" y="-28.3" font-family="Times,serif" font-size="14.00">+ «abstract» dispatch(event : object)</text>
</g>
<!-- Symfony\\Contracts\\EventDispatcher\\EventDispatcherInterface&#45;&gt;Psr\\EventDispatcher\\EventDispatcherInterface -->
<g id="edge1" class="edge">
<title>Symfony\\Contracts\\EventDispatcher\\EventDispatcherInterface&#45;&gt;Psr\\EventDispatcher\\EventDispatcherInterface</title>
<path fill="none" stroke="black" stroke-dasharray="5,2" d="M2927.6,-145.48C2933.98,-130.96 2941.43,-113.99 2948.19,-98.6"/>
<polygon fill="none" stroke="black" points="2951.47,-99.83 2952.29,-89.27 2945.06,-97.02 2951.47,-99.83"/>
</g>
<!-- Psr\\EventDispatcher\\StoppableEventInterface -->
<g id="node16" class="node">
<title>Psr\\EventDispatcher\\StoppableEventInterface</title>
<polygon fill="#fefece" stroke="transparent" points="3467,-89 3131,-89 3131,-16 3467,-16 3467,-89"/>
<polygon fill="#eeeeee" stroke="transparent" points="3139,-50.5 3139,-84.5 3459,-84.5 3459,-50.5 3139,-50.5"/>
<polygon fill="none" stroke="black" points="3139,-50.5 3139,-84.5 3459,-84.5 3459,-50.5 3139,-50.5"/>
<text text-anchor="start" x="3254" y="-71.3" font-family="Times,serif" font-weight="bold" font-size="14.00">«interface»</text>
<text text-anchor="start" x="3201" y="-57.3" font-family="Times,serif" font-weight="bold" font-size="14.00">StoppableEventInterface</text>
<polygon fill="none" stroke="black" points="3139,-44.5 3139,-50.5 3459,-50.5 3459,-44.5 3139,-44.5"/>
<polygon fill="none" stroke="black" points="3139,-19.5 3139,-44.5 3459,-44.5 3459,-19.5 3139,-19.5"/>
<text text-anchor="start" x="3144" y="-28.3" font-family="Times,serif" font-size="14.00">+ «abstract» isPropagationStopped() : bool</text>
</g>
<!-- Symfony\\Contracts\\EventDispatcher\\Event&#45;&gt;Psr\\EventDispatcher\\StoppableEventInterface -->
<g id="edge5" class="edge">
<title>Symfony\\Contracts\\EventDispatcher\\Event&#45;&gt;Psr\\EventDispatcher\\StoppableEventInterface</title>
<path fill="none" stroke="black" stroke-dasharray="5,2" d="M3335.74,-135.69C3330.34,-123.6 3324.5,-110.55 3319.11,-98.48"/>
<polygon fill="none" stroke="black" points="3322.17,-96.75 3314.89,-89.05 3315.78,-99.61 3322.17,-96.75"/>
</g>
<!-- Traversable -->
<g id="node19" class="node">
<title>Traversable</title>
<polygon fill="#fefece" stroke="transparent" points="1789.5,-209 1674.5,-209 1674.5,-155 1789.5,-155 1789.5,-209"/>
<polygon fill="#eeeeee" stroke="transparent" points="1683,-171 1683,-205 1782,-205 1782,-171 1683,-171"/>
<polygon fill="none" stroke="black" points="1683,-171 1683,-205 1782,-205 1782,-171 1683,-171"/>
<text text-anchor="start" x="1687.5" y="-191.8" font-family="Times,serif" font-weight="bold" font-size="14.00">«interface»</text>
<text text-anchor="start" x="1686" y="-177.8" font-family="Times,serif" font-weight="bold" font-size="14.00">Traversable</text>
<polygon fill="none" stroke="black" points="1683,-165 1683,-171 1782,-171 1782,-165 1683,-165"/>
<polygon fill="none" stroke="black" points="1683,-159 1683,-165 1782,-165 1782,-159 1683,-159"/>
</g>
<!-- IteratorAggregate&#45;&gt;Traversable -->
<g id="edge8" class="edge">
<title>IteratorAggregate&#45;&gt;Traversable</title>
<path fill="none" stroke="black" stroke-dasharray="5,2" d="M1732,-331.93C1732,-299.52 1732,-251.87 1732,-219.25"/>
<polygon fill="none" stroke="black" points="1735.5,-219.23 1732,-209.23 1728.5,-219.23 1735.5,-219.23"/>
</g>
</g>
</svg>
