<?xml version="1.0" encoding="UTF-8" standalone="no"?>
<!DOCTYPE svg PUBLIC "-//W3C//DTD SVG 1.1//EN"
 "http://www.w3.org/Graphics/SVG/1.1/DTD/svg11.dtd">
<!-- Generated by graphviz version 2.40.1 (20161225.0304)
 -->
<!-- Title: %3 Pages: 1 -->
<svg width="3193pt" height="966pt"
 viewBox="0.00 0.00 3193.00 966.00" xmlns="http://www.w3.org/2000/svg" xmlns:xlink="http://www.w3.org/1999/xlink">
<g id="graph0" class="graph" transform="scale(1 1) rotate(0) translate(4 962)">
<title>%3</title>
<g id="clust1" class="cluster">
<title>cluster_0</title>
<polygon fill="#cdaa7d" stroke="#000000" points="8,-819 8,-950 3177,-950 3177,-819 8,-819"/>
<text text-anchor="middle" x="1592.5" y="-934.8" font-family="Times,serif" font-size="14.00" fill="#000000">Overtrue\PHPLint\Event</text>
</g>
<g id="clust2" class="cluster">
<title>cluster_1</title>
<polygon fill="#b0c4de" stroke="#000000" points="1183,-267 1183,-811 2185,-811 2185,-267 1183,-267"/>
<text text-anchor="middle" x="1684" y="-795.8" font-family="Times,serif" font-size="14.00" fill="#000000">Symfony\Component\EventDispatcher</text>
</g>
<g id="clust3" class="cluster">
<title>cluster_2</title>
<polygon fill="#b0c4de" stroke="#000000" points="1443,-128 1443,-259 2140,-259 2140,-128 1443,-128"/>
<text text-anchor="middle" x="1791.5" y="-243.8" font-family="Times,serif" font-size="14.00" fill="#000000">Symfony\Contracts\EventDispatcher</text>
</g>
<g id="clust4" class="cluster">
<title>cluster_3</title>
<polygon fill="#b0c4de" stroke="#000000" points="1605,-8 1605,-120 2126,-120 2126,-8 1605,-8"/>
<text text-anchor="middle" x="1865.5" y="-104.8" font-family="Times,serif" font-size="14.00" fill="#000000">Psr\EventDispatcher</text>
</g>
<g id="clust5" class="cluster">
<title>cluster_4</title>
<polygon fill="transparent" stroke="#000000" points="663,-147 663,-464.5 1175,-464.5 1175,-147 663,-147"/>
<text text-anchor="middle" x="919" y="-449.3" font-family="Times,serif" font-size="14.00" fill="#000000">0</text>
</g>
<!-- Overtrue\\PHPLint\\Event\\BeforeLintFileInterface -->
<g id="node1" class="node">
<title>Overtrue\\PHPLint\\Event\\BeforeLintFileInterface</title>
<polygon fill="#fefece" stroke="transparent" points="3169,-909.5 2659,-909.5 2659,-836.5 3169,-836.5 3169,-909.5"/>
<polygon fill="#eeeeee" stroke="transparent" points="2667,-871 2667,-905 3161,-905 3161,-871 2667,-871"/>
<polygon fill="none" stroke="#000000" points="2667,-871 2667,-905 3161,-905 3161,-871 2667,-871"/>
<text text-anchor="start" x="2881.5" y="-891.8" font-family="Times,serif" font-weight="bold" font-size="14.00" fill="#000000">«interface»</text>
<text text-anchor="start" x="2845" y="-877.8" font-family="Times,serif" font-weight="bold" font-size="14.00" fill="#000000">BeforeLintFileInterface</text>
<polygon fill="none" stroke="#000000" points="2667,-865 2667,-871 3161,-871 3161,-865 2667,-865"/>
<polygon fill="none" stroke="#000000" points="2667,-840 2667,-865 3161,-865 3161,-840 2667,-840"/>
<text text-anchor="start" x="2672" y="-848.8" font-family="Times,serif" font-size="14.00" fill="#000000">+ «abstract» beforeLintFile(event : Overtrue\PHPLint\Event\BeforeLintFileEvent) : void</text>
</g>
<!-- Overtrue\\PHPLint\\Event\\BeforeCheckingInterface -->
<g id="node2" class="node">
<title>Overtrue\\PHPLint\\Event\\BeforeCheckingInterface</title>
<polygon fill="#fefece" stroke="transparent" points="2640.5,-909.5 2113.5,-909.5 2113.5,-836.5 2640.5,-836.5 2640.5,-909.5"/>
<polygon fill="#eeeeee" stroke="transparent" points="2122,-871 2122,-905 2633,-905 2633,-871 2122,-871"/>
<polygon fill="none" stroke="#000000" points="2122,-871 2122,-905 2633,-905 2633,-871 2122,-871"/>
<text text-anchor="start" x="2345" y="-891.8" font-family="Times,serif" font-weight="bold" font-size="14.00" fill="#000000">«interface»</text>
<text text-anchor="start" x="2304.5" y="-877.8" font-family="Times,serif" font-weight="bold" font-size="14.00" fill="#000000">BeforeCheckingInterface</text>
<polygon fill="none" stroke="#000000" points="2122,-865 2122,-871 2633,-871 2633,-865 2122,-865"/>
<polygon fill="none" stroke="#000000" points="2122,-840 2122,-865 2633,-865 2633,-840 2122,-840"/>
<text text-anchor="start" x="2127" y="-848.8" font-family="Times,serif" font-size="14.00" fill="#000000">+ «abstract» beforeChecking(event : Overtrue\PHPLint\Event\BeforeCheckingEvent) : void</text>
</g>
<!-- Overtrue\\PHPLint\\Event\\AfterLintFileEvent -->
<g id="node3" class="node">
<title>Overtrue\\PHPLint\\Event\\AfterLintFileEvent</title>
<polygon fill="#fefece" stroke="transparent" points="1348,-900 1214,-900 1214,-846 1348,-846 1348,-900"/>
<polygon fill="#eeeeee" stroke="transparent" points="1222,-862 1222,-896 1340,-896 1340,-862 1222,-862"/>
<polygon fill="none" stroke="#000000" points="1222,-862 1222,-896 1340,-896 1340,-862 1222,-862"/>
<text text-anchor="start" x="1225" y="-868.8" font-family="Times,serif" font-weight="bold" font-size="14.00" fill="#000000">AfterLintFileEvent</text>
<polygon fill="none" stroke="#000000" points="1222,-856 1222,-862 1340,-862 1340,-856 1222,-856"/>
<polygon fill="none" stroke="#000000" points="1222,-850 1222,-856 1340,-856 1340,-850 1222,-850"/>
</g>
<!-- Symfony\\Component\\EventDispatcher\\GenericEvent -->
<g id="node10" class="node">
<title>Symfony\\Component\\EventDispatcher\\GenericEvent</title>
<polygon fill="#fefece" stroke="transparent" points="1593,-780 1191,-780 1191,-498 1593,-498 1593,-780"/>
<polygon fill="#eeeeee" stroke="transparent" points="1199,-742 1199,-776 1585,-776 1585,-742 1199,-742"/>
<polygon fill="none" stroke="#000000" points="1199,-742 1199,-776 1585,-776 1585,-742 1199,-742"/>
<text text-anchor="start" x="1351.5" y="-748.8" font-family="Times,serif" font-weight="bold" font-size="14.00" fill="#000000">GenericEvent</text>
<polygon fill="none" stroke="#000000" points="1199,-736 1199,-742 1585,-742 1585,-736 1199,-736"/>
<polygon fill="none" stroke="#000000" points="1199,-502 1199,-736 1585,-736 1585,-502 1199,-502"/>
<text text-anchor="start" x="1204" y="-719.8" font-family="Times,serif" font-size="14.00" fill="#000000">+ __construct(subject : mixed = «unknown», arguments : array = [])</text>
<text text-anchor="start" x="1204" y="-700.8" font-family="Times,serif" font-size="14.00" fill="#000000">+ getSubject() : ?mixed</text>
<text text-anchor="start" x="1204" y="-681.8" font-family="Times,serif" font-size="14.00" fill="#000000">+ getArgument(key : string) : ?mixed</text>
<text text-anchor="start" x="1204" y="-662.8" font-family="Times,serif" font-size="14.00" fill="#000000">+ setArgument(key : string, value : mixed) : static</text>
<text text-anchor="start" x="1204" y="-643.8" font-family="Times,serif" font-size="14.00" fill="#000000">+ getArguments() : array</text>
<text text-anchor="start" x="1204" y="-624.8" font-family="Times,serif" font-size="14.00" fill="#000000">+ setArguments(args : array = []) : static</text>
<text text-anchor="start" x="1204" y="-605.8" font-family="Times,serif" font-size="14.00" fill="#000000">+ hasArgument(key : string) : bool</text>
<text text-anchor="start" x="1204" y="-586.8" font-family="Times,serif" font-size="14.00" fill="#000000">+ offsetGet(key : mixed) : ?mixed</text>
<text text-anchor="start" x="1204" y="-567.8" font-family="Times,serif" font-size="14.00" fill="#000000">+ offsetSet(key : mixed, value : mixed) : void</text>
<text text-anchor="start" x="1204" y="-548.8" font-family="Times,serif" font-size="14.00" fill="#000000">+ offsetUnset(key : mixed) : void</text>
<text text-anchor="start" x="1204" y="-529.8" font-family="Times,serif" font-size="14.00" fill="#000000">+ offsetExists(key : mixed) : bool</text>
<text text-anchor="start" x="1204" y="-510.8" font-family="Times,serif" font-size="14.00" fill="#000000">+ getIterator() : ArrayIterator</text>
</g>
<!-- Overtrue\\PHPLint\\Event\\AfterLintFileEvent&#45;&gt;Symfony\\Component\\EventDispatcher\\GenericEvent -->
<g id="edge6" class="edge">
<title>Overtrue\\PHPLint\\Event\\AfterLintFileEvent&#45;&gt;Symfony\\Component\\EventDispatcher\\GenericEvent</title>
<path fill="none" stroke="#000000" d="M1293.9503,-845.6993C1301.031,-830.7724 1310.4209,-810.9776 1320.589,-789.542"/>
<polygon fill="none" stroke="#000000" points="1323.8664,-790.7994 1324.99,-780.2643 1317.5419,-787.7993 1323.8664,-790.7994"/>
</g>
<!-- Overtrue\\PHPLint\\Event\\EventDispatcher -->
<g id="node4" class="node">
<title>Overtrue\\PHPLint\\Event\\EventDispatcher</title>
<polygon fill="#fefece" stroke="transparent" points="2095,-919 1693,-919 1693,-827 2095,-827 2095,-919"/>
<polygon fill="#eeeeee" stroke="transparent" points="1701,-881 1701,-915 2087,-915 2087,-881 1701,-881"/>
<polygon fill="none" stroke="#000000" points="1701,-881 1701,-915 2087,-915 2087,-881 1701,-881"/>
<text text-anchor="start" x="1845.5" y="-887.8" font-family="Times,serif" font-weight="bold" font-size="14.00" fill="#000000">EventDispatcher</text>
<polygon fill="none" stroke="#000000" points="1701,-875 1701,-881 2087,-881 2087,-875 1701,-875"/>
<polygon fill="none" stroke="#000000" points="1701,-831 1701,-875 2087,-875 2087,-831 1701,-831"/>
<text text-anchor="start" x="1706" y="-858.8" font-family="Times,serif" font-size="14.00" fill="#000000">+ __construct(extensions : iterable)</text>
<text text-anchor="start" x="1706" y="-839.8" font-family="Times,serif" font-size="14.00" fill="#000000">+ dispatch(event : object, eventName : string = «unknown») : object</text>
</g>
<!-- Symfony\\Component\\EventDispatcher\\EventDispatcher -->
<g id="node11" class="node">
<title>Symfony\\Component\\EventDispatcher\\EventDispatcher</title>
<polygon fill="#fefece" stroke="transparent" points="2177,-751.5 1611,-751.5 1611,-526.5 2177,-526.5 2177,-751.5"/>
<polygon fill="#eeeeee" stroke="transparent" points="1619,-713 1619,-747 2169,-747 2169,-713 1619,-713"/>
<polygon fill="none" stroke="#000000" points="1619,-713 1619,-747 2169,-747 2169,-713 1619,-713"/>
<text text-anchor="start" x="1845.5" y="-719.8" font-family="Times,serif" font-weight="bold" font-size="14.00" fill="#000000">EventDispatcher</text>
<polygon fill="none" stroke="#000000" points="1619,-707 1619,-713 2169,-713 2169,-707 1619,-707"/>
<polygon fill="none" stroke="#000000" points="1619,-530 1619,-707 2169,-707 2169,-530 1619,-530"/>
<text text-anchor="start" x="1624" y="-690.8" font-family="Times,serif" font-size="14.00" fill="#000000">+ __construct()</text>
<text text-anchor="start" x="1624" y="-671.8" font-family="Times,serif" font-size="14.00" fill="#000000">+ dispatch(event : object, eventName : string = «unknown») : object</text>
<text text-anchor="start" x="1624" y="-652.8" font-family="Times,serif" font-size="14.00" fill="#000000">+ getListeners(eventName : string = «unknown») : array</text>
<text text-anchor="start" x="1624" y="-633.8" font-family="Times,serif" font-size="14.00" fill="#000000">+ getListenerPriority(eventName : string, listener) : ?int</text>
<text text-anchor="start" x="1624" y="-614.8" font-family="Times,serif" font-size="14.00" fill="#000000">+ hasListeners(eventName : string = «unknown») : bool</text>
<text text-anchor="start" x="1624" y="-595.8" font-family="Times,serif" font-size="14.00" fill="#000000">+ addListener(eventName : string, listener, priority : int = 0)</text>
<text text-anchor="start" x="1624" y="-576.8" font-family="Times,serif" font-size="14.00" fill="#000000">+ removeListener(eventName : string, listener)</text>
<text text-anchor="start" x="1624" y="-557.8" font-family="Times,serif" font-size="14.00" fill="#000000">+ addSubscriber(subscriber : Symfony\Component\EventDispatcher\EventSubscriberInterface)</text>
<text text-anchor="start" x="1624" y="-538.8" font-family="Times,serif" font-size="14.00" fill="#000000">+ removeSubscriber(subscriber : Symfony\Component\EventDispatcher\EventSubscriberInterface)</text>
</g>
<!-- Overtrue\\PHPLint\\Event\\EventDispatcher&#45;&gt;Symfony\\Component\\EventDispatcher\\EventDispatcher -->
<g id="edge10" class="edge">
<title>Overtrue\\PHPLint\\Event\\EventDispatcher&#45;&gt;Symfony\\Component\\EventDispatcher\\EventDispatcher</title>
<path fill="none" stroke="#000000" d="M1894,-826.7691C1894,-807.8573 1894,-784.994 1894,-761.8254"/>
<polygon fill="none" stroke="#000000" points="1897.5001,-761.5315 1894,-751.5315 1890.5001,-761.5316 1897.5001,-761.5315"/>
</g>
<!-- Overtrue\\PHPLint\\Event\\AfterCheckingEvent -->
<g id="node5" class="node">
<title>Overtrue\\PHPLint\\Event\\AfterCheckingEvent</title>
<polygon fill="#fefece" stroke="transparent" points="1196,-900 1054,-900 1054,-846 1196,-846 1196,-900"/>
<polygon fill="#eeeeee" stroke="transparent" points="1062,-862 1062,-896 1188,-896 1188,-862 1062,-862"/>
<polygon fill="none" stroke="#000000" points="1062,-862 1062,-896 1188,-896 1188,-862 1062,-862"/>
<text text-anchor="start" x="1065" y="-868.8" font-family="Times,serif" font-weight="bold" font-size="14.00" fill="#000000">AfterCheckingEvent</text>
<polygon fill="none" stroke="#000000" points="1062,-856 1062,-862 1188,-862 1188,-856 1062,-856"/>
<polygon fill="none" stroke="#000000" points="1062,-850 1062,-856 1188,-856 1188,-850 1062,-850"/>
</g>
<!-- Overtrue\\PHPLint\\Event\\AfterCheckingEvent&#45;&gt;Symfony\\Component\\EventDispatcher\\GenericEvent -->
<g id="edge11" class="edge">
<title>Overtrue\\PHPLint\\Event\\AfterCheckingEvent&#45;&gt;Symfony\\Component\\EventDispatcher\\GenericEvent</title>
<path fill="none" stroke="#000000" d="M1155.8891,-845.9286C1173.6303,-830.3802 1197.4596,-809.4961 1223.1728,-786.9609"/>
<polygon fill="none" stroke="#000000" points="1225.6249,-789.4659 1230.8385,-780.2426 1221.0111,-784.2015 1225.6249,-789.4659"/>
</g>
<!-- Overtrue\\PHPLint\\Event\\BeforeCheckingEvent -->
<g id="node6" class="node">
<title>Overtrue\\PHPLint\\Event\\BeforeCheckingEvent</title>
<polygon fill="#fefece" stroke="transparent" points="1674.5,-900 1525.5,-900 1525.5,-846 1674.5,-846 1674.5,-900"/>
<polygon fill="#eeeeee" stroke="transparent" points="1534,-862 1534,-896 1667,-896 1667,-862 1534,-862"/>
<polygon fill="none" stroke="#000000" points="1534,-862 1534,-896 1667,-896 1667,-862 1534,-862"/>
<text text-anchor="start" x="1537" y="-868.8" font-family="Times,serif" font-weight="bold" font-size="14.00" fill="#000000">BeforeCheckingEvent</text>
<polygon fill="none" stroke="#000000" points="1534,-856 1534,-862 1667,-862 1667,-856 1534,-856"/>
<polygon fill="none" stroke="#000000" points="1534,-850 1534,-856 1667,-856 1667,-850 1534,-850"/>
</g>
<!-- Overtrue\\PHPLint\\Event\\BeforeCheckingEvent&#45;&gt;Symfony\\Component\\EventDispatcher\\GenericEvent -->
<g id="edge12" class="edge">
<title>Overtrue\\PHPLint\\Event\\BeforeCheckingEvent&#45;&gt;Symfony\\Component\\EventDispatcher\\GenericEvent</title>
<path fill="none" stroke="#000000" d="M1575.7327,-845.6993C1562.109,-830.3726 1543.9233,-809.9137 1524.2809,-787.8161"/>
<polygon fill="none" stroke="#000000" points="1526.8279,-785.4131 1517.5683,-780.2643 1521.596,-790.0637 1526.8279,-785.4131"/>
</g>
<!-- Overtrue\\PHPLint\\Event\\BeforeLintFileEvent -->
<g id="node7" class="node">
<title>Overtrue\\PHPLint\\Event\\BeforeLintFileEvent</title>
<polygon fill="#fefece" stroke="transparent" points="1507.5,-900 1366.5,-900 1366.5,-846 1507.5,-846 1507.5,-900"/>
<polygon fill="#eeeeee" stroke="transparent" points="1375,-862 1375,-896 1500,-896 1500,-862 1375,-862"/>
<polygon fill="none" stroke="#000000" points="1375,-862 1375,-896 1500,-896 1500,-862 1375,-862"/>
<text text-anchor="start" x="1378" y="-868.8" font-family="Times,serif" font-weight="bold" font-size="14.00" fill="#000000">BeforeLintFileEvent</text>
<polygon fill="none" stroke="#000000" points="1375,-856 1375,-862 1500,-862 1500,-856 1375,-856"/>
<polygon fill="none" stroke="#000000" points="1375,-850 1375,-856 1500,-856 1500,-850 1375,-850"/>
</g>
<!-- Overtrue\\PHPLint\\Event\\BeforeLintFileEvent&#45;&gt;Symfony\\Component\\EventDispatcher\\GenericEvent -->
<g id="edge13" class="edge">
<title>Overtrue\\PHPLint\\Event\\BeforeLintFileEvent&#45;&gt;Symfony\\Component\\EventDispatcher\\GenericEvent</title>
<path fill="none" stroke="#000000" d="M1431.7499,-845.6993C1428.9049,-830.9057 1425.1405,-811.3307 1421.0607,-790.1158"/>
<polygon fill="none" stroke="#000000" points="1424.4918,-789.4234 1419.1662,-780.2643 1417.6177,-790.7454 1424.4918,-789.4234"/>
</g>
<!-- Overtrue\\PHPLint\\Event\\AfterLintFileInterface -->
<g id="node8" class="node">
<title>Overtrue\\PHPLint\\Event\\AfterLintFileInterface</title>
<polygon fill="#fefece" stroke="transparent" points="1036,-909.5 544,-909.5 544,-836.5 1036,-836.5 1036,-909.5"/>
<polygon fill="#eeeeee" stroke="transparent" points="552,-871 552,-905 1028,-905 1028,-871 552,-871"/>
<polygon fill="none" stroke="#000000" points="552,-871 552,-905 1028,-905 1028,-871 552,-871"/>
<text text-anchor="start" x="757.5" y="-891.8" font-family="Times,serif" font-weight="bold" font-size="14.00" fill="#000000">«interface»</text>
<text text-anchor="start" x="725" y="-877.8" font-family="Times,serif" font-weight="bold" font-size="14.00" fill="#000000">AfterLintFileInterface</text>
<polygon fill="none" stroke="#000000" points="552,-865 552,-871 1028,-871 1028,-865 552,-865"/>
<polygon fill="none" stroke="#000000" points="552,-840 552,-865 1028,-865 1028,-840 552,-840"/>
<text text-anchor="start" x="557" y="-848.8" font-family="Times,serif" font-size="14.00" fill="#000000">+ «abstract» afterLintFile(event : Overtrue\PHPLint\Event\AfterLintFileEvent) : void</text>
</g>
<!-- Overtrue\\PHPLint\\Event\\AfterCheckingInterface -->
<g id="node9" class="node">
<title>Overtrue\\PHPLint\\Event\\AfterCheckingInterface</title>
<polygon fill="#fefece" stroke="transparent" points="525.5,-909.5 16.5,-909.5 16.5,-836.5 525.5,-836.5 525.5,-909.5"/>
<polygon fill="#eeeeee" stroke="transparent" points="25,-871 25,-905 518,-905 518,-871 25,-871"/>
<polygon fill="none" stroke="#000000" points="25,-871 25,-905 518,-905 518,-871 25,-871"/>
<text text-anchor="start" x="239" y="-891.8" font-family="Times,serif" font-weight="bold" font-size="14.00" fill="#000000">«interface»</text>
<text text-anchor="start" x="202" y="-877.8" font-family="Times,serif" font-weight="bold" font-size="14.00" fill="#000000">AfterCheckingInterface</text>
<polygon fill="none" stroke="#000000" points="25,-865 25,-871 518,-871 518,-865 25,-865"/>
<polygon fill="none" stroke="#000000" points="25,-840 25,-865 518,-865 518,-840 25,-840"/>
<text text-anchor="start" x="30" y="-848.8" font-family="Times,serif" font-size="14.00" fill="#000000">+ «abstract» afterChecking(event : Overtrue\PHPLint\Event\AfterCheckingEvent) : void</text>
</g>
<!-- Symfony\\Contracts\\EventDispatcher\\Event -->
<g id="node13" class="node">
<title>Symfony\\Contracts\\EventDispatcher\\Event</title>
<polygon fill="#fefece" stroke="transparent" points="2131.5,-228 1930.5,-228 1930.5,-136 2131.5,-136 2131.5,-228"/>
<polygon fill="#eeeeee" stroke="transparent" points="1939,-190 1939,-224 2124,-224 2124,-190 1939,-190"/>
<polygon fill="none" stroke="#000000" points="1939,-190 1939,-224 2124,-224 2124,-190 1939,-190"/>
<text text-anchor="start" x="2014.5" y="-196.8" font-family="Times,serif" font-weight="bold" font-size="14.00" fill="#000000">Event</text>
<polygon fill="none" stroke="#000000" points="1939,-184 1939,-190 2124,-190 2124,-184 1939,-184"/>
<polygon fill="none" stroke="#000000" points="1939,-140 1939,-184 2124,-184 2124,-140 1939,-140"/>
<text text-anchor="start" x="1944" y="-167.8" font-family="Times,serif" font-size="14.00" fill="#000000">+ isPropagationStopped() : bool</text>
<text text-anchor="start" x="1944" y="-148.8" font-family="Times,serif" font-size="14.00" fill="#000000">+ stopPropagation() : void</text>
</g>
<!-- Symfony\\Component\\EventDispatcher\\GenericEvent&#45;&gt;Symfony\\Contracts\\EventDispatcher\\Event -->
<g id="edge2" class="edge">
<title>Symfony\\Component\\EventDispatcher\\GenericEvent&#45;&gt;Symfony\\Contracts\\EventDispatcher\\Event</title>
<path fill="none" stroke="#000000" d="M1593.3038,-501.1954C1596.1995,-500.0828 1599.0989,-499.0165 1602,-498 1687.0183,-468.2114 1942.1236,-528.0238 2006,-464.5 2064.8218,-406.0029 2057.0455,-302.1375 2044.8549,-237.9607"/>
<polygon fill="none" stroke="#000000" points="2048.2594,-237.1362 2042.87,-228.0145 2041.3948,-238.5062 2048.2594,-237.1362"/>
</g>
<!-- ArrayAccess -->
<g id="node17" class="node">
<title>ArrayAccess</title>
<polygon fill="#fefece" stroke="transparent" points="1167,-433.5 853,-433.5 853,-303.5 1167,-303.5 1167,-433.5"/>
<polygon fill="#eeeeee" stroke="transparent" points="861,-395.5 861,-429.5 1159,-429.5 1159,-395.5 861,-395.5"/>
<polygon fill="none" stroke="#000000" points="861,-395.5 861,-429.5 1159,-429.5 1159,-395.5 861,-395.5"/>
<text text-anchor="start" x="977.5" y="-416.3" font-family="Times,serif" font-weight="bold" font-size="14.00" fill="#000000">«interface»</text>
<text text-anchor="start" x="973" y="-402.3" font-family="Times,serif" font-weight="bold" font-size="14.00" fill="#000000">ArrayAccess</text>
<polygon fill="none" stroke="#000000" points="861,-389.5 861,-395.5 1159,-395.5 1159,-389.5 861,-389.5"/>
<polygon fill="none" stroke="#000000" points="861,-307.5 861,-389.5 1159,-389.5 1159,-307.5 861,-307.5"/>
<text text-anchor="start" x="866" y="-373.3" font-family="Times,serif" font-size="14.00" fill="#000000">+ «abstract» offsetExists(offset : mixed)</text>
<text text-anchor="start" x="866" y="-354.3" font-family="Times,serif" font-size="14.00" fill="#000000">+ «abstract» offsetGet(offset : mixed)</text>
<text text-anchor="start" x="866" y="-335.3" font-family="Times,serif" font-size="14.00" fill="#000000">+ «abstract» offsetSet(offset : mixed, value : mixed)</text>
<text text-anchor="start" x="866" y="-316.3" font-family="Times,serif" font-size="14.00" fill="#000000">+ «abstract» offsetUnset(offset : mixed)</text>
</g>
<!-- Symfony\\Component\\EventDispatcher\\GenericEvent&#45;&gt;ArrayAccess -->
<g id="edge3" class="edge">
<title>Symfony\\Component\\EventDispatcher\\GenericEvent&#45;&gt;ArrayAccess</title>
<path fill="none" stroke="#000000" stroke-dasharray="5,2" d="M1192.6088,-497.8081C1164.0424,-477.5797 1135.7266,-457.5289 1110.2243,-439.4703"/>
<polygon fill="none" stroke="#000000" points="1112.2302,-436.6021 1102.0464,-433.6795 1108.1848,-442.3149 1112.2302,-436.6021"/>
</g>
<!-- IteratorAggregate -->
<g id="node18" class="node">
<title>IteratorAggregate</title>
<polygon fill="#fefece" stroke="transparent" points="834.5,-405 671.5,-405 671.5,-332 834.5,-332 834.5,-405"/>
<polygon fill="#eeeeee" stroke="transparent" points="680,-366.5 680,-400.5 827,-400.5 827,-366.5 680,-366.5"/>
<polygon fill="none" stroke="#000000" points="680,-366.5 680,-400.5 827,-400.5 827,-366.5 680,-366.5"/>
<text text-anchor="start" x="721" y="-387.3" font-family="Times,serif" font-weight="bold" font-size="14.00" fill="#000000">«interface»</text>
<text text-anchor="start" x="700.5" y="-373.3" font-family="Times,serif" font-weight="bold" font-size="14.00" fill="#000000">IteratorAggregate</text>
<polygon fill="none" stroke="#000000" points="680,-360.5 680,-366.5 827,-366.5 827,-360.5 680,-360.5"/>
<polygon fill="none" stroke="#000000" points="680,-335.5 680,-360.5 827,-360.5 827,-335.5 680,-335.5"/>
<text text-anchor="start" x="685" y="-344.3" font-family="Times,serif" font-size="14.00" fill="#000000">+ «abstract» getIterator()</text>
</g>
<!-- Symfony\\Component\\EventDispatcher\\GenericEvent&#45;&gt;IteratorAggregate -->
<g id="edge5" class="edge">
<title>Symfony\\Component\\EventDispatcher\\GenericEvent&#45;&gt;IteratorAggregate</title>
<path fill="none" stroke="#000000" stroke-dasharray="5,2" d="M1190.7755,-600.6191C1082.3292,-573.8032 949.5187,-530.6849 844,-464.5 822.3813,-450.94 802.3843,-431.0633 786.6747,-412.9089"/>
<polygon fill="none" stroke="#000000" points="789.3386,-410.6387 780.2122,-405.2573 783.9908,-415.1555 789.3386,-410.6387"/>
</g>
<!-- Symfony\\Component\\EventDispatcher\\EventDispatcherInterface -->
<g id="node12" class="node">
<title>Symfony\\Component\\EventDispatcher\\EventDispatcherInterface</title>
<polygon fill="#fefece" stroke="transparent" points="1996.5,-462 1371.5,-462 1371.5,-275 1996.5,-275 1996.5,-462"/>
<polygon fill="#eeeeee" stroke="transparent" points="1380,-423.5 1380,-457.5 1989,-457.5 1989,-423.5 1380,-423.5"/>
<polygon fill="none" stroke="#000000" points="1380,-423.5 1380,-457.5 1989,-457.5 1989,-423.5 1380,-423.5"/>
<text text-anchor="start" x="1652" y="-444.3" font-family="Times,serif" font-weight="bold" font-size="14.00" fill="#000000">«interface»</text>
<text text-anchor="start" x="1609.5" y="-430.3" font-family="Times,serif" font-weight="bold" font-size="14.00" fill="#000000">EventDispatcherInterface</text>
<polygon fill="none" stroke="#000000" points="1380,-417.5 1380,-423.5 1989,-423.5 1989,-417.5 1380,-417.5"/>
<polygon fill="none" stroke="#000000" points="1380,-278.5 1380,-417.5 1989,-417.5 1989,-278.5 1380,-278.5"/>
<text text-anchor="start" x="1385" y="-401.3" font-family="Times,serif" font-size="14.00" fill="#000000">+ «abstract» addListener(eventName : string, listener : callable, priority : int = 0)</text>
<text text-anchor="start" x="1385" y="-382.3" font-family="Times,serif" font-size="14.00" fill="#000000">+ «abstract» addSubscriber(subscriber : Symfony\Component\EventDispatcher\EventSubscriberInterface)</text>
<text text-anchor="start" x="1385" y="-363.3" font-family="Times,serif" font-size="14.00" fill="#000000">+ «abstract» removeListener(eventName : string, listener : callable)</text>
<text text-anchor="start" x="1385" y="-344.3" font-family="Times,serif" font-size="14.00" fill="#000000">+ «abstract» removeSubscriber(subscriber : Symfony\Component\EventDispatcher\EventSubscriberInterface)</text>
<text text-anchor="start" x="1385" y="-325.3" font-family="Times,serif" font-size="14.00" fill="#000000">+ «abstract» getListeners(eventName : string = «unknown») : array</text>
<text text-anchor="start" x="1385" y="-306.3" font-family="Times,serif" font-size="14.00" fill="#000000">+ «abstract» getListenerPriority(eventName : string, listener : callable) : ?int</text>
<text text-anchor="start" x="1385" y="-287.3" font-family="Times,serif" font-size="14.00" fill="#000000">+ «abstract» hasListeners(eventName : string = «unknown») : bool</text>
</g>
<!-- Symfony\\Component\\EventDispatcher\\EventDispatcher&#45;&gt;Symfony\\Component\\EventDispatcher\\EventDispatcherInterface -->
<g id="edge9" class="edge">
<title>Symfony\\Component\\EventDispatcher\\EventDispatcher&#45;&gt;Symfony\\Component\\EventDispatcher\\EventDispatcherInterface</title>
<path fill="none" stroke="#000000" stroke-dasharray="5,2" d="M1806.4617,-526.2424C1792.1152,-507.7627 1777.3213,-488.7067 1763.192,-470.5068"/>
<polygon fill="none" stroke="#000000" points="1765.648,-467.9628 1756.7509,-462.2101 1760.1186,-472.2555 1765.648,-467.9628"/>
</g>
<!-- Symfony\\Contracts\\EventDispatcher\\EventDispatcherInterface -->
<g id="node14" class="node">
<title>Symfony\\Contracts\\EventDispatcher\\EventDispatcherInterface</title>
<polygon fill="#fefece" stroke="transparent" points="1912.5,-218.5 1451.5,-218.5 1451.5,-145.5 1912.5,-145.5 1912.5,-218.5"/>
<polygon fill="#eeeeee" stroke="transparent" points="1460,-180 1460,-214 1905,-214 1905,-180 1460,-180"/>
<polygon fill="none" stroke="#000000" points="1460,-180 1460,-214 1905,-214 1905,-180 1460,-180"/>
<text text-anchor="start" x="1650" y="-200.8" font-family="Times,serif" font-weight="bold" font-size="14.00" fill="#000000">«interface»</text>
<text text-anchor="start" x="1607.5" y="-186.8" font-family="Times,serif" font-weight="bold" font-size="14.00" fill="#000000">EventDispatcherInterface</text>
<polygon fill="none" stroke="#000000" points="1460,-174 1460,-180 1905,-180 1905,-174 1460,-174"/>
<polygon fill="none" stroke="#000000" points="1460,-149 1460,-174 1905,-174 1905,-149 1460,-149"/>
<text text-anchor="start" x="1465" y="-157.8" font-family="Times,serif" font-size="14.00" fill="#000000">+ «abstract» dispatch(event : object, eventName : string = «unknown») : object</text>
</g>
<!-- Symfony\\Component\\EventDispatcher\\EventDispatcherInterface&#45;&gt;Symfony\\Contracts\\EventDispatcher\\EventDispatcherInterface -->
<g id="edge8" class="edge">
<title>Symfony\\Component\\EventDispatcher\\EventDispatcherInterface&#45;&gt;Symfony\\Contracts\\EventDispatcher\\EventDispatcherInterface</title>
<path fill="none" stroke="#000000" stroke-dasharray="5,2" d="M1682.9971,-274.9768C1682.8262,-259.0433 1682.6554,-243.1205 1682.5048,-229.069"/>
<polygon fill="none" stroke="#000000" points="1686.0009,-228.6813 1682.3938,-218.7194 1679.0013,-228.7564 1686.0009,-228.6813"/>
</g>
<!-- Psr\\EventDispatcher\\StoppableEventInterface -->
<g id="node15" class="node">
<title>Psr\\EventDispatcher\\StoppableEventInterface</title>
<polygon fill="#fefece" stroke="transparent" points="2117.5,-89 1856.5,-89 1856.5,-16 2117.5,-16 2117.5,-89"/>
<polygon fill="#eeeeee" stroke="transparent" points="1865,-50.5 1865,-84.5 2110,-84.5 2110,-50.5 1865,-50.5"/>
<polygon fill="none" stroke="#000000" points="1865,-50.5 1865,-84.5 2110,-84.5 2110,-50.5 1865,-50.5"/>
<text text-anchor="start" x="1955" y="-71.3" font-family="Times,serif" font-weight="bold" font-size="14.00" fill="#000000">«interface»</text>
<text text-anchor="start" x="1915" y="-57.3" font-family="Times,serif" font-weight="bold" font-size="14.00" fill="#000000">StoppableEventInterface</text>
<polygon fill="none" stroke="#000000" points="1865,-44.5 1865,-50.5 2110,-50.5 2110,-44.5 1865,-44.5"/>
<polygon fill="none" stroke="#000000" points="1865,-19.5 1865,-44.5 2110,-44.5 2110,-19.5 1865,-19.5"/>
<text text-anchor="start" x="1870" y="-28.3" font-family="Times,serif" font-size="14.00" fill="#000000">+ «abstract» isPropagationStopped() : bool</text>
</g>
<!-- Symfony\\Contracts\\EventDispatcher\\Event&#45;&gt;Psr\\EventDispatcher\\StoppableEventInterface -->
<g id="edge1" class="edge">
<title>Symfony\\Contracts\\EventDispatcher\\Event&#45;&gt;Psr\\EventDispatcher\\StoppableEventInterface</title>
<path fill="none" stroke="#000000" stroke-dasharray="5,2" d="M2015.3634,-135.9785C2011.2314,-123.8173 2006.7717,-110.6917 2002.6395,-98.53"/>
<polygon fill="none" stroke="#000000" points="2005.9394,-97.3625 1999.4084,-89.0201 1999.3116,-99.6145 2005.9394,-97.3625"/>
</g>
<!-- Psr\\EventDispatcher\\EventDispatcherInterface -->
<g id="node16" class="node">
<title>Psr\\EventDispatcher\\EventDispatcherInterface</title>
<polygon fill="#fefece" stroke="transparent" points="1838.5,-89 1613.5,-89 1613.5,-16 1838.5,-16 1838.5,-89"/>
<polygon fill="#eeeeee" stroke="transparent" points="1622,-50.5 1622,-84.5 1831,-84.5 1831,-50.5 1622,-50.5"/>
<polygon fill="none" stroke="#000000" points="1622,-50.5 1622,-84.5 1831,-84.5 1831,-50.5 1622,-50.5"/>
<text text-anchor="start" x="1694" y="-71.3" font-family="Times,serif" font-weight="bold" font-size="14.00" fill="#000000">«interface»</text>
<text text-anchor="start" x="1651.5" y="-57.3" font-family="Times,serif" font-weight="bold" font-size="14.00" fill="#000000">EventDispatcherInterface</text>
<polygon fill="none" stroke="#000000" points="1622,-44.5 1622,-50.5 1831,-50.5 1831,-44.5 1622,-44.5"/>
<polygon fill="none" stroke="#000000" points="1622,-19.5 1622,-44.5 1831,-44.5 1831,-19.5 1622,-19.5"/>
<text text-anchor="start" x="1627" y="-28.3" font-family="Times,serif" font-size="14.00" fill="#000000">+ «abstract» dispatch(event : object)</text>
</g>
<!-- Symfony\\Contracts\\EventDispatcher\\EventDispatcherInterface&#45;&gt;Psr\\EventDispatcher\\EventDispatcherInterface -->
<g id="edge7" class="edge">
<title>Symfony\\Contracts\\EventDispatcher\\EventDispatcherInterface&#45;&gt;Psr\\EventDispatcher\\EventDispatcherInterface</title>
<path fill="none" stroke="#000000" stroke-dasharray="5,2" d="M1694.4909,-145.2369C1699.3679,-130.8832 1705.0168,-114.2574 1710.1734,-99.0806"/>
<polygon fill="none" stroke="#000000" points="1713.5746,-99.9494 1713.4778,-89.355 1706.9468,-97.6974 1713.5746,-99.9494"/>
</g>
<!-- Traversable -->
<g id="node19" class="node">
<title>Traversable</title>
<polygon fill="#fefece" stroke="transparent" points="799,-209 707,-209 707,-155 799,-155 799,-209"/>
<polygon fill="#eeeeee" stroke="transparent" points="715,-171 715,-205 791,-205 791,-171 715,-171"/>
<polygon fill="none" stroke="#000000" points="715,-171 715,-205 791,-205 791,-171 715,-171"/>
<text text-anchor="start" x="720.5" y="-191.8" font-family="Times,serif" font-weight="bold" font-size="14.00" fill="#000000">«interface»</text>
<text text-anchor="start" x="718" y="-177.8" font-family="Times,serif" font-weight="bold" font-size="14.00" fill="#000000">Traversable</text>
<polygon fill="none" stroke="#000000" points="715,-165 715,-171 791,-171 791,-165 715,-165"/>
<polygon fill="none" stroke="#000000" points="715,-159 715,-165 791,-165 791,-159 715,-159"/>
</g>
<!-- IteratorAggregate&#45;&gt;Traversable -->
<g id="edge4" class="edge">
<title>IteratorAggregate&#45;&gt;Traversable</title>
<path fill="none" stroke="#000000" stroke-dasharray="5,2" d="M753,-331.6536C753,-299.0853 753,-251.8137 753,-219.1534"/>
<polygon fill="none" stroke="#000000" points="756.5001,-219.1 753,-209.1 749.5001,-219.1 756.5001,-219.1"/>
</g>
</g>
</svg>
