<?xml version="1.0" encoding="UTF-8" standalone="no"?>
<!DOCTYPE svg PUBLIC "-//W3C//DTD SVG 1.1//EN"
 "http://www.w3.org/Graphics/SVG/1.1/DTD/svg11.dtd">
<!-- Generated by graphviz version 2.43.0 (0)
 -->
<!-- Title: %3 Pages: 1 -->
<svg width="1423pt" height="694pt"
 viewBox="0.00 0.00 1423.00 694.00" xmlns="http://www.w3.org/2000/svg" xmlns:xlink="http://www.w3.org/1999/xlink">
<g id="graph0" class="graph" transform="scale(1 1) rotate(0) translate(4 690)">
<title>%3</title>
<g id="clust1" class="cluster">
<title>cluster_0</title>
<polygon fill="#cdaa7d" stroke="black" points="8,-8 8,-678 693,-678 693,-8 8,-8"/>
<text text-anchor="middle" x="350.5" y="-662.8" font-family="Times,serif" font-size="14.00">Overtrue\PHPLint\Extension</text>
</g>
<g id="clust2" class="cluster">
<title>cluster_1</title>
<polygon fill="transparent" stroke="black" points="878,-494 878,-607 1242,-607 1242,-494 878,-494"/>
<text text-anchor="middle" x="1060" y="-591.8" font-family="Times,serif" font-size="14.00">Symfony\Component\EventDispatcher</text>
</g>
<g id="clust3" class="cluster">
<title>cluster_2</title>
<polygon fill="transparent" stroke="black" points="713,-100 713,-486 1407,-486 1407,-100 713,-100"/>
<text text-anchor="middle" x="1060" y="-470.8" font-family="Times,serif" font-size="14.00">Overtrue\PHPLint\Event</text>
</g>
<!-- Overtrue\\PHPLint\\Extension\\OutputFormat -->
<g id="node1" class="node">
<title>Overtrue\\PHPLint\\Extension\\OutputFormat</title>
<polygon fill="#fefece" stroke="transparent" points="679,-647 22,-647 22,-517 679,-517 679,-647"/>
<polygon fill="#eeeeee" stroke="transparent" points="30.5,-609 30.5,-643 671.5,-643 671.5,-609 30.5,-609"/>
<polygon fill="none" stroke="black" points="30.5,-609 30.5,-643 671.5,-643 671.5,-609 30.5,-609"/>
<text text-anchor="start" x="294.5" y="-615.8" font-family="Times,serif" font-weight="bold" font-size="14.00">OutputFormat</text>
<polygon fill="none" stroke="black" points="30.5,-603 30.5,-609 671.5,-609 671.5,-603 30.5,-603"/>
<polygon fill="none" stroke="black" points="30.5,-521 30.5,-603 671.5,-603 671.5,-521 30.5,-521"/>
<text text-anchor="start" x="35.5" y="-586.8" font-family="Times,serif" font-size="14.00">+ __construct(outputOptions : array = [])</text>
<text text-anchor="start" x="35.5" y="-567.8" font-family="Times,serif" font-size="14.00">+ «static» getSubscribedEvents() : array</text>
<text text-anchor="start" x="35.5" y="-548.8" font-family="Times,serif" font-size="14.00">+ initFormat(event : Symfony\Component\Console\Event\ConsoleCommandEvent) : void</text>
<text text-anchor="start" x="35.5" y="-529.8" font-family="Times,serif" font-size="14.00">+ afterChecking(event : Overtrue\PHPLint\Event\AfterCheckingEvent) : void</text>
</g>
<!-- Symfony\\Component\\EventDispatcher\\EventSubscriberInterface -->
<g id="node5" class="node">
<title>Symfony\\Component\\EventDispatcher\\EventSubscriberInterface</title>
<polygon fill="#fefece" stroke="transparent" points="1234,-575.5 886,-575.5 886,-502.5 1234,-502.5 1234,-575.5"/>
<polygon fill="#eeeeee" stroke="transparent" points="894,-537 894,-571 1226,-571 1226,-537 894,-537"/>
<polygon fill="none" stroke="black" points="894,-537 894,-571 1226,-571 1226,-537 894,-537"/>
<text text-anchor="start" x="1015" y="-557.8" font-family="Times,serif" font-weight="bold" font-size="14.00">«interface»</text>
<text text-anchor="start" x="958" y="-543.8" font-family="Times,serif" font-weight="bold" font-size="14.00">EventSubscriberInterface</text>
<polygon fill="none" stroke="black" points="894,-531 894,-537 1226,-537 1226,-531 894,-531"/>
<polygon fill="none" stroke="black" points="894,-506 894,-531 1226,-531 1226,-506 894,-506"/>
<text text-anchor="start" x="899" y="-514.8" font-family="Times,serif" font-size="14.00">+ «abstract» «static» getSubscribedEvents()</text>
</g>
<!-- Overtrue\\PHPLint\\Extension\\OutputFormat&#45;&gt;Symfony\\Component\\EventDispatcher\\EventSubscriberInterface -->
<g id="edge1" class="edge">
<title>Overtrue\\PHPLint\\Extension\\OutputFormat&#45;&gt;Symfony\\Component\\EventDispatcher\\EventSubscriberInterface</title>
<path fill="none" stroke="black" stroke-dasharray="5,2" d="M679.1,-562.09C746.62,-557.99 815.41,-553.81 875.56,-550.15"/>
<polygon fill="none" stroke="black" points="876.15,-553.62 885.92,-549.52 875.72,-546.63 876.15,-553.62"/>
</g>
<!-- Overtrue\\PHPLint\\Event\\AfterCheckingInterface -->
<g id="node6" class="node">
<title>Overtrue\\PHPLint\\Event\\AfterCheckingInterface</title>
<polygon fill="#fefece" stroke="transparent" points="1387.5,-454.5 732.5,-454.5 732.5,-381.5 1387.5,-381.5 1387.5,-454.5"/>
<polygon fill="#eeeeee" stroke="transparent" points="741,-416 741,-450 1380,-450 1380,-416 741,-416"/>
<polygon fill="none" stroke="black" points="741,-416 741,-450 1380,-450 1380,-416 741,-416"/>
<text text-anchor="start" x="1015.5" y="-436.8" font-family="Times,serif" font-weight="bold" font-size="14.00">«interface»</text>
<text text-anchor="start" x="967" y="-422.8" font-family="Times,serif" font-weight="bold" font-size="14.00">AfterCheckingInterface</text>
<polygon fill="none" stroke="black" points="741,-410 741,-416 1380,-416 1380,-410 741,-410"/>
<polygon fill="none" stroke="black" points="741,-385 741,-410 1380,-410 1380,-385 741,-385"/>
<text text-anchor="start" x="746" y="-393.8" font-family="Times,serif" font-size="14.00">+ «abstract» afterChecking(event : Overtrue\PHPLint\Event\AfterCheckingEvent) : void</text>
</g>
<!-- Overtrue\\PHPLint\\Extension\\OutputFormat&#45;&gt;Overtrue\\PHPLint\\Event\\AfterCheckingInterface -->
<g id="edge2" class="edge">
<title>Overtrue\\PHPLint\\Extension\\OutputFormat&#45;&gt;Overtrue\\PHPLint\\Event\\AfterCheckingInterface</title>
<path fill="none" stroke="black" stroke-dasharray="5,2" d="M674.42,-516.94C680.72,-514.09 686.92,-511.11 693,-508 703.65,-502.55 702.33,-495.41 713,-490 738.82,-476.92 766.86,-466.21 795.45,-457.45"/>
<polygon fill="none" stroke="black" points="796.58,-460.77 805.16,-454.56 794.57,-454.06 796.58,-460.77"/>
</g>
<!-- Overtrue\\PHPLint\\Extension\\ProgressBar -->
<g id="node2" class="node">
<title>Overtrue\\PHPLint\\Extension\\ProgressBar</title>
<polygon fill="#fefece" stroke="transparent" points="685,-499 16,-499 16,-331 685,-331 685,-499"/>
<polygon fill="#eeeeee" stroke="transparent" points="24.5,-461 24.5,-495 677.5,-495 677.5,-461 24.5,-461"/>
<polygon fill="none" stroke="black" points="24.5,-461 24.5,-495 677.5,-495 677.5,-461 24.5,-461"/>
<text text-anchor="start" x="301.5" y="-467.8" font-family="Times,serif" font-weight="bold" font-size="14.00">ProgressBar</text>
<polygon fill="none" stroke="black" points="24.5,-455 24.5,-461 677.5,-461 677.5,-455 24.5,-455"/>
<polygon fill="none" stroke="black" points="24.5,-335 24.5,-455 677.5,-455 677.5,-335 24.5,-335"/>
<text text-anchor="start" x="29.5" y="-438.8" font-family="Times,serif" font-size="14.00">+ «static» getSubscribedEvents() : array</text>
<text text-anchor="start" x="29.5" y="-419.8" font-family="Times,serif" font-size="14.00">+ initProgress(event : Symfony\Component\Console\Event\ConsoleCommandEvent) : void</text>
<text text-anchor="start" x="29.5" y="-400.8" font-family="Times,serif" font-size="14.00">+ beforeChecking(event : Overtrue\PHPLint\Event\BeforeCheckingEvent) : void</text>
<text text-anchor="start" x="29.5" y="-381.8" font-family="Times,serif" font-size="14.00">+ afterChecking(event : Overtrue\PHPLint\Event\AfterCheckingEvent) : void</text>
<text text-anchor="start" x="29.5" y="-362.8" font-family="Times,serif" font-size="14.00">+ beforeLintFile(event : Overtrue\PHPLint\Event\BeforeLintFileEvent) : void</text>
<text text-anchor="start" x="29.5" y="-343.8" font-family="Times,serif" font-size="14.00">+ afterLintFile(event : Overtrue\PHPLint\Event\AfterLintFileEvent) : void</text>
</g>
<!-- Overtrue\\PHPLint\\Extension\\ProgressBar&#45;&gt;Symfony\\Component\\EventDispatcher\\EventSubscriberInterface -->
<g id="edge3" class="edge">
<title>Overtrue\\PHPLint\\Extension\\ProgressBar&#45;&gt;Symfony\\Component\\EventDispatcher\\EventSubscriberInterface</title>
<path fill="none" stroke="black" stroke-dasharray="5,2" d="M685.21,-485.04C694.57,-486.75 703.84,-488.4 713,-490 765.64,-499.18 823.01,-507.84 875.63,-515.26"/>
<polygon fill="none" stroke="black" points="875.35,-518.75 885.74,-516.67 876.33,-511.82 875.35,-518.75"/>
</g>
<!-- Overtrue\\PHPLint\\Extension\\ProgressBar&#45;&gt;Overtrue\\PHPLint\\Event\\AfterCheckingInterface -->
<g id="edge5" class="edge">
<title>Overtrue\\PHPLint\\Extension\\ProgressBar&#45;&gt;Overtrue\\PHPLint\\Event\\AfterCheckingInterface</title>
<path fill="none" stroke="black" stroke-dasharray="5,2" d="M685.05,-416.41C697.36,-416.47 709.7,-416.52 722.02,-416.57"/>
<polygon fill="none" stroke="black" points="722.34,-420.07 732.35,-416.61 722.37,-413.07 722.34,-420.07"/>
</g>
<!-- Overtrue\\PHPLint\\Event\\BeforeCheckingInterface -->
<g id="node7" class="node">
<title>Overtrue\\PHPLint\\Event\\BeforeCheckingInterface</title>
<polygon fill="#fefece" stroke="transparent" points="1399,-181.5 721,-181.5 721,-108.5 1399,-108.5 1399,-181.5"/>
<polygon fill="#eeeeee" stroke="transparent" points="729,-143 729,-177 1391,-177 1391,-143 729,-143"/>
<polygon fill="none" stroke="black" points="729,-143 729,-177 1391,-177 1391,-143 729,-143"/>
<text text-anchor="start" x="1015" y="-163.8" font-family="Times,serif" font-weight="bold" font-size="14.00">«interface»</text>
<text text-anchor="start" x="960" y="-149.8" font-family="Times,serif" font-weight="bold" font-size="14.00">BeforeCheckingInterface</text>
<polygon fill="none" stroke="black" points="729,-137 729,-143 1391,-143 1391,-137 729,-137"/>
<polygon fill="none" stroke="black" points="729,-112 729,-137 1391,-137 1391,-112 729,-112"/>
<text text-anchor="start" x="734" y="-120.8" font-family="Times,serif" font-size="14.00">+ «abstract» beforeChecking(event : Overtrue\PHPLint\Event\BeforeCheckingEvent) : void</text>
</g>
<!-- Overtrue\\PHPLint\\Extension\\ProgressBar&#45;&gt;Overtrue\\PHPLint\\Event\\BeforeCheckingInterface -->
<g id="edge4" class="edge">
<title>Overtrue\\PHPLint\\Extension\\ProgressBar&#45;&gt;Overtrue\\PHPLint\\Event\\BeforeCheckingInterface</title>
<path fill="none" stroke="black" stroke-dasharray="5,2" d="M685.1,-331.33C687.81,-328.64 690.44,-325.86 693,-323 732.53,-278.74 670.66,-232.57 713,-191 713.94,-190.07 714.89,-189.16 715.85,-188.26"/>
<polygon fill="none" stroke="black" points="718.22,-190.84 723.39,-181.59 713.58,-185.6 718.22,-190.84"/>
</g>
<!-- Overtrue\\PHPLint\\Event\\BeforeLintFileInterface -->
<g id="node8" class="node">
<title>Overtrue\\PHPLint\\Event\\BeforeLintFileInterface</title>
<polygon fill="#fefece" stroke="transparent" points="1388.5,-363.5 731.5,-363.5 731.5,-290.5 1388.5,-290.5 1388.5,-363.5"/>
<polygon fill="#eeeeee" stroke="transparent" points="740,-325 740,-359 1381,-359 1381,-325 740,-325"/>
<polygon fill="none" stroke="black" points="740,-325 740,-359 1381,-359 1381,-325 740,-325"/>
<text text-anchor="start" x="1015.5" y="-345.8" font-family="Times,serif" font-weight="bold" font-size="14.00">«interface»</text>
<text text-anchor="start" x="967" y="-331.8" font-family="Times,serif" font-weight="bold" font-size="14.00">BeforeLintFileInterface</text>
<polygon fill="none" stroke="black" points="740,-319 740,-325 1381,-325 1381,-319 740,-319"/>
<polygon fill="none" stroke="black" points="740,-294 740,-319 1381,-319 1381,-294 740,-294"/>
<text text-anchor="start" x="745" y="-302.8" font-family="Times,serif" font-size="14.00">+ «abstract» beforeLintFile(event : Overtrue\PHPLint\Event\BeforeLintFileEvent) : void</text>
</g>
<!-- Overtrue\\PHPLint\\Extension\\ProgressBar&#45;&gt;Overtrue\\PHPLint\\Event\\BeforeLintFileInterface -->
<g id="edge6" class="edge">
<title>Overtrue\\PHPLint\\Extension\\ProgressBar&#45;&gt;Overtrue\\PHPLint\\Event\\BeforeLintFileInterface</title>
<path fill="none" stroke="black" stroke-dasharray="5,2" d="M685.05,-373.51C708.55,-370.59 732.17,-367.65 755.49,-364.75"/>
<polygon fill="none" stroke="black" points="755.98,-368.22 765.47,-363.51 755.11,-361.27 755.98,-368.22"/>
</g>
<!-- Overtrue\\PHPLint\\Event\\AfterLintFileInterface -->
<g id="node9" class="node">
<title>Overtrue\\PHPLint\\Event\\AfterLintFileInterface</title>
<polygon fill="#fefece" stroke="transparent" points="1377,-272.5 743,-272.5 743,-199.5 1377,-199.5 1377,-272.5"/>
<polygon fill="#eeeeee" stroke="transparent" points="751,-234 751,-268 1369,-268 1369,-234 751,-234"/>
<polygon fill="none" stroke="black" points="751,-234 751,-268 1369,-268 1369,-234 751,-234"/>
<text text-anchor="start" x="1015" y="-254.8" font-family="Times,serif" font-weight="bold" font-size="14.00">«interface»</text>
<text text-anchor="start" x="972.5" y="-240.8" font-family="Times,serif" font-weight="bold" font-size="14.00">AfterLintFileInterface</text>
<polygon fill="none" stroke="black" points="751,-228 751,-234 1369,-234 1369,-228 751,-228"/>
<polygon fill="none" stroke="black" points="751,-203 751,-228 1369,-228 1369,-203 751,-203"/>
<text text-anchor="start" x="756" y="-211.8" font-family="Times,serif" font-size="14.00">+ «abstract» afterLintFile(event : Overtrue\PHPLint\Event\AfterLintFileEvent) : void</text>
</g>
<!-- Overtrue\\PHPLint\\Extension\\ProgressBar&#45;&gt;Overtrue\\PHPLint\\Event\\AfterLintFileInterface -->
<g id="edge7" class="edge">
<title>Overtrue\\PHPLint\\Extension\\ProgressBar&#45;&gt;Overtrue\\PHPLint\\Event\\AfterLintFileInterface</title>
<path fill="none" stroke="black" stroke-dasharray="5,2" d="M682.84,-330.97C686.3,-328.39 689.69,-325.74 693,-323 708.64,-310.09 696.55,-293.86 713,-282 719.65,-277.2 726.57,-272.79 733.71,-268.72"/>
<polygon fill="none" stroke="black" points="735.73,-271.6 742.85,-263.76 732.4,-265.45 735.73,-271.6"/>
</g>
<!-- Overtrue\\PHPLint\\Extension\\ProgressIndicator -->
<g id="node3" class="node">
<title>Overtrue\\PHPLint\\Extension\\ProgressIndicator</title>
<polygon fill="#fefece" stroke="transparent" points="685,-313.5 16,-313.5 16,-164.5 685,-164.5 685,-313.5"/>
<polygon fill="#eeeeee" stroke="transparent" points="24.5,-275 24.5,-309 677.5,-309 677.5,-275 24.5,-275"/>
<polygon fill="none" stroke="black" points="24.5,-275 24.5,-309 677.5,-309 677.5,-275 24.5,-275"/>
<text text-anchor="start" x="279.5" y="-281.8" font-family="Times,serif" font-weight="bold" font-size="14.00">ProgressIndicator</text>
<polygon fill="none" stroke="black" points="24.5,-269 24.5,-275 677.5,-275 677.5,-269 24.5,-269"/>
<polygon fill="none" stroke="black" points="24.5,-168 24.5,-269 677.5,-269 677.5,-168 24.5,-168"/>
<text text-anchor="start" x="29.5" y="-252.8" font-family="Times,serif" font-size="14.00">+ «static» getSubscribedEvents() : array</text>
<text text-anchor="start" x="29.5" y="-233.8" font-family="Times,serif" font-size="14.00">+ initProgress(event : Symfony\Component\Console\Event\ConsoleCommandEvent) : void</text>
<text text-anchor="start" x="29.5" y="-214.8" font-family="Times,serif" font-size="14.00">+ beforeChecking(event : Overtrue\PHPLint\Event\BeforeCheckingEvent) : void</text>
<text text-anchor="start" x="29.5" y="-195.8" font-family="Times,serif" font-size="14.00">+ afterChecking(event : Overtrue\PHPLint\Event\AfterCheckingEvent) : void</text>
<text text-anchor="start" x="29.5" y="-176.8" font-family="Times,serif" font-size="14.00">+ afterLintFile(event : Overtrue\PHPLint\Event\AfterLintFileEvent) : void</text>
</g>
<!-- Overtrue\\PHPLint\\Extension\\ProgressIndicator&#45;&gt;Symfony\\Component\\EventDispatcher\\EventSubscriberInterface -->
<g id="edge8" class="edge">
<title>Overtrue\\PHPLint\\Extension\\ProgressIndicator&#45;&gt;Symfony\\Component\\EventDispatcher\\EventSubscriberInterface</title>
<path fill="none" stroke="black" stroke-dasharray="5,2" d="M685.18,-313.71C687.86,-316.38 690.47,-319.15 693,-322 742.89,-378.26 660.42,-436.24 713,-490 755.01,-532.95 816.28,-550 875.64,-554.77"/>
<polygon fill="none" stroke="black" points="875.7,-558.28 885.92,-555.48 876.18,-551.3 875.7,-558.28"/>
</g>
<!-- Overtrue\\PHPLint\\Extension\\ProgressIndicator&#45;&gt;Overtrue\\PHPLint\\Event\\AfterCheckingInterface -->
<g id="edge10" class="edge">
<title>Overtrue\\PHPLint\\Extension\\ProgressIndicator&#45;&gt;Overtrue\\PHPLint\\Event\\AfterCheckingInterface</title>
<path fill="none" stroke="black" stroke-dasharray="5,2" d="M682.76,-313.56C686.25,-316.28 689.67,-319.09 693,-322 711.34,-338.01 693.81,-358.01 713,-373 716.49,-375.73 720.06,-378.33 723.71,-380.83"/>
<polygon fill="none" stroke="black" points="722.07,-383.93 732.36,-386.44 725.88,-378.06 722.07,-383.93"/>
</g>
<!-- Overtrue\\PHPLint\\Extension\\ProgressIndicator&#45;&gt;Overtrue\\PHPLint\\Event\\BeforeCheckingInterface -->
<g id="edge9" class="edge">
<title>Overtrue\\PHPLint\\Extension\\ProgressIndicator&#45;&gt;Overtrue\\PHPLint\\Event\\BeforeCheckingInterface</title>
<path fill="none" stroke="black" stroke-dasharray="5,2" d="M685.05,-194.68C714.89,-190.72 744.92,-186.73 774.29,-182.83"/>
<polygon fill="none" stroke="black" points="774.78,-186.29 784.23,-181.51 773.86,-179.35 774.78,-186.29"/>
</g>
<!-- Overtrue\\PHPLint\\Extension\\ProgressIndicator&#45;&gt;Overtrue\\PHPLint\\Event\\AfterLintFileInterface -->
<g id="edge11" class="edge">
<title>Overtrue\\PHPLint\\Extension\\ProgressIndicator&#45;&gt;Overtrue\\PHPLint\\Event\\AfterLintFileInterface</title>
<path fill="none" stroke="black" stroke-dasharray="5,2" d="M685.05,-237.59C700.84,-237.52 716.68,-237.45 732.45,-237.38"/>
<polygon fill="none" stroke="black" points="732.82,-240.88 742.8,-237.34 732.79,-233.88 732.82,-240.88"/>
</g>
<!-- Overtrue\\PHPLint\\Extension\\ProgressPrinter -->
<g id="node4" class="node">
<title>Overtrue\\PHPLint\\Extension\\ProgressPrinter</title>
<polygon fill="#fefece" stroke="transparent" points="685,-146 16,-146 16,-16 685,-16 685,-146"/>
<polygon fill="#eeeeee" stroke="transparent" points="24.5,-108 24.5,-142 677.5,-142 677.5,-108 24.5,-108"/>
<polygon fill="none" stroke="black" points="24.5,-108 24.5,-142 677.5,-142 677.5,-108 24.5,-108"/>
<text text-anchor="start" x="287.5" y="-114.8" font-family="Times,serif" font-weight="bold" font-size="14.00">ProgressPrinter</text>
<polygon fill="none" stroke="black" points="24.5,-102 24.5,-108 677.5,-108 677.5,-102 24.5,-102"/>
<polygon fill="none" stroke="black" points="24.5,-20 24.5,-102 677.5,-102 677.5,-20 24.5,-20"/>
<text text-anchor="start" x="29.5" y="-85.8" font-family="Times,serif" font-size="14.00">+ «static» getSubscribedEvents() : array</text>
<text text-anchor="start" x="29.5" y="-66.8" font-family="Times,serif" font-size="14.00">+ initProgress(event : Symfony\Component\Console\Event\ConsoleCommandEvent) : void</text>
<text text-anchor="start" x="29.5" y="-47.8" font-family="Times,serif" font-size="14.00">+ beforeChecking(event : Overtrue\PHPLint\Event\BeforeCheckingEvent) : void</text>
<text text-anchor="start" x="29.5" y="-28.8" font-family="Times,serif" font-size="14.00">+ afterLintFile(event : Overtrue\PHPLint\Event\AfterLintFileEvent) : void</text>
</g>
<!-- Overtrue\\PHPLint\\Extension\\ProgressPrinter&#45;&gt;Symfony\\Component\\EventDispatcher\\EventSubscriberInterface -->
<g id="edge12" class="edge">
<title>Overtrue\\PHPLint\\Extension\\ProgressPrinter&#45;&gt;Symfony\\Component\\EventDispatcher\\EventSubscriberInterface</title>
<path fill="none" stroke="black" stroke-dasharray="5,2" d="M683.78,-146.03C686.96,-149.22 690.04,-152.54 693,-156 741.31,-212.52 662.59,-435.34 713,-490 754.1,-534.57 815.84,-551.81 875.84,-556.26"/>
<polygon fill="none" stroke="black" points="875.65,-559.76 885.85,-556.89 876.08,-552.77 875.65,-559.76"/>
</g>
<!-- Overtrue\\PHPLint\\Extension\\ProgressPrinter&#45;&gt;Overtrue\\PHPLint\\Event\\BeforeCheckingInterface -->
<g id="edge13" class="edge">
<title>Overtrue\\PHPLint\\Extension\\ProgressPrinter&#45;&gt;Overtrue\\PHPLint\\Event\\BeforeCheckingInterface</title>
<path fill="none" stroke="black" stroke-dasharray="5,2" d="M685.05,-111.17C693.61,-111.95 702.18,-112.72 710.75,-113.5"/>
<polygon fill="none" stroke="black" points="710.53,-116.99 720.81,-114.41 711.16,-110.02 710.53,-116.99"/>
</g>
<!-- Overtrue\\PHPLint\\Extension\\ProgressPrinter&#45;&gt;Overtrue\\PHPLint\\Event\\AfterLintFileInterface -->
<g id="edge14" class="edge">
<title>Overtrue\\PHPLint\\Extension\\ProgressPrinter&#45;&gt;Overtrue\\PHPLint\\Event\\AfterLintFileInterface</title>
<path fill="none" stroke="black" stroke-dasharray="5,2" d="M678.7,-146.2C683.58,-149.32 688.35,-152.58 693,-156 707.44,-166.61 698.12,-181.02 713,-191 719.63,-195.45 726.5,-199.55 733.56,-203.35"/>
<polygon fill="none" stroke="black" points="732.11,-206.54 742.61,-207.98 735.3,-200.31 732.11,-206.54"/>
</g>
</g>
</svg>
