<?xml version="1.0" encoding="UTF-8" standalone="no"?>
<!DOCTYPE svg PUBLIC "-//W3C//DTD SVG 1.1//EN"
 "http://www.w3.org/Graphics/SVG/1.1/DTD/svg11.dtd">
<!-- Generated by graphviz version 2.43.0 (0)
 -->
<!-- Title: %3 Pages: 1 -->
<svg width="1135pt" height="693pt"
 viewBox="0.00 0.00 1135.00 693.00" xmlns="http://www.w3.org/2000/svg" xmlns:xlink="http://www.w3.org/1999/xlink">
<g id="graph0" class="graph" transform="scale(1 1) rotate(0) translate(4 689)">
<title>%3</title>
<g id="clust1" class="cluster">
<title>cluster_0</title>
<polygon fill="#cdaa7d" stroke="black" points="8,-8 8,-677 552,-677 552,-8 8,-8"/>
<text text-anchor="middle" x="280" y="-661.8" font-family="Times,serif" font-size="14.00">Overtrue\PHPLint\Extension</text>
</g>
<g id="clust2" class="cluster">
<title>cluster_1</title>
<polygon fill="transparent" stroke="black" points="704,-509 704,-622 987,-622 987,-509 704,-509"/>
<text text-anchor="middle" x="845.5" y="-606.8" font-family="Times,serif" font-size="14.00">Symfony\Component\EventDispatcher</text>
</g>
<g id="clust3" class="cluster">
<title>cluster_2</title>
<polygon fill="transparent" stroke="black" points="572,-115 572,-501 1119,-501 1119,-115 572,-115"/>
<text text-anchor="middle" x="845.5" y="-485.8" font-family="Times,serif" font-size="14.00">Overtrue\PHPLint\Event</text>
</g>
<!-- Overtrue\\PHPLint\\Extension\\OutputFormat -->
<g id="node1" class="node">
<title>Overtrue\\PHPLint\\Extension\\OutputFormat</title>
<polygon fill="#fefece" stroke="transparent" points="541,-645.5 19,-645.5 19,-534.5 541,-534.5 541,-645.5"/>
<polygon fill="#eeeeee" stroke="transparent" points="27,-607 27,-641 533,-641 533,-607 27,-607"/>
<polygon fill="none" stroke="black" points="27,-607 27,-641 533,-641 533,-607 27,-607"/>
<text text-anchor="start" x="236.5" y="-613.8" font-family="Times,serif" font-weight="bold" font-size="14.00">OutputFormat</text>
<polygon fill="none" stroke="black" points="27,-601 27,-607 533,-607 533,-601 27,-601"/>
<polygon fill="none" stroke="black" points="27,-538 27,-601 533,-601 533,-538 27,-538"/>
<text text-anchor="start" x="32" y="-584.8" font-family="Times,serif" font-size="14.00">+ «static» getSubscribedEvents() : array</text>
<text text-anchor="start" x="32" y="-565.8" font-family="Times,serif" font-size="14.00">+ initFormat(event : Symfony\Component\Console\Event\ConsoleCommandEvent) : void</text>
<text text-anchor="start" x="32" y="-546.8" font-family="Times,serif" font-size="14.00">+ afterChecking(event : Overtrue\PHPLint\Event\AfterCheckingEvent) : void</text>
</g>
<!-- Symfony\\Component\\EventDispatcher\\EventSubscriberInterface -->
<g id="node5" class="node">
<title>Symfony\\Component\\EventDispatcher\\EventSubscriberInterface</title>
<polygon fill="#fefece" stroke="transparent" points="979,-590.5 712,-590.5 712,-517.5 979,-517.5 979,-590.5"/>
<polygon fill="#eeeeee" stroke="transparent" points="720.5,-552 720.5,-586 971.5,-586 971.5,-552 720.5,-552"/>
<polygon fill="none" stroke="black" points="720.5,-552 720.5,-586 971.5,-586 971.5,-552 720.5,-552"/>
<text text-anchor="start" x="813.5" y="-572.8" font-family="Times,serif" font-weight="bold" font-size="14.00">«interface»</text>
<text text-anchor="start" x="771" y="-558.8" font-family="Times,serif" font-weight="bold" font-size="14.00">EventSubscriberInterface</text>
<polygon fill="none" stroke="black" points="720.5,-546 720.5,-552 971.5,-552 971.5,-546 720.5,-546"/>
<polygon fill="none" stroke="black" points="720.5,-521 720.5,-546 971.5,-546 971.5,-521 720.5,-521"/>
<text text-anchor="start" x="725.5" y="-529.8" font-family="Times,serif" font-size="14.00">+ «abstract» «static» getSubscribedEvents()</text>
</g>
<!-- Overtrue\\PHPLint\\Extension\\OutputFormat&#45;&gt;Symfony\\Component\\EventDispatcher\\EventSubscriberInterface -->
<g id="edge1" class="edge">
<title>Overtrue\\PHPLint\\Extension\\OutputFormat&#45;&gt;Symfony\\Component\\EventDispatcher\\EventSubscriberInterface</title>
<path fill="none" stroke="black" stroke-dasharray="5,2" d="M541.31,-573.37C596.61,-569.84 653.03,-566.23 701.96,-563.11"/>
<polygon fill="none" stroke="black" points="702.21,-566.6 711.96,-562.47 701.76,-559.61 702.21,-566.6"/>
</g>
<!-- Overtrue\\PHPLint\\Event\\AfterCheckingInterface -->
<g id="node6" class="node">
<title>Overtrue\\PHPLint\\Event\\AfterCheckingInterface</title>
<polygon fill="#fefece" stroke="transparent" points="1102,-378.5 589,-378.5 589,-305.5 1102,-305.5 1102,-378.5"/>
<polygon fill="#eeeeee" stroke="transparent" points="597.5,-340 597.5,-374 1094.5,-374 1094.5,-340 597.5,-340"/>
<polygon fill="none" stroke="black" points="597.5,-340 597.5,-374 1094.5,-374 1094.5,-340 597.5,-340"/>
<text text-anchor="start" x="813.5" y="-360.8" font-family="Times,serif" font-weight="bold" font-size="14.00">«interface»</text>
<text text-anchor="start" x="776.5" y="-346.8" font-family="Times,serif" font-weight="bold" font-size="14.00">AfterCheckingInterface</text>
<polygon fill="none" stroke="black" points="597.5,-334 597.5,-340 1094.5,-340 1094.5,-334 597.5,-334"/>
<polygon fill="none" stroke="black" points="597.5,-309 597.5,-334 1094.5,-334 1094.5,-309 597.5,-309"/>
<text text-anchor="start" x="602.5" y="-317.8" font-family="Times,serif" font-size="14.00">+ «abstract» afterChecking(event : Overtrue\PHPLint\Event\AfterCheckingEvent) : void</text>
</g>
<!-- Overtrue\\PHPLint\\Extension\\OutputFormat&#45;&gt;Overtrue\\PHPLint\\Event\\AfterCheckingInterface -->
<g id="edge2" class="edge">
<title>Overtrue\\PHPLint\\Extension\\OutputFormat&#45;&gt;Overtrue\\PHPLint\\Event\\AfterCheckingInterface</title>
<path fill="none" stroke="black" stroke-dasharray="5,2" d="M541.21,-536.64C544.97,-533.29 548.57,-529.74 552,-526 593.85,-480.29 528.69,-432.33 572,-388 574.89,-385.04 577.89,-382.23 581,-379.57"/>
<polygon fill="none" stroke="black" points="583.3,-382.2 588.92,-373.22 578.93,-376.74 583.3,-382.2"/>
</g>
<!-- Overtrue\\PHPLint\\Extension\\ProgressBar -->
<g id="node2" class="node">
<title>Overtrue\\PHPLint\\Extension\\ProgressBar</title>
<polygon fill="#fefece" stroke="transparent" points="544,-517 16,-517 16,-349 544,-349 544,-517"/>
<polygon fill="#eeeeee" stroke="transparent" points="24,-479 24,-513 536,-513 536,-479 24,-479"/>
<polygon fill="none" stroke="black" points="24,-479 24,-513 536,-513 536,-479 24,-479"/>
<text text-anchor="start" x="243.5" y="-485.8" font-family="Times,serif" font-weight="bold" font-size="14.00">ProgressBar</text>
<polygon fill="none" stroke="black" points="24,-473 24,-479 536,-479 536,-473 24,-473"/>
<polygon fill="none" stroke="black" points="24,-353 24,-473 536,-473 536,-353 24,-353"/>
<text text-anchor="start" x="29" y="-456.8" font-family="Times,serif" font-size="14.00">+ «static» getSubscribedEvents() : array</text>
<text text-anchor="start" x="29" y="-437.8" font-family="Times,serif" font-size="14.00">+ initProgress(event : Symfony\Component\Console\Event\ConsoleCommandEvent) : void</text>
<text text-anchor="start" x="29" y="-418.8" font-family="Times,serif" font-size="14.00">+ beforeChecking(event : Overtrue\PHPLint\Event\BeforeCheckingEvent) : void</text>
<text text-anchor="start" x="29" y="-399.8" font-family="Times,serif" font-size="14.00">+ afterChecking(event : Overtrue\PHPLint\Event\AfterCheckingEvent) : void</text>
<text text-anchor="start" x="29" y="-380.8" font-family="Times,serif" font-size="14.00">+ beforeLintFile(event : Overtrue\PHPLint\Event\BeforeLintFileEvent) : void</text>
<text text-anchor="start" x="29" y="-361.8" font-family="Times,serif" font-size="14.00">+ afterLintFile(event : Overtrue\PHPLint\Event\AfterLintFileEvent) : void</text>
</g>
<!-- Overtrue\\PHPLint\\Extension\\ProgressBar&#45;&gt;Symfony\\Component\\EventDispatcher\\EventSubscriberInterface -->
<g id="edge3" class="edge">
<title>Overtrue\\PHPLint\\Extension\\ProgressBar&#45;&gt;Symfony\\Component\\EventDispatcher\\EventSubscriberInterface</title>
<path fill="none" stroke="black" stroke-dasharray="5,2" d="M544.13,-498.91C553.53,-501.01 562.84,-503.05 572,-505 614,-513.96 659.87,-522.64 701.8,-530.13"/>
<polygon fill="none" stroke="black" points="701.34,-533.61 711.8,-531.91 702.57,-526.71 701.34,-533.61"/>
</g>
<!-- Overtrue\\PHPLint\\Extension\\ProgressBar&#45;&gt;Overtrue\\PHPLint\\Event\\AfterCheckingInterface -->
<g id="edge5" class="edge">
<title>Overtrue\\PHPLint\\Extension\\ProgressBar&#45;&gt;Overtrue\\PHPLint\\Event\\AfterCheckingInterface</title>
<path fill="none" stroke="black" stroke-dasharray="5,2" d="M544.19,-390.5C565.6,-387.04 587.15,-383.56 608.35,-380.14"/>
<polygon fill="none" stroke="black" points="609.07,-383.56 618.39,-378.51 607.96,-376.65 609.07,-383.56"/>
</g>
<!-- Overtrue\\PHPLint\\Event\\BeforeCheckingInterface -->
<g id="node7" class="node">
<title>Overtrue\\PHPLint\\Event\\BeforeCheckingInterface</title>
<polygon fill="#fefece" stroke="transparent" points="1111,-196.5 580,-196.5 580,-123.5 1111,-123.5 1111,-196.5"/>
<polygon fill="#eeeeee" stroke="transparent" points="588.5,-158 588.5,-192 1103.5,-192 1103.5,-158 588.5,-158"/>
<polygon fill="none" stroke="black" points="588.5,-158 588.5,-192 1103.5,-192 1103.5,-158 588.5,-158"/>
<text text-anchor="start" x="813.5" y="-178.8" font-family="Times,serif" font-weight="bold" font-size="14.00">«interface»</text>
<text text-anchor="start" x="772.5" y="-164.8" font-family="Times,serif" font-weight="bold" font-size="14.00">BeforeCheckingInterface</text>
<polygon fill="none" stroke="black" points="588.5,-152 588.5,-158 1103.5,-158 1103.5,-152 588.5,-152"/>
<polygon fill="none" stroke="black" points="588.5,-127 588.5,-152 1103.5,-152 1103.5,-127 588.5,-127"/>
<text text-anchor="start" x="593.5" y="-135.8" font-family="Times,serif" font-size="14.00">+ «abstract» beforeChecking(event : Overtrue\PHPLint\Event\BeforeCheckingEvent) : void</text>
</g>
<!-- Overtrue\\PHPLint\\Extension\\ProgressBar&#45;&gt;Overtrue\\PHPLint\\Event\\BeforeCheckingInterface -->
<g id="edge4" class="edge">
<title>Overtrue\\PHPLint\\Extension\\ProgressBar&#45;&gt;Overtrue\\PHPLint\\Event\\BeforeCheckingInterface</title>
<path fill="none" stroke="black" stroke-dasharray="5,2" d="M544.05,-349.86C546.8,-347 549.45,-344.05 552,-341 590.86,-294.43 529.54,-249.32 572,-206 572.92,-205.06 573.85,-204.14 574.8,-203.23"/>
<polygon fill="none" stroke="black" points="577.15,-205.82 582.24,-196.53 572.47,-200.61 577.15,-205.82"/>
</g>
<!-- Overtrue\\PHPLint\\Event\\BeforeLintFileInterface -->
<g id="node8" class="node">
<title>Overtrue\\PHPLint\\Event\\BeforeLintFileInterface</title>
<polygon fill="#fefece" stroke="transparent" points="1102,-469.5 589,-469.5 589,-396.5 1102,-396.5 1102,-469.5"/>
<polygon fill="#eeeeee" stroke="transparent" points="597.5,-431 597.5,-465 1094.5,-465 1094.5,-431 597.5,-431"/>
<polygon fill="none" stroke="black" points="597.5,-431 597.5,-465 1094.5,-465 1094.5,-431 597.5,-431"/>
<text text-anchor="start" x="813.5" y="-451.8" font-family="Times,serif" font-weight="bold" font-size="14.00">«interface»</text>
<text text-anchor="start" x="777" y="-437.8" font-family="Times,serif" font-weight="bold" font-size="14.00">BeforeLintFileInterface</text>
<polygon fill="none" stroke="black" points="597.5,-425 597.5,-431 1094.5,-431 1094.5,-425 597.5,-425"/>
<polygon fill="none" stroke="black" points="597.5,-400 597.5,-425 1094.5,-425 1094.5,-400 597.5,-400"/>
<text text-anchor="start" x="602.5" y="-408.8" font-family="Times,serif" font-size="14.00">+ «abstract» beforeLintFile(event : Overtrue\PHPLint\Event\BeforeLintFileEvent) : void</text>
</g>
<!-- Overtrue\\PHPLint\\Extension\\ProgressBar&#45;&gt;Overtrue\\PHPLint\\Event\\BeforeLintFileInterface -->
<g id="edge6" class="edge">
<title>Overtrue\\PHPLint\\Extension\\ProgressBar&#45;&gt;Overtrue\\PHPLint\\Event\\BeforeLintFileInterface</title>
<path fill="none" stroke="black" stroke-dasharray="5,2" d="M544.19,-433C555.72,-433 567.29,-433 578.83,-433"/>
<polygon fill="none" stroke="black" points="578.95,-436.5 588.95,-433 578.95,-429.5 578.95,-436.5"/>
</g>
<!-- Overtrue\\PHPLint\\Event\\AfterLintFileInterface -->
<g id="node9" class="node">
<title>Overtrue\\PHPLint\\Event\\AfterLintFileInterface</title>
<polygon fill="#fefece" stroke="transparent" points="1093,-287.5 598,-287.5 598,-214.5 1093,-214.5 1093,-287.5"/>
<polygon fill="#eeeeee" stroke="transparent" points="606.5,-249 606.5,-283 1085.5,-283 1085.5,-249 606.5,-249"/>
<polygon fill="none" stroke="black" points="606.5,-249 606.5,-283 1085.5,-283 1085.5,-249 606.5,-249"/>
<text text-anchor="start" x="813.5" y="-269.8" font-family="Times,serif" font-weight="bold" font-size="14.00">«interface»</text>
<text text-anchor="start" x="781" y="-255.8" font-family="Times,serif" font-weight="bold" font-size="14.00">AfterLintFileInterface</text>
<polygon fill="none" stroke="black" points="606.5,-243 606.5,-249 1085.5,-249 1085.5,-243 606.5,-243"/>
<polygon fill="none" stroke="black" points="606.5,-218 606.5,-243 1085.5,-243 1085.5,-218 606.5,-218"/>
<text text-anchor="start" x="611.5" y="-226.8" font-family="Times,serif" font-size="14.00">+ «abstract» afterLintFile(event : Overtrue\PHPLint\Event\AfterLintFileEvent) : void</text>
</g>
<!-- Overtrue\\PHPLint\\Extension\\ProgressBar&#45;&gt;Overtrue\\PHPLint\\Event\\AfterLintFileInterface -->
<g id="edge7" class="edge">
<title>Overtrue\\PHPLint\\Extension\\ProgressBar&#45;&gt;Overtrue\\PHPLint\\Event\\AfterLintFileInterface</title>
<path fill="none" stroke="black" stroke-dasharray="5,2" d="M542.93,-348.77C546.03,-346.26 549.05,-343.67 552,-341 567.92,-326.58 554.97,-310.1 572,-297 577.43,-292.82 583.1,-288.97 588.97,-285.42"/>
<polygon fill="none" stroke="black" points="590.76,-288.42 597.71,-280.42 587.29,-282.35 590.76,-288.42"/>
</g>
<!-- Overtrue\\PHPLint\\Extension\\ProgressIndicator -->
<g id="node3" class="node">
<title>Overtrue\\PHPLint\\Extension\\ProgressIndicator</title>
<polygon fill="#fefece" stroke="transparent" points="544,-331.5 16,-331.5 16,-182.5 544,-182.5 544,-331.5"/>
<polygon fill="#eeeeee" stroke="transparent" points="24,-293 24,-327 536,-327 536,-293 24,-293"/>
<polygon fill="none" stroke="black" points="24,-293 24,-327 536,-327 536,-293 24,-293"/>
<text text-anchor="start" x="227.5" y="-299.8" font-family="Times,serif" font-weight="bold" font-size="14.00">ProgressIndicator</text>
<polygon fill="none" stroke="black" points="24,-287 24,-293 536,-293 536,-287 24,-287"/>
<polygon fill="none" stroke="black" points="24,-186 24,-287 536,-287 536,-186 24,-186"/>
<text text-anchor="start" x="29" y="-270.8" font-family="Times,serif" font-size="14.00">+ «static» getSubscribedEvents() : array</text>
<text text-anchor="start" x="29" y="-251.8" font-family="Times,serif" font-size="14.00">+ initProgress(event : Symfony\Component\Console\Event\ConsoleCommandEvent) : void</text>
<text text-anchor="start" x="29" y="-232.8" font-family="Times,serif" font-size="14.00">+ beforeChecking(event : Overtrue\PHPLint\Event\BeforeCheckingEvent) : void</text>
<text text-anchor="start" x="29" y="-213.8" font-family="Times,serif" font-size="14.00">+ afterChecking(event : Overtrue\PHPLint\Event\AfterCheckingEvent) : void</text>
<text text-anchor="start" x="29" y="-194.8" font-family="Times,serif" font-size="14.00">+ afterLintFile(event : Overtrue\PHPLint\Event\AfterLintFileEvent) : void</text>
</g>
<!-- Overtrue\\PHPLint\\Extension\\ProgressIndicator&#45;&gt;Symfony\\Component\\EventDispatcher\\EventSubscriberInterface -->
<g id="edge8" class="edge">
<title>Overtrue\\PHPLint\\Extension\\ProgressIndicator&#45;&gt;Symfony\\Component\\EventDispatcher\\EventSubscriberInterface</title>
<path fill="none" stroke="black" stroke-dasharray="5,2" d="M544.11,-331.26C546.84,-334.07 549.47,-336.98 552,-340 599.42,-396.64 521.28,-451.29 572,-505 605.2,-540.16 654.38,-555.25 701.86,-560.62"/>
<polygon fill="none" stroke="black" points="701.67,-564.12 711.96,-561.62 702.36,-557.15 701.67,-564.12"/>
</g>
<!-- Overtrue\\PHPLint\\Extension\\ProgressIndicator&#45;&gt;Overtrue\\PHPLint\\Event\\AfterCheckingInterface -->
<g id="edge10" class="edge">
<title>Overtrue\\PHPLint\\Extension\\ProgressIndicator&#45;&gt;Overtrue\\PHPLint\\Event\\AfterCheckingInterface</title>
<path fill="none" stroke="black" stroke-dasharray="5,2" d="M544.19,-296.7C560.21,-299.12 576.32,-301.55 592.3,-303.96"/>
<polygon fill="none" stroke="black" points="591.82,-307.42 602.23,-305.45 592.86,-300.5 591.82,-307.42"/>
</g>
<!-- Overtrue\\PHPLint\\Extension\\ProgressIndicator&#45;&gt;Overtrue\\PHPLint\\Event\\BeforeCheckingInterface -->
<g id="edge9" class="edge">
<title>Overtrue\\PHPLint\\Extension\\ProgressIndicator&#45;&gt;Overtrue\\PHPLint\\Event\\BeforeCheckingInterface</title>
<path fill="none" stroke="black" stroke-dasharray="5,2" d="M544.29,-210.78C553.64,-209.16 562.9,-207.57 572,-206 586.74,-203.46 601.93,-200.86 617.24,-198.25"/>
<polygon fill="none" stroke="black" points="618.05,-201.67 627.32,-196.54 616.87,-194.77 618.05,-201.67"/>
</g>
<!-- Overtrue\\PHPLint\\Extension\\ProgressIndicator&#45;&gt;Overtrue\\PHPLint\\Event\\AfterLintFileInterface -->
<g id="edge11" class="edge">
<title>Overtrue\\PHPLint\\Extension\\ProgressIndicator&#45;&gt;Overtrue\\PHPLint\\Event\\AfterLintFileInterface</title>
<path fill="none" stroke="black" stroke-dasharray="5,2" d="M544.19,-254.2C558.75,-254.04 573.37,-253.89 587.91,-253.73"/>
<polygon fill="none" stroke="black" points="587.99,-257.23 597.95,-253.63 587.92,-250.23 587.99,-257.23"/>
</g>
<!-- Overtrue\\PHPLint\\Extension\\ProgressPrinter -->
<g id="node4" class="node">
<title>Overtrue\\PHPLint\\Extension\\ProgressPrinter</title>
<polygon fill="#fefece" stroke="transparent" points="544,-164.5 16,-164.5 16,-15.5 544,-15.5 544,-164.5"/>
<polygon fill="#eeeeee" stroke="transparent" points="24,-126 24,-160 536,-160 536,-126 24,-126"/>
<polygon fill="none" stroke="black" points="24,-126 24,-160 536,-160 536,-126 24,-126"/>
<text text-anchor="start" x="233.5" y="-132.8" font-family="Times,serif" font-weight="bold" font-size="14.00">ProgressPrinter</text>
<polygon fill="none" stroke="black" points="24,-120 24,-126 536,-126 536,-120 24,-120"/>
<polygon fill="none" stroke="black" points="24,-19 24,-120 536,-120 536,-19 24,-19"/>
<text text-anchor="start" x="29" y="-103.8" font-family="Times,serif" font-size="14.00">+ «static» getSubscribedEvents() : array</text>
<text text-anchor="start" x="29" y="-84.8" font-family="Times,serif" font-size="14.00">+ initProgress(event : Symfony\Component\Console\Event\ConsoleCommandEvent) : void</text>
<text text-anchor="start" x="29" y="-65.8" font-family="Times,serif" font-size="14.00">+ beforeChecking(event : Overtrue\PHPLint\Event\BeforeCheckingEvent) : void</text>
<text text-anchor="start" x="29" y="-46.8" font-family="Times,serif" font-size="14.00">+ afterChecking(event : Overtrue\PHPLint\Event\AfterCheckingEvent) : void</text>
<text text-anchor="start" x="29" y="-27.8" font-family="Times,serif" font-size="14.00">+ afterLintFile(event : Overtrue\PHPLint\Event\AfterLintFileEvent) : void</text>
</g>
<!-- Overtrue\\PHPLint\\Extension\\ProgressPrinter&#45;&gt;Symfony\\Component\\EventDispatcher\\EventSubscriberInterface -->
<g id="edge12" class="edge">
<title>Overtrue\\PHPLint\\Extension\\ProgressPrinter&#45;&gt;Symfony\\Component\\EventDispatcher\\EventSubscriberInterface</title>
<path fill="none" stroke="black" stroke-dasharray="5,2" d="M544.13,-164.76C546.86,-167.72 549.49,-170.8 552,-174 597.49,-231.97 523.04,-449.92 572,-505 604.35,-541.39 653.76,-556.66 701.67,-561.82"/>
<polygon fill="none" stroke="black" points="701.58,-565.32 711.86,-562.77 702.23,-558.35 701.58,-565.32"/>
</g>
<!-- Overtrue\\PHPLint\\Extension\\ProgressPrinter&#45;&gt;Overtrue\\PHPLint\\Event\\AfterCheckingInterface -->
<g id="edge14" class="edge">
<title>Overtrue\\PHPLint\\Extension\\ProgressPrinter&#45;&gt;Overtrue\\PHPLint\\Event\\AfterCheckingInterface</title>
<path fill="none" stroke="black" stroke-dasharray="5,2" d="M543.16,-164.61C546.22,-167.62 549.17,-170.75 552,-174 588.34,-215.79 532.89,-257.79 572,-297 574.79,-299.8 577.68,-302.46 580.66,-304.99"/>
<polygon fill="none" stroke="black" points="578.76,-307.95 588.77,-311.41 583.1,-302.46 578.76,-307.95"/>
</g>
<!-- Overtrue\\PHPLint\\Extension\\ProgressPrinter&#45;&gt;Overtrue\\PHPLint\\Event\\BeforeCheckingInterface -->
<g id="edge13" class="edge">
<title>Overtrue\\PHPLint\\Extension\\ProgressPrinter&#45;&gt;Overtrue\\PHPLint\\Event\\BeforeCheckingInterface</title>
<path fill="none" stroke="black" stroke-dasharray="5,2" d="M544.19,-122.69C552.74,-123.76 561.31,-124.82 569.88,-125.89"/>
<polygon fill="none" stroke="black" points="569.57,-129.37 579.93,-127.13 570.44,-122.43 569.57,-129.37"/>
</g>
<!-- Overtrue\\PHPLint\\Extension\\ProgressPrinter&#45;&gt;Overtrue\\PHPLint\\Event\\AfterLintFileInterface -->
<g id="edge15" class="edge">
<title>Overtrue\\PHPLint\\Extension\\ProgressPrinter&#45;&gt;Overtrue\\PHPLint\\Event\\AfterLintFileInterface</title>
<path fill="none" stroke="black" stroke-dasharray="5,2" d="M539.06,-164.67C543.48,-167.66 547.81,-170.77 552,-174 565.29,-184.23 558.04,-196.7 572,-206 577.37,-209.58 582.92,-212.9 588.63,-215.99"/>
<polygon fill="none" stroke="black" points="587.23,-219.21 597.73,-220.66 590.43,-212.98 587.23,-219.21"/>
</g>
</g>
</svg>
