<?xml version="1.0" encoding="UTF-8" standalone="no"?>
<!DOCTYPE svg PUBLIC "-//W3C//DTD SVG 1.1//EN"
 "http://www.w3.org/Graphics/SVG/1.1/DTD/svg11.dtd">
<!-- Generated by graphviz version 2.42.4 (0)
 -->
<!-- Pages: 1 -->
<svg width="1423pt" height="693pt"
 viewBox="0.00 0.00 1423.00 693.00" xmlns="http://www.w3.org/2000/svg" xmlns:xlink="http://www.w3.org/1999/xlink">
<g id="graph0" class="graph" transform="scale(1 1) rotate(0) translate(4 689)">
<g id="clust1" class="cluster">
<title>cluster_0</title>
<polygon fill="#cdaa7d" stroke="black" points="8,-8 8,-677 693,-677 693,-8 8,-8"/>
<text text-anchor="middle" x="350.5" y="-661.8" font-family="Times,serif" font-size="14.00">Overtrue\PHPLint\Extension</text>
</g>
<g id="clust2" class="cluster">
<title>cluster_1</title>
<polygon fill="transparent" stroke="black" points="878,-509 878,-622 1242,-622 1242,-509 878,-509"/>
<text text-anchor="middle" x="1060" y="-606.8" font-family="Times,serif" font-size="14.00">Symfony\Component\EventDispatcher</text>
</g>
<g id="clust3" class="cluster">
<title>cluster_2</title>
<polygon fill="transparent" stroke="black" points="713,-115 713,-501 1407,-501 1407,-115 713,-115"/>
<text text-anchor="middle" x="1060" y="-485.8" font-family="Times,serif" font-size="14.00">Overtrue\PHPLint\Event</text>
</g>
<!-- Overtrue\\PHPLint\\Extension\\OutputFormat -->
<g id="node1" class="node">
<title>Overtrue\\PHPLint\\Extension\\OutputFormat</title>
<polygon fill="#fefece" stroke="transparent" points="679,-645.5 22,-645.5 22,-534.5 679,-534.5 679,-645.5"/>
<polygon fill="#eeeeee" stroke="transparent" points="30.5,-607 30.5,-641 671.5,-641 671.5,-607 30.5,-607"/>
<polygon fill="none" stroke="black" points="30.5,-607 30.5,-641 671.5,-641 671.5,-607 30.5,-607"/>
<text text-anchor="start" x="294.5" y="-613.8" font-family="Times,serif" font-weight="bold" font-size="14.00">OutputFormat</text>
<polygon fill="none" stroke="black" points="30.5,-601 30.5,-607 671.5,-607 671.5,-601 30.5,-601"/>
<polygon fill="none" stroke="black" points="30.5,-538 30.5,-601 671.5,-601 671.5,-538 30.5,-538"/>
<text text-anchor="start" x="35.5" y="-584.8" font-family="Times,serif" font-size="14.00">+ «static» getSubscribedEvents() : array</text>
<text text-anchor="start" x="35.5" y="-565.8" font-family="Times,serif" font-size="14.00">+ initFormat(event : Symfony\Component\Console\Event\ConsoleCommandEvent) : void</text>
<text text-anchor="start" x="35.5" y="-546.8" font-family="Times,serif" font-size="14.00">+ afterChecking(event : Overtrue\PHPLint\Event\AfterCheckingEvent) : void</text>
</g>
<!-- Symfony\\Component\\EventDispatcher\\EventSubscriberInterface -->
<g id="node5" class="node">
<title>Symfony\\Component\\EventDispatcher\\EventSubscriberInterface</title>
<polygon fill="#fefece" stroke="transparent" points="1234,-590.5 886,-590.5 886,-517.5 1234,-517.5 1234,-590.5"/>
<polygon fill="#eeeeee" stroke="transparent" points="894,-552 894,-586 1226,-586 1226,-552 894,-552"/>
<polygon fill="none" stroke="black" points="894,-552 894,-586 1226,-586 1226,-552 894,-552"/>
<text text-anchor="start" x="1015" y="-572.8" font-family="Times,serif" font-weight="bold" font-size="14.00">«interface»</text>
<text text-anchor="start" x="958" y="-558.8" font-family="Times,serif" font-weight="bold" font-size="14.00">EventSubscriberInterface</text>
<polygon fill="none" stroke="black" points="894,-546 894,-552 1226,-552 1226,-546 894,-546"/>
<polygon fill="none" stroke="black" points="894,-521 894,-546 1226,-546 1226,-521 894,-521"/>
<text text-anchor="start" x="899" y="-529.8" font-family="Times,serif" font-size="14.00">+ «abstract» «static» getSubscribedEvents()</text>
</g>
<!-- Overtrue\\PHPLint\\Extension\\OutputFormat&#45;&gt;Symfony\\Component\\EventDispatcher\\EventSubscriberInterface -->
<g id="edge1" class="edge">
<title>Overtrue\\PHPLint\\Extension\\OutputFormat&#45;&gt;Symfony\\Component\\EventDispatcher\\EventSubscriberInterface</title>
<path fill="none" stroke="black" stroke-dasharray="5,2" d="M679.1,-573.33C746.62,-569.9 815.41,-566.39 875.56,-563.33"/>
<polygon fill="none" stroke="black" points="876.11,-566.81 885.92,-562.81 875.75,-559.82 876.11,-566.81"/>
</g>
<!-- Overtrue\\PHPLint\\Event\\AfterCheckingInterface -->
<g id="node6" class="node">
<title>Overtrue\\PHPLint\\Event\\AfterCheckingInterface</title>
<polygon fill="#fefece" stroke="transparent" points="1387.5,-378.5 732.5,-378.5 732.5,-305.5 1387.5,-305.5 1387.5,-378.5"/>
<polygon fill="#eeeeee" stroke="transparent" points="741,-340 741,-374 1380,-374 1380,-340 741,-340"/>
<polygon fill="none" stroke="black" points="741,-340 741,-374 1380,-374 1380,-340 741,-340"/>
<text text-anchor="start" x="1015.5" y="-360.8" font-family="Times,serif" font-weight="bold" font-size="14.00">«interface»</text>
<text text-anchor="start" x="967" y="-346.8" font-family="Times,serif" font-weight="bold" font-size="14.00">AfterCheckingInterface</text>
<polygon fill="none" stroke="black" points="741,-334 741,-340 1380,-340 1380,-334 741,-334"/>
<polygon fill="none" stroke="black" points="741,-309 741,-334 1380,-334 1380,-309 741,-309"/>
<text text-anchor="start" x="746" y="-317.8" font-family="Times,serif" font-size="14.00">+ «abstract» afterChecking(event : Overtrue\PHPLint\Event\AfterCheckingEvent) : void</text>
</g>
<!-- Overtrue\\PHPLint\\Extension\\OutputFormat&#45;&gt;Overtrue\\PHPLint\\Event\\AfterCheckingInterface -->
<g id="edge2" class="edge">
<title>Overtrue\\PHPLint\\Extension\\OutputFormat&#45;&gt;Overtrue\\PHPLint\\Event\\AfterCheckingInterface</title>
<path fill="none" stroke="black" stroke-dasharray="5,2" d="M679.23,-538.92C684.02,-534.87 688.61,-530.57 693,-526 735.91,-481.28 668.92,-431.56 713,-388 716.58,-384.46 720.3,-381.1 724.13,-377.91"/>
<polygon fill="none" stroke="black" points="726.46,-380.54 732.17,-371.61 722.14,-375.03 726.46,-380.54"/>
</g>
<!-- Overtrue\\PHPLint\\Extension\\ProgressBar -->
<g id="node2" class="node">
<title>Overtrue\\PHPLint\\Extension\\ProgressBar</title>
<polygon fill="#fefece" stroke="transparent" points="685,-517 16,-517 16,-349 685,-349 685,-517"/>
<polygon fill="#eeeeee" stroke="transparent" points="24.5,-479 24.5,-513 677.5,-513 677.5,-479 24.5,-479"/>
<polygon fill="none" stroke="black" points="24.5,-479 24.5,-513 677.5,-513 677.5,-479 24.5,-479"/>
<text text-anchor="start" x="301.5" y="-485.8" font-family="Times,serif" font-weight="bold" font-size="14.00">ProgressBar</text>
<polygon fill="none" stroke="black" points="24.5,-473 24.5,-479 677.5,-479 677.5,-473 24.5,-473"/>
<polygon fill="none" stroke="black" points="24.5,-353 24.5,-473 677.5,-473 677.5,-353 24.5,-353"/>
<text text-anchor="start" x="29.5" y="-456.8" font-family="Times,serif" font-size="14.00">+ «static» getSubscribedEvents() : array</text>
<text text-anchor="start" x="29.5" y="-437.8" font-family="Times,serif" font-size="14.00">+ initProgress(event : Symfony\Component\Console\Event\ConsoleCommandEvent) : void</text>
<text text-anchor="start" x="29.5" y="-418.8" font-family="Times,serif" font-size="14.00">+ beforeChecking(event : Overtrue\PHPLint\Event\BeforeCheckingEvent) : void</text>
<text text-anchor="start" x="29.5" y="-399.8" font-family="Times,serif" font-size="14.00">+ afterChecking(event : Overtrue\PHPLint\Event\AfterCheckingEvent) : void</text>
<text text-anchor="start" x="29.5" y="-380.8" font-family="Times,serif" font-size="14.00">+ beforeLintFile(event : Overtrue\PHPLint\Event\BeforeLintFileEvent) : void</text>
<text text-anchor="start" x="29.5" y="-361.8" font-family="Times,serif" font-size="14.00">+ afterLintFile(event : Overtrue\PHPLint\Event\AfterLintFileEvent) : void</text>
</g>
<!-- Overtrue\\PHPLint\\Extension\\ProgressBar&#45;&gt;Symfony\\Component\\EventDispatcher\\EventSubscriberInterface -->
<g id="edge3" class="edge">
<title>Overtrue\\PHPLint\\Extension\\ProgressBar&#45;&gt;Symfony\\Component\\EventDispatcher\\EventSubscriberInterface</title>
<path fill="none" stroke="black" stroke-dasharray="5,2" d="M685.23,-500.18C694.58,-501.83 703.85,-503.44 713,-505 765.68,-513.97 823.06,-522.57 875.68,-529.99"/>
<polygon fill="none" stroke="black" points="875.4,-533.48 885.79,-531.41 876.37,-526.55 875.4,-533.48"/>
</g>
<!-- Overtrue\\PHPLint\\Extension\\ProgressBar&#45;&gt;Overtrue\\PHPLint\\Event\\AfterCheckingInterface -->
<g id="edge5" class="edge">
<title>Overtrue\\PHPLint\\Extension\\ProgressBar&#45;&gt;Overtrue\\PHPLint\\Event\\AfterCheckingInterface</title>
<path fill="none" stroke="black" stroke-dasharray="5,2" d="M685.05,-390.1C711.72,-386.67 738.55,-383.22 764.92,-379.83"/>
<polygon fill="none" stroke="black" points="765.53,-383.28 775,-378.53 764.64,-376.33 765.53,-383.28"/>
</g>
<!-- Overtrue\\PHPLint\\Event\\BeforeCheckingInterface -->
<g id="node7" class="node">
<title>Overtrue\\PHPLint\\Event\\BeforeCheckingInterface</title>
<polygon fill="#fefece" stroke="transparent" points="1399,-196.5 721,-196.5 721,-123.5 1399,-123.5 1399,-196.5"/>
<polygon fill="#eeeeee" stroke="transparent" points="729,-158 729,-192 1391,-192 1391,-158 729,-158"/>
<polygon fill="none" stroke="black" points="729,-158 729,-192 1391,-192 1391,-158 729,-158"/>
<text text-anchor="start" x="1015" y="-178.8" font-family="Times,serif" font-weight="bold" font-size="14.00">«interface»</text>
<text text-anchor="start" x="960" y="-164.8" font-family="Times,serif" font-weight="bold" font-size="14.00">BeforeCheckingInterface</text>
<polygon fill="none" stroke="black" points="729,-152 729,-158 1391,-158 1391,-152 729,-152"/>
<polygon fill="none" stroke="black" points="729,-127 729,-152 1391,-152 1391,-127 729,-127"/>
<text text-anchor="start" x="734" y="-135.8" font-family="Times,serif" font-size="14.00">+ «abstract» beforeChecking(event : Overtrue\PHPLint\Event\BeforeCheckingEvent) : void</text>
</g>
<!-- Overtrue\\PHPLint\\Extension\\ProgressBar&#45;&gt;Overtrue\\PHPLint\\Event\\BeforeCheckingInterface -->
<g id="edge4" class="edge">
<title>Overtrue\\PHPLint\\Extension\\ProgressBar&#45;&gt;Overtrue\\PHPLint\\Event\\BeforeCheckingInterface</title>
<path fill="none" stroke="black" stroke-dasharray="5,2" d="M685.11,-349.35C687.82,-346.65 690.45,-343.87 693,-341 733.33,-295.69 669.79,-248.57 713,-206 713.94,-205.07 714.89,-204.16 715.85,-203.26"/>
<polygon fill="none" stroke="black" points="718.22,-205.83 723.37,-196.58 713.57,-200.6 718.22,-205.83"/>
</g>
<!-- Overtrue\\PHPLint\\Event\\BeforeLintFileInterface -->
<g id="node8" class="node">
<title>Overtrue\\PHPLint\\Event\\BeforeLintFileInterface</title>
<polygon fill="#fefece" stroke="transparent" points="1388.5,-469.5 731.5,-469.5 731.5,-396.5 1388.5,-396.5 1388.5,-469.5"/>
<polygon fill="#eeeeee" stroke="transparent" points="740,-431 740,-465 1381,-465 1381,-431 740,-431"/>
<polygon fill="none" stroke="black" points="740,-431 740,-465 1381,-465 1381,-431 740,-431"/>
<text text-anchor="start" x="1015.5" y="-451.8" font-family="Times,serif" font-weight="bold" font-size="14.00">«interface»</text>
<text text-anchor="start" x="967" y="-437.8" font-family="Times,serif" font-weight="bold" font-size="14.00">BeforeLintFileInterface</text>
<polygon fill="none" stroke="black" points="740,-425 740,-431 1381,-431 1381,-425 740,-425"/>
<polygon fill="none" stroke="black" points="740,-400 740,-425 1381,-425 1381,-400 740,-400"/>
<text text-anchor="start" x="745" y="-408.8" font-family="Times,serif" font-size="14.00">+ «abstract» beforeLintFile(event : Overtrue\PHPLint\Event\BeforeLintFileEvent) : void</text>
</g>
<!-- Overtrue\\PHPLint\\Extension\\ProgressBar&#45;&gt;Overtrue\\PHPLint\\Event\\BeforeLintFileInterface -->
<g id="edge6" class="edge">
<title>Overtrue\\PHPLint\\Extension\\ProgressBar&#45;&gt;Overtrue\\PHPLint\\Event\\BeforeLintFileInterface</title>
<path fill="none" stroke="black" stroke-dasharray="5,2" d="M685.05,-433C697.08,-433 709.14,-433 721.18,-433"/>
<polygon fill="none" stroke="black" points="721.28,-436.5 731.28,-433 721.28,-429.5 721.28,-436.5"/>
</g>
<!-- Overtrue\\PHPLint\\Event\\AfterLintFileInterface -->
<g id="node9" class="node">
<title>Overtrue\\PHPLint\\Event\\AfterLintFileInterface</title>
<polygon fill="#fefece" stroke="transparent" points="1377,-287.5 743,-287.5 743,-214.5 1377,-214.5 1377,-287.5"/>
<polygon fill="#eeeeee" stroke="transparent" points="751,-249 751,-283 1369,-283 1369,-249 751,-249"/>
<polygon fill="none" stroke="black" points="751,-249 751,-283 1369,-283 1369,-249 751,-249"/>
<text text-anchor="start" x="1015" y="-269.8" font-family="Times,serif" font-weight="bold" font-size="14.00">«interface»</text>
<text text-anchor="start" x="972.5" y="-255.8" font-family="Times,serif" font-weight="bold" font-size="14.00">AfterLintFileInterface</text>
<polygon fill="none" stroke="black" points="751,-243 751,-249 1369,-249 1369,-243 751,-243"/>
<polygon fill="none" stroke="black" points="751,-218 751,-243 1369,-243 1369,-218 751,-218"/>
<text text-anchor="start" x="756" y="-226.8" font-family="Times,serif" font-size="14.00">+ «abstract» afterLintFile(event : Overtrue\PHPLint\Event\AfterLintFileEvent) : void</text>
</g>
<!-- Overtrue\\PHPLint\\Extension\\ProgressBar&#45;&gt;Overtrue\\PHPLint\\Event\\AfterLintFileInterface -->
<g id="edge7" class="edge">
<title>Overtrue\\PHPLint\\Extension\\ProgressBar&#45;&gt;Overtrue\\PHPLint\\Event\\AfterLintFileInterface</title>
<path fill="none" stroke="black" stroke-dasharray="5,2" d="M683.31,-348.81C686.61,-346.29 689.84,-343.68 693,-341 709.38,-327.1 695.75,-309.8 713,-297 719.59,-292.11 726.45,-287.62 733.53,-283.48"/>
<polygon fill="none" stroke="black" points="735.57,-286.35 742.61,-278.43 732.17,-280.23 735.57,-286.35"/>
</g>
<!-- Overtrue\\PHPLint\\Extension\\ProgressIndicator -->
<g id="node3" class="node">
<title>Overtrue\\PHPLint\\Extension\\ProgressIndicator</title>
<polygon fill="#fefece" stroke="transparent" points="685,-331.5 16,-331.5 16,-182.5 685,-182.5 685,-331.5"/>
<polygon fill="#eeeeee" stroke="transparent" points="24.5,-293 24.5,-327 677.5,-327 677.5,-293 24.5,-293"/>
<polygon fill="none" stroke="black" points="24.5,-293 24.5,-327 677.5,-327 677.5,-293 24.5,-293"/>
<text text-anchor="start" x="279.5" y="-299.8" font-family="Times,serif" font-weight="bold" font-size="14.00">ProgressIndicator</text>
<polygon fill="none" stroke="black" points="24.5,-287 24.5,-293 677.5,-293 677.5,-287 24.5,-287"/>
<polygon fill="none" stroke="black" points="24.5,-186 24.5,-287 677.5,-287 677.5,-186 24.5,-186"/>
<text text-anchor="start" x="29.5" y="-270.8" font-family="Times,serif" font-size="14.00">+ «static» getSubscribedEvents() : array</text>
<text text-anchor="start" x="29.5" y="-251.8" font-family="Times,serif" font-size="14.00">+ initProgress(event : Symfony\Component\Console\Event\ConsoleCommandEvent) : void</text>
<text text-anchor="start" x="29.5" y="-232.8" font-family="Times,serif" font-size="14.00">+ beforeChecking(event : Overtrue\PHPLint\Event\BeforeCheckingEvent) : void</text>
<text text-anchor="start" x="29.5" y="-213.8" font-family="Times,serif" font-size="14.00">+ afterChecking(event : Overtrue\PHPLint\Event\AfterCheckingEvent) : void</text>
<text text-anchor="start" x="29.5" y="-194.8" font-family="Times,serif" font-size="14.00">+ afterLintFile(event : Overtrue\PHPLint\Event\AfterLintFileEvent) : void</text>
</g>
<!-- Overtrue\\PHPLint\\Extension\\ProgressIndicator&#45;&gt;Symfony\\Component\\EventDispatcher\\EventSubscriberInterface -->
<g id="edge8" class="edge">
<title>Overtrue\\PHPLint\\Extension\\ProgressIndicator&#45;&gt;Symfony\\Component\\EventDispatcher\\EventSubscriberInterface</title>
<path fill="none" stroke="black" stroke-dasharray="5,2" d="M685.17,-331.71C687.85,-334.39 690.47,-337.15 693,-340 742.07,-395.22 661.29,-452.24 713,-505 755.05,-547.9 816.34,-564.95 875.69,-569.72"/>
<polygon fill="none" stroke="black" points="875.75,-573.23 885.97,-570.43 876.23,-566.25 875.75,-573.23"/>
</g>
<!-- Overtrue\\PHPLint\\Extension\\ProgressIndicator&#45;&gt;Overtrue\\PHPLint\\Event\\AfterCheckingInterface -->
<g id="edge10" class="edge">
<title>Overtrue\\PHPLint\\Extension\\ProgressIndicator&#45;&gt;Overtrue\\PHPLint\\Event\\AfterCheckingInterface</title>
<path fill="none" stroke="black" stroke-dasharray="5,2" d="M685.05,-297.07C705.04,-299.47 725.11,-301.89 745.02,-304.28"/>
<polygon fill="none" stroke="black" points="744.75,-307.77 755.09,-305.49 745.58,-300.82 744.75,-307.77"/>
</g>
<!-- Overtrue\\PHPLint\\Extension\\ProgressIndicator&#45;&gt;Overtrue\\PHPLint\\Event\\BeforeCheckingInterface -->
<g id="edge9" class="edge">
<title>Overtrue\\PHPLint\\Extension\\ProgressIndicator&#45;&gt;Overtrue\\PHPLint\\Event\\BeforeCheckingInterface</title>
<path fill="none" stroke="black" stroke-dasharray="5,2" d="M685.34,-209.8C694.66,-208.52 703.89,-207.25 713,-206 732.48,-203.33 752.57,-200.6 772.82,-197.87"/>
<polygon fill="none" stroke="black" points="773.33,-201.33 782.77,-196.52 772.39,-194.39 773.33,-201.33"/>
</g>
<!-- Overtrue\\PHPLint\\Extension\\ProgressIndicator&#45;&gt;Overtrue\\PHPLint\\Event\\AfterLintFileInterface -->
<g id="edge11" class="edge">
<title>Overtrue\\PHPLint\\Extension\\ProgressIndicator&#45;&gt;Overtrue\\PHPLint\\Event\\AfterLintFileInterface</title>
<path fill="none" stroke="black" stroke-dasharray="5,2" d="M685.05,-254.17C700.84,-254.04 716.68,-253.9 732.45,-253.77"/>
<polygon fill="none" stroke="black" points="732.83,-257.27 742.8,-253.68 732.78,-250.27 732.83,-257.27"/>
</g>
<!-- Overtrue\\PHPLint\\Extension\\ProgressPrinter -->
<g id="node4" class="node">
<title>Overtrue\\PHPLint\\Extension\\ProgressPrinter</title>
<polygon fill="#fefece" stroke="transparent" points="685,-164.5 16,-164.5 16,-15.5 685,-15.5 685,-164.5"/>
<polygon fill="#eeeeee" stroke="transparent" points="24.5,-126 24.5,-160 677.5,-160 677.5,-126 24.5,-126"/>
<polygon fill="none" stroke="black" points="24.5,-126 24.5,-160 677.5,-160 677.5,-126 24.5,-126"/>
<text text-anchor="start" x="287.5" y="-132.8" font-family="Times,serif" font-weight="bold" font-size="14.00">ProgressPrinter</text>
<polygon fill="none" stroke="black" points="24.5,-120 24.5,-126 677.5,-126 677.5,-120 24.5,-120"/>
<polygon fill="none" stroke="black" points="24.5,-19 24.5,-120 677.5,-120 677.5,-19 24.5,-19"/>
<text text-anchor="start" x="29.5" y="-103.8" font-family="Times,serif" font-size="14.00">+ «static» getSubscribedEvents() : array</text>
<text text-anchor="start" x="29.5" y="-84.8" font-family="Times,serif" font-size="14.00">+ initProgress(event : Symfony\Component\Console\Event\ConsoleCommandEvent) : void</text>
<text text-anchor="start" x="29.5" y="-65.8" font-family="Times,serif" font-size="14.00">+ beforeChecking(event : Overtrue\PHPLint\Event\BeforeCheckingEvent) : void</text>
<text text-anchor="start" x="29.5" y="-46.8" font-family="Times,serif" font-size="14.00">+ afterChecking(event : Overtrue\PHPLint\Event\AfterCheckingEvent) : void</text>
<text text-anchor="start" x="29.5" y="-27.8" font-family="Times,serif" font-size="14.00">+ afterLintFile(event : Overtrue\PHPLint\Event\AfterLintFileEvent) : void</text>
</g>
<!-- Overtrue\\PHPLint\\Extension\\ProgressPrinter&#45;&gt;Symfony\\Component\\EventDispatcher\\EventSubscriberInterface -->
<g id="edge12" class="edge">
<title>Overtrue\\PHPLint\\Extension\\ProgressPrinter&#45;&gt;Symfony\\Component\\EventDispatcher\\EventSubscriberInterface</title>
<path fill="none" stroke="black" stroke-dasharray="5,2" d="M684.79,-164.83C687.62,-167.78 690.36,-170.83 693,-174 740.19,-230.6 663.03,-450.84 713,-505 754.12,-549.56 815.86,-566.8 875.86,-571.25"/>
<polygon fill="none" stroke="black" points="875.66,-574.75 885.86,-571.88 876.1,-567.76 875.66,-574.75"/>
</g>
<!-- Overtrue\\PHPLint\\Extension\\ProgressPrinter&#45;&gt;Overtrue\\PHPLint\\Event\\AfterCheckingInterface -->
<g id="edge14" class="edge">
<title>Overtrue\\PHPLint\\Extension\\ProgressPrinter&#45;&gt;Overtrue\\PHPLint\\Event\\AfterCheckingInterface</title>
<path fill="none" stroke="black" stroke-dasharray="5,2" d="M683.69,-164.59C686.89,-167.61 690,-170.75 693,-174 730.57,-214.7 673.22,-258.47 713,-297 716.62,-300.5 720.36,-303.83 724.23,-306.98"/>
<polygon fill="none" stroke="black" points="722.26,-309.88 732.32,-313.21 726.53,-304.33 722.26,-309.88"/>
</g>
<!-- Overtrue\\PHPLint\\Extension\\ProgressPrinter&#45;&gt;Overtrue\\PHPLint\\Event\\BeforeCheckingInterface -->
<g id="edge13" class="edge">
<title>Overtrue\\PHPLint\\Extension\\ProgressPrinter&#45;&gt;Overtrue\\PHPLint\\Event\\BeforeCheckingInterface</title>
<path fill="none" stroke="black" stroke-dasharray="5,2" d="M685.05,-123C693.61,-123.85 702.18,-124.7 710.75,-125.54"/>
<polygon fill="none" stroke="black" points="710.51,-129.04 720.81,-126.54 711.2,-122.07 710.51,-129.04"/>
</g>
<!-- Overtrue\\PHPLint\\Extension\\ProgressPrinter&#45;&gt;Overtrue\\PHPLint\\Event\\AfterLintFileInterface -->
<g id="edge15" class="edge">
<title>Overtrue\\PHPLint\\Extension\\ProgressPrinter&#45;&gt;Overtrue\\PHPLint\\Event\\AfterLintFileInterface</title>
<path fill="none" stroke="black" stroke-dasharray="5,2" d="M679.33,-164.7C683.99,-167.68 688.55,-170.78 693,-174 706.58,-183.84 698.89,-196.94 713,-206 719.72,-210.31 726.67,-214.3 733.8,-217.99"/>
<polygon fill="none" stroke="black" points="732.41,-221.21 742.92,-222.5 735.51,-214.93 732.41,-221.21"/>
</g>
</g>
</svg>
