<?xml version="1.0" encoding="UTF-8" standalone="no"?>
<!DOCTYPE svg PUBLIC "-//W3C//DTD SVG 1.1//EN"
 "http://www.w3.org/Graphics/SVG/1.1/DTD/svg11.dtd">
<!-- Generated by graphviz version 2.42.4 (0)
 -->
<!-- Pages: 1 -->
<svg width="763pt" height="211pt"
 viewBox="0.00 0.00 763.00 211.00" xmlns="http://www.w3.org/2000/svg" xmlns:xlink="http://www.w3.org/1999/xlink">
<g id="graph0" class="graph" transform="scale(1 1) rotate(0) translate(4 207)">
<g id="clust1" class="cluster">
<title>cluster_0</title>
<polygon fill="#cdaa7d" stroke="black" points="8,-8 8,-195 747,-195 747,-8 8,-8"/>
<text text-anchor="middle" x="377.5" y="-179.8" font-family="Times,serif" font-size="14.00">Overtrue\PHPLint\Extension</text>
</g>
<!-- Overtrue\\PHPLint\\Extension\\ExtensionInterface -->
<g id="node1" class="node">
<title>Overtrue\\PHPLint\\Extension\\ExtensionInterface</title>
<polygon fill="#fefece" stroke="transparent" points="739,-164.5 16,-164.5 16,-15.5 739,-15.5 739,-164.5"/>
<polygon fill="#eeeeee" stroke="transparent" points="24.5,-126 24.5,-160 731.5,-160 731.5,-126 24.5,-126"/>
<polygon fill="none" stroke="black" points="24.5,-126 24.5,-160 731.5,-160 731.5,-126 24.5,-126"/>
<text text-anchor="start" x="333" y="-146.8" font-family="Times,serif" font-weight="bold" font-size="14.00">«interface»</text>
<text text-anchor="start" x="302.5" y="-132.8" font-family="Times,serif" font-weight="bold" font-size="14.00">ExtensionInterface</text>
<polygon fill="none" stroke="black" points="24.5,-120 24.5,-126 731.5,-126 731.5,-120 24.5,-120"/>
<polygon fill="none" stroke="black" points="24.5,-19 24.5,-120 731.5,-120 731.5,-19 24.5,-19"/>
<text text-anchor="start" x="29.5" y="-103.8" font-family="Times,serif" font-size="14.00">+ «abstract» getName() : string</text>
<text text-anchor="start" x="29.5" y="-84.8" font-family="Times,serif" font-size="14.00">+ «abstract» «static» getCommands() : array</text>
<text text-anchor="start" x="29.5" y="-65.8" font-family="Times,serif" font-size="14.00">+ «abstract» «static» getDefinition() : Symfony\Component\Console\Input\InputDefinition</text>
<text text-anchor="start" x="29.5" y="-46.8" font-family="Times,serif" font-size="14.00">+ «abstract» initialize(event : Symfony\Component\Console\Event\ConsoleCommandEvent) : void</text>
<text text-anchor="start" x="29.5" y="-27.8" font-family="Times,serif" font-size="14.00">+ «abstract» finish(event : Overtrue\PHPLint\Event\AfterCheckingEvent) : void</text>
</g>
</g>
</svg>
