<?xml version="1.0" encoding="UTF-8" standalone="no"?>
<!DOCTYPE svg PUBLIC "-//W3C//DTD SVG 1.1//EN"
 "http://www.w3.org/Graphics/SVG/1.1/DTD/svg11.dtd">
<!-- Generated by graphviz version 2.42.4 (0)
 -->
<!-- Pages: 1 -->
<svg width="1465pt" height="174pt"
 viewBox="0.00 0.00 1465.00 174.00" xmlns="http://www.w3.org/2000/svg" xmlns:xlink="http://www.w3.org/1999/xlink">
<g id="graph0" class="graph" transform="scale(1 1) rotate(0) translate(4 170)">
<g id="clust1" class="cluster">
<title>cluster_0</title>
<polygon fill="#cdaa7d" stroke="black" points="8,-8 8,-158 1449,-158 1449,-8 8,-8"/>
<text text-anchor="middle" x="728.5" y="-142.8" font-family="Times,serif" font-size="14.00">Overtrue\PHPLint\Extension</text>
</g>
<!-- Overtrue\\PHPLint\\Extension\\ExtensionInterface -->
<g id="node1" class="node">
<title>Overtrue\\PHPLint\\Extension\\ExtensionInterface</title>
<polygon fill="#fefece" stroke="transparent" points="682,-126.5 16,-126.5 16,-15.5 682,-15.5 682,-126.5"/>
<polygon fill="#eeeeee" stroke="transparent" points="24,-88 24,-122 674,-122 674,-88 24,-88"/>
<polygon fill="none" stroke="black" points="24,-88 24,-122 674,-122 674,-88 24,-88"/>
<text text-anchor="start" x="304" y="-108.8" font-family="Times,serif" font-weight="bold" font-size="14.00">«interface»</text>
<text text-anchor="start" x="273.5" y="-94.8" font-family="Times,serif" font-weight="bold" font-size="14.00">ExtensionInterface</text>
<polygon fill="none" stroke="black" points="24,-82 24,-88 674,-88 674,-82 24,-82"/>
<polygon fill="none" stroke="black" points="24,-19 24,-82 674,-82 674,-19 24,-19"/>
<text text-anchor="start" x="29" y="-65.8" font-family="Times,serif" font-size="14.00">+ «abstract» getName() : string</text>
<text text-anchor="start" x="29" y="-46.8" font-family="Times,serif" font-size="14.00">+ «abstract» «static» getCommands() : array</text>
<text text-anchor="start" x="29" y="-27.8" font-family="Times,serif" font-size="14.00">+ «abstract» «static» getDefinition() : Symfony\Component\Console\Input\InputDefinition</text>
</g>
<!-- Overtrue\\PHPLint\\Extension\\ExtensionEventInterface -->
<g id="node2" class="node">
<title>Overtrue\\PHPLint\\Extension\\ExtensionEventInterface</title>
<polygon fill="#fefece" stroke="transparent" points="1441,-117 718,-117 718,-25 1441,-25 1441,-117"/>
<polygon fill="#eeeeee" stroke="transparent" points="726.5,-79 726.5,-113 1433.5,-113 1433.5,-79 726.5,-79"/>
<polygon fill="none" stroke="black" points="726.5,-79 726.5,-113 1433.5,-113 1433.5,-79 726.5,-79"/>
<text text-anchor="start" x="1035" y="-99.8" font-family="Times,serif" font-weight="bold" font-size="14.00">«interface»</text>
<text text-anchor="start" x="982" y="-85.8" font-family="Times,serif" font-weight="bold" font-size="14.00">ExtensionEventInterface</text>
<polygon fill="none" stroke="black" points="726.5,-73 726.5,-79 1433.5,-79 1433.5,-73 726.5,-73"/>
<polygon fill="none" stroke="black" points="726.5,-29 726.5,-73 1433.5,-73 1433.5,-29 726.5,-29"/>
<text text-anchor="start" x="731.5" y="-56.8" font-family="Times,serif" font-size="14.00">+ «abstract» initialize(event : Symfony\Component\Console\Event\ConsoleCommandEvent) : void</text>
<text text-anchor="start" x="731.5" y="-37.8" font-family="Times,serif" font-size="14.00">+ «abstract» finish(event : Overtrue\PHPLint\Event\AfterCheckingEvent) : void</text>
</g>
<!-- Overtrue\\PHPLint\\Extension\\ExtensionInterface&#45;&gt;Overtrue\\PHPLint\\Extension\\ExtensionEventInterface -->
<g id="edge1" class="edge">
<title>Overtrue\\PHPLint\\Extension\\ExtensionInterface&#45;&gt;Overtrue\\PHPLint\\Extension\\ExtensionEventInterface</title>
<path fill="none" stroke="black" stroke-dasharray="5,2" d="M682.01,-71C690.57,-71 699.16,-71 707.76,-71"/>
<polygon fill="none" stroke="black" points="707.85,-74.5 717.85,-71 707.85,-67.5 707.85,-74.5"/>
</g>
</g>
</svg>
