<?xml version="1.0" encoding="UTF-8" standalone="no"?>
<!DOCTYPE svg PUBLIC "-//W3C//DTD SVG 1.1//EN"
 "http://www.w3.org/Graphics/SVG/1.1/DTD/svg11.dtd">
<!-- Generated by graphviz version 2.43.0 (0)
 -->
<!-- Title: %3 Pages: 1 -->
<svg width="564pt" height="174pt"
 viewBox="0.00 0.00 564.00 174.00" xmlns="http://www.w3.org/2000/svg" xmlns:xlink="http://www.w3.org/1999/xlink">
<g id="graph0" class="graph" transform="scale(1 1) rotate(0) translate(4 170)">
<title>%3</title>
<g id="clust1" class="cluster">
<title>cluster_0</title>
<polygon fill="#cdaa7d" stroke="black" points="8,-8 8,-158 548,-158 548,-8 8,-8"/>
<text text-anchor="middle" x="278" y="-142.8" font-family="Times,serif" font-size="14.00">Overtrue\PHPLint\Extension</text>
</g>
<!-- Overtrue\\PHPLint\\Extension\\ExtensionInterface -->
<g id="node1" class="node">
<title>Overtrue\\PHPLint\\Extension\\ExtensionInterface</title>
<polygon fill="#fefece" stroke="transparent" points="540,-126.5 16,-126.5 16,-15.5 540,-15.5 540,-126.5"/>
<polygon fill="#eeeeee" stroke="transparent" points="24,-88 24,-122 532,-122 532,-88 24,-88"/>
<polygon fill="none" stroke="black" points="24,-88 24,-122 532,-122 532,-88 24,-88"/>
<text text-anchor="start" x="245.5" y="-108.8" font-family="Times,serif" font-weight="bold" font-size="14.00">«interface»</text>
<text text-anchor="start" x="223" y="-94.8" font-family="Times,serif" font-weight="bold" font-size="14.00">ExtensionInterface</text>
<polygon fill="none" stroke="black" points="24,-82 24,-88 532,-88 532,-82 24,-82"/>
<polygon fill="none" stroke="black" points="24,-19 24,-82 532,-82 532,-19 24,-19"/>
<text text-anchor="start" x="29" y="-65.8" font-family="Times,serif" font-size="14.00">+ «abstract» getName() : string</text>
<text text-anchor="start" x="29" y="-46.8" font-family="Times,serif" font-size="14.00">+ «abstract» «static» getCommands() : array</text>
<text text-anchor="start" x="29" y="-27.8" font-family="Times,serif" font-size="14.00">+ «abstract» «static» getDefinition() : Symfony\Component\Console\Input\InputDefinition</text>
</g>
</g>
</svg>
