<?xml version="1.0" encoding="UTF-8" standalone="no"?>
<!DOCTYPE svg PUBLIC "-//W3C//DTD SVG 1.1//EN"
 "http://www.w3.org/Graphics/SVG/1.1/DTD/svg11.dtd">
<!-- Generated by graphviz version 2.40.1 (20161225.0304)
 -->
<!-- Title: %3 Pages: 1 -->
<svg width="2423pt" height="351pt"
 viewBox="0.00 0.00 2423.00 351.00" xmlns="http://www.w3.org/2000/svg" xmlns:xlink="http://www.w3.org/1999/xlink">
<g id="graph0" class="graph" transform="scale(1 1) rotate(0) translate(4 347)">
<title>%3</title>
<g id="clust1" class="cluster">
<title>cluster_0</title>
<polygon fill="#deb887" stroke="#000000" points="108,-128 108,-335 1732,-335 1732,-128 108,-128"/>
<text text-anchor="middle" x="920" y="-319.8" font-family="Times,serif" font-size="14.00" fill="#000000">Overtrue\PHPLint\Extension</text>
</g>
<g id="clust2" class="cluster">
<title>cluster_1</title>
<polygon fill="#b0c4de" stroke="#000000" points="8,-8 8,-120 290,-120 290,-8 8,-8"/>
<text text-anchor="middle" x="149" y="-104.8" font-family="Times,serif" font-size="14.00" fill="#000000">Symfony\Component\EventDispatcher</text>
</g>
<g id="clust3" class="cluster">
<title>cluster_2</title>
<polygon fill="#cdaa7d" stroke="#000000" points="298,-8 298,-120 2407,-120 2407,-8 298,-8"/>
<text text-anchor="middle" x="1352.5" y="-104.8" font-family="Times,serif" font-size="14.00" fill="#000000">Overtrue\PHPLint\Event</text>
</g>
<!-- Overtrue\\PHPLint\\Extension\\ProgressBar -->
<g id="node1" class="node">
<title>Overtrue\\PHPLint\\Extension\\ProgressBar</title>
<polygon fill="#fefece" stroke="transparent" points="1724,-304 1198,-304 1198,-136 1724,-136 1724,-304"/>
<polygon fill="#eeeeee" stroke="transparent" points="1206,-266 1206,-300 1716,-300 1716,-266 1206,-266"/>
<polygon fill="none" stroke="#000000" points="1206,-266 1206,-300 1716,-300 1716,-266 1206,-266"/>
<text text-anchor="start" x="1424.5" y="-272.8" font-family="Times,serif" font-weight="bold" font-size="14.00" fill="#000000">ProgressBar</text>
<polygon fill="none" stroke="#000000" points="1206,-260 1206,-266 1716,-266 1716,-260 1206,-260"/>
<polygon fill="none" stroke="#000000" points="1206,-140 1206,-260 1716,-260 1716,-140 1206,-140"/>
<text text-anchor="start" x="1211" y="-243.8" font-family="Times,serif" font-size="14.00" fill="#000000">+ «static» getSubscribedEvents() : array</text>
<text text-anchor="start" x="1211" y="-224.8" font-family="Times,serif" font-size="14.00" fill="#000000">+ initProgress(event : Symfony\Component\Console\Event\ConsoleCommandEvent) : void</text>
<text text-anchor="start" x="1211" y="-205.8" font-family="Times,serif" font-size="14.00" fill="#000000">+ beforeChecking(event : Overtrue\PHPLint\Event\BeforeCheckingEvent) : void</text>
<text text-anchor="start" x="1211" y="-186.8" font-family="Times,serif" font-size="14.00" fill="#000000">+ afterChecking(event : Overtrue\PHPLint\Event\AfterCheckingEvent) : void</text>
<text text-anchor="start" x="1211" y="-167.8" font-family="Times,serif" font-size="14.00" fill="#000000">+ beforeLintFile(event : Overtrue\PHPLint\Event\BeforeLintFileEvent) : void</text>
<text text-anchor="start" x="1211" y="-148.8" font-family="Times,serif" font-size="14.00" fill="#000000">+ afterLintFile(event : Overtrue\PHPLint\Event\AfterLintFileEvent) : void</text>
</g>
<!-- Symfony\\Component\\EventDispatcher\\EventSubscriberInterface -->
<g id="node4" class="node">
<title>Symfony\\Component\\EventDispatcher\\EventSubscriberInterface</title>
<polygon fill="#fefece" stroke="transparent" points="282,-89 16,-89 16,-16 282,-16 282,-89"/>
<polygon fill="#eeeeee" stroke="transparent" points="24,-50.5 24,-84.5 274,-84.5 274,-50.5 24,-50.5"/>
<polygon fill="none" stroke="#000000" points="24,-50.5 24,-84.5 274,-84.5 274,-50.5 24,-50.5"/>
<text text-anchor="start" x="116.5" y="-71.3" font-family="Times,serif" font-weight="bold" font-size="14.00" fill="#000000">«interface»</text>
<text text-anchor="start" x="74" y="-57.3" font-family="Times,serif" font-weight="bold" font-size="14.00" fill="#000000">EventSubscriberInterface</text>
<polygon fill="none" stroke="#000000" points="24,-44.5 24,-50.5 274,-50.5 274,-44.5 24,-44.5"/>
<polygon fill="none" stroke="#000000" points="24,-19.5 24,-44.5 274,-44.5 274,-19.5 24,-19.5"/>
<text text-anchor="start" x="29" y="-28.3" font-family="Times,serif" font-size="14.00" fill="#000000">+ «abstract» «static» getSubscribedEvents()</text>
</g>
<!-- Overtrue\\PHPLint\\Extension\\ProgressBar&#45;&gt;Symfony\\Component\\EventDispatcher\\EventSubscriberInterface -->
<g id="edge1" class="edge">
<title>Overtrue\\PHPLint\\Extension\\ProgressBar&#45;&gt;Symfony\\Component\\EventDispatcher\\EventSubscriberInterface</title>
<path fill="none" stroke="#000000" stroke-dasharray="5,2" d="M1228.1695,-135.9765C1215.0188,-132.8842 1201.9025,-130.1822 1189,-128 1139.9721,-119.7078 342.5005,-130.9634 294,-120 269.3623,-114.4307 243.9255,-104.2965 221.3685,-93.5447"/>
<polygon fill="none" stroke="#000000" points="222.7401,-90.3195 212.2185,-89.0758 219.668,-96.6094 222.7401,-90.3195"/>
</g>
<!-- Overtrue\\PHPLint\\Event\\BeforeCheckingInterface -->
<g id="node5" class="node">
<title>Overtrue\\PHPLint\\Event\\BeforeCheckingInterface</title>
<polygon fill="#fefece" stroke="transparent" points="1360.5,-89 833.5,-89 833.5,-16 1360.5,-16 1360.5,-89"/>
<polygon fill="#eeeeee" stroke="transparent" points="842,-50.5 842,-84.5 1353,-84.5 1353,-50.5 842,-50.5"/>
<polygon fill="none" stroke="#000000" points="842,-50.5 842,-84.5 1353,-84.5 1353,-50.5 842,-50.5"/>
<text text-anchor="start" x="1065" y="-71.3" font-family="Times,serif" font-weight="bold" font-size="14.00" fill="#000000">«interface»</text>
<text text-anchor="start" x="1024.5" y="-57.3" font-family="Times,serif" font-weight="bold" font-size="14.00" fill="#000000">BeforeCheckingInterface</text>
<polygon fill="none" stroke="#000000" points="842,-44.5 842,-50.5 1353,-50.5 1353,-44.5 842,-44.5"/>
<polygon fill="none" stroke="#000000" points="842,-19.5 842,-44.5 1353,-44.5 1353,-19.5 842,-19.5"/>
<text text-anchor="start" x="847" y="-28.3" font-family="Times,serif" font-size="14.00" fill="#000000">+ «abstract» beforeChecking(event : Overtrue\PHPLint\Event\BeforeCheckingEvent) : void</text>
</g>
<!-- Overtrue\\PHPLint\\Extension\\ProgressBar&#45;&gt;Overtrue\\PHPLint\\Event\\BeforeCheckingInterface -->
<g id="edge2" class="edge">
<title>Overtrue\\PHPLint\\Extension\\ProgressBar&#45;&gt;Overtrue\\PHPLint\\Event\\BeforeCheckingInterface</title>
<path fill="none" stroke="#000000" stroke-dasharray="5,2" d="M1278.2002,-135.882C1246.039,-121.0825 1213.911,-106.2983 1185.8336,-93.3781"/>
<polygon fill="none" stroke="#000000" points="1187.0203,-90.0714 1176.4728,-89.0706 1184.094,-96.4305 1187.0203,-90.0714"/>
</g>
<!-- Overtrue\\PHPLint\\Event\\AfterCheckingInterface -->
<g id="node6" class="node">
<title>Overtrue\\PHPLint\\Event\\AfterCheckingInterface</title>
<polygon fill="#fefece" stroke="transparent" points="815.5,-89 306.5,-89 306.5,-16 815.5,-16 815.5,-89"/>
<polygon fill="#eeeeee" stroke="transparent" points="315,-50.5 315,-84.5 808,-84.5 808,-50.5 315,-50.5"/>
<polygon fill="none" stroke="#000000" points="315,-50.5 315,-84.5 808,-84.5 808,-50.5 315,-50.5"/>
<text text-anchor="start" x="529" y="-71.3" font-family="Times,serif" font-weight="bold" font-size="14.00" fill="#000000">«interface»</text>
<text text-anchor="start" x="492" y="-57.3" font-family="Times,serif" font-weight="bold" font-size="14.00" fill="#000000">AfterCheckingInterface</text>
<polygon fill="none" stroke="#000000" points="315,-44.5 315,-50.5 808,-50.5 808,-44.5 315,-44.5"/>
<polygon fill="none" stroke="#000000" points="315,-19.5 315,-44.5 808,-44.5 808,-19.5 315,-19.5"/>
<text text-anchor="start" x="320" y="-28.3" font-family="Times,serif" font-size="14.00" fill="#000000">+ «abstract» afterChecking(event : Overtrue\PHPLint\Event\AfterCheckingEvent) : void</text>
</g>
<!-- Overtrue\\PHPLint\\Extension\\ProgressBar&#45;&gt;Overtrue\\PHPLint\\Event\\AfterCheckingInterface -->
<g id="edge3" class="edge">
<title>Overtrue\\PHPLint\\Extension\\ProgressBar&#45;&gt;Overtrue\\PHPLint\\Event\\AfterCheckingInterface</title>
<path fill="none" stroke="#000000" stroke-dasharray="5,2" d="M1227.0081,-135.911C1214.2441,-132.8773 1201.5197,-130.2015 1189,-128 1109.3142,-113.9877 905.1597,-130.9814 825,-120 780.3213,-113.8793 732.3114,-102.9577 689.646,-91.6592"/>
<polygon fill="none" stroke="#000000" points="690.3423,-88.2224 679.7771,-89.0142 688.5301,-94.9838 690.3423,-88.2224"/>
</g>
<!-- Overtrue\\PHPLint\\Event\\BeforeLintFileInterface -->
<g id="node7" class="node">
<title>Overtrue\\PHPLint\\Event\\BeforeLintFileInterface</title>
<polygon fill="#fefece" stroke="transparent" points="2399,-89 1889,-89 1889,-16 2399,-16 2399,-89"/>
<polygon fill="#eeeeee" stroke="transparent" points="1897,-50.5 1897,-84.5 2391,-84.5 2391,-50.5 1897,-50.5"/>
<polygon fill="none" stroke="#000000" points="1897,-50.5 1897,-84.5 2391,-84.5 2391,-50.5 1897,-50.5"/>
<text text-anchor="start" x="2111.5" y="-71.3" font-family="Times,serif" font-weight="bold" font-size="14.00" fill="#000000">«interface»</text>
<text text-anchor="start" x="2075" y="-57.3" font-family="Times,serif" font-weight="bold" font-size="14.00" fill="#000000">BeforeLintFileInterface</text>
<polygon fill="none" stroke="#000000" points="1897,-44.5 1897,-50.5 2391,-50.5 2391,-44.5 1897,-44.5"/>
<polygon fill="none" stroke="#000000" points="1897,-19.5 1897,-44.5 2391,-44.5 2391,-19.5 1897,-19.5"/>
<text text-anchor="start" x="1902" y="-28.3" font-family="Times,serif" font-size="14.00" fill="#000000">+ «abstract» beforeLintFile(event : Overtrue\PHPLint\Event\BeforeLintFileEvent) : void</text>
</g>
<!-- Overtrue\\PHPLint\\Extension\\ProgressBar&#45;&gt;Overtrue\\PHPLint\\Event\\BeforeLintFileInterface -->
<g id="edge4" class="edge">
<title>Overtrue\\PHPLint\\Extension\\ProgressBar&#45;&gt;Overtrue\\PHPLint\\Event\\BeforeLintFileInterface</title>
<path fill="none" stroke="#000000" stroke-dasharray="5,2" d="M1724.0623,-157.8986C1775.7932,-145.494 1829.6327,-132.4486 1880,-120 1916.6779,-110.9349 1956.1645,-100.9565 1993.1377,-91.5169"/>
<polygon fill="none" stroke="#000000" points="1994.1637,-94.8672 2002.9857,-89.0002 1992.4304,-88.0852 1994.1637,-94.8672"/>
</g>
<!-- Overtrue\\PHPLint\\Event\\AfterLintFileInterface -->
<g id="node8" class="node">
<title>Overtrue\\PHPLint\\Event\\AfterLintFileInterface</title>
<polygon fill="#fefece" stroke="transparent" points="1871,-89 1379,-89 1379,-16 1871,-16 1871,-89"/>
<polygon fill="#eeeeee" stroke="transparent" points="1387,-50.5 1387,-84.5 1863,-84.5 1863,-50.5 1387,-50.5"/>
<polygon fill="none" stroke="#000000" points="1387,-50.5 1387,-84.5 1863,-84.5 1863,-50.5 1387,-50.5"/>
<text text-anchor="start" x="1592.5" y="-71.3" font-family="Times,serif" font-weight="bold" font-size="14.00" fill="#000000">«interface»</text>
<text text-anchor="start" x="1560" y="-57.3" font-family="Times,serif" font-weight="bold" font-size="14.00" fill="#000000">AfterLintFileInterface</text>
<polygon fill="none" stroke="#000000" points="1387,-44.5 1387,-50.5 1863,-50.5 1863,-44.5 1387,-44.5"/>
<polygon fill="none" stroke="#000000" points="1387,-19.5 1387,-44.5 1863,-44.5 1863,-19.5 1387,-19.5"/>
<text text-anchor="start" x="1392" y="-28.3" font-family="Times,serif" font-size="14.00" fill="#000000">+ «abstract» afterLintFile(event : Overtrue\PHPLint\Event\AfterLintFileEvent) : void</text>
</g>
<!-- Overtrue\\PHPLint\\Extension\\ProgressBar&#45;&gt;Overtrue\\PHPLint\\Event\\AfterLintFileInterface -->
<g id="edge5" class="edge">
<title>Overtrue\\PHPLint\\Extension\\ProgressBar&#45;&gt;Overtrue\\PHPLint\\Event\\AfterLintFileInterface</title>
<path fill="none" stroke="#000000" stroke-dasharray="5,2" d="M1543.4805,-135.7593C1556.8235,-122.1315 1570.1496,-108.521 1582.0455,-96.3713"/>
<polygon fill="none" stroke="#000000" points="1584.7597,-98.602 1589.2549,-89.008 1579.7579,-93.7047 1584.7597,-98.602"/>
</g>
<!-- Overtrue\\PHPLint\\Extension\\ProgressPrinter -->
<g id="node2" class="node">
<title>Overtrue\\PHPLint\\Extension\\ProgressPrinter</title>
<polygon fill="#fefece" stroke="transparent" points="1180,-285 654,-285 654,-155 1180,-155 1180,-285"/>
<polygon fill="#eeeeee" stroke="transparent" points="662,-247 662,-281 1172,-281 1172,-247 662,-247"/>
<polygon fill="none" stroke="#000000" points="662,-247 662,-281 1172,-281 1172,-247 662,-247"/>
<text text-anchor="start" x="870.5" y="-253.8" font-family="Times,serif" font-weight="bold" font-size="14.00" fill="#000000">ProgressPrinter</text>
<polygon fill="none" stroke="#000000" points="662,-241 662,-247 1172,-247 1172,-241 662,-241"/>
<polygon fill="none" stroke="#000000" points="662,-159 662,-241 1172,-241 1172,-159 662,-159"/>
<text text-anchor="start" x="667" y="-224.8" font-family="Times,serif" font-size="14.00" fill="#000000">+ «static» getSubscribedEvents() : array</text>
<text text-anchor="start" x="667" y="-205.8" font-family="Times,serif" font-size="14.00" fill="#000000">+ initProgress(event : Symfony\Component\Console\Event\ConsoleCommandEvent) : void</text>
<text text-anchor="start" x="667" y="-186.8" font-family="Times,serif" font-size="14.00" fill="#000000">+ beforeChecking(event : Overtrue\PHPLint\Event\BeforeCheckingEvent) : void</text>
<text text-anchor="start" x="667" y="-167.8" font-family="Times,serif" font-size="14.00" fill="#000000">+ afterLintFile(event : Overtrue\PHPLint\Event\AfterLintFileEvent) : void</text>
</g>
<!-- Overtrue\\PHPLint\\Extension\\ProgressPrinter&#45;&gt;Symfony\\Component\\EventDispatcher\\EventSubscriberInterface -->
<g id="edge6" class="edge">
<title>Overtrue\\PHPLint\\Extension\\ProgressPrinter&#45;&gt;Symfony\\Component\\EventDispatcher\\EventSubscriberInterface</title>
<path fill="none" stroke="#000000" stroke-dasharray="5,2" d="M750.7704,-154.9302C716.3005,-143.9565 679.8564,-134.1439 645,-128 568.1642,-114.4566 369.9793,-137.7288 294,-120 269.5203,-114.288 244.2217,-104.175 221.7444,-93.4878"/>
<polygon fill="none" stroke="#000000" points="223.1472,-90.278 212.6241,-89.0478 220.0832,-96.5719 223.1472,-90.278"/>
</g>
<!-- Overtrue\\PHPLint\\Extension\\ProgressPrinter&#45;&gt;Overtrue\\PHPLint\\Event\\BeforeCheckingInterface -->
<g id="edge7" class="edge">
<title>Overtrue\\PHPLint\\Extension\\ProgressPrinter&#45;&gt;Overtrue\\PHPLint\\Event\\BeforeCheckingInterface</title>
<path fill="none" stroke="#000000" stroke-dasharray="5,2" d="M987.1081,-154.7605C1008.2843,-135.0548 1031.0072,-113.91 1050.263,-95.9913"/>
<polygon fill="none" stroke="#000000" points="1052.7999,-98.4117 1057.7363,-89.0371 1048.0313,-93.2872 1052.7999,-98.4117"/>
</g>
<!-- Overtrue\\PHPLint\\Extension\\ProgressPrinter&#45;&gt;Overtrue\\PHPLint\\Event\\AfterLintFileInterface -->
<g id="edge8" class="edge">
<title>Overtrue\\PHPLint\\Extension\\ProgressPrinter&#45;&gt;Overtrue\\PHPLint\\Event\\AfterLintFileInterface</title>
<path fill="none" stroke="#000000" stroke-dasharray="5,2" d="M1085.1575,-154.9324C1119.079,-144.1443 1154.8238,-134.4015 1189,-128 1268.1465,-113.1752 1290.399,-132.1503 1370,-120 1412.4352,-113.5227 1457.9822,-102.7392 1498.6731,-91.6713"/>
<polygon fill="none" stroke="#000000" points="1499.6483,-95.0331 1508.3617,-89.006 1497.7916,-88.2838 1499.6483,-95.0331"/>
</g>
<!-- Overtrue\\PHPLint\\Extension\\OutputFormat -->
<g id="node3" class="node">
<title>Overtrue\\PHPLint\\Extension\\OutputFormat</title>
<polygon fill="#fefece" stroke="transparent" points="635.5,-285 116.5,-285 116.5,-155 635.5,-155 635.5,-285"/>
<polygon fill="#eeeeee" stroke="transparent" points="125,-247 125,-281 628,-281 628,-247 125,-247"/>
<polygon fill="none" stroke="#000000" points="125,-247 125,-281 628,-281 628,-247 125,-247"/>
<text text-anchor="start" x="332.5" y="-253.8" font-family="Times,serif" font-weight="bold" font-size="14.00" fill="#000000">OutputFormat</text>
<polygon fill="none" stroke="#000000" points="125,-241 125,-247 628,-247 628,-241 125,-241"/>
<polygon fill="none" stroke="#000000" points="125,-159 125,-241 628,-241 628,-159 125,-159"/>
<text text-anchor="start" x="130" y="-224.8" font-family="Times,serif" font-size="14.00" fill="#000000">+ __construct(outputOptions : array = [])</text>
<text text-anchor="start" x="130" y="-205.8" font-family="Times,serif" font-size="14.00" fill="#000000">+ «static» getSubscribedEvents() : array</text>
<text text-anchor="start" x="130" y="-186.8" font-family="Times,serif" font-size="14.00" fill="#000000">+ initFormat(event : Symfony\Component\Console\Event\ConsoleCommandEvent) : void</text>
<text text-anchor="start" x="130" y="-167.8" font-family="Times,serif" font-size="14.00" fill="#000000">+ afterChecking(event : Overtrue\PHPLint\Event\AfterCheckingEvent) : void</text>
</g>
<!-- Overtrue\\PHPLint\\Extension\\OutputFormat&#45;&gt;Symfony\\Component\\EventDispatcher\\EventSubscriberInterface -->
<g id="edge9" class="edge">
<title>Overtrue\\PHPLint\\Extension\\OutputFormat&#45;&gt;Symfony\\Component\\EventDispatcher\\EventSubscriberInterface</title>
<path fill="none" stroke="#000000" stroke-dasharray="5,2" d="M287.5859,-154.7605C260.4076,-134.7061 231.2093,-113.161 206.6553,-95.043"/>
<polygon fill="none" stroke="#000000" points="208.6406,-92.1582 198.5159,-89.0371 204.4844,-97.7908 208.6406,-92.1582"/>
</g>
<!-- Overtrue\\PHPLint\\Extension\\OutputFormat&#45;&gt;Overtrue\\PHPLint\\Event\\AfterCheckingInterface -->
<g id="edge10" class="edge">
<title>Overtrue\\PHPLint\\Extension\\OutputFormat&#45;&gt;Overtrue\\PHPLint\\Event\\AfterCheckingInterface</title>
<path fill="none" stroke="#000000" stroke-dasharray="5,2" d="M448.0556,-154.7605C469.9163,-134.9677 493.3807,-113.7228 513.2273,-95.7537"/>
<polygon fill="none" stroke="#000000" points="515.5817,-98.3434 520.6456,-89.0371 510.8835,-93.1543 515.5817,-98.3434"/>
</g>
</g>
</svg>
