<?xml version="1.0" encoding="UTF-8" standalone="no"?>
<!DOCTYPE svg PUBLIC "-//W3C//DTD SVG 1.1//EN"
 "http://www.w3.org/Graphics/SVG/1.1/DTD/svg11.dtd">
<!-- Generated by graphviz version 2.43.0 (0)
 -->
<!-- Title: %3 Pages: 1 -->
<svg width="592pt" height="294pt"
 viewBox="0.00 0.00 592.00 294.00" xmlns="http://www.w3.org/2000/svg" xmlns:xlink="http://www.w3.org/1999/xlink">
<g id="graph0" class="graph" transform="scale(1 1) rotate(0) translate(4 290)">
<title>%3</title>
<g id="clust1" class="cluster">
<title>cluster_0</title>
<polygon fill="transparent" stroke="black" points="8,-128 8,-278 576,-278 576,-128 8,-128"/>
<text text-anchor="middle" x="292" y="-262.8" font-family="Times,serif" font-size="14.00">Overtrue\PHPLint</text>
</g>
<g id="clust2" class="cluster">
<title>cluster_1</title>
<polygon fill="transparent" stroke="black" points="171,-8 171,-120 413,-120 413,-8 171,-8"/>
<text text-anchor="middle" x="292" y="-104.8" font-family="Times,serif" font-size="14.00">0</text>
</g>
<!-- Overtrue\\PHPLint\\Finder -->
<g id="node1" class="node">
<title>Overtrue\\PHPLint\\Finder</title>
<polygon fill="#fefece" stroke="transparent" points="567.5,-247 16.5,-247 16.5,-136 567.5,-136 567.5,-247"/>
<polygon fill="#eeeeee" stroke="transparent" points="25,-208.5 25,-242.5 560,-242.5 560,-208.5 25,-208.5"/>
<polygon fill="none" stroke="black" points="25,-208.5 25,-242.5 560,-242.5 560,-208.5 25,-208.5"/>
<text text-anchor="start" x="266.5" y="-215.3" font-family="Times,serif" font-weight="bold" font-size="14.00">Finder</text>
<polygon fill="none" stroke="black" points="25,-202.5 25,-208.5 560,-208.5 560,-202.5 25,-202.5"/>
<polygon fill="none" stroke="black" points="25,-139.5 25,-202.5 560,-202.5 560,-139.5 25,-139.5"/>
<text text-anchor="start" x="30" y="-186.3" font-family="Times,serif" font-size="14.00">+ __construct(configResolver : Overtrue\PHPLint\Configuration\Resolver)</text>
<text text-anchor="start" x="30" y="-167.3" font-family="Times,serif" font-size="14.00">+ jsonSerialize() : array</text>
<text text-anchor="start" x="30" y="-148.3" font-family="Times,serif" font-size="14.00">+ getFiles() : Symfony\Component\Finder\Finder</text>
</g>
<!-- JsonSerializable -->
<g id="node2" class="node">
<title>JsonSerializable</title>
<polygon fill="#fefece" stroke="transparent" points="404.5,-89 179.5,-89 179.5,-16 404.5,-16 404.5,-89"/>
<polygon fill="#eeeeee" stroke="transparent" points="188,-50.5 188,-84.5 397,-84.5 397,-50.5 188,-50.5"/>
<polygon fill="none" stroke="black" points="188,-50.5 188,-84.5 397,-84.5 397,-50.5 188,-50.5"/>
<text text-anchor="start" x="247.5" y="-71.3" font-family="Times,serif" font-weight="bold" font-size="14.00">«interface»</text>
<text text-anchor="start" x="229" y="-57.3" font-family="Times,serif" font-weight="bold" font-size="14.00">JsonSerializable</text>
<polygon fill="none" stroke="black" points="188,-44.5 188,-50.5 397,-50.5 397,-44.5 188,-44.5"/>
<polygon fill="none" stroke="black" points="188,-19.5 188,-44.5 397,-44.5 397,-19.5 188,-19.5"/>
<text text-anchor="start" x="193" y="-28.3" font-family="Times,serif" font-size="14.00">+ «abstract» jsonSerialize()</text>
</g>
<!-- Overtrue\\PHPLint\\Finder&#45;&gt;JsonSerializable -->
<g id="edge1" class="edge">
<title>Overtrue\\PHPLint\\Finder&#45;&gt;JsonSerializable</title>
<path fill="none" stroke="black" stroke-dasharray="5,2" d="M292,-135.96C292,-123.84 292,-111.11 292,-99.38"/>
<polygon fill="none" stroke="black" points="295.5,-99.37 292,-89.37 288.5,-99.37 295.5,-99.37"/>
</g>
</g>
</svg>
