<?xml version="1.0" encoding="UTF-8" standalone="no"?>
<!DOCTYPE svg PUBLIC "-//W3C//DTD SVG 1.1//EN"
 "http://www.w3.org/Graphics/SVG/1.1/DTD/svg11.dtd">
<!-- Generated by graphviz version 2.43.0 (0)
 -->
<!-- Title: %3 Pages: 1 -->
<svg width="478pt" height="294pt"
 viewBox="0.00 0.00 478.00 294.00" xmlns="http://www.w3.org/2000/svg" xmlns:xlink="http://www.w3.org/1999/xlink">
<g id="graph0" class="graph" transform="scale(1 1) rotate(0) translate(4 290)">
<title>%3</title>
<g id="clust1" class="cluster">
<title>cluster_0</title>
<polygon fill="transparent" stroke="black" points="8,-128 8,-278 462,-278 462,-128 8,-128"/>
<text text-anchor="middle" x="235" y="-262.8" font-family="Times,serif" font-size="14.00">Overtrue\PHPLint</text>
</g>
<g id="clust2" class="cluster">
<title>cluster_1</title>
<polygon fill="transparent" stroke="black" points="139,-8 139,-120 331,-120 331,-8 139,-8"/>
<text text-anchor="middle" x="235" y="-104.8" font-family="Times,serif" font-size="14.00">0</text>
</g>
<!-- Overtrue\\PHPLint\\Finder -->
<g id="node1" class="node">
<title>Overtrue\\PHPLint\\Finder</title>
<polygon fill="#fefece" stroke="transparent" points="454,-247 16,-247 16,-136 454,-136 454,-247"/>
<polygon fill="#eeeeee" stroke="transparent" points="24,-208.5 24,-242.5 446,-242.5 446,-208.5 24,-208.5"/>
<polygon fill="none" stroke="black" points="24,-208.5 24,-242.5 446,-242.5 446,-208.5 24,-208.5"/>
<text text-anchor="start" x="215" y="-215.3" font-family="Times,serif" font-weight="bold" font-size="14.00">Finder</text>
<polygon fill="none" stroke="black" points="24,-202.5 24,-208.5 446,-208.5 446,-202.5 24,-202.5"/>
<polygon fill="none" stroke="black" points="24,-139.5 24,-202.5 446,-202.5 446,-139.5 24,-139.5"/>
<text text-anchor="start" x="29" y="-186.3" font-family="Times,serif" font-size="14.00">+ __construct(configResolver : Overtrue\PHPLint\Configuration\Resolver)</text>
<text text-anchor="start" x="29" y="-167.3" font-family="Times,serif" font-size="14.00">+ jsonSerialize() : array</text>
<text text-anchor="start" x="29" y="-148.3" font-family="Times,serif" font-size="14.00">+ getFiles() : Symfony\Component\Finder\Finder</text>
</g>
<!-- JsonSerializable -->
<g id="node2" class="node">
<title>JsonSerializable</title>
<polygon fill="#fefece" stroke="transparent" points="323.5,-89 146.5,-89 146.5,-16 323.5,-16 323.5,-89"/>
<polygon fill="#eeeeee" stroke="transparent" points="155,-50.5 155,-84.5 316,-84.5 316,-50.5 155,-50.5"/>
<polygon fill="none" stroke="black" points="155,-50.5 155,-84.5 316,-84.5 316,-50.5 155,-50.5"/>
<text text-anchor="start" x="203" y="-71.3" font-family="Times,serif" font-weight="bold" font-size="14.00">«interface»</text>
<text text-anchor="start" x="188.5" y="-57.3" font-family="Times,serif" font-weight="bold" font-size="14.00">JsonSerializable</text>
<polygon fill="none" stroke="black" points="155,-44.5 155,-50.5 316,-50.5 316,-44.5 155,-44.5"/>
<polygon fill="none" stroke="black" points="155,-19.5 155,-44.5 316,-44.5 316,-19.5 155,-19.5"/>
<text text-anchor="start" x="160" y="-28.3" font-family="Times,serif" font-size="14.00">+ «abstract» jsonSerialize()</text>
</g>
<!-- Overtrue\\PHPLint\\Finder&#45;&gt;JsonSerializable -->
<g id="edge1" class="edge">
<title>Overtrue\\PHPLint\\Finder&#45;&gt;JsonSerializable</title>
<path fill="none" stroke="black" stroke-dasharray="5,2" d="M235,-135.96C235,-123.84 235,-111.11 235,-99.38"/>
<polygon fill="none" stroke="black" points="238.5,-99.37 235,-89.37 231.5,-99.37 238.5,-99.37"/>
</g>
</g>
</svg>
