<?xml version="1.0" encoding="UTF-8" standalone="no"?>
<!DOCTYPE svg PUBLIC "-//W3C//DTD SVG 1.1//EN"
 "http://www.w3.org/Graphics/SVG/1.1/DTD/svg11.dtd">
<!-- Generated by graphviz version 2.40.1 (20161225.0304)
 -->
<!-- Title: %3 Pages: 1 -->
<svg width="474pt" height="155pt"
 viewBox="0.00 0.00 474.00 155.00" xmlns="http://www.w3.org/2000/svg" xmlns:xlink="http://www.w3.org/1999/xlink">
<g id="graph0" class="graph" transform="scale(1 1) rotate(0) translate(4 151)">
<title>%3</title>
<g id="clust1" class="cluster">
<title>cluster_0</title>
<polygon fill="#deb887" stroke="#000000" points="8,-8 8,-139 458,-139 458,-8 8,-8"/>
<text text-anchor="middle" x="233" y="-123.8" font-family="Times,serif" font-size="14.00" fill="#000000">Overtrue\PHPLint</text>
</g>
<!-- Overtrue\\PHPLint\\Finder -->
<g id="node1" class="node">
<title>Overtrue\\PHPLint\\Finder</title>
<polygon fill="#fefece" stroke="transparent" points="450.5,-108 15.5,-108 15.5,-16 450.5,-16 450.5,-108"/>
<polygon fill="#eeeeee" stroke="transparent" points="24,-70 24,-104 443,-104 443,-70 24,-70"/>
<polygon fill="none" stroke="#000000" points="24,-70 24,-104 443,-104 443,-70 24,-70"/>
<text text-anchor="start" x="213.5" y="-76.8" font-family="Times,serif" font-weight="bold" font-size="14.00" fill="#000000">Finder</text>
<polygon fill="none" stroke="#000000" points="24,-64 24,-70 443,-70 443,-64 24,-64"/>
<polygon fill="none" stroke="#000000" points="24,-20 24,-64 443,-64 443,-20 24,-20"/>
<text text-anchor="start" x="29" y="-47.8" font-family="Times,serif" font-size="14.00" fill="#000000">+ __construct(configResolver : Overtrue\PHPLint\Configuration\Resolver)</text>
<text text-anchor="start" x="29" y="-28.8" font-family="Times,serif" font-size="14.00" fill="#000000">+ getFiles() : Symfony\Component\Finder\Finder</text>
</g>
</g>
</svg>
