<?xml version="1.0" encoding="UTF-8" standalone="no"?>
<!DOCTYPE svg PUBLIC "-//W3C//DTD SVG 1.1//EN"
 "http://www.w3.org/Graphics/SVG/1.1/DTD/svg11.dtd">
<!-- Generated by graphviz version 2.42.4 (0)
 -->
<!-- Pages: 1 -->
<svg width="3180pt" height="618pt"
 viewBox="0.00 0.00 3180.00 618.00" xmlns="http://www.w3.org/2000/svg" xmlns:xlink="http://www.w3.org/1999/xlink">
<g id="graph0" class="graph" transform="scale(1 1) rotate(0) translate(4 614)">
<g id="clust1" class="cluster">
<title>cluster_0</title>
<polygon fill="#cdaa7d" stroke="black" points="8,-408 8,-602 3164,-602 3164,-408 8,-408"/>
<text text-anchor="middle" x="1586" y="-586.8" font-family="Times,serif" font-size="14.00">Overtrue\PHPLint\Helper</text>
</g>
<g id="clust2" class="cluster">
<title>cluster_1</title>
<polygon fill="transparent" stroke="black" points="1413,-8 1413,-400 2401,-400 2401,-8 1413,-8"/>
<text text-anchor="middle" x="1907" y="-384.8" font-family="Times,serif" font-size="14.00">Symfony\Component\Console\Helper</text>
</g>
<!-- Overtrue\\PHPLint\\Helper\\DebugFormatterHelper -->
<g id="node1" class="node">
<title>Overtrue\\PHPLint\\Helper\\DebugFormatterHelper</title>
<polygon fill="#fefece" stroke="transparent" points="3156,-571 2290,-571 2290,-416 3156,-416 3156,-571"/>
<polygon fill="#eeeeee" stroke="transparent" points="2298,-532.5 2298,-566.5 3148,-566.5 3148,-532.5 2298,-532.5"/>
<polygon fill="none" stroke="black" points="2298,-532.5 2298,-566.5 3148,-566.5 3148,-532.5 2298,-532.5"/>
<text text-anchor="start" x="2630.5" y="-539.3" font-family="Times,serif" font-weight="bold" font-size="14.00">DebugFormatterHelper</text>
<polygon fill="none" stroke="black" points="2298,-507.5 2298,-532.5 3148,-532.5 3148,-507.5 2298,-507.5"/>
<text text-anchor="start" x="2303" y="-516.3" font-family="Times,serif" font-size="14.00">+ «static» COLORS : array = […] {readOnly}</text>
<polygon fill="none" stroke="black" points="2298,-501.5 2298,-507.5 3148,-507.5 3148,-501.5 2298,-501.5"/>
<polygon fill="none" stroke="black" points="2298,-419.5 2298,-501.5 3148,-501.5 3148,-419.5 2298,-419.5"/>
<text text-anchor="start" x="2303" y="-485.3" font-family="Times,serif" font-size="14.00">+ getName() : string</text>
<text text-anchor="start" x="2303" y="-466.3" font-family="Times,serif" font-size="14.00">+ start(id : string, message : string, prefix : string = &#39;RUN&#39;) : string</text>
<text text-anchor="start" x="2303" y="-447.3" font-family="Times,serif" font-size="14.00">+ progress(id : string, buffer : string, error : bool = false, prefix : string = &#39;OUT&#39;, errorPrefix : string = &#39;ERR&#39;) : string</text>
<text text-anchor="start" x="2303" y="-428.3" font-family="Times,serif" font-size="14.00">+ stop(id : string, message : string, successful : bool, prefix : string = &#39;RES&#39;) : string</text>
</g>
<!-- Symfony\\Component\\Console\\Helper\\Helper -->
<g id="node3" class="node">
<title>Symfony\\Component\\Console\\Helper\\Helper</title>
<polygon fill="#fefece" stroke="transparent" points="2392.5,-369 1421.5,-369 1421.5,-163 2392.5,-163 2392.5,-369"/>
<polygon fill="#eeeeee" stroke="transparent" points="1430,-331 1430,-365 2385,-365 2385,-331 1430,-331"/>
<polygon fill="none" stroke="black" points="1430,-331 1430,-365 2385,-365 2385,-331 1430,-331"/>
<text text-anchor="start" x="1865.5" y="-351.8" font-family="Times,serif" font-weight="bold" font-size="14.00">«abstract»</text>
<text text-anchor="start" x="1880" y="-337.8" font-family="Times,serif" font-weight="bold" font-size="14.00">Helper</text>
<polygon fill="none" stroke="black" points="1430,-325 1430,-331 2385,-331 2385,-325 1430,-325"/>
<polygon fill="none" stroke="black" points="1430,-167 1430,-325 2385,-325 2385,-167 1430,-167"/>
<text text-anchor="start" x="1435" y="-308.8" font-family="Times,serif" font-size="14.00">+ setHelperSet(helperSet : Symfony\Component\Console\Helper\HelperSet) : void</text>
<text text-anchor="start" x="1435" y="-289.8" font-family="Times,serif" font-size="14.00">+ getHelperSet() : ?Symfony\Component\Console\Helper\HelperSet</text>
<text text-anchor="start" x="1435" y="-270.8" font-family="Times,serif" font-size="14.00">+ «static» width(string : string) : int</text>
<text text-anchor="start" x="1435" y="-251.8" font-family="Times,serif" font-size="14.00">+ «static» length(string : string) : int</text>
<text text-anchor="start" x="1435" y="-232.8" font-family="Times,serif" font-size="14.00">+ «static» substr(string : string, from : int, length : int = «unknown») : string</text>
<text text-anchor="start" x="1435" y="-213.8" font-family="Times,serif" font-size="14.00">+ «static» formatTime(secs, precision : int = 1) : string</text>
<text text-anchor="start" x="1435" y="-194.8" font-family="Times,serif" font-size="14.00">+ «static» formatMemory(memory : int) : string</text>
<text text-anchor="start" x="1435" y="-175.8" font-family="Times,serif" font-size="14.00">+ «static» removeDecoration(formatter : Symfony\Component\Console\Formatter\OutputFormatterInterface, string : string) : string</text>
</g>
<!-- Overtrue\\PHPLint\\Helper\\DebugFormatterHelper&#45;&gt;Symfony\\Component\\Console\\Helper\\Helper -->
<g id="edge2" class="edge">
<title>Overtrue\\PHPLint\\Helper\\DebugFormatterHelper&#45;&gt;Symfony\\Component\\Console\\Helper\\Helper</title>
<path fill="none" stroke="black" d="M2446.17,-416C2394.61,-401.75 2339.93,-386.64 2285.92,-371.71"/>
<polygon fill="none" stroke="black" points="2286.77,-368.32 2276.2,-369.03 2284.91,-375.07 2286.77,-368.32"/>
</g>
<!-- Overtrue\\PHPLint\\Helper\\ProcessHelper -->
<g id="node2" class="node">
<title>Overtrue\\PHPLint\\Helper\\ProcessHelper</title>
<polygon fill="#fefece" stroke="transparent" points="2272,-549 16,-549 16,-438 2272,-438 2272,-549"/>
<polygon fill="#eeeeee" stroke="transparent" points="24,-510.5 24,-544.5 2264,-544.5 2264,-510.5 24,-510.5"/>
<polygon fill="none" stroke="black" points="24,-510.5 24,-544.5 2264,-544.5 2264,-510.5 24,-510.5"/>
<text text-anchor="start" x="1086.5" y="-517.3" font-family="Times,serif" font-weight="bold" font-size="14.00">ProcessHelper</text>
<polygon fill="none" stroke="black" points="24,-504.5 24,-510.5 2264,-510.5 2264,-504.5 24,-504.5"/>
<polygon fill="none" stroke="black" points="24,-441.5 24,-504.5 2264,-504.5 2264,-441.5 24,-441.5"/>
<text text-anchor="start" x="29" y="-488.3" font-family="Times,serif" font-size="14.00">+ getName() : string</text>
<text text-anchor="start" x="29" y="-469.3" font-family="Times,serif" font-size="14.00">+ start(output : Symfony\Component\Console\Output\OutputInterface, process : Symfony\Component\Process\Process, callback : callable = «unknown», env : array = [], verbosity : int = Symfony\Component\Console\Output\OutputInterface\:\:VERBOSITY_VERY_VERBOSE) : Symfony\Component\Process\Process</text>
<text text-anchor="start" x="29" y="-450.3" font-family="Times,serif" font-size="14.00">+ isTerminated(output : Symfony\Component\Console\Output\OutputInterface, process : Symfony\Component\Process\Process, verbosity : int = Symfony\Component\Console\Output\OutputInterface\:\:VERBOSITY_VERY_VERBOSE) : bool</text>
</g>
<!-- Overtrue\\PHPLint\\Helper\\ProcessHelper&#45;&gt;Symfony\\Component\\Console\\Helper\\Helper -->
<g id="edge3" class="edge">
<title>Overtrue\\PHPLint\\Helper\\ProcessHelper&#45;&gt;Symfony\\Component\\Console\\Helper\\Helper</title>
<path fill="none" stroke="black" d="M1328.7,-437.91C1396.06,-418.01 1474.68,-394.77 1551.86,-371.96"/>
<polygon fill="none" stroke="black" points="1553.16,-375.23 1561.75,-369.04 1551.17,-368.51 1553.16,-375.23"/>
</g>
<!-- Symfony\\Component\\Console\\Helper\\HelperInterface -->
<g id="node4" class="node">
<title>Symfony\\Component\\Console\\Helper\\HelperInterface</title>
<polygon fill="#fefece" stroke="transparent" points="2254.5,-127 1559.5,-127 1559.5,-16 2254.5,-16 2254.5,-127"/>
<polygon fill="#eeeeee" stroke="transparent" points="1568,-88.5 1568,-122.5 2247,-122.5 2247,-88.5 1568,-88.5"/>
<polygon fill="none" stroke="black" points="1568,-88.5 1568,-122.5 2247,-122.5 2247,-88.5 1568,-88.5"/>
<text text-anchor="start" x="1862.5" y="-109.3" font-family="Times,serif" font-weight="bold" font-size="14.00">«interface»</text>
<text text-anchor="start" x="1844" y="-95.3" font-family="Times,serif" font-weight="bold" font-size="14.00">HelperInterface</text>
<polygon fill="none" stroke="black" points="1568,-82.5 1568,-88.5 2247,-88.5 2247,-82.5 1568,-82.5"/>
<polygon fill="none" stroke="black" points="1568,-19.5 1568,-82.5 2247,-82.5 2247,-19.5 1568,-19.5"/>
<text text-anchor="start" x="1573" y="-66.3" font-family="Times,serif" font-size="14.00">+ «abstract» setHelperSet(helperSet : Symfony\Component\Console\Helper\HelperSet) : void</text>
<text text-anchor="start" x="1573" y="-47.3" font-family="Times,serif" font-size="14.00">+ «abstract» getHelperSet() : ?Symfony\Component\Console\Helper\HelperSet</text>
<text text-anchor="start" x="1573" y="-28.3" font-family="Times,serif" font-size="14.00">+ «abstract» getName() : string</text>
</g>
<!-- Symfony\\Component\\Console\\Helper\\Helper&#45;&gt;Symfony\\Component\\Console\\Helper\\HelperInterface -->
<g id="edge1" class="edge">
<title>Symfony\\Component\\Console\\Helper\\Helper&#45;&gt;Symfony\\Component\\Console\\Helper\\HelperInterface</title>
<path fill="none" stroke="black" stroke-dasharray="5,2" d="M1907,-162.83C1907,-154.23 1907,-145.68 1907,-137.48"/>
<polygon fill="none" stroke="black" points="1910.5,-137.3 1907,-127.3 1903.5,-137.3 1910.5,-137.3"/>
</g>
</g>
</svg>
