<?xml version="1.0" encoding="UTF-8" standalone="no"?>
<!DOCTYPE svg PUBLIC "-//W3C//DTD SVG 1.1//EN"
 "http://www.w3.org/Graphics/SVG/1.1/DTD/svg11.dtd">
<!-- Generated by graphviz version 2.43.0 (0)
 -->
<!-- Title: %3 Pages: 1 -->
<svg width="2518pt" height="618pt"
 viewBox="0.00 0.00 2518.00 618.00" xmlns="http://www.w3.org/2000/svg" xmlns:xlink="http://www.w3.org/1999/xlink">
<g id="graph0" class="graph" transform="scale(1 1) rotate(0) translate(4 614)">
<title>%3</title>
<g id="clust1" class="cluster">
<title>cluster_0</title>
<polygon fill="#cdaa7d" stroke="black" points="8,-408 8,-602 2502,-602 2502,-408 8,-408"/>
<text text-anchor="middle" x="1255" y="-586.8" font-family="Times,serif" font-size="14.00">Overtrue\PHPLint\Helper</text>
</g>
<g id="clust2" class="cluster">
<title>cluster_1</title>
<polygon fill="transparent" stroke="black" points="1160,-8 1160,-400 1888,-400 1888,-8 1160,-8"/>
<text text-anchor="middle" x="1524" y="-384.8" font-family="Times,serif" font-size="14.00">Symfony\Component\Console\Helper</text>
</g>
<!-- Overtrue\\PHPLint\\Helper\\DebugFormatterHelper -->
<g id="node1" class="node">
<title>Overtrue\\PHPLint\\Helper\\DebugFormatterHelper</title>
<polygon fill="#fefece" stroke="transparent" points="2494,-571 1822,-571 1822,-416 2494,-416 2494,-571"/>
<polygon fill="#eeeeee" stroke="transparent" points="1830,-532.5 1830,-566.5 2486,-566.5 2486,-532.5 1830,-532.5"/>
<polygon fill="none" stroke="black" points="1830,-532.5 1830,-566.5 2486,-566.5 2486,-532.5 1830,-532.5"/>
<text text-anchor="start" x="2088.5" y="-539.3" font-family="Times,serif" font-weight="bold" font-size="14.00">DebugFormatterHelper</text>
<polygon fill="none" stroke="black" points="1830,-507.5 1830,-532.5 2486,-532.5 2486,-507.5 1830,-507.5"/>
<text text-anchor="start" x="1835" y="-516.3" font-family="Times,serif" font-size="14.00">+ «static» COLORS : array = […] {readOnly}</text>
<polygon fill="none" stroke="black" points="1830,-501.5 1830,-507.5 2486,-507.5 2486,-501.5 1830,-501.5"/>
<polygon fill="none" stroke="black" points="1830,-419.5 1830,-501.5 2486,-501.5 2486,-419.5 1830,-419.5"/>
<text text-anchor="start" x="1835" y="-485.3" font-family="Times,serif" font-size="14.00">+ getName() : string</text>
<text text-anchor="start" x="1835" y="-466.3" font-family="Times,serif" font-size="14.00">+ start(id : string, message : string, prefix : string = &#39;RUN&#39;) : string</text>
<text text-anchor="start" x="1835" y="-447.3" font-family="Times,serif" font-size="14.00">+ progress(id : string, buffer : string, error : bool = false, prefix : string = &#39;OUT&#39;, errorPrefix : string = &#39;ERR&#39;) : string</text>
<text text-anchor="start" x="1835" y="-428.3" font-family="Times,serif" font-size="14.00">+ stop(id : string, message : string, successful : bool, prefix : string = &#39;RES&#39;) : string</text>
</g>
<!-- Symfony\\Component\\Console\\Helper\\Helper -->
<g id="node3" class="node">
<title>Symfony\\Component\\Console\\Helper\\Helper</title>
<polygon fill="#fefece" stroke="transparent" points="1879.5,-369 1168.5,-369 1168.5,-163 1879.5,-163 1879.5,-369"/>
<polygon fill="#eeeeee" stroke="transparent" points="1177,-331 1177,-365 1872,-365 1872,-331 1177,-331"/>
<polygon fill="none" stroke="black" points="1177,-331 1177,-365 1872,-365 1872,-331 1177,-331"/>
<text text-anchor="start" x="1494" y="-351.8" font-family="Times,serif" font-weight="bold" font-size="14.00">«abstract»</text>
<text text-anchor="start" x="1504" y="-337.8" font-family="Times,serif" font-weight="bold" font-size="14.00">Helper</text>
<polygon fill="none" stroke="black" points="1177,-325 1177,-331 1872,-331 1872,-325 1177,-325"/>
<polygon fill="none" stroke="black" points="1177,-167 1177,-325 1872,-325 1872,-167 1177,-167"/>
<text text-anchor="start" x="1182" y="-308.8" font-family="Times,serif" font-size="14.00">+ setHelperSet(helperSet : Symfony\Component\Console\Helper\HelperSet = «unknown»)</text>
<text text-anchor="start" x="1182" y="-289.8" font-family="Times,serif" font-size="14.00">+ getHelperSet() : ?Symfony\Component\Console\Helper\HelperSet</text>
<text text-anchor="start" x="1182" y="-270.8" font-family="Times,serif" font-size="14.00">+ «static» width(string : string) : int</text>
<text text-anchor="start" x="1182" y="-251.8" font-family="Times,serif" font-size="14.00">+ «static» length(string : string) : int</text>
<text text-anchor="start" x="1182" y="-232.8" font-family="Times,serif" font-size="14.00">+ «static» substr(string : string, from : int, length : int = «unknown») : string</text>
<text text-anchor="start" x="1182" y="-213.8" font-family="Times,serif" font-size="14.00">+ «static» formatTime(secs, precision : int = 1)</text>
<text text-anchor="start" x="1182" y="-194.8" font-family="Times,serif" font-size="14.00">+ «static» formatMemory(memory : int)</text>
<text text-anchor="start" x="1182" y="-175.8" font-family="Times,serif" font-size="14.00">+ «static» removeDecoration(formatter : Symfony\Component\Console\Formatter\OutputFormatterInterface, string : string)</text>
</g>
<!-- Overtrue\\PHPLint\\Helper\\DebugFormatterHelper&#45;&gt;Symfony\\Component\\Console\\Helper\\Helper -->
<g id="edge2" class="edge">
<title>Overtrue\\PHPLint\\Helper\\DebugFormatterHelper&#45;&gt;Symfony\\Component\\Console\\Helper\\Helper</title>
<path fill="none" stroke="black" d="M1942.91,-416C1903.52,-401.99 1861.77,-387.14 1820.49,-372.46"/>
<polygon fill="none" stroke="black" points="1821.45,-369.08 1810.86,-369.03 1819.1,-375.68 1821.45,-369.08"/>
</g>
<!-- Overtrue\\PHPLint\\Helper\\ProcessHelper -->
<g id="node2" class="node">
<title>Overtrue\\PHPLint\\Helper\\ProcessHelper</title>
<polygon fill="#fefece" stroke="transparent" points="1804,-549 16,-549 16,-438 1804,-438 1804,-549"/>
<polygon fill="#eeeeee" stroke="transparent" points="24,-510.5 24,-544.5 1796,-544.5 1796,-510.5 24,-510.5"/>
<polygon fill="none" stroke="black" points="24,-510.5 24,-544.5 1796,-544.5 1796,-510.5 24,-510.5"/>
<text text-anchor="start" x="867.5" y="-517.3" font-family="Times,serif" font-weight="bold" font-size="14.00">ProcessHelper</text>
<polygon fill="none" stroke="black" points="24,-504.5 24,-510.5 1796,-510.5 1796,-504.5 24,-504.5"/>
<polygon fill="none" stroke="black" points="24,-441.5 24,-504.5 1796,-504.5 1796,-441.5 24,-441.5"/>
<text text-anchor="start" x="29" y="-488.3" font-family="Times,serif" font-size="14.00">+ getName() : string</text>
<text text-anchor="start" x="29" y="-469.3" font-family="Times,serif" font-size="14.00">+ start(output : Symfony\Component\Console\Output\OutputInterface, process : Symfony\Component\Process\Process, callback : callable = «unknown», env : array = [], verbosity : int = Symfony\Component\Console\Output\OutputInterface\:\:VERBOSITY_VERY_VERBOSE) : Symfony\Component\Process\Process</text>
<text text-anchor="start" x="29" y="-450.3" font-family="Times,serif" font-size="14.00">+ isTerminated(output : Symfony\Component\Console\Output\OutputInterface, process : Symfony\Component\Process\Process, verbosity : int = Symfony\Component\Console\Output\OutputInterface\:\:VERBOSITY_VERY_VERBOSE) : bool</text>
</g>
<!-- Overtrue\\PHPLint\\Helper\\ProcessHelper&#45;&gt;Symfony\\Component\\Console\\Helper\\Helper -->
<g id="edge3" class="edge">
<title>Overtrue\\PHPLint\\Helper\\ProcessHelper&#45;&gt;Symfony\\Component\\Console\\Helper\\Helper</title>
<path fill="none" stroke="black" d="M1058.63,-437.91C1112.39,-418.17 1175.07,-395.15 1236.69,-372.52"/>
<polygon fill="none" stroke="black" points="1237.99,-375.77 1246.17,-369.04 1235.58,-369.2 1237.99,-375.77"/>
</g>
<!-- Symfony\\Component\\Console\\Helper\\HelperInterface -->
<g id="node4" class="node">
<title>Symfony\\Component\\Console\\Helper\\HelperInterface</title>
<polygon fill="#fefece" stroke="transparent" points="1776,-127 1272,-127 1272,-16 1776,-16 1776,-127"/>
<polygon fill="#eeeeee" stroke="transparent" points="1280,-88.5 1280,-122.5 1768,-122.5 1768,-88.5 1280,-88.5"/>
<polygon fill="none" stroke="black" points="1280,-88.5 1280,-122.5 1768,-122.5 1768,-88.5 1280,-88.5"/>
<text text-anchor="start" x="1491.5" y="-109.3" font-family="Times,serif" font-weight="bold" font-size="14.00">«interface»</text>
<text text-anchor="start" x="1477" y="-95.3" font-family="Times,serif" font-weight="bold" font-size="14.00">HelperInterface</text>
<polygon fill="none" stroke="black" points="1280,-82.5 1280,-88.5 1768,-88.5 1768,-82.5 1280,-82.5"/>
<polygon fill="none" stroke="black" points="1280,-19.5 1280,-82.5 1768,-82.5 1768,-19.5 1280,-19.5"/>
<text text-anchor="start" x="1285" y="-66.3" font-family="Times,serif" font-size="14.00">+ «abstract» setHelperSet(helperSet : Symfony\Component\Console\Helper\HelperSet)</text>
<text text-anchor="start" x="1285" y="-47.3" font-family="Times,serif" font-size="14.00">+ «abstract» getHelperSet() : ?Symfony\Component\Console\Helper\HelperSet</text>
<text text-anchor="start" x="1285" y="-28.3" font-family="Times,serif" font-size="14.00">+ «abstract» getName()</text>
</g>
<!-- Symfony\\Component\\Console\\Helper\\Helper&#45;&gt;Symfony\\Component\\Console\\Helper\\HelperInterface -->
<g id="edge1" class="edge">
<title>Symfony\\Component\\Console\\Helper\\Helper&#45;&gt;Symfony\\Component\\Console\\Helper\\HelperInterface</title>
<path fill="none" stroke="black" stroke-dasharray="5,2" d="M1524,-162.83C1524,-154.23 1524,-145.68 1524,-137.48"/>
<polygon fill="none" stroke="black" points="1527.5,-137.3 1524,-127.3 1520.5,-137.3 1527.5,-137.3"/>
</g>
</g>
</svg>
