<?xml version="1.0" encoding="UTF-8" standalone="no"?>
<!DOCTYPE svg PUBLIC "-//W3C//DTD SVG 1.1//EN"
 "http://www.w3.org/Graphics/SVG/1.1/DTD/svg11.dtd">
<!-- Generated by graphviz version 2.43.0 (0)
 -->
<!-- Title: %3 Pages: 1 -->
<svg width="3180pt" height="618pt"
 viewBox="0.00 0.00 3180.00 618.00" xmlns="http://www.w3.org/2000/svg" xmlns:xlink="http://www.w3.org/1999/xlink">
<g id="graph0" class="graph" transform="scale(1 1) rotate(0) translate(4 614)">
<title>%3</title>
<g id="clust1" class="cluster">
<title>cluster_0</title>
<polygon fill="#cdaa7d" stroke="black" points="8,-408 8,-602 3164,-602 3164,-408 8,-408"/>
<text text-anchor="middle" x="1586" y="-586.8" font-family="Times,serif" font-size="14.00">Overtrue\PHPLint\Helper</text>
</g>
<g id="clust2" class="cluster">
<title>cluster_1</title>
<polygon fill="transparent" stroke="black" points="1456,-8 1456,-400 2386,-400 2386,-8 1456,-8"/>
<text text-anchor="middle" x="1921" y="-384.8" font-family="Times,serif" font-size="14.00">Symfony\Component\Console\Helper</text>
</g>
<!-- Overtrue\\PHPLint\\Helper\\DebugFormatterHelper -->
<g id="node1" class="node">
<title>Overtrue\\PHPLint\\Helper\\DebugFormatterHelper</title>
<polygon fill="#fefece" stroke="transparent" points="3156,-571 2290,-571 2290,-416 3156,-416 3156,-571"/>
<polygon fill="#eeeeee" stroke="transparent" points="2298,-532.5 2298,-566.5 3148,-566.5 3148,-532.5 2298,-532.5"/>
<polygon fill="none" stroke="black" points="2298,-532.5 2298,-566.5 3148,-566.5 3148,-532.5 2298,-532.5"/>
<text text-anchor="start" x="2630.5" y="-539.3" font-family="Times,serif" font-weight="bold" font-size="14.00">DebugFormatterHelper</text>
<polygon fill="none" stroke="black" points="2298,-507.5 2298,-532.5 3148,-532.5 3148,-507.5 2298,-507.5"/>
<text text-anchor="start" x="2303" y="-516.3" font-family="Times,serif" font-size="14.00">+ «static» COLORS : array = […] {readOnly}</text>
<polygon fill="none" stroke="black" points="2298,-501.5 2298,-507.5 3148,-507.5 3148,-501.5 2298,-501.5"/>
<polygon fill="none" stroke="black" points="2298,-419.5 2298,-501.5 3148,-501.5 3148,-419.5 2298,-419.5"/>
<text text-anchor="start" x="2303" y="-485.3" font-family="Times,serif" font-size="14.00">+ getName() : string</text>
<text text-anchor="start" x="2303" y="-466.3" font-family="Times,serif" font-size="14.00">+ start(id : string, message : string, prefix : string = &#39;RUN&#39;) : string</text>
<text text-anchor="start" x="2303" y="-447.3" font-family="Times,serif" font-size="14.00">+ progress(id : string, buffer : string, error : bool = false, prefix : string = &#39;OUT&#39;, errorPrefix : string = &#39;ERR&#39;) : string</text>
<text text-anchor="start" x="2303" y="-428.3" font-family="Times,serif" font-size="14.00">+ stop(id : string, message : string, successful : bool, prefix : string = &#39;RES&#39;) : string</text>
</g>
<!-- Symfony\\Component\\Console\\Helper\\Helper -->
<g id="node3" class="node">
<title>Symfony\\Component\\Console\\Helper\\Helper</title>
<polygon fill="#fefece" stroke="transparent" points="2378.5,-369 1463.5,-369 1463.5,-163 2378.5,-163 2378.5,-369"/>
<polygon fill="#eeeeee" stroke="transparent" points="1472,-331 1472,-365 2371,-365 2371,-331 1472,-331"/>
<polygon fill="none" stroke="black" points="1472,-331 1472,-365 2371,-365 2371,-331 1472,-331"/>
<text text-anchor="start" x="1879.5" y="-351.8" font-family="Times,serif" font-weight="bold" font-size="14.00">«abstract»</text>
<text text-anchor="start" x="1894" y="-337.8" font-family="Times,serif" font-weight="bold" font-size="14.00">Helper</text>
<polygon fill="none" stroke="black" points="1472,-325 1472,-331 2371,-331 2371,-325 1472,-325"/>
<polygon fill="none" stroke="black" points="1472,-167 1472,-325 2371,-325 2371,-167 1472,-167"/>
<text text-anchor="start" x="1477" y="-308.8" font-family="Times,serif" font-size="14.00">+ setHelperSet(helperSet : Symfony\Component\Console\Helper\HelperSet = «unknown»)</text>
<text text-anchor="start" x="1477" y="-289.8" font-family="Times,serif" font-size="14.00">+ getHelperSet() : ?Symfony\Component\Console\Helper\HelperSet</text>
<text text-anchor="start" x="1477" y="-270.8" font-family="Times,serif" font-size="14.00">+ «static» width(string : string) : int</text>
<text text-anchor="start" x="1477" y="-251.8" font-family="Times,serif" font-size="14.00">+ «static» length(string : string) : int</text>
<text text-anchor="start" x="1477" y="-232.8" font-family="Times,serif" font-size="14.00">+ «static» substr(string : string, from : int, length : int = «unknown») : string</text>
<text text-anchor="start" x="1477" y="-213.8" font-family="Times,serif" font-size="14.00">+ «static» formatTime(secs, precision : int = 1)</text>
<text text-anchor="start" x="1477" y="-194.8" font-family="Times,serif" font-size="14.00">+ «static» formatMemory(memory : int)</text>
<text text-anchor="start" x="1477" y="-175.8" font-family="Times,serif" font-size="14.00">+ «static» removeDecoration(formatter : Symfony\Component\Console\Formatter\OutputFormatterInterface, string : string)</text>
</g>
<!-- Overtrue\\PHPLint\\Helper\\DebugFormatterHelper&#45;&gt;Symfony\\Component\\Console\\Helper\\Helper -->
<g id="edge2" class="edge">
<title>Overtrue\\PHPLint\\Helper\\DebugFormatterHelper&#45;&gt;Symfony\\Component\\Console\\Helper\\Helper</title>
<path fill="none" stroke="black" d="M2450.92,-416C2400.35,-401.78 2346.72,-386.7 2293.75,-371.81"/>
<polygon fill="none" stroke="black" points="2294.44,-368.37 2283.87,-369.03 2292.55,-375.1 2294.44,-368.37"/>
</g>
<!-- Overtrue\\PHPLint\\Helper\\ProcessHelper -->
<g id="node2" class="node">
<title>Overtrue\\PHPLint\\Helper\\ProcessHelper</title>
<polygon fill="#fefece" stroke="transparent" points="2272,-549 16,-549 16,-438 2272,-438 2272,-549"/>
<polygon fill="#eeeeee" stroke="transparent" points="24,-510.5 24,-544.5 2264,-544.5 2264,-510.5 24,-510.5"/>
<polygon fill="none" stroke="black" points="24,-510.5 24,-544.5 2264,-544.5 2264,-510.5 24,-510.5"/>
<text text-anchor="start" x="1086.5" y="-517.3" font-family="Times,serif" font-weight="bold" font-size="14.00">ProcessHelper</text>
<polygon fill="none" stroke="black" points="24,-504.5 24,-510.5 2264,-510.5 2264,-504.5 24,-504.5"/>
<polygon fill="none" stroke="black" points="24,-441.5 24,-504.5 2264,-504.5 2264,-441.5 24,-441.5"/>
<text text-anchor="start" x="29" y="-488.3" font-family="Times,serif" font-size="14.00">+ getName() : string</text>
<text text-anchor="start" x="29" y="-469.3" font-family="Times,serif" font-size="14.00">+ start(output : Symfony\Component\Console\Output\OutputInterface, process : Symfony\Component\Process\Process, callback : callable = «unknown», env : array = [], verbosity : int = Symfony\Component\Console\Output\OutputInterface\:\:VERBOSITY_VERY_VERBOSE) : Symfony\Component\Process\Process</text>
<text text-anchor="start" x="29" y="-450.3" font-family="Times,serif" font-size="14.00">+ isTerminated(output : Symfony\Component\Console\Output\OutputInterface, process : Symfony\Component\Process\Process, verbosity : int = Symfony\Component\Console\Output\OutputInterface\:\:VERBOSITY_VERY_VERBOSE) : bool</text>
</g>
<!-- Overtrue\\PHPLint\\Helper\\ProcessHelper&#45;&gt;Symfony\\Component\\Console\\Helper\\Helper -->
<g id="edge3" class="edge">
<title>Overtrue\\PHPLint\\Helper\\ProcessHelper&#45;&gt;Symfony\\Component\\Console\\Helper\\Helper</title>
<path fill="none" stroke="black" d="M1332.09,-437.91C1400.68,-418.01 1480.75,-394.77 1559.34,-371.96"/>
<polygon fill="none" stroke="black" points="1560.79,-375.18 1569.42,-369.04 1558.84,-368.46 1560.79,-375.18"/>
</g>
<!-- Symfony\\Component\\Console\\Helper\\HelperInterface -->
<g id="node4" class="node">
<title>Symfony\\Component\\Console\\Helper\\HelperInterface</title>
<polygon fill="#fefece" stroke="transparent" points="2246.5,-127 1595.5,-127 1595.5,-16 2246.5,-16 2246.5,-127"/>
<polygon fill="#eeeeee" stroke="transparent" points="1604,-88.5 1604,-122.5 2239,-122.5 2239,-88.5 1604,-88.5"/>
<polygon fill="none" stroke="black" points="1604,-88.5 1604,-122.5 2239,-122.5 2239,-88.5 1604,-88.5"/>
<text text-anchor="start" x="1876.5" y="-109.3" font-family="Times,serif" font-weight="bold" font-size="14.00">«interface»</text>
<text text-anchor="start" x="1858" y="-95.3" font-family="Times,serif" font-weight="bold" font-size="14.00">HelperInterface</text>
<polygon fill="none" stroke="black" points="1604,-82.5 1604,-88.5 2239,-88.5 2239,-82.5 1604,-82.5"/>
<polygon fill="none" stroke="black" points="1604,-19.5 1604,-82.5 2239,-82.5 2239,-19.5 1604,-19.5"/>
<text text-anchor="start" x="1609" y="-66.3" font-family="Times,serif" font-size="14.00">+ «abstract» setHelperSet(helperSet : Symfony\Component\Console\Helper\HelperSet)</text>
<text text-anchor="start" x="1609" y="-47.3" font-family="Times,serif" font-size="14.00">+ «abstract» getHelperSet() : ?Symfony\Component\Console\Helper\HelperSet</text>
<text text-anchor="start" x="1609" y="-28.3" font-family="Times,serif" font-size="14.00">+ «abstract» getName()</text>
</g>
<!-- Symfony\\Component\\Console\\Helper\\Helper&#45;&gt;Symfony\\Component\\Console\\Helper\\HelperInterface -->
<g id="edge1" class="edge">
<title>Symfony\\Component\\Console\\Helper\\Helper&#45;&gt;Symfony\\Component\\Console\\Helper\\HelperInterface</title>
<path fill="none" stroke="black" stroke-dasharray="5,2" d="M1921,-162.83C1921,-154.23 1921,-145.68 1921,-137.48"/>
<polygon fill="none" stroke="black" points="1924.5,-137.3 1921,-127.3 1917.5,-137.3 1924.5,-137.3"/>
</g>
</g>
</svg>
