<?xml version="1.0" encoding="UTF-8" standalone="no"?>
<!DOCTYPE svg PUBLIC "-//W3C//DTD SVG 1.1//EN"
 "http://www.w3.org/Graphics/SVG/1.1/DTD/svg11.dtd">
<!-- Generated by graphviz version 2.42.4 (0)
 -->
<!-- Pages: 1 -->
<svg width="2579pt" height="155pt"
 viewBox="0.00 0.00 2579.00 155.00" xmlns="http://www.w3.org/2000/svg" xmlns:xlink="http://www.w3.org/1999/xlink">
<g id="graph0" class="graph" transform="scale(1 1) rotate(0) translate(4 151)">
<g id="clust1" class="cluster">
<title>cluster_0</title>
<polygon fill="#cdaa7d" stroke="black" points="8,-8 8,-139 2563,-139 2563,-8 8,-8"/>
<text text-anchor="middle" x="1285.5" y="-123.8" font-family="Times,serif" font-size="14.00">Overtrue\PHPLint</text>
</g>
<!-- Overtrue\\PHPLint\\Linter -->
<g id="node1" class="node">
<title>Overtrue\\PHPLint\\Linter</title>
<polygon fill="#fefece" stroke="transparent" points="2555,-108 16,-108 16,-16 2555,-16 2555,-108"/>
<polygon fill="#eeeeee" stroke="transparent" points="24.5,-70 24.5,-104 2547.5,-104 2547.5,-70 24.5,-70"/>
<polygon fill="none" stroke="black" points="24.5,-70 24.5,-104 2547.5,-104 2547.5,-70 24.5,-70"/>
<text text-anchor="start" x="1261.5" y="-76.8" font-family="Times,serif" font-weight="bold" font-size="14.00">Linter</text>
<polygon fill="none" stroke="black" points="24.5,-64 24.5,-70 2547.5,-70 2547.5,-64 24.5,-64"/>
<polygon fill="none" stroke="black" points="24.5,-20 24.5,-64 2547.5,-64 2547.5,-20 24.5,-20"/>
<text text-anchor="start" x="29.5" y="-47.8" font-family="Times,serif" font-size="14.00">+ __construct(configResolver : Overtrue\PHPLint\Configuration\Resolver, dispatcher : Symfony\Component\EventDispatcher\EventDispatcherInterface, client : Overtrue\PHPLint\Client = «unknown», helperSet : Symfony\Component\Console\Helper\HelperSet = «unknown», output : Symfony\Component\Console\Output\OutputInterface = «unknown»)</text>
<text text-anchor="start" x="29.5" y="-28.8" font-family="Times,serif" font-size="14.00">+ lintFiles(finder : Symfony\Component\Finder\Finder, startTime : float = «unknown») : Overtrue\PHPLint\Output\LinterOutput</text>
</g>
</g>
</svg>
