<?xml version="1.0" encoding="UTF-8" standalone="no"?>
<!DOCTYPE svg PUBLIC "-//W3C//DTD SVG 1.1//EN"
 "http://www.w3.org/Graphics/SVG/1.1/DTD/svg11.dtd">
<!-- Generated by graphviz version 12.2.1 (20241206.2353)
 -->
<!-- Pages: 1 -->
<svg width="2155pt" height="164pt"
 viewBox="0.00 0.00 2154.75 164.00" xmlns="http://www.w3.org/2000/svg" xmlns:xlink="http://www.w3.org/1999/xlink">
<g id="graph0" class="graph" transform="scale(1 1) rotate(0) translate(4 160)">
<g id="clust1" class="cluster">
<title>cluster_0</title>
<polygon fill="#cdaa7d" stroke="black" points="8,-8 8,-148 2138.75,-148 2138.75,-8 8,-8"/>
<text text-anchor="middle" x="1073.38" y="-130.7" font-family="Times,serif" font-size="14.00">Overtrue\PHPLint</text>
</g>
<!-- Overtrue\\PHPLint\\Linter -->
<g id="node1" class="node">
<title>Overtrue\\PHPLint\\Linter</title>
<polygon fill="#fefece" stroke="none" points="2130.75,-114 16,-114 16,-16 2130.75,-16 2130.75,-114"/>
<polygon fill="#eeeeee" stroke="none" points="24,-76 24,-110 2122.75,-110 2122.75,-76 24,-76"/>
<polygon fill="none" stroke="black" points="24,-76 24,-110 2122.75,-110 2122.75,-76 24,-76"/>
<text text-anchor="start" x="1054.25" y="-80.7" font-family="Times,serif" font-weight="bold" font-size="14.00">Linter</text>
<polygon fill="none" stroke="black" points="24,-70 24,-76 2122.75,-76 2122.75,-70 24,-70"/>
<polygon fill="none" stroke="black" points="24,-20 24,-70 2122.75,-70 2122.75,-20 24,-20"/>
<text text-anchor="start" x="29" y="-51.7" font-family="Times,serif" font-size="14.00">+ __construct(configResolver : Overtrue\PHPLint\Configuration\Resolver, dispatcher : Symfony\Component\EventDispatcher\EventDispatcherInterface, contextDefaults : array = [], helperSet : Symfony\Component\Console\Helper\HelperSet = «unknown», output : Symfony\Component\Console\Output\OutputInterface = «unknown»)</text>
<text text-anchor="start" x="29" y="-29.7" font-family="Times,serif" font-size="14.00">+ lintFiles(finder : Symfony\Component\Finder\Finder, startTime : float = «unknown») : Overtrue\PHPLint\Output\LinterOutput</text>
</g>
</g>
</svg>
