<?xml version="1.0" encoding="UTF-8" standalone="no"?>
<!DOCTYPE svg PUBLIC "-//W3C//DTD SVG 1.1//EN"
 "http://www.w3.org/Graphics/SVG/1.1/DTD/svg11.dtd">
<!-- Generated by graphviz version 2.43.0 (0)
 -->
<!-- Title: %3 Pages: 1 -->
<svg width="4770pt" height="1907pt"
 viewBox="0.00 0.00 4770.00 1907.00" xmlns="http://www.w3.org/2000/svg" xmlns:xlink="http://www.w3.org/1999/xlink">
<g id="graph0" class="graph" transform="scale(1 1) rotate(0) translate(4 1903)">
<title>%3</title>
<g id="clust1" class="cluster">
<title>cluster_0</title>
<polygon fill="#cdaa7d" stroke="black" points="8,-988.5 8,-1891 2570,-1891 2570,-988.5 8,-988.5"/>
<text text-anchor="middle" x="1289" y="-1875.8" font-family="Times,serif" font-size="14.00">Overtrue\PHPLint\Output</text>
</g>
<g id="clust2" class="cluster">
<title>cluster_1</title>
<polygon fill="transparent" stroke="black" points="2578,-8 2578,-1402.5 4556,-1402.5 4556,-8 2578,-8"/>
<text text-anchor="middle" x="3567" y="-1387.3" font-family="Times,serif" font-size="14.00">Symfony\Component\Console\Output</text>
</g>
<g id="clust3" class="cluster">
<title>cluster_2</title>
<polygon fill="transparent" stroke="black" points="4564,-1233.5 4564,-1345.5 4754,-1345.5 4754,-1233.5 4564,-1233.5"/>
<text text-anchor="middle" x="4659" y="-1330.3" font-family="Times,serif" font-size="14.00">0</text>
</g>
<!-- Overtrue\\PHPLint\\Output\\ChainOutput -->
<g id="node1" class="node">
<title>Overtrue\\PHPLint\\Output\\ChainOutput</title>
<polygon fill="#fefece" stroke="transparent" points="1546,-1324 1056,-1324 1056,-1232 1546,-1232 1546,-1324"/>
<polygon fill="#eeeeee" stroke="transparent" points="1064,-1286 1064,-1320 1538,-1320 1538,-1286 1064,-1286"/>
<polygon fill="none" stroke="black" points="1064,-1286 1064,-1320 1538,-1320 1538,-1286 1064,-1286"/>
<text text-anchor="start" x="1249.5" y="-1292.8" font-family="Times,serif" font-weight="bold" font-size="14.00">ChainOutput</text>
<polygon fill="none" stroke="black" points="1064,-1280 1064,-1286 1538,-1286 1538,-1280 1064,-1280"/>
<polygon fill="none" stroke="black" points="1064,-1236 1064,-1280 1538,-1280 1538,-1236 1064,-1236"/>
<text text-anchor="start" x="1069" y="-1263.8" font-family="Times,serif" font-size="14.00">+ __construct(handlers : array)</text>
<text text-anchor="start" x="1069" y="-1244.8" font-family="Times,serif" font-size="14.00">+ format(results : Overtrue\PHPLint\Output\LinterOutput) : void</text>
</g>
<!-- Overtrue\\PHPLint\\Output\\OutputInterface -->
<g id="node2" class="node">
<title>Overtrue\\PHPLint\\Output\\OutputInterface</title>
<polygon fill="#fefece" stroke="transparent" points="1840,-1069.5 1270,-1069.5 1270,-996.5 1840,-996.5 1840,-1069.5"/>
<polygon fill="#eeeeee" stroke="transparent" points="1278,-1031 1278,-1065 1832,-1065 1832,-1031 1278,-1031"/>
<polygon fill="none" stroke="black" points="1278,-1031 1278,-1065 1832,-1065 1832,-1031 1278,-1031"/>
<text text-anchor="start" x="1510" y="-1051.8" font-family="Times,serif" font-weight="bold" font-size="14.00">«interface»</text>
<text text-anchor="start" x="1490" y="-1037.8" font-family="Times,serif" font-weight="bold" font-size="14.00">OutputInterface</text>
<polygon fill="none" stroke="black" points="1278,-1025 1278,-1031 1832,-1031 1832,-1025 1278,-1025"/>
<polygon fill="none" stroke="black" points="1278,-1000 1278,-1025 1832,-1025 1832,-1000 1278,-1000"/>
<text text-anchor="start" x="1283" y="-1008.8" font-family="Times,serif" font-size="14.00">+ «abstract» format(results : Overtrue\PHPLint\Output\LinterOutput) : void</text>
</g>
<!-- Overtrue\\PHPLint\\Output\\ChainOutput&#45;&gt;Overtrue\\PHPLint\\Output\\OutputInterface -->
<g id="edge1" class="edge">
<title>Overtrue\\PHPLint\\Output\\ChainOutput&#45;&gt;Overtrue\\PHPLint\\Output\\OutputInterface</title>
<path fill="none" stroke="black" stroke-dasharray="5,2" d="M1348.18,-1231.86C1394.52,-1187.53 1464.71,-1120.38 1510.21,-1076.85"/>
<polygon fill="none" stroke="black" points="1512.77,-1079.25 1517.57,-1069.81 1507.93,-1074.19 1512.77,-1079.25"/>
</g>
<!-- Overtrue\\PHPLint\\Output\\ConsoleOutput -->
<g id="node3" class="node">
<title>Overtrue\\PHPLint\\Output\\ConsoleOutput</title>
<polygon fill="#fefece" stroke="transparent" points="1542.5,-1860 165.5,-1860 165.5,-1477 1542.5,-1477 1542.5,-1860"/>
<polygon fill="#eeeeee" stroke="transparent" points="174,-1821.5 174,-1855.5 1535,-1855.5 1535,-1821.5 174,-1821.5"/>
<polygon fill="none" stroke="black" points="174,-1821.5 174,-1855.5 1535,-1855.5 1535,-1821.5 174,-1821.5"/>
<text text-anchor="start" x="795" y="-1828.3" font-family="Times,serif" font-weight="bold" font-size="14.00">ConsoleOutput</text>
<polygon fill="none" stroke="black" points="174,-1777.5 174,-1821.5 1535,-1821.5 1535,-1777.5 174,-1777.5"/>
<text text-anchor="start" x="179" y="-1805.3" font-family="Times,serif" font-size="14.00">+ «static» MAX_LINE_LENGTH : int = 120 {readOnly}</text>
<text text-anchor="start" x="179" y="-1786.3" font-family="Times,serif" font-size="14.00">+ «static» NO_FILE_TO_LINT : string = &quot;Could\ not\ find\ any\ files\ to\ lint&quot; {readOnly}</text>
<polygon fill="none" stroke="black" points="174,-1771.5 174,-1777.5 1535,-1777.5 1535,-1771.5 174,-1771.5"/>
<polygon fill="none" stroke="black" points="174,-1480.5 174,-1771.5 1535,-1771.5 1535,-1480.5 174,-1480.5"/>
<text text-anchor="start" x="179" y="-1755.3" font-family="Times,serif" font-size="14.00">+ __construct(verbosity : int = parent\:\:VERBOSITY_NORMAL, decorated : bool = «unknown», formatter : Symfony\Component\Console\Formatter\OutputFormatterInterface = «unknown»)</text>
<text text-anchor="start" x="179" y="-1736.3" font-family="Times,serif" font-size="14.00">+ format(results : Overtrue\PHPLint\Output\LinterOutput) : void</text>
<text text-anchor="start" x="179" y="-1717.3" font-family="Times,serif" font-size="14.00">+ createProgressBar(max = 0) : Symfony\Component\Console\Helper\ProgressBar</text>
<text text-anchor="start" x="179" y="-1698.3" font-family="Times,serif" font-size="14.00">+ progressStart(max : int = 0) : void</text>
<text text-anchor="start" x="179" y="-1679.3" font-family="Times,serif" font-size="14.00">+ progressAdvance(step : int = 1) : void</text>
<text text-anchor="start" x="179" y="-1660.3" font-family="Times,serif" font-size="14.00">+ progressFinish() : void</text>
<text text-anchor="start" x="179" y="-1641.3" font-family="Times,serif" font-size="14.00">+ progressMessage(message : string, name : string = &#39;message&#39;) : void</text>
<text text-anchor="start" x="179" y="-1622.3" font-family="Times,serif" font-size="14.00">+ progressPrinterAdvance(maxSteps : int, status : string, fileInfo : Symfony\Component\Finder\SplFileInfo, step : int = 1) : void</text>
<text text-anchor="start" x="179" y="-1603.3" font-family="Times,serif" font-size="14.00">+ headerBlock(appVersion : string, configFile : string) : void</text>
<text text-anchor="start" x="179" y="-1584.3" font-family="Times,serif" font-size="14.00">+ configBlock(options : array) : void</text>
<text text-anchor="start" x="179" y="-1565.3" font-family="Times,serif" font-size="14.00">+ consumeBlock(timeUsage : string, memUsage : string, cacheUsage : string, processCount : int) : void</text>
<text text-anchor="start" x="179" y="-1546.3" font-family="Times,serif" font-size="14.00">+ errorBlock(fileCount : int, errorCount : int) : void</text>
<text text-anchor="start" x="179" y="-1527.3" font-family="Times,serif" font-size="14.00">+ successBlock(fileCount : int) : void</text>
<text text-anchor="start" x="179" y="-1508.3" font-family="Times,serif" font-size="14.00">+ warningBlock(message : string = NO_FILE_TO_LINT) : void</text>
<text text-anchor="start" x="179" y="-1489.3" font-family="Times,serif" font-size="14.00">+ newLine(count : int = 1) : void</text>
</g>
<!-- Overtrue\\PHPLint\\Output\\ConsoleOutputInterface -->
<g id="node4" class="node">
<title>Overtrue\\PHPLint\\Output\\ConsoleOutputInterface</title>
<polygon fill="#fefece" stroke="transparent" points="1038,-1441 16,-1441 16,-1115 1038,-1115 1038,-1441"/>
<polygon fill="#eeeeee" stroke="transparent" points="24,-1403 24,-1437 1030,-1437 1030,-1403 24,-1403"/>
<polygon fill="none" stroke="black" points="24,-1403 24,-1437 1030,-1437 1030,-1403 24,-1403"/>
<text text-anchor="start" x="482" y="-1423.8" font-family="Times,serif" font-weight="bold" font-size="14.00">«interface»</text>
<text text-anchor="start" x="431" y="-1409.8" font-family="Times,serif" font-weight="bold" font-size="14.00">ConsoleOutputInterface</text>
<polygon fill="none" stroke="black" points="24,-1378 24,-1403 1030,-1403 1030,-1378 24,-1378"/>
<text text-anchor="start" x="29" y="-1386.8" font-family="Times,serif" font-size="14.00">+ «static» NO_FILE_TO_LINT : string = &quot;Could\ not\ find\ any\ files\ to\ lint&quot; {readOnly}</text>
<polygon fill="none" stroke="black" points="24,-1372 24,-1378 1030,-1378 1030,-1372 24,-1372"/>
<polygon fill="none" stroke="black" points="24,-1119 24,-1372 1030,-1372 1030,-1119 24,-1119"/>
<text text-anchor="start" x="29" y="-1355.8" font-family="Times,serif" font-size="14.00">+ «abstract» createProgressBar(max = 0) : Symfony\Component\Console\Helper\ProgressBar</text>
<text text-anchor="start" x="29" y="-1336.8" font-family="Times,serif" font-size="14.00">+ «abstract» progressStart(max : int = 0) : void</text>
<text text-anchor="start" x="29" y="-1317.8" font-family="Times,serif" font-size="14.00">+ «abstract» progressAdvance(step : int = 1) : void</text>
<text text-anchor="start" x="29" y="-1298.8" font-family="Times,serif" font-size="14.00">+ «abstract» progressFinish() : void</text>
<text text-anchor="start" x="29" y="-1279.8" font-family="Times,serif" font-size="14.00">+ «abstract» progressMessage(message : string, name : string = &#39;message&#39;) : void</text>
<text text-anchor="start" x="29" y="-1260.8" font-family="Times,serif" font-size="14.00">+ «abstract» progressPrinterAdvance(maxSteps : int, status : string, fileInfo : Symfony\Component\Finder\SplFileInfo, step : int = 1) : void</text>
<text text-anchor="start" x="29" y="-1241.8" font-family="Times,serif" font-size="14.00">+ «abstract» headerBlock(appVersion : string, configFile : string) : void</text>
<text text-anchor="start" x="29" y="-1222.8" font-family="Times,serif" font-size="14.00">+ «abstract» configBlock(options : array) : void</text>
<text text-anchor="start" x="29" y="-1203.8" font-family="Times,serif" font-size="14.00">+ «abstract» consumeBlock(timeUsage : string, memUsage : string, cacheUsage : string, processCount : int) : void</text>
<text text-anchor="start" x="29" y="-1184.8" font-family="Times,serif" font-size="14.00">+ «abstract» errorBlock(fileCount : int, errorCount : int) : void</text>
<text text-anchor="start" x="29" y="-1165.8" font-family="Times,serif" font-size="14.00">+ «abstract» successBlock(fileCount : int) : void</text>
<text text-anchor="start" x="29" y="-1146.8" font-family="Times,serif" font-size="14.00">+ «abstract» warningBlock(message : string = NO_FILE_TO_LINT) : void</text>
<text text-anchor="start" x="29" y="-1127.8" font-family="Times,serif" font-size="14.00">+ «abstract» newLine(count : int = 1) : void</text>
</g>
<!-- Overtrue\\PHPLint\\Output\\ConsoleOutput&#45;&gt;Overtrue\\PHPLint\\Output\\ConsoleOutputInterface -->
<g id="edge9" class="edge">
<title>Overtrue\\PHPLint\\Output\\ConsoleOutput&#45;&gt;Overtrue\\PHPLint\\Output\\ConsoleOutputInterface</title>
<path fill="none" stroke="black" stroke-dasharray="5,2" d="M693.61,-1476.95C685.72,-1467.57 677.82,-1458.18 669.98,-1448.87"/>
<polygon fill="none" stroke="black" points="672.52,-1446.46 663.41,-1441.06 667.17,-1450.97 672.52,-1446.46"/>
</g>
<!-- Symfony\\Component\\Console\\Output\\ConsoleOutput -->
<g id="node8" class="node">
<title>Symfony\\Component\\Console\\Output\\ConsoleOutput</title>
<polygon fill="#fefece" stroke="transparent" points="3966,-1371.5 2654,-1371.5 2654,-1184.5 3966,-1184.5 3966,-1371.5"/>
<polygon fill="#eeeeee" stroke="transparent" points="2662,-1333 2662,-1367 3958,-1367 3958,-1333 2662,-1333"/>
<polygon fill="none" stroke="black" points="2662,-1333 2662,-1367 3958,-1367 3958,-1333 2662,-1333"/>
<text text-anchor="start" x="3250.5" y="-1339.8" font-family="Times,serif" font-weight="bold" font-size="14.00">ConsoleOutput</text>
<polygon fill="none" stroke="black" points="2662,-1327 2662,-1333 3958,-1333 3958,-1327 2662,-1327"/>
<polygon fill="none" stroke="black" points="2662,-1188 2662,-1327 3958,-1327 3958,-1188 2662,-1188"/>
<text text-anchor="start" x="2667" y="-1310.8" font-family="Times,serif" font-size="14.00">+ __construct(verbosity : int = VERBOSITY_NORMAL, decorated : bool = «unknown», formatter : Symfony\Component\Console\Formatter\OutputFormatterInterface = «unknown»)</text>
<text text-anchor="start" x="2667" y="-1291.8" font-family="Times,serif" font-size="14.00">+ section() : Symfony\Component\Console\Output\ConsoleSectionOutput</text>
<text text-anchor="start" x="2667" y="-1272.8" font-family="Times,serif" font-size="14.00">+ setDecorated(decorated : bool)</text>
<text text-anchor="start" x="2667" y="-1253.8" font-family="Times,serif" font-size="14.00">+ setFormatter(formatter : Symfony\Component\Console\Formatter\OutputFormatterInterface)</text>
<text text-anchor="start" x="2667" y="-1234.8" font-family="Times,serif" font-size="14.00">+ setVerbosity(level : int)</text>
<text text-anchor="start" x="2667" y="-1215.8" font-family="Times,serif" font-size="14.00">+ getErrorOutput() : Symfony\Component\Console\Output\OutputInterface</text>
<text text-anchor="start" x="2667" y="-1196.8" font-family="Times,serif" font-size="14.00">+ setErrorOutput(error : Symfony\Component\Console\Output\OutputInterface)</text>
</g>
<!-- Overtrue\\PHPLint\\Output\\ConsoleOutput&#45;&gt;Symfony\\Component\\Console\\Output\\ConsoleOutput -->
<g id="edge7" class="edge">
<title>Overtrue\\PHPLint\\Output\\ConsoleOutput&#45;&gt;Symfony\\Component\\Console\\Output\\ConsoleOutput</title>
<path fill="none" stroke="black" d="M1542.73,-1501.51C1595.41,-1492.1 1647.94,-1483.75 1699,-1477 2084.86,-1425.99 2188.01,-1491.03 2574,-1441 2694.05,-1425.44 2823.46,-1399.97 2939.79,-1373.78"/>
<polygon fill="none" stroke="black" points="2940.59,-1377.19 2949.57,-1371.57 2939.04,-1370.36 2940.59,-1377.19"/>
</g>
<!-- Overtrue\\PHPLint\\Output\\ConsoleOutputInterface&#45;&gt;Overtrue\\PHPLint\\Output\\OutputInterface -->
<g id="edge8" class="edge">
<title>Overtrue\\PHPLint\\Output\\ConsoleOutputInterface&#45;&gt;Overtrue\\PHPLint\\Output\\OutputInterface</title>
<path fill="none" stroke="black" stroke-dasharray="5,2" d="M1038,-1117.13C1041.01,-1116.41 1044.01,-1115.7 1047,-1115 1120.65,-1097.75 1201.17,-1083.05 1275.96,-1071.1"/>
<polygon fill="none" stroke="black" points="1276.67,-1074.53 1285.99,-1069.5 1275.57,-1067.61 1276.67,-1074.53"/>
</g>
<!-- Overtrue\\PHPLint\\Output\\JsonOutput -->
<g id="node5" class="node">
<title>Overtrue\\PHPLint\\Output\\JsonOutput</title>
<polygon fill="#fefece" stroke="transparent" points="2562,-1314.5 2072,-1314.5 2072,-1241.5 2562,-1241.5 2562,-1314.5"/>
<polygon fill="#eeeeee" stroke="transparent" points="2080,-1276 2080,-1310 2554,-1310 2554,-1276 2080,-1276"/>
<polygon fill="none" stroke="black" points="2080,-1276 2080,-1310 2554,-1310 2554,-1276 2080,-1276"/>
<text text-anchor="start" x="2271.5" y="-1282.8" font-family="Times,serif" font-weight="bold" font-size="14.00">JsonOutput</text>
<polygon fill="none" stroke="black" points="2080,-1270 2080,-1276 2554,-1276 2554,-1270 2080,-1270"/>
<polygon fill="none" stroke="black" points="2080,-1245 2080,-1270 2554,-1270 2554,-1245 2080,-1245"/>
<text text-anchor="start" x="2085" y="-1253.8" font-family="Times,serif" font-size="14.00">+ format(results : Overtrue\PHPLint\Output\LinterOutput) : void</text>
</g>
<!-- Overtrue\\PHPLint\\Output\\JsonOutput&#45;&gt;Overtrue\\PHPLint\\Output\\OutputInterface -->
<g id="edge11" class="edge">
<title>Overtrue\\PHPLint\\Output\\JsonOutput&#45;&gt;Overtrue\\PHPLint\\Output\\OutputInterface</title>
<path fill="none" stroke="black" stroke-dasharray="5,2" d="M2273.68,-1241.41C2225.38,-1203.73 2143.43,-1145.55 2063,-1115 1996.12,-1089.6 1921.35,-1072.17 1850.18,-1060.2"/>
<polygon fill="none" stroke="black" points="1850.6,-1056.72 1840.16,-1058.55 1849.46,-1063.63 1850.6,-1056.72"/>
</g>
<!-- Symfony\\Component\\Console\\Output\\StreamOutput -->
<g id="node9" class="node">
<title>Symfony\\Component\\Console\\Output\\StreamOutput</title>
<polygon fill="#fefece" stroke="transparent" points="4033.5,-1079 2586.5,-1079 2586.5,-987 4033.5,-987 4033.5,-1079"/>
<polygon fill="#eeeeee" stroke="transparent" points="2595,-1041 2595,-1075 4026,-1075 4026,-1041 2595,-1041"/>
<polygon fill="none" stroke="black" points="2595,-1041 2595,-1075 4026,-1075 4026,-1041 2595,-1041"/>
<text text-anchor="start" x="3253.5" y="-1047.8" font-family="Times,serif" font-weight="bold" font-size="14.00">StreamOutput</text>
<polygon fill="none" stroke="black" points="2595,-1035 2595,-1041 4026,-1041 4026,-1035 2595,-1035"/>
<polygon fill="none" stroke="black" points="2595,-991 2595,-1035 4026,-1035 4026,-991 2595,-991"/>
<text text-anchor="start" x="2600" y="-1018.8" font-family="Times,serif" font-size="14.00">+ __construct(stream : resource, verbosity : int = VERBOSITY_NORMAL, decorated : bool = «unknown», formatter : Symfony\Component\Console\Formatter\OutputFormatterInterface = «unknown»)</text>
<text text-anchor="start" x="2600" y="-999.8" font-family="Times,serif" font-size="14.00">+ getStream()</text>
</g>
<!-- Overtrue\\PHPLint\\Output\\JsonOutput&#45;&gt;Symfony\\Component\\Console\\Output\\StreamOutput -->
<g id="edge10" class="edge">
<title>Overtrue\\PHPLint\\Output\\JsonOutput&#45;&gt;Symfony\\Component\\Console\\Output\\StreamOutput</title>
<path fill="none" stroke="black" d="M2359.75,-1241.37C2408.32,-1203.06 2491.59,-1143.78 2574,-1115 2611.67,-1101.84 2674.37,-1090.3 2747.72,-1080.37"/>
<polygon fill="none" stroke="black" points="2748.22,-1083.83 2757.67,-1079.04 2747.29,-1076.89 2748.22,-1083.83"/>
</g>
<!-- Overtrue\\PHPLint\\Output\\JunitOutput -->
<g id="node6" class="node">
<title>Overtrue\\PHPLint\\Output\\JunitOutput</title>
<polygon fill="#fefece" stroke="transparent" points="2054,-1314.5 1564,-1314.5 1564,-1241.5 2054,-1241.5 2054,-1314.5"/>
<polygon fill="#eeeeee" stroke="transparent" points="1572,-1276 1572,-1310 2046,-1310 2046,-1276 1572,-1276"/>
<polygon fill="none" stroke="black" points="1572,-1276 1572,-1310 2046,-1310 2046,-1276 1572,-1276"/>
<text text-anchor="start" x="1760.5" y="-1282.8" font-family="Times,serif" font-weight="bold" font-size="14.00">JunitOutput</text>
<polygon fill="none" stroke="black" points="1572,-1270 1572,-1276 2046,-1276 2046,-1270 1572,-1270"/>
<polygon fill="none" stroke="black" points="1572,-1245 1572,-1270 2046,-1270 2046,-1245 1572,-1245"/>
<text text-anchor="start" x="1577" y="-1253.8" font-family="Times,serif" font-size="14.00">+ format(results : Overtrue\PHPLint\Output\LinterOutput) : void</text>
</g>
<!-- Overtrue\\PHPLint\\Output\\JunitOutput&#45;&gt;Overtrue\\PHPLint\\Output\\OutputInterface -->
<g id="edge13" class="edge">
<title>Overtrue\\PHPLint\\Output\\JunitOutput&#45;&gt;Overtrue\\PHPLint\\Output\\OutputInterface</title>
<path fill="none" stroke="black" stroke-dasharray="5,2" d="M1771.79,-1241.41C1726.05,-1197.64 1648.49,-1123.44 1599.6,-1076.67"/>
<polygon fill="none" stroke="black" points="1601.95,-1074.07 1592.31,-1069.69 1597.11,-1079.13 1601.95,-1074.07"/>
</g>
<!-- Overtrue\\PHPLint\\Output\\JunitOutput&#45;&gt;Symfony\\Component\\Console\\Output\\StreamOutput -->
<g id="edge12" class="edge">
<title>Overtrue\\PHPLint\\Output\\JunitOutput&#45;&gt;Symfony\\Component\\Console\\Output\\StreamOutput</title>
<path fill="none" stroke="black" d="M1850.08,-1241.38C1897.69,-1202.47 1980.24,-1142.09 2063,-1115 2070.24,-1112.63 2311.11,-1096.75 2579.24,-1079.67"/>
<polygon fill="none" stroke="black" points="2579.84,-1083.14 2589.6,-1079.01 2579.4,-1076.16 2579.84,-1083.14"/>
</g>
<!-- Overtrue\\PHPLint\\Output\\LinterOutput -->
<g id="node7" class="node">
<title>Overtrue\\PHPLint\\Output\\LinterOutput</title>
<polygon fill="#fefece" stroke="transparent" points="2561.5,-1809.5 1708.5,-1809.5 1708.5,-1527.5 2561.5,-1527.5 2561.5,-1809.5"/>
<polygon fill="#eeeeee" stroke="transparent" points="1717,-1771.5 1717,-1805.5 2554,-1805.5 2554,-1771.5 1717,-1771.5"/>
<polygon fill="none" stroke="black" points="1717,-1771.5 1717,-1805.5 2554,-1805.5 2554,-1771.5 1717,-1771.5"/>
<text text-anchor="start" x="2082.5" y="-1778.3" font-family="Times,serif" font-weight="bold" font-size="14.00">LinterOutput</text>
<polygon fill="none" stroke="black" points="1717,-1765.5 1717,-1771.5 2554,-1771.5 2554,-1765.5 1717,-1765.5"/>
<polygon fill="none" stroke="black" points="1717,-1531.5 1717,-1765.5 2554,-1765.5 2554,-1531.5 1717,-1531.5"/>
<text text-anchor="start" x="1722" y="-1749.3" font-family="Times,serif" font-size="14.00">+ __construct(results : array, finder : Symfony\Component\Finder\Finder)</text>
<text text-anchor="start" x="1722" y="-1730.3" font-family="Times,serif" font-size="14.00">+ count() : int</text>
<text text-anchor="start" x="1722" y="-1711.3" font-family="Times,serif" font-size="14.00">+ getContext() : array</text>
<text text-anchor="start" x="1722" y="-1692.3" font-family="Times,serif" font-size="14.00">+ setContext(configResolver : Overtrue\PHPLint\Configuration\Resolver, startTime : float, processCount : int) : void</text>
<text text-anchor="start" x="1722" y="-1673.3" font-family="Times,serif" font-size="14.00">+ hasFailures() : bool</text>
<text text-anchor="start" x="1722" y="-1654.3" font-family="Times,serif" font-size="14.00">+ getFailures() : array</text>
<text text-anchor="start" x="1722" y="-1635.3" font-family="Times,serif" font-size="14.00">+ hasErrors() : bool</text>
<text text-anchor="start" x="1722" y="-1616.3" font-family="Times,serif" font-size="14.00">+ getErrors() : array</text>
<text text-anchor="start" x="1722" y="-1597.3" font-family="Times,serif" font-size="14.00">+ hasWarnings() : bool</text>
<text text-anchor="start" x="1722" y="-1578.3" font-family="Times,serif" font-size="14.00">+ getWarnings() : array</text>
<text text-anchor="start" x="1722" y="-1559.3" font-family="Times,serif" font-size="14.00">+ getHits() : array</text>
<text text-anchor="start" x="1722" y="-1540.3" font-family="Times,serif" font-size="14.00">+ getMisses() : array</text>
</g>
<!-- Countable -->
<g id="node13" class="node">
<title>Countable</title>
<polygon fill="#fefece" stroke="transparent" points="4746,-1314.5 4572,-1314.5 4572,-1241.5 4746,-1241.5 4746,-1314.5"/>
<polygon fill="#eeeeee" stroke="transparent" points="4580,-1276 4580,-1310 4738,-1310 4738,-1276 4580,-1276"/>
<polygon fill="none" stroke="black" points="4580,-1276 4580,-1310 4738,-1310 4738,-1276 4580,-1276"/>
<text text-anchor="start" x="4614" y="-1296.8" font-family="Times,serif" font-weight="bold" font-size="14.00">«interface»</text>
<text text-anchor="start" x="4618" y="-1282.8" font-family="Times,serif" font-weight="bold" font-size="14.00">Countable</text>
<polygon fill="none" stroke="black" points="4580,-1270 4580,-1276 4738,-1276 4738,-1270 4580,-1270"/>
<polygon fill="none" stroke="black" points="4580,-1245 4580,-1270 4738,-1270 4738,-1245 4580,-1245"/>
<text text-anchor="start" x="4585" y="-1253.8" font-family="Times,serif" font-size="14.00">+ «abstract» count()</text>
</g>
<!-- Overtrue\\PHPLint\\Output\\LinterOutput&#45;&gt;Countable -->
<g id="edge14" class="edge">
<title>Overtrue\\PHPLint\\Output\\LinterOutput&#45;&gt;Countable</title>
<path fill="none" stroke="black" stroke-dasharray="5,2" d="M2561.74,-1648.34C3212.4,-1616.04 4394.83,-1544.03 4560,-1441 4602.49,-1414.5 4629.41,-1362.4 4644.28,-1324.41"/>
<polygon fill="none" stroke="black" points="4647.73,-1325.19 4647.98,-1314.6 4641.18,-1322.72 4647.73,-1325.19"/>
</g>
<!-- Symfony\\Component\\Console\\Output\\ConsoleOutput&#45;&gt;Symfony\\Component\\Console\\Output\\StreamOutput -->
<g id="edge4" class="edge">
<title>Symfony\\Component\\Console\\Output\\ConsoleOutput&#45;&gt;Symfony\\Component\\Console\\Output\\StreamOutput</title>
<path fill="none" stroke="black" d="M3310,-1184.44C3310,-1152.31 3310,-1117.31 3310,-1089.16"/>
<polygon fill="none" stroke="black" points="3313.5,-1089.11 3310,-1079.11 3306.5,-1089.11 3313.5,-1089.11"/>
</g>
<!-- Symfony\\Component\\Console\\Output\\ConsoleOutputInterface -->
<g id="node12" class="node">
<title>Symfony\\Component\\Console\\Output\\ConsoleOutputInterface</title>
<polygon fill="#fefece" stroke="transparent" points="4548,-856 3870,-856 3870,-587 4548,-587 4548,-856"/>
<polygon fill="#eeeeee" stroke="transparent" points="3878,-817.5 3878,-851.5 4540,-851.5 4540,-817.5 3878,-817.5"/>
<polygon fill="none" stroke="black" points="3878,-817.5 3878,-851.5 4540,-851.5 4540,-817.5 3878,-817.5"/>
<text text-anchor="start" x="4164" y="-838.3" font-family="Times,serif" font-weight="bold" font-size="14.00">«interface»</text>
<text text-anchor="start" x="4113" y="-824.3" font-family="Times,serif" font-weight="bold" font-size="14.00">ConsoleOutputInterface</text>
<polygon fill="none" stroke="black" points="3878,-659.5 3878,-817.5 4540,-817.5 4540,-659.5 3878,-659.5"/>
<text text-anchor="start" x="3883" y="-801.3" font-family="Times,serif" font-size="14.00">+ «static» VERBOSITY_QUIET : int = 16 {readOnly}</text>
<text text-anchor="start" x="3883" y="-782.3" font-family="Times,serif" font-size="14.00">+ «static» VERBOSITY_NORMAL : int = 32 {readOnly}</text>
<text text-anchor="start" x="3883" y="-763.3" font-family="Times,serif" font-size="14.00">+ «static» VERBOSITY_VERBOSE : int = 64 {readOnly}</text>
<text text-anchor="start" x="3883" y="-744.3" font-family="Times,serif" font-size="14.00">+ «static» VERBOSITY_VERY_VERBOSE : int = 128 {readOnly}</text>
<text text-anchor="start" x="3883" y="-725.3" font-family="Times,serif" font-size="14.00">+ «static» VERBOSITY_DEBUG : int = 256 {readOnly}</text>
<text text-anchor="start" x="3883" y="-706.3" font-family="Times,serif" font-size="14.00">+ «static» OUTPUT_NORMAL : int = 1 {readOnly}</text>
<text text-anchor="start" x="3883" y="-687.3" font-family="Times,serif" font-size="14.00">+ «static» OUTPUT_RAW : int = 2 {readOnly}</text>
<text text-anchor="start" x="3883" y="-668.3" font-family="Times,serif" font-size="14.00">+ «static» OUTPUT_PLAIN : int = 4 {readOnly}</text>
<polygon fill="none" stroke="black" points="3878,-653.5 3878,-659.5 4540,-659.5 4540,-653.5 3878,-653.5"/>
<polygon fill="none" stroke="black" points="3878,-590.5 3878,-653.5 4540,-653.5 4540,-590.5 3878,-590.5"/>
<text text-anchor="start" x="3883" y="-637.3" font-family="Times,serif" font-size="14.00">+ «abstract» getErrorOutput() : Symfony\Component\Console\Output\OutputInterface</text>
<text text-anchor="start" x="3883" y="-618.3" font-family="Times,serif" font-size="14.00">+ «abstract» setErrorOutput(error : Symfony\Component\Console\Output\OutputInterface)</text>
<text text-anchor="start" x="3883" y="-599.3" font-family="Times,serif" font-size="14.00">+ «abstract» section() : Symfony\Component\Console\Output\ConsoleSectionOutput</text>
</g>
<!-- Symfony\\Component\\Console\\Output\\ConsoleOutput&#45;&gt;Symfony\\Component\\Console\\Output\\ConsoleOutputInterface -->
<g id="edge6" class="edge">
<title>Symfony\\Component\\Console\\Output\\ConsoleOutput&#45;&gt;Symfony\\Component\\Console\\Output\\ConsoleOutputInterface</title>
<path fill="none" stroke="black" stroke-dasharray="5,2" d="M3864.17,-1184.45C3928.87,-1157.66 3990.42,-1123.23 4043,-1079 4107.62,-1024.63 4148.55,-939.57 4173.6,-866.17"/>
<polygon fill="none" stroke="black" points="4177.03,-866.95 4176.88,-856.36 4170.39,-864.74 4177.03,-866.95"/>
</g>
<!-- Symfony\\Component\\Console\\Output\\Output -->
<g id="node10" class="node">
<title>Symfony\\Component\\Console\\Output\\Output</title>
<polygon fill="#fefece" stroke="transparent" points="3851.5,-951 2586.5,-951 2586.5,-492 3851.5,-492 3851.5,-951"/>
<polygon fill="#eeeeee" stroke="transparent" points="2595,-912.5 2595,-946.5 3844,-946.5 3844,-912.5 2595,-912.5"/>
<polygon fill="none" stroke="black" points="2595,-912.5 2595,-946.5 3844,-946.5 3844,-912.5 2595,-912.5"/>
<text text-anchor="start" x="3177.5" y="-933.3" font-family="Times,serif" font-weight="bold" font-size="14.00">«abstract»</text>
<text text-anchor="start" x="3191" y="-919.3" font-family="Times,serif" font-weight="bold" font-size="14.00">Output</text>
<polygon fill="none" stroke="black" points="2595,-754.5 2595,-912.5 3844,-912.5 3844,-754.5 2595,-754.5"/>
<text text-anchor="start" x="2600" y="-896.3" font-family="Times,serif" font-size="14.00">+ «static» VERBOSITY_QUIET : int = 16 {readOnly}</text>
<text text-anchor="start" x="2600" y="-877.3" font-family="Times,serif" font-size="14.00">+ «static» VERBOSITY_NORMAL : int = 32 {readOnly}</text>
<text text-anchor="start" x="2600" y="-858.3" font-family="Times,serif" font-size="14.00">+ «static» VERBOSITY_VERBOSE : int = 64 {readOnly}</text>
<text text-anchor="start" x="2600" y="-839.3" font-family="Times,serif" font-size="14.00">+ «static» VERBOSITY_VERY_VERBOSE : int = 128 {readOnly}</text>
<text text-anchor="start" x="2600" y="-820.3" font-family="Times,serif" font-size="14.00">+ «static» VERBOSITY_DEBUG : int = 256 {readOnly}</text>
<text text-anchor="start" x="2600" y="-801.3" font-family="Times,serif" font-size="14.00">+ «static» OUTPUT_NORMAL : int = 1 {readOnly}</text>
<text text-anchor="start" x="2600" y="-782.3" font-family="Times,serif" font-size="14.00">+ «static» OUTPUT_RAW : int = 2 {readOnly}</text>
<text text-anchor="start" x="2600" y="-763.3" font-family="Times,serif" font-size="14.00">+ «static» OUTPUT_PLAIN : int = 4 {readOnly}</text>
<polygon fill="none" stroke="black" points="2595,-748.5 2595,-754.5 3844,-754.5 3844,-748.5 2595,-748.5"/>
<polygon fill="none" stroke="black" points="2595,-495.5 2595,-748.5 3844,-748.5 3844,-495.5 2595,-495.5"/>
<text text-anchor="start" x="2600" y="-732.3" font-family="Times,serif" font-size="14.00">+ __construct(verbosity : int = VERBOSITY_NORMAL, decorated : bool = false, formatter : Symfony\Component\Console\Formatter\OutputFormatterInterface = «unknown»)</text>
<text text-anchor="start" x="2600" y="-713.3" font-family="Times,serif" font-size="14.00">+ setFormatter(formatter : Symfony\Component\Console\Formatter\OutputFormatterInterface)</text>
<text text-anchor="start" x="2600" y="-694.3" font-family="Times,serif" font-size="14.00">+ getFormatter() : Symfony\Component\Console\Formatter\OutputFormatterInterface</text>
<text text-anchor="start" x="2600" y="-675.3" font-family="Times,serif" font-size="14.00">+ setDecorated(decorated : bool)</text>
<text text-anchor="start" x="2600" y="-656.3" font-family="Times,serif" font-size="14.00">+ isDecorated() : bool</text>
<text text-anchor="start" x="2600" y="-637.3" font-family="Times,serif" font-size="14.00">+ setVerbosity(level : int)</text>
<text text-anchor="start" x="2600" y="-618.3" font-family="Times,serif" font-size="14.00">+ getVerbosity() : int</text>
<text text-anchor="start" x="2600" y="-599.3" font-family="Times,serif" font-size="14.00">+ isQuiet() : bool</text>
<text text-anchor="start" x="2600" y="-580.3" font-family="Times,serif" font-size="14.00">+ isVerbose() : bool</text>
<text text-anchor="start" x="2600" y="-561.3" font-family="Times,serif" font-size="14.00">+ isVeryVerbose() : bool</text>
<text text-anchor="start" x="2600" y="-542.3" font-family="Times,serif" font-size="14.00">+ isDebug() : bool</text>
<text text-anchor="start" x="2600" y="-523.3" font-family="Times,serif" font-size="14.00">+ writeln(messages, options : int = OUTPUT_NORMAL)</text>
<text text-anchor="start" x="2600" y="-504.3" font-family="Times,serif" font-size="14.00">+ write(messages, newline : bool = false, options : int = OUTPUT_NORMAL)</text>
</g>
<!-- Symfony\\Component\\Console\\Output\\StreamOutput&#45;&gt;Symfony\\Component\\Console\\Output\\Output -->
<g id="edge3" class="edge">
<title>Symfony\\Component\\Console\\Output\\StreamOutput&#45;&gt;Symfony\\Component\\Console\\Output\\Output</title>
<path fill="none" stroke="black" d="M3296.77,-987C3294.44,-979.09 3291.89,-970.41 3289.17,-961.14"/>
<polygon fill="none" stroke="black" points="3292.45,-959.9 3286.27,-951.29 3285.73,-961.87 3292.45,-959.9"/>
</g>
<!-- Symfony\\Component\\Console\\Output\\OutputInterface -->
<g id="node11" class="node">
<title>Symfony\\Component\\Console\\Output\\OutputInterface</title>
<polygon fill="#fefece" stroke="transparent" points="4080.5,-456 3291.5,-456 3291.5,-16 4080.5,-16 4080.5,-456"/>
<polygon fill="#eeeeee" stroke="transparent" points="3300,-418 3300,-452 4073,-452 4073,-418 3300,-418"/>
<polygon fill="none" stroke="black" points="3300,-418 3300,-452 4073,-452 4073,-418 3300,-418"/>
<text text-anchor="start" x="3641.5" y="-438.8" font-family="Times,serif" font-weight="bold" font-size="14.00">«interface»</text>
<text text-anchor="start" x="3621.5" y="-424.8" font-family="Times,serif" font-weight="bold" font-size="14.00">OutputInterface</text>
<polygon fill="none" stroke="black" points="3300,-260 3300,-418 4073,-418 4073,-260 3300,-260"/>
<text text-anchor="start" x="3305" y="-401.8" font-family="Times,serif" font-size="14.00">+ «static» VERBOSITY_QUIET : int = 16 {readOnly}</text>
<text text-anchor="start" x="3305" y="-382.8" font-family="Times,serif" font-size="14.00">+ «static» VERBOSITY_NORMAL : int = 32 {readOnly}</text>
<text text-anchor="start" x="3305" y="-363.8" font-family="Times,serif" font-size="14.00">+ «static» VERBOSITY_VERBOSE : int = 64 {readOnly}</text>
<text text-anchor="start" x="3305" y="-344.8" font-family="Times,serif" font-size="14.00">+ «static» VERBOSITY_VERY_VERBOSE : int = 128 {readOnly}</text>
<text text-anchor="start" x="3305" y="-325.8" font-family="Times,serif" font-size="14.00">+ «static» VERBOSITY_DEBUG : int = 256 {readOnly}</text>
<text text-anchor="start" x="3305" y="-306.8" font-family="Times,serif" font-size="14.00">+ «static» OUTPUT_NORMAL : int = 1 {readOnly}</text>
<text text-anchor="start" x="3305" y="-287.8" font-family="Times,serif" font-size="14.00">+ «static» OUTPUT_RAW : int = 2 {readOnly}</text>
<text text-anchor="start" x="3305" y="-268.8" font-family="Times,serif" font-size="14.00">+ «static» OUTPUT_PLAIN : int = 4 {readOnly}</text>
<polygon fill="none" stroke="black" points="3300,-254 3300,-260 4073,-260 4073,-254 3300,-254"/>
<polygon fill="none" stroke="black" points="3300,-20 3300,-254 4073,-254 4073,-20 3300,-20"/>
<text text-anchor="start" x="3305" y="-237.8" font-family="Times,serif" font-size="14.00">+ «abstract» write(messages, newline : bool = false, options : int = 0)</text>
<text text-anchor="start" x="3305" y="-218.8" font-family="Times,serif" font-size="14.00">+ «abstract» writeln(messages, options : int = 0)</text>
<text text-anchor="start" x="3305" y="-199.8" font-family="Times,serif" font-size="14.00">+ «abstract» setVerbosity(level : int)</text>
<text text-anchor="start" x="3305" y="-180.8" font-family="Times,serif" font-size="14.00">+ «abstract» getVerbosity() : int</text>
<text text-anchor="start" x="3305" y="-161.8" font-family="Times,serif" font-size="14.00">+ «abstract» isQuiet() : bool</text>
<text text-anchor="start" x="3305" y="-142.8" font-family="Times,serif" font-size="14.00">+ «abstract» isVerbose() : bool</text>
<text text-anchor="start" x="3305" y="-123.8" font-family="Times,serif" font-size="14.00">+ «abstract» isVeryVerbose() : bool</text>
<text text-anchor="start" x="3305" y="-104.8" font-family="Times,serif" font-size="14.00">+ «abstract» isDebug() : bool</text>
<text text-anchor="start" x="3305" y="-85.8" font-family="Times,serif" font-size="14.00">+ «abstract» setDecorated(decorated : bool)</text>
<text text-anchor="start" x="3305" y="-66.8" font-family="Times,serif" font-size="14.00">+ «abstract» isDecorated() : bool</text>
<text text-anchor="start" x="3305" y="-47.8" font-family="Times,serif" font-size="14.00">+ «abstract» setFormatter(formatter : Symfony\Component\Console\Formatter\OutputFormatterInterface)</text>
<text text-anchor="start" x="3305" y="-28.8" font-family="Times,serif" font-size="14.00">+ «abstract» getFormatter() : Symfony\Component\Console\Formatter\OutputFormatterInterface</text>
</g>
<!-- Symfony\\Component\\Console\\Output\\Output&#45;&gt;Symfony\\Component\\Console\\Output\\OutputInterface -->
<g id="edge2" class="edge">
<title>Symfony\\Component\\Console\\Output\\Output&#45;&gt;Symfony\\Component\\Console\\Output\\OutputInterface</title>
<path fill="none" stroke="black" stroke-dasharray="5,2" d="M3439.85,-491.85C3448.97,-482.41 3458.11,-472.94 3467.23,-463.5"/>
<polygon fill="none" stroke="black" points="3469.76,-465.91 3474.19,-456.29 3464.73,-461.05 3469.76,-465.91"/>
</g>
<!-- Symfony\\Component\\Console\\Output\\ConsoleOutputInterface&#45;&gt;Symfony\\Component\\Console\\Output\\OutputInterface -->
<g id="edge5" class="edge">
<title>Symfony\\Component\\Console\\Output\\ConsoleOutputInterface&#45;&gt;Symfony\\Component\\Console\\Output\\OutputInterface</title>
<path fill="none" stroke="black" stroke-dasharray="5,2" d="M4064.36,-586.78C4022.75,-548.31 3976.16,-505.25 3930.29,-462.84"/>
<polygon fill="none" stroke="black" points="3932.66,-460.26 3922.94,-456.04 3927.9,-465.4 3932.66,-460.26"/>
</g>
</g>
</svg>
