<?xml version="1.0" encoding="UTF-8" standalone="no"?>
<!DOCTYPE svg PUBLIC "-//W3C//DTD SVG 1.1//EN"
 "http://www.w3.org/Graphics/SVG/1.1/DTD/svg11.dtd">
<!-- Generated by graphviz version 2.42.4 (0)
 -->
<!-- Pages: 1 -->
<svg width="5686pt" height="2026pt"
 viewBox="0.00 0.00 5686.00 2026.00" xmlns="http://www.w3.org/2000/svg" xmlns:xlink="http://www.w3.org/1999/xlink">
<g id="graph0" class="graph" transform="scale(1 1) rotate(0) translate(4 2022)">
<g id="clust1" class="cluster">
<title>cluster_0</title>
<polygon fill="#cdaa7d" stroke="black" points="1480,-1036 1480,-2010 5472,-2010 5472,-1036 1480,-1036"/>
<text text-anchor="middle" x="3476" y="-1994.8" font-family="Times,serif" font-size="14.00">Overtrue\PHPLint\Output</text>
</g>
<g id="clust2" class="cluster">
<title>cluster_1</title>
<polygon fill="transparent" stroke="black" points="8,-8 8,-1369.5 1472,-1369.5 1472,-8 8,-8"/>
<text text-anchor="middle" x="740" y="-1354.3" font-family="Times,serif" font-size="14.00">Symfony\Component\Console\Output</text>
</g>
<g id="clust3" class="cluster">
<title>cluster_2</title>
<polygon fill="transparent" stroke="black" points="5480,-1248 5480,-1360 5670,-1360 5670,-1248 5480,-1248"/>
<text text-anchor="middle" x="5575" y="-1344.8" font-family="Times,serif" font-size="14.00">0</text>
</g>
<!-- Overtrue\\PHPLint\\Output\\ChainOutput -->
<g id="node1" class="node">
<title>Overtrue\\PHPLint\\Output\\ChainOutput</title>
<polygon fill="#fefece" stroke="transparent" points="4450,-1833.5 3960,-1833.5 3960,-1722.5 4450,-1722.5 4450,-1833.5"/>
<polygon fill="#eeeeee" stroke="transparent" points="3968,-1795 3968,-1829 4442,-1829 4442,-1795 3968,-1795"/>
<polygon fill="none" stroke="black" points="3968,-1795 3968,-1829 4442,-1829 4442,-1795 3968,-1795"/>
<text text-anchor="start" x="4153.5" y="-1801.8" font-family="Times,serif" font-weight="bold" font-size="14.00">ChainOutput</text>
<polygon fill="none" stroke="black" points="3968,-1789 3968,-1795 4442,-1795 4442,-1789 3968,-1789"/>
<polygon fill="none" stroke="black" points="3968,-1726 3968,-1789 4442,-1789 4442,-1726 3968,-1726"/>
<text text-anchor="start" x="3973" y="-1772.8" font-family="Times,serif" font-size="14.00">+ __construct(handlers : array)</text>
<text text-anchor="start" x="3973" y="-1753.8" font-family="Times,serif" font-size="14.00">+ getName() : string</text>
<text text-anchor="start" x="3973" y="-1734.8" font-family="Times,serif" font-size="14.00">+ format(results : Overtrue\PHPLint\Output\LinterOutput) : void</text>
</g>
<!-- Overtrue\\PHPLint\\Output\\OutputInterface -->
<g id="node2" class="node">
<title>Overtrue\\PHPLint\\Output\\OutputInterface</title>
<polygon fill="#fefece" stroke="transparent" points="2568,-1338.5 1998,-1338.5 1998,-1246.5 2568,-1246.5 2568,-1338.5"/>
<polygon fill="#eeeeee" stroke="transparent" points="2006,-1300.5 2006,-1334.5 2560,-1334.5 2560,-1300.5 2006,-1300.5"/>
<polygon fill="none" stroke="black" points="2006,-1300.5 2006,-1334.5 2560,-1334.5 2560,-1300.5 2006,-1300.5"/>
<text text-anchor="start" x="2238" y="-1321.3" font-family="Times,serif" font-weight="bold" font-size="14.00">«interface»</text>
<text text-anchor="start" x="2218" y="-1307.3" font-family="Times,serif" font-weight="bold" font-size="14.00">OutputInterface</text>
<polygon fill="none" stroke="black" points="2006,-1294.5 2006,-1300.5 2560,-1300.5 2560,-1294.5 2006,-1294.5"/>
<polygon fill="none" stroke="black" points="2006,-1250.5 2006,-1294.5 2560,-1294.5 2560,-1250.5 2006,-1250.5"/>
<text text-anchor="start" x="2011" y="-1278.3" font-family="Times,serif" font-size="14.00">+ «abstract» getName() : string</text>
<text text-anchor="start" x="2011" y="-1259.3" font-family="Times,serif" font-size="14.00">+ «abstract» format(results : Overtrue\PHPLint\Output\LinterOutput) : void</text>
</g>
<!-- Overtrue\\PHPLint\\Output\\ChainOutput&#45;&gt;Overtrue\\PHPLint\\Output\\OutputInterface -->
<g id="edge1" class="edge">
<title>Overtrue\\PHPLint\\Output\\ChainOutput&#45;&gt;Overtrue\\PHPLint\\Output\\OutputInterface</title>
<path fill="none" stroke="black" stroke-dasharray="5,2" d="M4156.24,-1722.47C4109.15,-1674.13 4033.06,-1606.72 3951,-1577 3681.36,-1479.35 2934.65,-1626.79 2661,-1541 2533.97,-1501.18 2409.25,-1405.38 2339.59,-1345.33"/>
<polygon fill="none" stroke="black" points="2341.63,-1342.47 2331.79,-1338.55 2337.04,-1347.75 2341.63,-1342.47"/>
</g>
<!-- Overtrue\\PHPLint\\Output\\ConsoleOutput -->
<g id="node3" class="node">
<title>Overtrue\\PHPLint\\Output\\ConsoleOutput</title>
<polygon fill="#fefece" stroke="transparent" points="3941.5,-1979 2504.5,-1979 2504.5,-1577 3941.5,-1577 3941.5,-1979"/>
<polygon fill="#eeeeee" stroke="transparent" points="2513,-1941 2513,-1975 3934,-1975 3934,-1941 2513,-1941"/>
<polygon fill="none" stroke="black" points="2513,-1941 2513,-1975 3934,-1975 3934,-1941 2513,-1941"/>
<text text-anchor="start" x="3164" y="-1947.8" font-family="Times,serif" font-weight="bold" font-size="14.00">ConsoleOutput</text>
<polygon fill="none" stroke="black" points="2513,-1897 2513,-1941 3934,-1941 3934,-1897 2513,-1897"/>
<text text-anchor="start" x="2518" y="-1924.8" font-family="Times,serif" font-size="14.00">+ «static» MAX_LINE_LENGTH : int = 120 {readOnly}</text>
<text text-anchor="start" x="2518" y="-1905.8" font-family="Times,serif" font-size="14.00">+ «static» NO_FILE_TO_LINT : string = &quot;Could\ not\ find\ any\ files\ to\ lint&quot; {readOnly}</text>
<polygon fill="none" stroke="black" points="2513,-1891 2513,-1897 3934,-1897 3934,-1891 2513,-1891"/>
<polygon fill="none" stroke="black" points="2513,-1581 2513,-1891 3934,-1891 3934,-1581 2513,-1581"/>
<text text-anchor="start" x="2518" y="-1874.8" font-family="Times,serif" font-size="14.00">+ __construct(stream, verbosity : int = parent\:\:VERBOSITY_NORMAL, decorated : bool = «unknown», formatter : Symfony\Component\Console\Formatter\OutputFormatterInterface = «unknown»)</text>
<text text-anchor="start" x="2518" y="-1855.8" font-family="Times,serif" font-size="14.00">+ getName() : string</text>
<text text-anchor="start" x="2518" y="-1836.8" font-family="Times,serif" font-size="14.00">+ format(results : Overtrue\PHPLint\Output\LinterOutput) : void</text>
<text text-anchor="start" x="2518" y="-1817.8" font-family="Times,serif" font-size="14.00">+ createProgressBar(max = 0) : Symfony\Component\Console\Helper\ProgressBar</text>
<text text-anchor="start" x="2518" y="-1798.8" font-family="Times,serif" font-size="14.00">+ progressStart(max : int = 0) : void</text>
<text text-anchor="start" x="2518" y="-1779.8" font-family="Times,serif" font-size="14.00">+ progressAdvance(step : int = 1) : void</text>
<text text-anchor="start" x="2518" y="-1760.8" font-family="Times,serif" font-size="14.00">+ progressFinish() : void</text>
<text text-anchor="start" x="2518" y="-1741.8" font-family="Times,serif" font-size="14.00">+ progressMessage(message : string, name : string = &#39;message&#39;) : void</text>
<text text-anchor="start" x="2518" y="-1722.8" font-family="Times,serif" font-size="14.00">+ progressPrinterAdvance(maxSteps : int, status : string, fileInfo : Symfony\Component\Finder\SplFileInfo, step : int = 1) : void</text>
<text text-anchor="start" x="2518" y="-1703.8" font-family="Times,serif" font-size="14.00">+ headerBlock(appVersion : string, configFile : string) : void</text>
<text text-anchor="start" x="2518" y="-1684.8" font-family="Times,serif" font-size="14.00">+ configBlock(options : array) : void</text>
<text text-anchor="start" x="2518" y="-1665.8" font-family="Times,serif" font-size="14.00">+ consumeBlock(timeUsage : string, memUsage : string, cacheUsage : string, processCount : int) : void</text>
<text text-anchor="start" x="2518" y="-1646.8" font-family="Times,serif" font-size="14.00">+ errorBlock(fileCount : int, errorCount : int) : void</text>
<text text-anchor="start" x="2518" y="-1627.8" font-family="Times,serif" font-size="14.00">+ successBlock(fileCount : int) : void</text>
<text text-anchor="start" x="2518" y="-1608.8" font-family="Times,serif" font-size="14.00">+ warningBlock(message : string = NO_FILE_TO_LINT) : void</text>
<text text-anchor="start" x="2518" y="-1589.8" font-family="Times,serif" font-size="14.00">+ newLine(count : int = 1) : void</text>
</g>
<!-- Overtrue\\PHPLint\\Output\\ConsoleOutput&#45;&gt;Overtrue\\PHPLint\\Output\\OutputInterface -->
<g id="edge5" class="edge">
<title>Overtrue\\PHPLint\\Output\\ConsoleOutput&#45;&gt;Overtrue\\PHPLint\\Output\\OutputInterface</title>
<path fill="none" stroke="black" stroke-dasharray="5,2" d="M2731.62,-1576.93C2707.55,-1565.17 2683.89,-1553.17 2661,-1541 2548.63,-1481.26 2426.86,-1397.83 2352.74,-1344.73"/>
<polygon fill="none" stroke="black" points="2354.55,-1341.72 2344.39,-1338.73 2350.47,-1347.41 2354.55,-1341.72"/>
</g>
<!-- Overtrue\\PHPLint\\Output\\ConsoleOutputInterface -->
<g id="node4" class="node">
<title>Overtrue\\PHPLint\\Output\\ConsoleOutputInterface</title>
<polygon fill="#fefece" stroke="transparent" points="3692,-1541 2670,-1541 2670,-1044 3692,-1044 3692,-1541"/>
<polygon fill="#eeeeee" stroke="transparent" points="2678,-1502.5 2678,-1536.5 3684,-1536.5 3684,-1502.5 2678,-1502.5"/>
<polygon fill="none" stroke="black" points="2678,-1502.5 2678,-1536.5 3684,-1536.5 3684,-1502.5 2678,-1502.5"/>
<text text-anchor="start" x="3136" y="-1523.3" font-family="Times,serif" font-weight="bold" font-size="14.00">«interface»</text>
<text text-anchor="start" x="3085" y="-1509.3" font-family="Times,serif" font-weight="bold" font-size="14.00">ConsoleOutputInterface</text>
<polygon fill="none" stroke="black" points="2678,-1306.5 2678,-1502.5 3684,-1502.5 3684,-1306.5 2678,-1306.5"/>
<text text-anchor="start" x="2683" y="-1486.3" font-family="Times,serif" font-size="14.00">+ «static» NO_FILE_TO_LINT : string = &quot;Could\ not\ find\ any\ files\ to\ lint&quot; {readOnly}</text>
<text text-anchor="start" x="2683" y="-1467.3" font-family="Times,serif" font-size="14.00">+ «static» VERBOSITY_SILENT : int = 8 {readOnly}</text>
<text text-anchor="start" x="2683" y="-1448.3" font-family="Times,serif" font-size="14.00">+ «static» VERBOSITY_QUIET : int = 16 {readOnly}</text>
<text text-anchor="start" x="2683" y="-1429.3" font-family="Times,serif" font-size="14.00">+ «static» VERBOSITY_NORMAL : int = 32 {readOnly}</text>
<text text-anchor="start" x="2683" y="-1410.3" font-family="Times,serif" font-size="14.00">+ «static» VERBOSITY_VERBOSE : int = 64 {readOnly}</text>
<text text-anchor="start" x="2683" y="-1391.3" font-family="Times,serif" font-size="14.00">+ «static» VERBOSITY_VERY_VERBOSE : int = 128 {readOnly}</text>
<text text-anchor="start" x="2683" y="-1372.3" font-family="Times,serif" font-size="14.00">+ «static» VERBOSITY_DEBUG : int = 256 {readOnly}</text>
<text text-anchor="start" x="2683" y="-1353.3" font-family="Times,serif" font-size="14.00">+ «static» OUTPUT_NORMAL : int = 1 {readOnly}</text>
<text text-anchor="start" x="2683" y="-1334.3" font-family="Times,serif" font-size="14.00">+ «static» OUTPUT_RAW : int = 2 {readOnly}</text>
<text text-anchor="start" x="2683" y="-1315.3" font-family="Times,serif" font-size="14.00">+ «static» OUTPUT_PLAIN : int = 4 {readOnly}</text>
<polygon fill="none" stroke="black" points="2678,-1300.5 2678,-1306.5 3684,-1306.5 3684,-1300.5 2678,-1300.5"/>
<polygon fill="none" stroke="black" points="2678,-1047.5 2678,-1300.5 3684,-1300.5 3684,-1047.5 2678,-1047.5"/>
<text text-anchor="start" x="2683" y="-1284.3" font-family="Times,serif" font-size="14.00">+ «abstract» createProgressBar(max = 0) : Symfony\Component\Console\Helper\ProgressBar</text>
<text text-anchor="start" x="2683" y="-1265.3" font-family="Times,serif" font-size="14.00">+ «abstract» progressStart(max : int = 0) : void</text>
<text text-anchor="start" x="2683" y="-1246.3" font-family="Times,serif" font-size="14.00">+ «abstract» progressAdvance(step : int = 1) : void</text>
<text text-anchor="start" x="2683" y="-1227.3" font-family="Times,serif" font-size="14.00">+ «abstract» progressFinish() : void</text>
<text text-anchor="start" x="2683" y="-1208.3" font-family="Times,serif" font-size="14.00">+ «abstract» progressMessage(message : string, name : string = &#39;message&#39;) : void</text>
<text text-anchor="start" x="2683" y="-1189.3" font-family="Times,serif" font-size="14.00">+ «abstract» progressPrinterAdvance(maxSteps : int, status : string, fileInfo : Symfony\Component\Finder\SplFileInfo, step : int = 1) : void</text>
<text text-anchor="start" x="2683" y="-1170.3" font-family="Times,serif" font-size="14.00">+ «abstract» headerBlock(appVersion : string, configFile : string) : void</text>
<text text-anchor="start" x="2683" y="-1151.3" font-family="Times,serif" font-size="14.00">+ «abstract» configBlock(options : array) : void</text>
<text text-anchor="start" x="2683" y="-1132.3" font-family="Times,serif" font-size="14.00">+ «abstract» consumeBlock(timeUsage : string, memUsage : string, cacheUsage : string, processCount : int) : void</text>
<text text-anchor="start" x="2683" y="-1113.3" font-family="Times,serif" font-size="14.00">+ «abstract» errorBlock(fileCount : int, errorCount : int) : void</text>
<text text-anchor="start" x="2683" y="-1094.3" font-family="Times,serif" font-size="14.00">+ «abstract» successBlock(fileCount : int) : void</text>
<text text-anchor="start" x="2683" y="-1075.3" font-family="Times,serif" font-size="14.00">+ «abstract» warningBlock(message : string = NO_FILE_TO_LINT) : void</text>
<text text-anchor="start" x="2683" y="-1056.3" font-family="Times,serif" font-size="14.00">+ «abstract» newLine(count : int = 1) : void</text>
</g>
<!-- Overtrue\\PHPLint\\Output\\ConsoleOutput&#45;&gt;Overtrue\\PHPLint\\Output\\ConsoleOutputInterface -->
<g id="edge7" class="edge">
<title>Overtrue\\PHPLint\\Output\\ConsoleOutput&#45;&gt;Overtrue\\PHPLint\\Output\\ConsoleOutputInterface</title>
<path fill="none" stroke="black" stroke-dasharray="5,2" d="M3205.61,-1576.85C3204.88,-1568.36 3204.13,-1559.79 3203.39,-1551.2"/>
<polygon fill="none" stroke="black" points="3206.86,-1550.76 3202.51,-1541.1 3199.89,-1551.36 3206.86,-1550.76"/>
</g>
<!-- Symfony\\Component\\Console\\Output\\StreamOutput -->
<g id="node8" class="node">
<title>Symfony\\Component\\Console\\Output\\StreamOutput</title>
<polygon fill="#fefece" stroke="transparent" points="1463.5,-1338.5 16.5,-1338.5 16.5,-1246.5 1463.5,-1246.5 1463.5,-1338.5"/>
<polygon fill="#eeeeee" stroke="transparent" points="25,-1300.5 25,-1334.5 1456,-1334.5 1456,-1300.5 25,-1300.5"/>
<polygon fill="none" stroke="black" points="25,-1300.5 25,-1334.5 1456,-1334.5 1456,-1300.5 25,-1300.5"/>
<text text-anchor="start" x="683.5" y="-1307.3" font-family="Times,serif" font-weight="bold" font-size="14.00">StreamOutput</text>
<polygon fill="none" stroke="black" points="25,-1294.5 25,-1300.5 1456,-1300.5 1456,-1294.5 25,-1294.5"/>
<polygon fill="none" stroke="black" points="25,-1250.5 25,-1294.5 1456,-1294.5 1456,-1250.5 25,-1250.5"/>
<text text-anchor="start" x="30" y="-1278.3" font-family="Times,serif" font-size="14.00">+ __construct(stream : resource, verbosity : int = VERBOSITY_NORMAL, decorated : bool = «unknown», formatter : Symfony\Component\Console\Formatter\OutputFormatterInterface = «unknown»)</text>
<text text-anchor="start" x="30" y="-1259.3" font-family="Times,serif" font-size="14.00">+ getStream()</text>
</g>
<!-- Overtrue\\PHPLint\\Output\\ConsoleOutput&#45;&gt;Symfony\\Component\\Console\\Output\\StreamOutput -->
<g id="edge4" class="edge">
<title>Overtrue\\PHPLint\\Output\\ConsoleOutput&#45;&gt;Symfony\\Component\\Console\\Output\\StreamOutput</title>
<path fill="none" stroke="black" d="M2504.25,-1578.44C2501.16,-1577.95 2498.08,-1577.47 2495,-1577 2047.03,-1508.51 1921.86,-1622.07 1476,-1541 1247.97,-1499.54 994.27,-1402.14 852.22,-1342.64"/>
<polygon fill="none" stroke="black" points="853.19,-1339.24 842.61,-1338.59 850.47,-1345.7 853.19,-1339.24"/>
</g>
<!-- Symfony\\Component\\Console\\Output\\OutputInterface -->
<g id="node10" class="node">
<title>Symfony\\Component\\Console\\Output\\OutputInterface</title>
<polygon fill="#fefece" stroke="transparent" points="1354.5,-475 521.5,-475 521.5,-16 1354.5,-16 1354.5,-475"/>
<polygon fill="#eeeeee" stroke="transparent" points="530,-436.5 530,-470.5 1347,-470.5 1347,-436.5 530,-436.5"/>
<polygon fill="none" stroke="black" points="530,-436.5 530,-470.5 1347,-470.5 1347,-436.5 530,-436.5"/>
<text text-anchor="start" x="893.5" y="-457.3" font-family="Times,serif" font-weight="bold" font-size="14.00">«interface»</text>
<text text-anchor="start" x="873.5" y="-443.3" font-family="Times,serif" font-weight="bold" font-size="14.00">OutputInterface</text>
<polygon fill="none" stroke="black" points="530,-259.5 530,-436.5 1347,-436.5 1347,-259.5 530,-259.5"/>
<text text-anchor="start" x="535" y="-420.3" font-family="Times,serif" font-size="14.00">+ «static» VERBOSITY_SILENT : int = 8 {readOnly}</text>
<text text-anchor="start" x="535" y="-401.3" font-family="Times,serif" font-size="14.00">+ «static» VERBOSITY_QUIET : int = 16 {readOnly}</text>
<text text-anchor="start" x="535" y="-382.3" font-family="Times,serif" font-size="14.00">+ «static» VERBOSITY_NORMAL : int = 32 {readOnly}</text>
<text text-anchor="start" x="535" y="-363.3" font-family="Times,serif" font-size="14.00">+ «static» VERBOSITY_VERBOSE : int = 64 {readOnly}</text>
<text text-anchor="start" x="535" y="-344.3" font-family="Times,serif" font-size="14.00">+ «static» VERBOSITY_VERY_VERBOSE : int = 128 {readOnly}</text>
<text text-anchor="start" x="535" y="-325.3" font-family="Times,serif" font-size="14.00">+ «static» VERBOSITY_DEBUG : int = 256 {readOnly}</text>
<text text-anchor="start" x="535" y="-306.3" font-family="Times,serif" font-size="14.00">+ «static» OUTPUT_NORMAL : int = 1 {readOnly}</text>
<text text-anchor="start" x="535" y="-287.3" font-family="Times,serif" font-size="14.00">+ «static» OUTPUT_RAW : int = 2 {readOnly}</text>
<text text-anchor="start" x="535" y="-268.3" font-family="Times,serif" font-size="14.00">+ «static» OUTPUT_PLAIN : int = 4 {readOnly}</text>
<polygon fill="none" stroke="black" points="530,-253.5 530,-259.5 1347,-259.5 1347,-253.5 530,-253.5"/>
<polygon fill="none" stroke="black" points="530,-19.5 530,-253.5 1347,-253.5 1347,-19.5 530,-19.5"/>
<text text-anchor="start" x="535" y="-237.3" font-family="Times,serif" font-size="14.00">+ «abstract» write(messages, newline : bool = false, options : int = 0) : void</text>
<text text-anchor="start" x="535" y="-218.3" font-family="Times,serif" font-size="14.00">+ «abstract» writeln(messages, options : int = 0) : void</text>
<text text-anchor="start" x="535" y="-199.3" font-family="Times,serif" font-size="14.00">+ «abstract» setVerbosity(level : int) : void</text>
<text text-anchor="start" x="535" y="-180.3" font-family="Times,serif" font-size="14.00">+ «abstract» getVerbosity() : int</text>
<text text-anchor="start" x="535" y="-161.3" font-family="Times,serif" font-size="14.00">+ «abstract» isQuiet() : bool</text>
<text text-anchor="start" x="535" y="-142.3" font-family="Times,serif" font-size="14.00">+ «abstract» isVerbose() : bool</text>
<text text-anchor="start" x="535" y="-123.3" font-family="Times,serif" font-size="14.00">+ «abstract» isVeryVerbose() : bool</text>
<text text-anchor="start" x="535" y="-104.3" font-family="Times,serif" font-size="14.00">+ «abstract» isDebug() : bool</text>
<text text-anchor="start" x="535" y="-85.3" font-family="Times,serif" font-size="14.00">+ «abstract» setDecorated(decorated : bool) : void</text>
<text text-anchor="start" x="535" y="-66.3" font-family="Times,serif" font-size="14.00">+ «abstract» isDecorated() : bool</text>
<text text-anchor="start" x="535" y="-47.3" font-family="Times,serif" font-size="14.00">+ «abstract» setFormatter(formatter : Symfony\Component\Console\Formatter\OutputFormatterInterface) : void</text>
<text text-anchor="start" x="535" y="-28.3" font-family="Times,serif" font-size="14.00">+ «abstract» getFormatter() : Symfony\Component\Console\Formatter\OutputFormatterInterface</text>
</g>
<!-- Overtrue\\PHPLint\\Output\\ConsoleOutputInterface&#45;&gt;Symfony\\Component\\Console\\Output\\OutputInterface -->
<g id="edge6" class="edge">
<title>Overtrue\\PHPLint\\Output\\ConsoleOutputInterface&#45;&gt;Symfony\\Component\\Console\\Output\\OutputInterface</title>
<path fill="none" stroke="black" stroke-dasharray="5,2" d="M2669.92,-1053.39C2275.19,-869.49 1735.35,-617.98 1363.84,-444.9"/>
<polygon fill="none" stroke="black" points="1365.09,-441.62 1354.55,-440.57 1362.14,-447.96 1365.09,-441.62"/>
</g>
<!-- Overtrue\\PHPLint\\Output\\JsonOutput -->
<g id="node5" class="node">
<title>Overtrue\\PHPLint\\Output\\JsonOutput</title>
<polygon fill="#fefece" stroke="transparent" points="2486,-1824 1996,-1824 1996,-1732 2486,-1732 2486,-1824"/>
<polygon fill="#eeeeee" stroke="transparent" points="2004,-1786 2004,-1820 2478,-1820 2478,-1786 2004,-1786"/>
<polygon fill="none" stroke="black" points="2004,-1786 2004,-1820 2478,-1820 2478,-1786 2004,-1786"/>
<text text-anchor="start" x="2195.5" y="-1792.8" font-family="Times,serif" font-weight="bold" font-size="14.00">JsonOutput</text>
<polygon fill="none" stroke="black" points="2004,-1780 2004,-1786 2478,-1786 2478,-1780 2004,-1780"/>
<polygon fill="none" stroke="black" points="2004,-1736 2004,-1780 2478,-1780 2478,-1736 2004,-1736"/>
<text text-anchor="start" x="2009" y="-1763.8" font-family="Times,serif" font-size="14.00">+ getName() : string</text>
<text text-anchor="start" x="2009" y="-1744.8" font-family="Times,serif" font-size="14.00">+ format(results : Overtrue\PHPLint\Output\LinterOutput) : void</text>
</g>
<!-- Overtrue\\PHPLint\\Output\\JsonOutput&#45;&gt;Overtrue\\PHPLint\\Output\\OutputInterface -->
<g id="edge9" class="edge">
<title>Overtrue\\PHPLint\\Output\\JsonOutput&#45;&gt;Overtrue\\PHPLint\\Output\\OutputInterface</title>
<path fill="none" stroke="black" stroke-dasharray="5,2" d="M2244.91,-1731.95C2252.64,-1643.06 2269.81,-1445.35 2278.2,-1348.76"/>
<polygon fill="none" stroke="black" points="2281.7,-1348.88 2279.08,-1338.61 2274.73,-1348.27 2281.7,-1348.88"/>
</g>
<!-- Overtrue\\PHPLint\\Output\\JsonOutput&#45;&gt;Symfony\\Component\\Console\\Output\\StreamOutput -->
<g id="edge8" class="edge">
<title>Overtrue\\PHPLint\\Output\\JsonOutput&#45;&gt;Symfony\\Component\\Console\\Output\\StreamOutput</title>
<path fill="none" stroke="black" d="M2200.28,-1731.8C2153.93,-1683.81 2073.39,-1610.37 1987,-1577 1774.62,-1494.95 1699.25,-1585.64 1476,-1541 1250.18,-1495.84 998.02,-1400.75 855.22,-1342.47"/>
<polygon fill="none" stroke="black" points="856.13,-1339.06 845.55,-1338.51 853.48,-1345.54 856.13,-1339.06"/>
</g>
<!-- Overtrue\\PHPLint\\Output\\JunitOutput -->
<g id="node6" class="node">
<title>Overtrue\\PHPLint\\Output\\JunitOutput</title>
<polygon fill="#fefece" stroke="transparent" points="1978,-1824 1488,-1824 1488,-1732 1978,-1732 1978,-1824"/>
<polygon fill="#eeeeee" stroke="transparent" points="1496,-1786 1496,-1820 1970,-1820 1970,-1786 1496,-1786"/>
<polygon fill="none" stroke="black" points="1496,-1786 1496,-1820 1970,-1820 1970,-1786 1496,-1786"/>
<text text-anchor="start" x="1684.5" y="-1792.8" font-family="Times,serif" font-weight="bold" font-size="14.00">JunitOutput</text>
<polygon fill="none" stroke="black" points="1496,-1780 1496,-1786 1970,-1786 1970,-1780 1496,-1780"/>
<polygon fill="none" stroke="black" points="1496,-1736 1496,-1780 1970,-1780 1970,-1736 1496,-1736"/>
<text text-anchor="start" x="1501" y="-1763.8" font-family="Times,serif" font-size="14.00">+ getName() : string</text>
<text text-anchor="start" x="1501" y="-1744.8" font-family="Times,serif" font-size="14.00">+ format(results : Overtrue\PHPLint\Output\LinterOutput) : void</text>
</g>
<!-- Overtrue\\PHPLint\\Output\\JunitOutput&#45;&gt;Overtrue\\PHPLint\\Output\\OutputInterface -->
<g id="edge11" class="edge">
<title>Overtrue\\PHPLint\\Output\\JunitOutput&#45;&gt;Overtrue\\PHPLint\\Output\\OutputInterface</title>
<path fill="none" stroke="black" stroke-dasharray="5,2" d="M1784.25,-1731.95C1886.6,-1641.98 2115.75,-1440.53 2224.09,-1345.29"/>
<polygon fill="none" stroke="black" points="2226.48,-1347.85 2231.68,-1338.61 2221.86,-1342.59 2226.48,-1347.85"/>
</g>
<!-- Overtrue\\PHPLint\\Output\\JunitOutput&#45;&gt;Symfony\\Component\\Console\\Output\\StreamOutput -->
<g id="edge10" class="edge">
<title>Overtrue\\PHPLint\\Output\\JunitOutput&#45;&gt;Symfony\\Component\\Console\\Output\\StreamOutput</title>
<path fill="none" stroke="black" d="M1640.47,-1731.95C1454.21,-1641.26 1035.34,-1437.3 841.7,-1343.02"/>
<polygon fill="none" stroke="black" points="843.18,-1339.85 832.65,-1338.61 840.11,-1346.14 843.18,-1339.85"/>
</g>
<!-- Overtrue\\PHPLint\\Output\\LinterOutput -->
<g id="node7" class="node">
<title>Overtrue\\PHPLint\\Output\\LinterOutput</title>
<polygon fill="#fefece" stroke="transparent" points="5464,-1919 4468,-1919 4468,-1637 5464,-1637 5464,-1919"/>
<polygon fill="#eeeeee" stroke="transparent" points="4476,-1881 4476,-1915 5456,-1915 5456,-1881 4476,-1881"/>
<polygon fill="none" stroke="black" points="4476,-1881 4476,-1915 5456,-1915 5456,-1881 4476,-1881"/>
<text text-anchor="start" x="4913" y="-1887.8" font-family="Times,serif" font-weight="bold" font-size="14.00">LinterOutput</text>
<polygon fill="none" stroke="black" points="4476,-1875 4476,-1881 5456,-1881 5456,-1875 4476,-1875"/>
<polygon fill="none" stroke="black" points="4476,-1641 4476,-1875 5456,-1875 5456,-1641 4476,-1641"/>
<text text-anchor="start" x="4481" y="-1858.8" font-family="Times,serif" font-size="14.00">+ __construct(results : array, finder : Symfony\Component\Finder\Finder)</text>
<text text-anchor="start" x="4481" y="-1839.8" font-family="Times,serif" font-size="14.00">+ count() : int</text>
<text text-anchor="start" x="4481" y="-1820.8" font-family="Times,serif" font-size="14.00">+ getContext() : array</text>
<text text-anchor="start" x="4481" y="-1801.8" font-family="Times,serif" font-size="14.00">+ setContext(configResolver : Overtrue\PHPLint\Configuration\Resolver, startTime : float, processCount : int, default : array = []) : void</text>
<text text-anchor="start" x="4481" y="-1782.8" font-family="Times,serif" font-size="14.00">+ hasFailures() : bool</text>
<text text-anchor="start" x="4481" y="-1763.8" font-family="Times,serif" font-size="14.00">+ getFailures() : array</text>
<text text-anchor="start" x="4481" y="-1744.8" font-family="Times,serif" font-size="14.00">+ hasErrors() : bool</text>
<text text-anchor="start" x="4481" y="-1725.8" font-family="Times,serif" font-size="14.00">+ getErrors() : array</text>
<text text-anchor="start" x="4481" y="-1706.8" font-family="Times,serif" font-size="14.00">+ hasWarnings() : bool</text>
<text text-anchor="start" x="4481" y="-1687.8" font-family="Times,serif" font-size="14.00">+ getWarnings() : array</text>
<text text-anchor="start" x="4481" y="-1668.8" font-family="Times,serif" font-size="14.00">+ getHits() : array</text>
<text text-anchor="start" x="4481" y="-1649.8" font-family="Times,serif" font-size="14.00">+ getMisses() : array</text>
</g>
<!-- Countable -->
<g id="node11" class="node">
<title>Countable</title>
<polygon fill="#fefece" stroke="transparent" points="5662,-1329 5488,-1329 5488,-1256 5662,-1256 5662,-1329"/>
<polygon fill="#eeeeee" stroke="transparent" points="5496,-1290.5 5496,-1324.5 5654,-1324.5 5654,-1290.5 5496,-1290.5"/>
<polygon fill="none" stroke="black" points="5496,-1290.5 5496,-1324.5 5654,-1324.5 5654,-1290.5 5496,-1290.5"/>
<text text-anchor="start" x="5530" y="-1311.3" font-family="Times,serif" font-weight="bold" font-size="14.00">«interface»</text>
<text text-anchor="start" x="5534" y="-1297.3" font-family="Times,serif" font-weight="bold" font-size="14.00">Countable</text>
<polygon fill="none" stroke="black" points="5496,-1284.5 5496,-1290.5 5654,-1290.5 5654,-1284.5 5496,-1284.5"/>
<polygon fill="none" stroke="black" points="5496,-1259.5 5496,-1284.5 5654,-1284.5 5654,-1259.5 5496,-1259.5"/>
<text text-anchor="start" x="5501" y="-1268.3" font-family="Times,serif" font-size="14.00">+ «abstract» count()</text>
</g>
<!-- Overtrue\\PHPLint\\Output\\LinterOutput&#45;&gt;Countable -->
<g id="edge12" class="edge">
<title>Overtrue\\PHPLint\\Output\\LinterOutput&#45;&gt;Countable</title>
<path fill="none" stroke="black" stroke-dasharray="5,2" d="M5353.95,-1636.96C5398.71,-1609.86 5440.84,-1578.07 5476,-1541 5530.15,-1483.9 5556.04,-1393.46 5567.33,-1339.16"/>
<polygon fill="none" stroke="black" points="5570.8,-1339.62 5569.33,-1329.13 5563.94,-1338.25 5570.8,-1339.62"/>
</g>
<!-- Symfony\\Component\\Console\\Output\\Output -->
<g id="node9" class="node">
<title>Symfony\\Component\\Console\\Output\\Output</title>
<polygon fill="#fefece" stroke="transparent" points="1417.5,-1008 152.5,-1008 152.5,-511 1417.5,-511 1417.5,-1008"/>
<polygon fill="#eeeeee" stroke="transparent" points="161,-969.5 161,-1003.5 1410,-1003.5 1410,-969.5 161,-969.5"/>
<polygon fill="none" stroke="black" points="161,-969.5 161,-1003.5 1410,-1003.5 1410,-969.5 161,-969.5"/>
<text text-anchor="start" x="743.5" y="-990.3" font-family="Times,serif" font-weight="bold" font-size="14.00">«abstract»</text>
<text text-anchor="start" x="757" y="-976.3" font-family="Times,serif" font-weight="bold" font-size="14.00">Output</text>
<polygon fill="none" stroke="black" points="161,-792.5 161,-969.5 1410,-969.5 1410,-792.5 161,-792.5"/>
<text text-anchor="start" x="166" y="-953.3" font-family="Times,serif" font-size="14.00">+ «static» VERBOSITY_SILENT : int = 8 {readOnly}</text>
<text text-anchor="start" x="166" y="-934.3" font-family="Times,serif" font-size="14.00">+ «static» VERBOSITY_QUIET : int = 16 {readOnly}</text>
<text text-anchor="start" x="166" y="-915.3" font-family="Times,serif" font-size="14.00">+ «static» VERBOSITY_NORMAL : int = 32 {readOnly}</text>
<text text-anchor="start" x="166" y="-896.3" font-family="Times,serif" font-size="14.00">+ «static» VERBOSITY_VERBOSE : int = 64 {readOnly}</text>
<text text-anchor="start" x="166" y="-877.3" font-family="Times,serif" font-size="14.00">+ «static» VERBOSITY_VERY_VERBOSE : int = 128 {readOnly}</text>
<text text-anchor="start" x="166" y="-858.3" font-family="Times,serif" font-size="14.00">+ «static» VERBOSITY_DEBUG : int = 256 {readOnly}</text>
<text text-anchor="start" x="166" y="-839.3" font-family="Times,serif" font-size="14.00">+ «static» OUTPUT_NORMAL : int = 1 {readOnly}</text>
<text text-anchor="start" x="166" y="-820.3" font-family="Times,serif" font-size="14.00">+ «static» OUTPUT_RAW : int = 2 {readOnly}</text>
<text text-anchor="start" x="166" y="-801.3" font-family="Times,serif" font-size="14.00">+ «static» OUTPUT_PLAIN : int = 4 {readOnly}</text>
<polygon fill="none" stroke="black" points="161,-786.5 161,-792.5 1410,-792.5 1410,-786.5 161,-786.5"/>
<polygon fill="none" stroke="black" points="161,-514.5 161,-786.5 1410,-786.5 1410,-514.5 161,-514.5"/>
<text text-anchor="start" x="166" y="-770.3" font-family="Times,serif" font-size="14.00">+ __construct(verbosity : int = VERBOSITY_NORMAL, decorated : bool = false, formatter : Symfony\Component\Console\Formatter\OutputFormatterInterface = «unknown»)</text>
<text text-anchor="start" x="166" y="-751.3" font-family="Times,serif" font-size="14.00">+ setFormatter(formatter : Symfony\Component\Console\Formatter\OutputFormatterInterface) : void</text>
<text text-anchor="start" x="166" y="-732.3" font-family="Times,serif" font-size="14.00">+ getFormatter() : Symfony\Component\Console\Formatter\OutputFormatterInterface</text>
<text text-anchor="start" x="166" y="-713.3" font-family="Times,serif" font-size="14.00">+ setDecorated(decorated : bool) : void</text>
<text text-anchor="start" x="166" y="-694.3" font-family="Times,serif" font-size="14.00">+ isDecorated() : bool</text>
<text text-anchor="start" x="166" y="-675.3" font-family="Times,serif" font-size="14.00">+ setVerbosity(level : int) : void</text>
<text text-anchor="start" x="166" y="-656.3" font-family="Times,serif" font-size="14.00">+ getVerbosity() : int</text>
<text text-anchor="start" x="166" y="-637.3" font-family="Times,serif" font-size="14.00">+ isSilent() : bool</text>
<text text-anchor="start" x="166" y="-618.3" font-family="Times,serif" font-size="14.00">+ isQuiet() : bool</text>
<text text-anchor="start" x="166" y="-599.3" font-family="Times,serif" font-size="14.00">+ isVerbose() : bool</text>
<text text-anchor="start" x="166" y="-580.3" font-family="Times,serif" font-size="14.00">+ isVeryVerbose() : bool</text>
<text text-anchor="start" x="166" y="-561.3" font-family="Times,serif" font-size="14.00">+ isDebug() : bool</text>
<text text-anchor="start" x="166" y="-542.3" font-family="Times,serif" font-size="14.00">+ writeln(messages, options : int = OUTPUT_NORMAL) : void</text>
<text text-anchor="start" x="166" y="-523.3" font-family="Times,serif" font-size="14.00">+ write(messages, newline : bool = false, options : int = OUTPUT_NORMAL) : void</text>
</g>
<!-- Symfony\\Component\\Console\\Output\\StreamOutput&#45;&gt;Symfony\\Component\\Console\\Output\\Output -->
<g id="edge3" class="edge">
<title>Symfony\\Component\\Console\\Output\\StreamOutput&#45;&gt;Symfony\\Component\\Console\\Output\\Output</title>
<path fill="none" stroke="black" d="M743.84,-1246.23C748.22,-1194.55 755.74,-1105.79 763.16,-1018.17"/>
<polygon fill="none" stroke="black" points="766.66,-1018.31 764.02,-1008.05 759.69,-1017.72 766.66,-1018.31"/>
</g>
<!-- Symfony\\Component\\Console\\Output\\Output&#45;&gt;Symfony\\Component\\Console\\Output\\OutputInterface -->
<g id="edge2" class="edge">
<title>Symfony\\Component\\Console\\Output\\Output&#45;&gt;Symfony\\Component\\Console\\Output\\OutputInterface</title>
<path fill="none" stroke="black" stroke-dasharray="5,2" d="M859.04,-510.75C861.61,-502.12 864.19,-493.49 866.77,-484.88"/>
<polygon fill="none" stroke="black" points="870.16,-485.76 869.67,-475.17 863.45,-483.75 870.16,-485.76"/>
</g>
</g>
</svg>
