<?xml version="1.0" encoding="UTF-8" standalone="no"?>
<!DOCTYPE svg PUBLIC "-//W3C//DTD SVG 1.1//EN"
 "http://www.w3.org/Graphics/SVG/1.1/DTD/svg11.dtd">
<!-- Generated by graphviz version 2.43.0 (0)
 -->
<!-- Title: %3 Pages: 1 -->
<svg width="4046pt" height="1889pt"
 viewBox="0.00 0.00 4046.00 1889.00" xmlns="http://www.w3.org/2000/svg" xmlns:xlink="http://www.w3.org/1999/xlink">
<g id="graph0" class="graph" transform="scale(1 1) rotate(0) translate(4 1885)">
<title>%3</title>
<g id="clust1" class="cluster">
<title>cluster_0</title>
<polygon fill="#cdaa7d" stroke="black" points="315.5,-250 315.5,-457 2032,-457 2032,-250 315.5,-250"/>
<text text-anchor="middle" x="1173.75" y="-441.8" font-family="Times,serif" font-size="14.00">Overtrue\PHPLint\Extension</text>
</g>
<g id="clust2" class="cluster">
<title>cluster_1</title>
<polygon fill="transparent" stroke="black" points="1620.5,-129 1620.5,-242 1903.5,-242 1903.5,-129 1620.5,-129"/>
<text text-anchor="middle" x="1762" y="-226.8" font-family="Times,serif" font-size="14.00">Symfony\Component\EventDispatcher</text>
</g>
<g id="clust3" class="cluster">
<title>cluster_2</title>
<polygon fill="transparent" stroke="black" points="1497.5,-8 1497.5,-121 2026.5,-121 2026.5,-8 1497.5,-8"/>
<text text-anchor="middle" x="1762" y="-105.8" font-family="Times,serif" font-size="14.00">Overtrue\PHPLint\Event</text>
</g>
<g id="clust4" class="cluster">
<title>cluster_3</title>
<polygon fill="#cdaa7d" stroke="black" points="8,-465 8,-1366 2166.5,-1366 2166.5,-465 8,-465"/>
<text text-anchor="middle" x="1087.25" y="-1350.8" font-family="Times,serif" font-size="14.00">Overtrue\PHPLint\Output</text>
</g>
<g id="clust5" class="cluster">
<title>cluster_4</title>
<polygon fill="transparent" stroke="black" points="1181,-1374 1181,-1873 4030,-1873 4030,-1374 1181,-1374"/>
<text text-anchor="middle" x="2605.5" y="-1857.8" font-family="Times,serif" font-size="14.00">Symfony\Component\Console\Output</text>
</g>
<!-- Overtrue\\PHPLint\\Extension\\OutputManager -->
<g id="node1" class="node">
<title>Overtrue\\PHPLint\\Extension\\OutputManager</title>
<polygon fill="#fefece" stroke="transparent" points="845.5,-426 323.5,-426 323.5,-258 845.5,-258 845.5,-426"/>
<polygon fill="#eeeeee" stroke="transparent" points="331.5,-388 331.5,-422 837.5,-422 837.5,-388 331.5,-388"/>
<polygon fill="none" stroke="black" points="331.5,-388 331.5,-422 837.5,-422 837.5,-388 331.5,-388"/>
<text text-anchor="start" x="536" y="-394.8" font-family="Times,serif" font-weight="bold" font-size="14.00">OutputManager</text>
<polygon fill="none" stroke="black" points="331.5,-382 331.5,-388 837.5,-388 837.5,-382 331.5,-382"/>
<polygon fill="none" stroke="black" points="331.5,-262 331.5,-382 837.5,-382 837.5,-262 331.5,-262"/>
<text text-anchor="start" x="336.5" y="-365.8" font-family="Times,serif" font-size="14.00">+ getName() : string</text>
<text text-anchor="start" x="336.5" y="-346.8" font-family="Times,serif" font-size="14.00">+ «static» getCommands() : array</text>
<text text-anchor="start" x="336.5" y="-327.8" font-family="Times,serif" font-size="14.00">+ «static» getDefinition() : Symfony\Component\Console\Input\InputDefinition</text>
<text text-anchor="start" x="336.5" y="-308.8" font-family="Times,serif" font-size="14.00">+ «static» getSubscribedEvents() : array</text>
<text text-anchor="start" x="336.5" y="-289.8" font-family="Times,serif" font-size="14.00">+ initFormat(event : Symfony\Component\Console\Event\ConsoleCommandEvent) : void</text>
<text text-anchor="start" x="336.5" y="-270.8" font-family="Times,serif" font-size="14.00">+ afterChecking(event : Overtrue\PHPLint\Event\AfterCheckingEvent) : void</text>
</g>
<!-- Overtrue\\PHPLint\\Extension\\ExtensionInterface -->
<g id="node2" class="node">
<title>Overtrue\\PHPLint\\Extension\\ExtensionInterface</title>
<polygon fill="#fefece" stroke="transparent" points="2024,-397.5 1500,-397.5 1500,-286.5 2024,-286.5 2024,-397.5"/>
<polygon fill="#eeeeee" stroke="transparent" points="1508,-359 1508,-393 2016,-393 2016,-359 1508,-359"/>
<polygon fill="none" stroke="black" points="1508,-359 1508,-393 2016,-393 2016,-359 1508,-359"/>
<text text-anchor="start" x="1729.5" y="-379.8" font-family="Times,serif" font-weight="bold" font-size="14.00">«interface»</text>
<text text-anchor="start" x="1707" y="-365.8" font-family="Times,serif" font-weight="bold" font-size="14.00">ExtensionInterface</text>
<polygon fill="none" stroke="black" points="1508,-353 1508,-359 2016,-359 2016,-353 1508,-353"/>
<polygon fill="none" stroke="black" points="1508,-290 1508,-353 2016,-353 2016,-290 1508,-290"/>
<text text-anchor="start" x="1513" y="-336.8" font-family="Times,serif" font-size="14.00">+ «abstract» getName() : string</text>
<text text-anchor="start" x="1513" y="-317.8" font-family="Times,serif" font-size="14.00">+ «abstract» «static» getCommands() : array</text>
<text text-anchor="start" x="1513" y="-298.8" font-family="Times,serif" font-size="14.00">+ «abstract» «static» getDefinition() : Symfony\Component\Console\Input\InputDefinition</text>
</g>
<!-- Overtrue\\PHPLint\\Extension\\OutputManager&#45;&gt;Overtrue\\PHPLint\\Extension\\ExtensionInterface -->
<g id="edge1" class="edge">
<title>Overtrue\\PHPLint\\Extension\\OutputManager&#45;&gt;Overtrue\\PHPLint\\Extension\\ExtensionInterface</title>
<path fill="none" stroke="black" stroke-dasharray="5,2" d="M845.65,-342C1036.84,-342 1295.97,-342 1489.72,-342"/>
<polygon fill="none" stroke="black" points="1489.77,-345.5 1499.77,-342 1489.77,-338.5 1489.77,-345.5"/>
</g>
<!-- Symfony\\Component\\EventDispatcher\\EventSubscriberInterface -->
<g id="node3" class="node">
<title>Symfony\\Component\\EventDispatcher\\EventSubscriberInterface</title>
<polygon fill="#fefece" stroke="transparent" points="1895.5,-210.5 1628.5,-210.5 1628.5,-137.5 1895.5,-137.5 1895.5,-210.5"/>
<polygon fill="#eeeeee" stroke="transparent" points="1637,-172 1637,-206 1888,-206 1888,-172 1637,-172"/>
<polygon fill="none" stroke="black" points="1637,-172 1637,-206 1888,-206 1888,-172 1637,-172"/>
<text text-anchor="start" x="1730" y="-192.8" font-family="Times,serif" font-weight="bold" font-size="14.00">«interface»</text>
<text text-anchor="start" x="1687.5" y="-178.8" font-family="Times,serif" font-weight="bold" font-size="14.00">EventSubscriberInterface</text>
<polygon fill="none" stroke="black" points="1637,-166 1637,-172 1888,-172 1888,-166 1637,-166"/>
<polygon fill="none" stroke="black" points="1637,-141 1637,-166 1888,-166 1888,-141 1637,-141"/>
<text text-anchor="start" x="1642" y="-149.8" font-family="Times,serif" font-size="14.00">+ «abstract» «static» getSubscribedEvents()</text>
</g>
<!-- Overtrue\\PHPLint\\Extension\\OutputManager&#45;&gt;Symfony\\Component\\EventDispatcher\\EventSubscriberInterface -->
<g id="edge2" class="edge">
<title>Overtrue\\PHPLint\\Extension\\OutputManager&#45;&gt;Symfony\\Component\\EventDispatcher\\EventSubscriberInterface</title>
<path fill="none" stroke="black" stroke-dasharray="5,2" d="M845.71,-297.95C949.84,-280.87 1070.98,-261.69 1181,-246 1329.85,-224.77 1500.71,-203.99 1618.23,-190.26"/>
<polygon fill="none" stroke="black" points="1618.84,-193.71 1628.36,-189.08 1618.02,-186.76 1618.84,-193.71"/>
</g>
<!-- Overtrue\\PHPLint\\Event\\AfterCheckingInterface -->
<g id="node4" class="node">
<title>Overtrue\\PHPLint\\Event\\AfterCheckingInterface</title>
<polygon fill="#fefece" stroke="transparent" points="2018.5,-89.5 1505.5,-89.5 1505.5,-16.5 2018.5,-16.5 2018.5,-89.5"/>
<polygon fill="#eeeeee" stroke="transparent" points="1514,-51 1514,-85 2011,-85 2011,-51 1514,-51"/>
<polygon fill="none" stroke="black" points="1514,-51 1514,-85 2011,-85 2011,-51 1514,-51"/>
<text text-anchor="start" x="1730" y="-71.8" font-family="Times,serif" font-weight="bold" font-size="14.00">«interface»</text>
<text text-anchor="start" x="1693" y="-57.8" font-family="Times,serif" font-weight="bold" font-size="14.00">AfterCheckingInterface</text>
<polygon fill="none" stroke="black" points="1514,-45 1514,-51 2011,-51 2011,-45 1514,-45"/>
<polygon fill="none" stroke="black" points="1514,-20 1514,-45 2011,-45 2011,-20 1514,-20"/>
<text text-anchor="start" x="1519" y="-28.8" font-family="Times,serif" font-size="14.00">+ «abstract» afterChecking(event : Overtrue\PHPLint\Event\AfterCheckingEvent) : void</text>
</g>
<!-- Overtrue\\PHPLint\\Extension\\OutputManager&#45;&gt;Overtrue\\PHPLint\\Event\\AfterCheckingInterface -->
<g id="edge3" class="edge">
<title>Overtrue\\PHPLint\\Extension\\OutputManager&#45;&gt;Overtrue\\PHPLint\\Event\\AfterCheckingInterface</title>
<path fill="none" stroke="black" stroke-dasharray="5,2" d="M781.23,-257.98C895.78,-212.04 1044.34,-157.93 1181,-125 1282.33,-100.58 1395.72,-84.17 1495.19,-73.26"/>
<polygon fill="none" stroke="black" points="1495.82,-76.72 1505.39,-72.16 1495.07,-69.76 1495.82,-76.72"/>
</g>
<!-- Overtrue\\PHPLint\\Output\\ChainOutput -->
<g id="node5" class="node">
<title>Overtrue\\PHPLint\\Output\\ChainOutput</title>
<polygon fill="#fefece" stroke="transparent" points="777,-1004.5 392,-1004.5 392,-893.5 777,-893.5 777,-1004.5"/>
<polygon fill="#eeeeee" stroke="transparent" points="400.5,-966 400.5,-1000 769.5,-1000 769.5,-966 400.5,-966"/>
<polygon fill="none" stroke="black" points="400.5,-966 400.5,-1000 769.5,-1000 769.5,-966 400.5,-966"/>
<text text-anchor="start" x="545.5" y="-972.8" font-family="Times,serif" font-weight="bold" font-size="14.00">ChainOutput</text>
<polygon fill="none" stroke="black" points="400.5,-960 400.5,-966 769.5,-966 769.5,-960 400.5,-960"/>
<polygon fill="none" stroke="black" points="400.5,-897 400.5,-960 769.5,-960 769.5,-897 400.5,-897"/>
<text text-anchor="start" x="405.5" y="-943.8" font-family="Times,serif" font-size="14.00">+ __construct(handlers : array)</text>
<text text-anchor="start" x="405.5" y="-924.8" font-family="Times,serif" font-size="14.00">+ getName() : string</text>
<text text-anchor="start" x="405.5" y="-905.8" font-family="Times,serif" font-size="14.00">+ format(results : Overtrue\PHPLint\Output\LinterOutput) : void</text>
</g>
<!-- Overtrue\\PHPLint\\Output\\OutputInterface -->
<g id="node6" class="node">
<title>Overtrue\\PHPLint\\Output\\OutputInterface</title>
<polygon fill="#fefece" stroke="transparent" points="1984,-1115 1540,-1115 1540,-1023 1984,-1023 1984,-1115"/>
<polygon fill="#eeeeee" stroke="transparent" points="1548,-1077 1548,-1111 1976,-1111 1976,-1077 1548,-1077"/>
<polygon fill="none" stroke="black" points="1548,-1077 1548,-1111 1976,-1111 1976,-1077 1548,-1077"/>
<text text-anchor="start" x="1729.5" y="-1097.8" font-family="Times,serif" font-weight="bold" font-size="14.00">«interface»</text>
<text text-anchor="start" x="1714" y="-1083.8" font-family="Times,serif" font-weight="bold" font-size="14.00">OutputInterface</text>
<polygon fill="none" stroke="black" points="1548,-1071 1548,-1077 1976,-1077 1976,-1071 1548,-1071"/>
<polygon fill="none" stroke="black" points="1548,-1027 1548,-1071 1976,-1071 1976,-1027 1548,-1027"/>
<text text-anchor="start" x="1553" y="-1054.8" font-family="Times,serif" font-size="14.00">+ «abstract» getName() : string</text>
<text text-anchor="start" x="1553" y="-1035.8" font-family="Times,serif" font-size="14.00">+ «abstract» format(results : Overtrue\PHPLint\Output\LinterOutput) : void</text>
</g>
<!-- Overtrue\\PHPLint\\Output\\ChainOutput&#45;&gt;Overtrue\\PHPLint\\Output\\OutputInterface -->
<g id="edge4" class="edge">
<title>Overtrue\\PHPLint\\Output\\ChainOutput&#45;&gt;Overtrue\\PHPLint\\Output\\OutputInterface</title>
<path fill="none" stroke="black" stroke-dasharray="5,2" d="M777.31,-968.58C983.12,-989.59 1310.01,-1022.96 1529.86,-1045.4"/>
<polygon fill="none" stroke="black" points="1529.62,-1048.9 1539.92,-1046.43 1530.33,-1041.93 1529.62,-1048.9"/>
</g>
<!-- Overtrue\\PHPLint\\Output\\CheckstyleOutput -->
<g id="node7" class="node">
<title>Overtrue\\PHPLint\\Output\\CheckstyleOutput</title>
<polygon fill="#fefece" stroke="transparent" points="777,-1335 392,-1335 392,-1243 777,-1243 777,-1335"/>
<polygon fill="#eeeeee" stroke="transparent" points="400.5,-1297 400.5,-1331 769.5,-1331 769.5,-1297 400.5,-1297"/>
<polygon fill="none" stroke="black" points="400.5,-1297 400.5,-1331 769.5,-1331 769.5,-1297 400.5,-1297"/>
<text text-anchor="start" x="532" y="-1303.8" font-family="Times,serif" font-weight="bold" font-size="14.00">CheckstyleOutput</text>
<polygon fill="none" stroke="black" points="400.5,-1291 400.5,-1297 769.5,-1297 769.5,-1291 400.5,-1291"/>
<polygon fill="none" stroke="black" points="400.5,-1247 400.5,-1291 769.5,-1291 769.5,-1247 400.5,-1247"/>
<text text-anchor="start" x="405.5" y="-1274.8" font-family="Times,serif" font-size="14.00">+ getName() : string</text>
<text text-anchor="start" x="405.5" y="-1255.8" font-family="Times,serif" font-size="14.00">+ format(results : Overtrue\PHPLint\Output\LinterOutput) : void</text>
</g>
<!-- Overtrue\\PHPLint\\Output\\CheckstyleOutput&#45;&gt;Overtrue\\PHPLint\\Output\\OutputInterface -->
<g id="edge8" class="edge">
<title>Overtrue\\PHPLint\\Output\\CheckstyleOutput&#45;&gt;Overtrue\\PHPLint\\Output\\OutputInterface</title>
<path fill="none" stroke="black" stroke-dasharray="5,2" d="M777.07,-1278.49C887.6,-1270.43 1028.85,-1256.69 1153,-1234 1310.39,-1205.23 1486.44,-1155.46 1608.43,-1118.09"/>
<polygon fill="none" stroke="black" points="1609.69,-1121.36 1618.22,-1115.08 1607.63,-1114.67 1609.69,-1121.36"/>
</g>
<!-- Symfony\\Component\\Console\\Output\\StreamOutput -->
<g id="node12" class="node">
<title>Symfony\\Component\\Console\\Output\\StreamOutput</title>
<polygon fill="#fefece" stroke="transparent" points="2335,-1474 1189,-1474 1189,-1382 2335,-1382 2335,-1474"/>
<polygon fill="#eeeeee" stroke="transparent" points="1197,-1436 1197,-1470 2327,-1470 2327,-1436 1197,-1436"/>
<polygon fill="none" stroke="black" points="1197,-1436 1197,-1470 2327,-1470 2327,-1436 1197,-1436"/>
<text text-anchor="start" x="1719" y="-1442.8" font-family="Times,serif" font-weight="bold" font-size="14.00">StreamOutput</text>
<polygon fill="none" stroke="black" points="1197,-1430 1197,-1436 2327,-1436 2327,-1430 1197,-1430"/>
<polygon fill="none" stroke="black" points="1197,-1386 1197,-1430 2327,-1430 2327,-1386 1197,-1386"/>
<text text-anchor="start" x="1202" y="-1413.8" font-family="Times,serif" font-size="14.00">+ __construct(stream : resource, verbosity : int = VERBOSITY_NORMAL, decorated : bool = «unknown», formatter : Symfony\Component\Console\Formatter\OutputFormatterInterface = «unknown»)</text>
<text text-anchor="start" x="1202" y="-1394.8" font-family="Times,serif" font-size="14.00">+ getStream()</text>
</g>
<!-- Overtrue\\PHPLint\\Output\\CheckstyleOutput&#45;&gt;Symfony\\Component\\Console\\Output\\StreamOutput -->
<g id="edge7" class="edge">
<title>Overtrue\\PHPLint\\Output\\CheckstyleOutput&#45;&gt;Symfony\\Component\\Console\\Output\\StreamOutput</title>
<path fill="none" stroke="black" d="M777.03,-1316.81C893.67,-1333.31 1045.78,-1354.05 1181,-1370 1212.19,-1373.68 1244.35,-1377.32 1276.78,-1380.88"/>
<polygon fill="none" stroke="black" points="1276.53,-1384.37 1286.85,-1381.98 1277.29,-1377.41 1276.53,-1384.37"/>
</g>
<!-- Overtrue\\PHPLint\\Output\\ConsoleOutput -->
<g id="node8" class="node">
<title>Overtrue\\PHPLint\\Output\\ConsoleOutput</title>
<polygon fill="#fefece" stroke="transparent" points="1153,-875 16,-875 16,-473 1153,-473 1153,-875"/>
<polygon fill="#eeeeee" stroke="transparent" points="24.5,-837 24.5,-871 1145.5,-871 1145.5,-837 24.5,-837"/>
<polygon fill="none" stroke="black" points="24.5,-837 24.5,-871 1145.5,-871 1145.5,-837 24.5,-837"/>
<text text-anchor="start" x="540.5" y="-843.8" font-family="Times,serif" font-weight="bold" font-size="14.00">ConsoleOutput</text>
<polygon fill="none" stroke="black" points="24.5,-793 24.5,-837 1145.5,-837 1145.5,-793 24.5,-793"/>
<text text-anchor="start" x="29.5" y="-820.8" font-family="Times,serif" font-size="14.00">+ «static» MAX_LINE_LENGTH : int = 120 {readOnly}</text>
<text text-anchor="start" x="29.5" y="-801.8" font-family="Times,serif" font-size="14.00">+ «static» NO_FILE_TO_LINT : string = &quot;Could\ not\ find\ any\ files\ to\ lint&quot; {readOnly}</text>
<polygon fill="none" stroke="black" points="24.5,-787 24.5,-793 1145.5,-793 1145.5,-787 24.5,-787"/>
<polygon fill="none" stroke="black" points="24.5,-477 24.5,-787 1145.5,-787 1145.5,-477 24.5,-477"/>
<text text-anchor="start" x="29.5" y="-770.8" font-family="Times,serif" font-size="14.00">+ __construct(stream, verbosity : int = parent\:\:VERBOSITY_NORMAL, decorated : bool = «unknown», formatter : Symfony\Component\Console\Formatter\OutputFormatterInterface = «unknown»)</text>
<text text-anchor="start" x="29.5" y="-751.8" font-family="Times,serif" font-size="14.00">+ getName() : string</text>
<text text-anchor="start" x="29.5" y="-732.8" font-family="Times,serif" font-size="14.00">+ format(results : Overtrue\PHPLint\Output\LinterOutput) : void</text>
<text text-anchor="start" x="29.5" y="-713.8" font-family="Times,serif" font-size="14.00">+ createProgressBar(max = 0) : Symfony\Component\Console\Helper\ProgressBar</text>
<text text-anchor="start" x="29.5" y="-694.8" font-family="Times,serif" font-size="14.00">+ progressStart(max : int = 0) : void</text>
<text text-anchor="start" x="29.5" y="-675.8" font-family="Times,serif" font-size="14.00">+ progressAdvance(step : int = 1) : void</text>
<text text-anchor="start" x="29.5" y="-656.8" font-family="Times,serif" font-size="14.00">+ progressFinish() : void</text>
<text text-anchor="start" x="29.5" y="-637.8" font-family="Times,serif" font-size="14.00">+ progressMessage(message : string, name : string = &#39;message&#39;) : void</text>
<text text-anchor="start" x="29.5" y="-618.8" font-family="Times,serif" font-size="14.00">+ progressPrinterAdvance(maxSteps : int, status : string, fileInfo : Symfony\Component\Finder\SplFileInfo, step : int = 1) : void</text>
<text text-anchor="start" x="29.5" y="-599.8" font-family="Times,serif" font-size="14.00">+ headerBlock(appVersion : string, configFile : string) : void</text>
<text text-anchor="start" x="29.5" y="-580.8" font-family="Times,serif" font-size="14.00">+ configBlock(options : array) : void</text>
<text text-anchor="start" x="29.5" y="-561.8" font-family="Times,serif" font-size="14.00">+ consumeBlock(timeUsage : string, memUsage : string, cacheUsage : string, processCount : int) : void</text>
<text text-anchor="start" x="29.5" y="-542.8" font-family="Times,serif" font-size="14.00">+ errorBlock(fileCount : int, errorCount : int) : void</text>
<text text-anchor="start" x="29.5" y="-523.8" font-family="Times,serif" font-size="14.00">+ successBlock(fileCount : int) : void</text>
<text text-anchor="start" x="29.5" y="-504.8" font-family="Times,serif" font-size="14.00">+ warningBlock(message : string = NO_FILE_TO_LINT) : void</text>
<text text-anchor="start" x="29.5" y="-485.8" font-family="Times,serif" font-size="14.00">+ newLine(count : int = 1) : void</text>
</g>
<!-- Overtrue\\PHPLint\\Output\\ConsoleOutput&#45;&gt;Overtrue\\PHPLint\\Output\\OutputInterface -->
<g id="edge10" class="edge">
<title>Overtrue\\PHPLint\\Output\\ConsoleOutput&#45;&gt;Overtrue\\PHPLint\\Output\\OutputInterface</title>
<path fill="none" stroke="black" stroke-dasharray="5,2" d="M1143.78,-875.27C1146.91,-878.46 1149.98,-881.71 1153,-885 1184.75,-919.67 1145.71,-955.94 1181,-987 1274.75,-1069.5 1412.01,-1091.72 1529.47,-1092.51"/>
<polygon fill="none" stroke="black" points="1529.68,-1096.01 1539.69,-1092.52 1529.69,-1089.01 1529.68,-1096.01"/>
</g>
<!-- Overtrue\\PHPLint\\Output\\ConsoleOutputInterface -->
<g id="node9" class="node">
<title>Overtrue\\PHPLint\\Output\\ConsoleOutputInterface</title>
<polygon fill="#fefece" stroke="transparent" points="2158.5,-978 1365.5,-978 1365.5,-500 2158.5,-500 2158.5,-978"/>
<polygon fill="#eeeeee" stroke="transparent" points="1374,-940 1374,-974 2151,-974 2151,-940 1374,-940"/>
<polygon fill="none" stroke="black" points="1374,-940 1374,-974 2151,-974 2151,-940 1374,-940"/>
<text text-anchor="start" x="1730" y="-960.8" font-family="Times,serif" font-weight="bold" font-size="14.00">«interface»</text>
<text text-anchor="start" x="1691.5" y="-946.8" font-family="Times,serif" font-weight="bold" font-size="14.00">ConsoleOutputInterface</text>
<polygon fill="none" stroke="black" points="1374,-763 1374,-940 2151,-940 2151,-763 1374,-763"/>
<text text-anchor="start" x="1379" y="-923.8" font-family="Times,serif" font-size="14.00">+ «static» NO_FILE_TO_LINT : string = &quot;Could\ not\ find\ any\ files\ to\ lint&quot; {readOnly}</text>
<text text-anchor="start" x="1379" y="-904.8" font-family="Times,serif" font-size="14.00">+ «static» VERBOSITY_QUIET : int = 16 {readOnly}</text>
<text text-anchor="start" x="1379" y="-885.8" font-family="Times,serif" font-size="14.00">+ «static» VERBOSITY_NORMAL : int = 32 {readOnly}</text>
<text text-anchor="start" x="1379" y="-866.8" font-family="Times,serif" font-size="14.00">+ «static» VERBOSITY_VERBOSE : int = 64 {readOnly}</text>
<text text-anchor="start" x="1379" y="-847.8" font-family="Times,serif" font-size="14.00">+ «static» VERBOSITY_VERY_VERBOSE : int = 128 {readOnly}</text>
<text text-anchor="start" x="1379" y="-828.8" font-family="Times,serif" font-size="14.00">+ «static» VERBOSITY_DEBUG : int = 256 {readOnly}</text>
<text text-anchor="start" x="1379" y="-809.8" font-family="Times,serif" font-size="14.00">+ «static» OUTPUT_NORMAL : int = 1 {readOnly}</text>
<text text-anchor="start" x="1379" y="-790.8" font-family="Times,serif" font-size="14.00">+ «static» OUTPUT_RAW : int = 2 {readOnly}</text>
<text text-anchor="start" x="1379" y="-771.8" font-family="Times,serif" font-size="14.00">+ «static» OUTPUT_PLAIN : int = 4 {readOnly}</text>
<polygon fill="none" stroke="black" points="1374,-757 1374,-763 2151,-763 2151,-757 1374,-757"/>
<polygon fill="none" stroke="black" points="1374,-504 1374,-757 2151,-757 2151,-504 1374,-504"/>
<text text-anchor="start" x="1379" y="-740.8" font-family="Times,serif" font-size="14.00">+ «abstract» createProgressBar(max = 0) : Symfony\Component\Console\Helper\ProgressBar</text>
<text text-anchor="start" x="1379" y="-721.8" font-family="Times,serif" font-size="14.00">+ «abstract» progressStart(max : int = 0) : void</text>
<text text-anchor="start" x="1379" y="-702.8" font-family="Times,serif" font-size="14.00">+ «abstract» progressAdvance(step : int = 1) : void</text>
<text text-anchor="start" x="1379" y="-683.8" font-family="Times,serif" font-size="14.00">+ «abstract» progressFinish() : void</text>
<text text-anchor="start" x="1379" y="-664.8" font-family="Times,serif" font-size="14.00">+ «abstract» progressMessage(message : string, name : string = &#39;message&#39;) : void</text>
<text text-anchor="start" x="1379" y="-645.8" font-family="Times,serif" font-size="14.00">+ «abstract» progressPrinterAdvance(maxSteps : int, status : string, fileInfo : Symfony\Component\Finder\SplFileInfo, step : int = 1) : void</text>
<text text-anchor="start" x="1379" y="-626.8" font-family="Times,serif" font-size="14.00">+ «abstract» headerBlock(appVersion : string, configFile : string) : void</text>
<text text-anchor="start" x="1379" y="-607.8" font-family="Times,serif" font-size="14.00">+ «abstract» configBlock(options : array) : void</text>
<text text-anchor="start" x="1379" y="-588.8" font-family="Times,serif" font-size="14.00">+ «abstract» consumeBlock(timeUsage : string, memUsage : string, cacheUsage : string, processCount : int) : void</text>
<text text-anchor="start" x="1379" y="-569.8" font-family="Times,serif" font-size="14.00">+ «abstract» errorBlock(fileCount : int, errorCount : int) : void</text>
<text text-anchor="start" x="1379" y="-550.8" font-family="Times,serif" font-size="14.00">+ «abstract» successBlock(fileCount : int) : void</text>
<text text-anchor="start" x="1379" y="-531.8" font-family="Times,serif" font-size="14.00">+ «abstract» warningBlock(message : string = NO_FILE_TO_LINT) : void</text>
<text text-anchor="start" x="1379" y="-512.8" font-family="Times,serif" font-size="14.00">+ «abstract» newLine(count : int = 1) : void</text>
</g>
<!-- Overtrue\\PHPLint\\Output\\ConsoleOutput&#45;&gt;Overtrue\\PHPLint\\Output\\ConsoleOutputInterface -->
<g id="edge12" class="edge">
<title>Overtrue\\PHPLint\\Output\\ConsoleOutput&#45;&gt;Overtrue\\PHPLint\\Output\\ConsoleOutputInterface</title>
<path fill="none" stroke="black" stroke-dasharray="5,2" d="M1153.02,-705.38C1221.26,-709.15 1289.86,-712.95 1355.14,-716.56"/>
<polygon fill="none" stroke="black" points="1354.99,-720.05 1365.17,-717.11 1355.38,-713.07 1354.99,-720.05"/>
</g>
<!-- Overtrue\\PHPLint\\Output\\ConsoleOutput&#45;&gt;Symfony\\Component\\Console\\Output\\StreamOutput -->
<g id="edge9" class="edge">
<title>Overtrue\\PHPLint\\Output\\ConsoleOutput&#45;&gt;Symfony\\Component\\Console\\Output\\StreamOutput</title>
<path fill="none" stroke="black" d="M1145.33,-875.02C1147.94,-878.29 1150.5,-881.62 1153,-885 1217.15,-971.83 1106.28,-1292.08 1181,-1370 1182.6,-1371.67 1184.22,-1373.31 1185.85,-1374.93"/>
<polygon fill="none" stroke="black" points="1183.48,-1377.51 1193.13,-1381.87 1188.31,-1372.44 1183.48,-1377.51"/>
</g>
<!-- Symfony\\Component\\Console\\Output\\OutputInterface -->
<g id="node14" class="node">
<title>Symfony\\Component\\Console\\Output\\OutputInterface</title>
<polygon fill="#fefece" stroke="transparent" points="4022,-1827 3412,-1827 3412,-1387 4022,-1387 4022,-1827"/>
<polygon fill="#eeeeee" stroke="transparent" points="3420,-1789 3420,-1823 4014,-1823 4014,-1789 3420,-1789"/>
<polygon fill="none" stroke="black" points="3420,-1789 3420,-1823 4014,-1823 4014,-1789 3420,-1789"/>
<text text-anchor="start" x="3684.5" y="-1809.8" font-family="Times,serif" font-weight="bold" font-size="14.00">«interface»</text>
<text text-anchor="start" x="3669" y="-1795.8" font-family="Times,serif" font-weight="bold" font-size="14.00">OutputInterface</text>
<polygon fill="none" stroke="black" points="3420,-1631 3420,-1789 4014,-1789 4014,-1631 3420,-1631"/>
<text text-anchor="start" x="3425" y="-1772.8" font-family="Times,serif" font-size="14.00">+ «static» VERBOSITY_QUIET : int = 16 {readOnly}</text>
<text text-anchor="start" x="3425" y="-1753.8" font-family="Times,serif" font-size="14.00">+ «static» VERBOSITY_NORMAL : int = 32 {readOnly}</text>
<text text-anchor="start" x="3425" y="-1734.8" font-family="Times,serif" font-size="14.00">+ «static» VERBOSITY_VERBOSE : int = 64 {readOnly}</text>
<text text-anchor="start" x="3425" y="-1715.8" font-family="Times,serif" font-size="14.00">+ «static» VERBOSITY_VERY_VERBOSE : int = 128 {readOnly}</text>
<text text-anchor="start" x="3425" y="-1696.8" font-family="Times,serif" font-size="14.00">+ «static» VERBOSITY_DEBUG : int = 256 {readOnly}</text>
<text text-anchor="start" x="3425" y="-1677.8" font-family="Times,serif" font-size="14.00">+ «static» OUTPUT_NORMAL : int = 1 {readOnly}</text>
<text text-anchor="start" x="3425" y="-1658.8" font-family="Times,serif" font-size="14.00">+ «static» OUTPUT_RAW : int = 2 {readOnly}</text>
<text text-anchor="start" x="3425" y="-1639.8" font-family="Times,serif" font-size="14.00">+ «static» OUTPUT_PLAIN : int = 4 {readOnly}</text>
<polygon fill="none" stroke="black" points="3420,-1625 3420,-1631 4014,-1631 4014,-1625 3420,-1625"/>
<polygon fill="none" stroke="black" points="3420,-1391 3420,-1625 4014,-1625 4014,-1391 3420,-1391"/>
<text text-anchor="start" x="3425" y="-1608.8" font-family="Times,serif" font-size="14.00">+ «abstract» write(messages, newline : bool = false, options : int = 0)</text>
<text text-anchor="start" x="3425" y="-1589.8" font-family="Times,serif" font-size="14.00">+ «abstract» writeln(messages, options : int = 0)</text>
<text text-anchor="start" x="3425" y="-1570.8" font-family="Times,serif" font-size="14.00">+ «abstract» setVerbosity(level : int)</text>
<text text-anchor="start" x="3425" y="-1551.8" font-family="Times,serif" font-size="14.00">+ «abstract» getVerbosity() : int</text>
<text text-anchor="start" x="3425" y="-1532.8" font-family="Times,serif" font-size="14.00">+ «abstract» isQuiet() : bool</text>
<text text-anchor="start" x="3425" y="-1513.8" font-family="Times,serif" font-size="14.00">+ «abstract» isVerbose() : bool</text>
<text text-anchor="start" x="3425" y="-1494.8" font-family="Times,serif" font-size="14.00">+ «abstract» isVeryVerbose() : bool</text>
<text text-anchor="start" x="3425" y="-1475.8" font-family="Times,serif" font-size="14.00">+ «abstract» isDebug() : bool</text>
<text text-anchor="start" x="3425" y="-1456.8" font-family="Times,serif" font-size="14.00">+ «abstract» setDecorated(decorated : bool)</text>
<text text-anchor="start" x="3425" y="-1437.8" font-family="Times,serif" font-size="14.00">+ «abstract» isDecorated() : bool</text>
<text text-anchor="start" x="3425" y="-1418.8" font-family="Times,serif" font-size="14.00">+ «abstract» setFormatter(formatter : Symfony\Component\Console\Formatter\OutputFormatterInterface)</text>
<text text-anchor="start" x="3425" y="-1399.8" font-family="Times,serif" font-size="14.00">+ «abstract» getFormatter() : Symfony\Component\Console\Formatter\OutputFormatterInterface</text>
</g>
<!-- Overtrue\\PHPLint\\Output\\ConsoleOutputInterface&#45;&gt;Symfony\\Component\\Console\\Output\\OutputInterface -->
<g id="edge11" class="edge">
<title>Overtrue\\PHPLint\\Output\\ConsoleOutputInterface&#45;&gt;Symfony\\Component\\Console\\Output\\OutputInterface</title>
<path fill="none" stroke="black" stroke-dasharray="5,2" d="M2158.53,-866.6C2492,-980.74 2977.25,-1162.38 3376,-1374 3384.89,-1378.72 3393.83,-1383.62 3402.78,-1388.67"/>
<polygon fill="none" stroke="black" points="3401.32,-1391.87 3411.74,-1393.77 3404.78,-1385.78 3401.32,-1391.87"/>
</g>
<!-- Overtrue\\PHPLint\\Output\\JsonOutput -->
<g id="node10" class="node">
<title>Overtrue\\PHPLint\\Output\\JsonOutput</title>
<polygon fill="#fefece" stroke="transparent" points="777,-1225 392,-1225 392,-1133 777,-1133 777,-1225"/>
<polygon fill="#eeeeee" stroke="transparent" points="400.5,-1187 400.5,-1221 769.5,-1221 769.5,-1187 400.5,-1187"/>
<polygon fill="none" stroke="black" points="400.5,-1187 400.5,-1221 769.5,-1221 769.5,-1187 400.5,-1187"/>
<text text-anchor="start" x="550" y="-1193.8" font-family="Times,serif" font-weight="bold" font-size="14.00">JsonOutput</text>
<polygon fill="none" stroke="black" points="400.5,-1181 400.5,-1187 769.5,-1187 769.5,-1181 400.5,-1181"/>
<polygon fill="none" stroke="black" points="400.5,-1137 400.5,-1181 769.5,-1181 769.5,-1137 400.5,-1137"/>
<text text-anchor="start" x="405.5" y="-1164.8" font-family="Times,serif" font-size="14.00">+ getName() : string</text>
<text text-anchor="start" x="405.5" y="-1145.8" font-family="Times,serif" font-size="14.00">+ format(results : Overtrue\PHPLint\Output\LinterOutput) : void</text>
</g>
<!-- Overtrue\\PHPLint\\Output\\JsonOutput&#45;&gt;Overtrue\\PHPLint\\Output\\OutputInterface -->
<g id="edge14" class="edge">
<title>Overtrue\\PHPLint\\Output\\JsonOutput&#45;&gt;Overtrue\\PHPLint\\Output\\OutputInterface</title>
<path fill="none" stroke="black" stroke-dasharray="5,2" d="M777.31,-1161.05C983.12,-1141.79 1310.01,-1111.2 1529.86,-1090.63"/>
<polygon fill="none" stroke="black" points="1530.29,-1094.1 1539.92,-1089.69 1529.64,-1087.13 1530.29,-1094.1"/>
</g>
<!-- Overtrue\\PHPLint\\Output\\JsonOutput&#45;&gt;Symfony\\Component\\Console\\Output\\StreamOutput -->
<g id="edge13" class="edge">
<title>Overtrue\\PHPLint\\Output\\JsonOutput&#45;&gt;Symfony\\Component\\Console\\Output\\StreamOutput</title>
<path fill="none" stroke="black" d="M777.02,-1144.57C899.26,-1134.13 1052.97,-1144.09 1153,-1234 1198.9,-1275.25 1135.17,-1328.68 1181,-1370 1183.01,-1371.82 1185.05,-1373.6 1187.11,-1375.35"/>
<polygon fill="none" stroke="black" points="1185.19,-1378.31 1195.14,-1381.96 1189.64,-1372.9 1185.19,-1378.31"/>
</g>
<!-- Overtrue\\PHPLint\\Output\\JunitOutput -->
<g id="node11" class="node">
<title>Overtrue\\PHPLint\\Output\\JunitOutput</title>
<polygon fill="#fefece" stroke="transparent" points="777,-1115 392,-1115 392,-1023 777,-1023 777,-1115"/>
<polygon fill="#eeeeee" stroke="transparent" points="400.5,-1077 400.5,-1111 769.5,-1111 769.5,-1077 400.5,-1077"/>
<polygon fill="none" stroke="black" points="400.5,-1077 400.5,-1111 769.5,-1111 769.5,-1077 400.5,-1077"/>
<text text-anchor="start" x="548.5" y="-1083.8" font-family="Times,serif" font-weight="bold" font-size="14.00">JunitOutput</text>
<polygon fill="none" stroke="black" points="400.5,-1071 400.5,-1077 769.5,-1077 769.5,-1071 400.5,-1071"/>
<polygon fill="none" stroke="black" points="400.5,-1027 400.5,-1071 769.5,-1071 769.5,-1027 400.5,-1027"/>
<text text-anchor="start" x="405.5" y="-1054.8" font-family="Times,serif" font-size="14.00">+ getName() : string</text>
<text text-anchor="start" x="405.5" y="-1035.8" font-family="Times,serif" font-size="14.00">+ format(results : Overtrue\PHPLint\Output\LinterOutput) : void</text>
</g>
<!-- Overtrue\\PHPLint\\Output\\JunitOutput&#45;&gt;Overtrue\\PHPLint\\Output\\OutputInterface -->
<g id="edge16" class="edge">
<title>Overtrue\\PHPLint\\Output\\JunitOutput&#45;&gt;Overtrue\\PHPLint\\Output\\OutputInterface</title>
<path fill="none" stroke="black" stroke-dasharray="5,2" d="M777.31,-1069C983.12,-1069 1310.01,-1069 1529.86,-1069"/>
<polygon fill="none" stroke="black" points="1529.92,-1072.5 1539.92,-1069 1529.92,-1065.5 1529.92,-1072.5"/>
</g>
<!-- Overtrue\\PHPLint\\Output\\JunitOutput&#45;&gt;Symfony\\Component\\Console\\Output\\StreamOutput -->
<g id="edge15" class="edge">
<title>Overtrue\\PHPLint\\Output\\JunitOutput&#45;&gt;Symfony\\Component\\Console\\Output\\StreamOutput</title>
<path fill="none" stroke="black" d="M777.03,-1031.93C900.87,-1019.86 1056.4,-1029 1153,-1124 1231.46,-1201.16 1102.66,-1292.72 1181,-1370 1182.68,-1371.66 1184.38,-1373.29 1186.1,-1374.9"/>
<polygon fill="none" stroke="black" points="1183.97,-1377.7 1193.74,-1381.8 1188.66,-1372.5 1183.97,-1377.7"/>
</g>
<!-- Symfony\\Component\\Console\\Output\\Output -->
<g id="node13" class="node">
<title>Symfony\\Component\\Console\\Output\\Output</title>
<polygon fill="#fefece" stroke="transparent" points="3376,-1841.5 2371,-1841.5 2371,-1382.5 3376,-1382.5 3376,-1841.5"/>
<polygon fill="#eeeeee" stroke="transparent" points="2379.5,-1803 2379.5,-1837 3368.5,-1837 3368.5,-1803 2379.5,-1803"/>
<polygon fill="none" stroke="black" points="2379.5,-1803 2379.5,-1837 3368.5,-1837 3368.5,-1803 2379.5,-1803"/>
<text text-anchor="start" x="2843.5" y="-1823.8" font-family="Times,serif" font-weight="bold" font-size="14.00">«abstract»</text>
<text text-anchor="start" x="2852.5" y="-1809.8" font-family="Times,serif" font-weight="bold" font-size="14.00">Output</text>
<polygon fill="none" stroke="black" points="2379.5,-1645 2379.5,-1803 3368.5,-1803 3368.5,-1645 2379.5,-1645"/>
<text text-anchor="start" x="2384.5" y="-1786.8" font-family="Times,serif" font-size="14.00">+ «static» VERBOSITY_QUIET : int = 16 {readOnly}</text>
<text text-anchor="start" x="2384.5" y="-1767.8" font-family="Times,serif" font-size="14.00">+ «static» VERBOSITY_NORMAL : int = 32 {readOnly}</text>
<text text-anchor="start" x="2384.5" y="-1748.8" font-family="Times,serif" font-size="14.00">+ «static» VERBOSITY_VERBOSE : int = 64 {readOnly}</text>
<text text-anchor="start" x="2384.5" y="-1729.8" font-family="Times,serif" font-size="14.00">+ «static» VERBOSITY_VERY_VERBOSE : int = 128 {readOnly}</text>
<text text-anchor="start" x="2384.5" y="-1710.8" font-family="Times,serif" font-size="14.00">+ «static» VERBOSITY_DEBUG : int = 256 {readOnly}</text>
<text text-anchor="start" x="2384.5" y="-1691.8" font-family="Times,serif" font-size="14.00">+ «static» OUTPUT_NORMAL : int = 1 {readOnly}</text>
<text text-anchor="start" x="2384.5" y="-1672.8" font-family="Times,serif" font-size="14.00">+ «static» OUTPUT_RAW : int = 2 {readOnly}</text>
<text text-anchor="start" x="2384.5" y="-1653.8" font-family="Times,serif" font-size="14.00">+ «static» OUTPUT_PLAIN : int = 4 {readOnly}</text>
<polygon fill="none" stroke="black" points="2379.5,-1639 2379.5,-1645 3368.5,-1645 3368.5,-1639 2379.5,-1639"/>
<polygon fill="none" stroke="black" points="2379.5,-1386 2379.5,-1639 3368.5,-1639 3368.5,-1386 2379.5,-1386"/>
<text text-anchor="start" x="2384.5" y="-1622.8" font-family="Times,serif" font-size="14.00">+ __construct(verbosity : int = VERBOSITY_NORMAL, decorated : bool = false, formatter : Symfony\Component\Console\Formatter\OutputFormatterInterface = «unknown»)</text>
<text text-anchor="start" x="2384.5" y="-1603.8" font-family="Times,serif" font-size="14.00">+ setFormatter(formatter : Symfony\Component\Console\Formatter\OutputFormatterInterface)</text>
<text text-anchor="start" x="2384.5" y="-1584.8" font-family="Times,serif" font-size="14.00">+ getFormatter() : Symfony\Component\Console\Formatter\OutputFormatterInterface</text>
<text text-anchor="start" x="2384.5" y="-1565.8" font-family="Times,serif" font-size="14.00">+ setDecorated(decorated : bool)</text>
<text text-anchor="start" x="2384.5" y="-1546.8" font-family="Times,serif" font-size="14.00">+ isDecorated() : bool</text>
<text text-anchor="start" x="2384.5" y="-1527.8" font-family="Times,serif" font-size="14.00">+ setVerbosity(level : int)</text>
<text text-anchor="start" x="2384.5" y="-1508.8" font-family="Times,serif" font-size="14.00">+ getVerbosity() : int</text>
<text text-anchor="start" x="2384.5" y="-1489.8" font-family="Times,serif" font-size="14.00">+ isQuiet() : bool</text>
<text text-anchor="start" x="2384.5" y="-1470.8" font-family="Times,serif" font-size="14.00">+ isVerbose() : bool</text>
<text text-anchor="start" x="2384.5" y="-1451.8" font-family="Times,serif" font-size="14.00">+ isVeryVerbose() : bool</text>
<text text-anchor="start" x="2384.5" y="-1432.8" font-family="Times,serif" font-size="14.00">+ isDebug() : bool</text>
<text text-anchor="start" x="2384.5" y="-1413.8" font-family="Times,serif" font-size="14.00">+ writeln(messages, options : int = OUTPUT_NORMAL)</text>
<text text-anchor="start" x="2384.5" y="-1394.8" font-family="Times,serif" font-size="14.00">+ write(messages, newline : bool = false, options : int = OUTPUT_NORMAL)</text>
</g>
<!-- Symfony\\Component\\Console\\Output\\StreamOutput&#45;&gt;Symfony\\Component\\Console\\Output\\Output -->
<g id="edge6" class="edge">
<title>Symfony\\Component\\Console\\Output\\StreamOutput&#45;&gt;Symfony\\Component\\Console\\Output\\Output</title>
<path fill="none" stroke="black" d="M2040.47,-1474.02C2137.82,-1490.16 2250.51,-1508.85 2360.91,-1527.16"/>
<polygon fill="none" stroke="black" points="2360.46,-1530.63 2370.9,-1528.81 2361.6,-1523.72 2360.46,-1530.63"/>
</g>
<!-- Symfony\\Component\\Console\\Output\\Output&#45;&gt;Symfony\\Component\\Console\\Output\\OutputInterface -->
<g id="edge5" class="edge">
<title>Symfony\\Component\\Console\\Output\\Output&#45;&gt;Symfony\\Component\\Console\\Output\\OutputInterface</title>
<path fill="none" stroke="black" stroke-dasharray="5,2" d="M3376.16,-1609.02C3384.66,-1608.97 3393.13,-1608.92 3401.53,-1608.87"/>
<polygon fill="none" stroke="black" points="3401.76,-1612.37 3411.74,-1608.81 3401.72,-1605.37 3401.76,-1612.37"/>
</g>
</g>
</svg>
