<?xml version="1.0" encoding="UTF-8" standalone="no"?>
<!DOCTYPE svg PUBLIC "-//W3C//DTD SVG 1.1//EN"
 "http://www.w3.org/Graphics/SVG/1.1/DTD/svg11.dtd">
<!-- Generated by graphviz version 2.40.1 (20161225.0304)
 -->
<!-- Title: %3 Pages: 1 -->
<svg width="4459pt" height="1790pt"
 viewBox="0.00 0.00 4459.00 1790.00" xmlns="http://www.w3.org/2000/svg" xmlns:xlink="http://www.w3.org/1999/xlink">
<g id="graph0" class="graph" transform="scale(1 1) rotate(0) translate(4 1786)">
<title>%3</title>
<g id="clust1" class="cluster">
<title>cluster_0</title>
<polygon fill="#deb887" stroke="#000000" points="8,-1164 8,-1774 2883,-1774 2883,-1164 8,-1164"/>
<text text-anchor="middle" x="1445.5" y="-1758.8" font-family="Times,serif" font-size="14.00" fill="#000000">Overtrue\PHPLint\Output</text>
</g>
<g id="clust2" class="cluster">
<title>cluster_1</title>
<polygon fill="#b0c4de" stroke="#000000" points="2891,-8 2891,-1333 4443,-1333 4443,-8 2891,-8"/>
<text text-anchor="middle" x="3667" y="-1317.8" font-family="Times,serif" font-size="14.00" fill="#000000">Symfony\Component\Console\Output</text>
</g>
<!-- Overtrue\\PHPLint\\Output\\OutputInterface -->
<g id="node1" class="node">
<title>Overtrue\\PHPLint\\Output\\OutputInterface</title>
<polygon fill="#fefece" stroke="transparent" points="1551,-1245 1111,-1245 1111,-1172 1551,-1172 1551,-1245"/>
<polygon fill="#eeeeee" stroke="transparent" points="1119,-1206.5 1119,-1240.5 1543,-1240.5 1543,-1206.5 1119,-1206.5"/>
<polygon fill="none" stroke="#000000" points="1119,-1206.5 1119,-1240.5 1543,-1240.5 1543,-1206.5 1119,-1206.5"/>
<text text-anchor="start" x="1298.5" y="-1227.3" font-family="Times,serif" font-weight="bold" font-size="14.00" fill="#000000">«interface»</text>
<text text-anchor="start" x="1283" y="-1213.3" font-family="Times,serif" font-weight="bold" font-size="14.00" fill="#000000">OutputInterface</text>
<polygon fill="none" stroke="#000000" points="1119,-1200.5 1119,-1206.5 1543,-1206.5 1543,-1200.5 1119,-1200.5"/>
<polygon fill="none" stroke="#000000" points="1119,-1175.5 1119,-1200.5 1543,-1200.5 1543,-1175.5 1119,-1175.5"/>
<text text-anchor="start" x="1124" y="-1184.3" font-family="Times,serif" font-size="14.00" fill="#000000">+ «abstract» format(results : Overtrue\PHPLint\Output\LinterOutput) : void</text>
</g>
<!-- Overtrue\\PHPLint\\Output\\LinterOutput -->
<g id="node2" class="node">
<title>Overtrue\\PHPLint\\Output\\LinterOutput</title>
<polygon fill="#fefece" stroke="transparent" points="2874.5,-1673.5 2313.5,-1673.5 2313.5,-1410.5 2874.5,-1410.5 2874.5,-1673.5"/>
<polygon fill="#eeeeee" stroke="transparent" points="2322,-1635 2322,-1669 2867,-1669 2867,-1635 2322,-1635"/>
<polygon fill="none" stroke="#000000" points="2322,-1635 2322,-1669 2867,-1669 2867,-1635 2322,-1635"/>
<text text-anchor="start" x="2554.5" y="-1641.8" font-family="Times,serif" font-weight="bold" font-size="14.00" fill="#000000">LinterOutput</text>
<polygon fill="none" stroke="#000000" points="2322,-1629 2322,-1635 2867,-1635 2867,-1629 2322,-1629"/>
<polygon fill="none" stroke="#000000" points="2322,-1414 2322,-1629 2867,-1629 2867,-1414 2322,-1414"/>
<text text-anchor="start" x="2327" y="-1612.8" font-family="Times,serif" font-size="14.00" fill="#000000">+ __construct(results : array, finder : Symfony\Component\Finder\Finder)</text>
<text text-anchor="start" x="2327" y="-1593.8" font-family="Times,serif" font-size="14.00" fill="#000000">+ getContext() : array</text>
<text text-anchor="start" x="2327" y="-1574.8" font-family="Times,serif" font-size="14.00" fill="#000000">+ setContext(configResolver : Overtrue\PHPLint\Configuration\Resolver, startTime : float) : void</text>
<text text-anchor="start" x="2327" y="-1555.8" font-family="Times,serif" font-size="14.00" fill="#000000">+ hasFailures() : bool</text>
<text text-anchor="start" x="2327" y="-1536.8" font-family="Times,serif" font-size="14.00" fill="#000000">+ getFailures() : array</text>
<text text-anchor="start" x="2327" y="-1517.8" font-family="Times,serif" font-size="14.00" fill="#000000">+ hasErrors() : bool</text>
<text text-anchor="start" x="2327" y="-1498.8" font-family="Times,serif" font-size="14.00" fill="#000000">+ getErrors() : array</text>
<text text-anchor="start" x="2327" y="-1479.8" font-family="Times,serif" font-size="14.00" fill="#000000">+ hasWarnings() : bool</text>
<text text-anchor="start" x="2327" y="-1460.8" font-family="Times,serif" font-size="14.00" fill="#000000">+ getWarnings() : array</text>
<text text-anchor="start" x="2327" y="-1441.8" font-family="Times,serif" font-size="14.00" fill="#000000">+ getHits() : array</text>
<text text-anchor="start" x="2327" y="-1422.8" font-family="Times,serif" font-size="14.00" fill="#000000">+ getMisses() : array</text>
</g>
<!-- Overtrue\\PHPLint\\Output\\ChainOutput -->
<g id="node3" class="node">
<title>Overtrue\\PHPLint\\Output\\ChainOutput</title>
<polygon fill="#fefece" stroke="transparent" points="396.5,-1588 15.5,-1588 15.5,-1496 396.5,-1496 396.5,-1588"/>
<polygon fill="#eeeeee" stroke="transparent" points="24,-1550 24,-1584 389,-1584 389,-1550 24,-1550"/>
<polygon fill="none" stroke="#000000" points="24,-1550 24,-1584 389,-1584 389,-1550 24,-1550"/>
<text text-anchor="start" x="167" y="-1556.8" font-family="Times,serif" font-weight="bold" font-size="14.00" fill="#000000">ChainOutput</text>
<polygon fill="none" stroke="#000000" points="24,-1544 24,-1550 389,-1550 389,-1544 24,-1544"/>
<polygon fill="none" stroke="#000000" points="24,-1500 24,-1544 389,-1544 389,-1500 24,-1500"/>
<text text-anchor="start" x="29" y="-1527.8" font-family="Times,serif" font-size="14.00" fill="#000000">+ __construct(handlers : array)</text>
<text text-anchor="start" x="29" y="-1508.8" font-family="Times,serif" font-size="14.00" fill="#000000">+ format(results : Overtrue\PHPLint\Output\LinterOutput) : void</text>
</g>
<!-- Overtrue\\PHPLint\\Output\\ChainOutput&#45;&gt;Overtrue\\PHPLint\\Output\\OutputInterface -->
<g id="edge1" class="edge">
<title>Overtrue\\PHPLint\\Output\\ChainOutput&#45;&gt;Overtrue\\PHPLint\\Output\\OutputInterface</title>
<path fill="none" stroke="#000000" stroke-dasharray="5,2" d="M237.3993,-1495.9396C272.3758,-1448.6312 333.5024,-1376.9826 405,-1341 523.3869,-1281.4193 867.2294,-1243.9517 1100.916,-1224.6191"/>
<polygon fill="none" stroke="#000000" points="1101.2368,-1228.1046 1110.9165,-1223.7973 1100.6634,-1221.1282 1101.2368,-1228.1046"/>
</g>
<!-- Overtrue\\PHPLint\\Output\\ConsoleOutput -->
<g id="node4" class="node">
<title>Overtrue\\PHPLint\\Output\\ConsoleOutput</title>
<polygon fill="#fefece" stroke="transparent" points="1497.5,-1743 414.5,-1743 414.5,-1341 1497.5,-1341 1497.5,-1743"/>
<polygon fill="#eeeeee" stroke="transparent" points="423,-1705 423,-1739 1490,-1739 1490,-1705 423,-1705"/>
<polygon fill="none" stroke="#000000" points="423,-1705 423,-1739 1490,-1739 1490,-1705 423,-1705"/>
<text text-anchor="start" x="912" y="-1711.8" font-family="Times,serif" font-weight="bold" font-size="14.00" fill="#000000">ConsoleOutput</text>
<polygon fill="none" stroke="#000000" points="423,-1680 423,-1705 1490,-1705 1490,-1680 423,-1680"/>
<text text-anchor="start" x="428" y="-1688.8" font-family="Times,serif" font-size="14.00" fill="#000000">+ «static» MAX_LINE_LENGTH : int = 120 {readOnly}</text>
<polygon fill="none" stroke="#000000" points="423,-1674 423,-1680 1490,-1680 1490,-1674 423,-1674"/>
<polygon fill="none" stroke="#000000" points="423,-1345 423,-1674 1490,-1674 1490,-1345 423,-1345"/>
<text text-anchor="start" x="428" y="-1657.8" font-family="Times,serif" font-size="14.00" fill="#000000">+ __construct(verbosity : int = parent\:\:VERBOSITY_NORMAL, decorated : bool = «unknown», formatter : Symfony\Component\Console\Formatter\OutputFormatterInterface = «unknown»)</text>
<text text-anchor="start" x="428" y="-1638.8" font-family="Times,serif" font-size="14.00" fill="#000000">+ setApplicationVersion(version : string) : void</text>
<text text-anchor="start" x="428" y="-1619.8" font-family="Times,serif" font-size="14.00" fill="#000000">+ setConfigResolver(resolver : Overtrue\PHPLint\Configuration\Resolver) : void</text>
<text text-anchor="start" x="428" y="-1600.8" font-family="Times,serif" font-size="14.00" fill="#000000">+ format(results : Overtrue\PHPLint\Output\LinterOutput) : void</text>
<text text-anchor="start" x="428" y="-1581.8" font-family="Times,serif" font-size="14.00" fill="#000000">+ createProgressBar(max = 0) : Symfony\Component\Console\Helper\ProgressBar</text>
<text text-anchor="start" x="428" y="-1562.8" font-family="Times,serif" font-size="14.00" fill="#000000">+ progressStart(max : int = 0)</text>
<text text-anchor="start" x="428" y="-1543.8" font-family="Times,serif" font-size="14.00" fill="#000000">+ progressAdvance(step : int = 1)</text>
<text text-anchor="start" x="428" y="-1524.8" font-family="Times,serif" font-size="14.00" fill="#000000">+ progressFinish() : void</text>
<text text-anchor="start" x="428" y="-1505.8" font-family="Times,serif" font-size="14.00" fill="#000000">+ progressMessage(message : string, name : string = &#39;message&#39;)</text>
<text text-anchor="start" x="428" y="-1486.8" font-family="Times,serif" font-size="14.00" fill="#000000">+ progressPrinterAdvance(maxSteps : int, status : string, fileInfo : Symfony\Component\Finder\SplFileInfo) : void</text>
<text text-anchor="start" x="428" y="-1467.8" font-family="Times,serif" font-size="14.00" fill="#000000">+ headerBlock(appVersion : string, configFile : string) : void</text>
<text text-anchor="start" x="428" y="-1448.8" font-family="Times,serif" font-size="14.00" fill="#000000">+ configBlock(options : array) : void</text>
<text text-anchor="start" x="428" y="-1429.8" font-family="Times,serif" font-size="14.00" fill="#000000">+ consumeBlock(timeUsage : string, memUsage : string, cacheUsage : string) : void</text>
<text text-anchor="start" x="428" y="-1410.8" font-family="Times,serif" font-size="14.00" fill="#000000">+ errorBlock(fileCount : int, errorCount : int) : void</text>
<text text-anchor="start" x="428" y="-1391.8" font-family="Times,serif" font-size="14.00" fill="#000000">+ successBlock(fileCount : int) : void</text>
<text text-anchor="start" x="428" y="-1372.8" font-family="Times,serif" font-size="14.00" fill="#000000">+ warningBlock(message : string = &#39;Could\ not\ find\ files\ to\ lint&#39;) : void</text>
<text text-anchor="start" x="428" y="-1353.8" font-family="Times,serif" font-size="14.00" fill="#000000">+ newLine(count : int = 1)</text>
</g>
<!-- Overtrue\\PHPLint\\Output\\ConsoleOutput&#45;&gt;Overtrue\\PHPLint\\Output\\OutputInterface -->
<g id="edge8" class="edge">
<title>Overtrue\\PHPLint\\Output\\ConsoleOutput&#45;&gt;Overtrue\\PHPLint\\Output\\OutputInterface</title>
<path fill="none" stroke="#000000" stroke-dasharray="5,2" d="M1182.2515,-1340.787C1219.8408,-1307.3576 1255.2573,-1275.8605 1282.0957,-1251.9922"/>
<polygon fill="none" stroke="#000000" points="1284.6401,-1254.4133 1289.7866,-1245.1524 1279.9882,-1249.1826 1284.6401,-1254.4133"/>
</g>
<!-- Symfony\\Component\\Console\\Output\\ConsoleOutput -->
<g id="node7" class="node">
<title>Symfony\\Component\\Console\\Output\\ConsoleOutput</title>
<polygon fill="#fefece" stroke="transparent" points="3934.5,-1302 2899.5,-1302 2899.5,-1115 3934.5,-1115 3934.5,-1302"/>
<polygon fill="#eeeeee" stroke="transparent" points="2908,-1263.5 2908,-1297.5 3927,-1297.5 3927,-1263.5 2908,-1263.5"/>
<polygon fill="none" stroke="#000000" points="2908,-1263.5 2908,-1297.5 3927,-1297.5 3927,-1263.5 2908,-1263.5"/>
<text text-anchor="start" x="3373" y="-1270.3" font-family="Times,serif" font-weight="bold" font-size="14.00" fill="#000000">ConsoleOutput</text>
<polygon fill="none" stroke="#000000" points="2908,-1257.5 2908,-1263.5 3927,-1263.5 3927,-1257.5 2908,-1257.5"/>
<polygon fill="none" stroke="#000000" points="2908,-1118.5 2908,-1257.5 3927,-1257.5 3927,-1118.5 2908,-1118.5"/>
<text text-anchor="start" x="2913" y="-1241.3" font-family="Times,serif" font-size="14.00" fill="#000000">+ __construct(verbosity : int = VERBOSITY_NORMAL, decorated : bool = «unknown», formatter : Symfony\Component\Console\Formatter\OutputFormatterInterface = «unknown»)</text>
<text text-anchor="start" x="2913" y="-1222.3" font-family="Times,serif" font-size="14.00" fill="#000000">+ section() : Symfony\Component\Console\Output\ConsoleSectionOutput</text>
<text text-anchor="start" x="2913" y="-1203.3" font-family="Times,serif" font-size="14.00" fill="#000000">+ setDecorated(decorated : bool)</text>
<text text-anchor="start" x="2913" y="-1184.3" font-family="Times,serif" font-size="14.00" fill="#000000">+ setFormatter(formatter : Symfony\Component\Console\Formatter\OutputFormatterInterface)</text>
<text text-anchor="start" x="2913" y="-1165.3" font-family="Times,serif" font-size="14.00" fill="#000000">+ setVerbosity(level : int)</text>
<text text-anchor="start" x="2913" y="-1146.3" font-family="Times,serif" font-size="14.00" fill="#000000">+ getErrorOutput() : Symfony\Component\Console\Output\OutputInterface</text>
<text text-anchor="start" x="2913" y="-1127.3" font-family="Times,serif" font-size="14.00" fill="#000000">+ setErrorOutput(error : Symfony\Component\Console\Output\OutputInterface)</text>
</g>
<!-- Overtrue\\PHPLint\\Output\\ConsoleOutput&#45;&gt;Symfony\\Component\\Console\\Output\\ConsoleOutput -->
<g id="edge7" class="edge">
<title>Overtrue\\PHPLint\\Output\\ConsoleOutput&#45;&gt;Symfony\\Component\\Console\\Output\\ConsoleOutput</title>
<path fill="none" stroke="#000000" d="M1497.7328,-1342.5231C1500.4926,-1342.003 1503.2485,-1341.4952 1506,-1341 1581.5101,-1327.4088 2810.8124,-1342.052 2887,-1333 2943.008,-1326.3456 3001.7025,-1316.0288 3058.788,-1304.1186"/>
<polygon fill="none" stroke="#000000" points="3059.6142,-1307.5214 3068.6784,-1302.0359 3058.1717,-1300.6717 3059.6142,-1307.5214"/>
</g>
<!-- Overtrue\\PHPLint\\Output\\JsonOutput -->
<g id="node5" class="node">
<title>Overtrue\\PHPLint\\Output\\JsonOutput</title>
<polygon fill="#fefece" stroke="transparent" points="1896.5,-1578.5 1515.5,-1578.5 1515.5,-1505.5 1896.5,-1505.5 1896.5,-1578.5"/>
<polygon fill="#eeeeee" stroke="transparent" points="1524,-1540 1524,-1574 1889,-1574 1889,-1540 1524,-1540"/>
<polygon fill="none" stroke="#000000" points="1524,-1540 1524,-1574 1889,-1574 1889,-1540 1524,-1540"/>
<text text-anchor="start" x="1671.5" y="-1546.8" font-family="Times,serif" font-weight="bold" font-size="14.00" fill="#000000">JsonOutput</text>
<polygon fill="none" stroke="#000000" points="1524,-1534 1524,-1540 1889,-1540 1889,-1534 1524,-1534"/>
<polygon fill="none" stroke="#000000" points="1524,-1509 1524,-1534 1889,-1534 1889,-1509 1524,-1509"/>
<text text-anchor="start" x="1529" y="-1517.8" font-family="Times,serif" font-size="14.00" fill="#000000">+ format(results : Overtrue\PHPLint\Output\LinterOutput) : void</text>
</g>
<!-- Overtrue\\PHPLint\\Output\\JsonOutput&#45;&gt;Overtrue\\PHPLint\\Output\\OutputInterface -->
<g id="edge10" class="edge">
<title>Overtrue\\PHPLint\\Output\\JsonOutput&#45;&gt;Overtrue\\PHPLint\\Output\\OutputInterface</title>
<path fill="none" stroke="#000000" stroke-dasharray="5,2" d="M1672.3919,-1505.2471C1633.7645,-1463.727 1567.7303,-1394.9208 1506,-1341 1469.4655,-1309.0875 1425.9949,-1276.1506 1391.5194,-1251.0986"/>
<polygon fill="none" stroke="#000000" points="1393.5627,-1248.2569 1383.4095,-1245.23 1389.459,-1253.9279 1393.5627,-1248.2569"/>
</g>
<!-- Symfony\\Component\\Console\\Output\\StreamOutput -->
<g id="node8" class="node">
<title>Symfony\\Component\\Console\\Output\\StreamOutput</title>
<polygon fill="#fefece" stroke="transparent" points="4435,-1079 3299,-1079 3299,-987 4435,-987 4435,-1079"/>
<polygon fill="#eeeeee" stroke="transparent" points="3307,-1041 3307,-1075 4427,-1075 4427,-1041 3307,-1041"/>
<polygon fill="none" stroke="#000000" points="3307,-1041 3307,-1075 4427,-1075 4427,-1041 3307,-1041"/>
<text text-anchor="start" x="3824" y="-1047.8" font-family="Times,serif" font-weight="bold" font-size="14.00" fill="#000000">StreamOutput</text>
<polygon fill="none" stroke="#000000" points="3307,-1035 3307,-1041 4427,-1041 4427,-1035 3307,-1035"/>
<polygon fill="none" stroke="#000000" points="3307,-991 3307,-1035 4427,-1035 4427,-991 3307,-991"/>
<text text-anchor="start" x="3312" y="-1018.8" font-family="Times,serif" font-size="14.00" fill="#000000">+ __construct(stream : resource, verbosity : int = VERBOSITY_NORMAL, decorated : bool = «unknown», formatter : Symfony\Component\Console\Formatter\OutputFormatterInterface = «unknown»)</text>
<text text-anchor="start" x="3312" y="-999.8" font-family="Times,serif" font-size="14.00" fill="#000000">+ getStream()</text>
</g>
<!-- Overtrue\\PHPLint\\Output\\JsonOutput&#45;&gt;Symfony\\Component\\Console\\Output\\StreamOutput -->
<g id="edge9" class="edge">
<title>Overtrue\\PHPLint\\Output\\JsonOutput&#45;&gt;Symfony\\Component\\Console\\Output\\StreamOutput</title>
<path fill="none" stroke="#000000" d="M1728.8057,-1505.1751C1761.1301,-1456.8973 1825.3018,-1374.4294 1905,-1341 1918.0577,-1335.523 3934.0071,-1343.0321 3944,-1333 3978.1881,-1298.6775 3961.8331,-1160.0427 3944,-1115 3940.1321,-1105.2304 3934.4887,-1095.9453 3927.987,-1087.3725"/>
<polygon fill="none" stroke="#000000" points="3930.5309,-1084.9522 3921.5204,-1079.3789 3925.0887,-1089.3548 3930.5309,-1084.9522"/>
</g>
<!-- Overtrue\\PHPLint\\Output\\JunitOutput -->
<g id="node6" class="node">
<title>Overtrue\\PHPLint\\Output\\JunitOutput</title>
<polygon fill="#fefece" stroke="transparent" points="2295.5,-1578.5 1914.5,-1578.5 1914.5,-1505.5 2295.5,-1505.5 2295.5,-1578.5"/>
<polygon fill="#eeeeee" stroke="transparent" points="1923,-1540 1923,-1574 2288,-1574 2288,-1540 1923,-1540"/>
<polygon fill="none" stroke="#000000" points="1923,-1540 1923,-1574 2288,-1574 2288,-1540 1923,-1540"/>
<text text-anchor="start" x="2069" y="-1546.8" font-family="Times,serif" font-weight="bold" font-size="14.00" fill="#000000">JunitOutput</text>
<polygon fill="none" stroke="#000000" points="1923,-1534 1923,-1540 2288,-1540 2288,-1534 1923,-1534"/>
<polygon fill="none" stroke="#000000" points="1923,-1509 1923,-1534 2288,-1534 2288,-1509 1923,-1509"/>
<text text-anchor="start" x="1928" y="-1517.8" font-family="Times,serif" font-size="14.00" fill="#000000">+ format(results : Overtrue\PHPLint\Output\LinterOutput) : void</text>
</g>
<!-- Overtrue\\PHPLint\\Output\\JunitOutput&#45;&gt;Overtrue\\PHPLint\\Output\\OutputInterface -->
<g id="edge12" class="edge">
<title>Overtrue\\PHPLint\\Output\\JunitOutput&#45;&gt;Overtrue\\PHPLint\\Output\\OutputInterface</title>
<path fill="none" stroke="#000000" stroke-dasharray="5,2" d="M2079.0351,-1505.3639C2044.6024,-1459.625 1979.4349,-1382.3799 1905,-1341 1800.1135,-1282.6915 1670.7887,-1249.9982 1561.4628,-1231.6883"/>
<polygon fill="none" stroke="#000000" points="1561.719,-1228.1835 1551.2837,-1230.0152 1560.5836,-1235.0909 1561.719,-1228.1835"/>
</g>
<!-- Overtrue\\PHPLint\\Output\\JunitOutput&#45;&gt;Symfony\\Component\\Console\\Output\\StreamOutput -->
<g id="edge11" class="edge">
<title>Overtrue\\PHPLint\\Output\\JunitOutput&#45;&gt;Symfony\\Component\\Console\\Output\\StreamOutput</title>
<path fill="none" stroke="#000000" d="M2127.8099,-1505.1851C2160.139,-1456.9187 2224.3162,-1374.4636 2304,-1341 2325.4239,-1332.0029 3960.6087,-1349.4698 3977,-1333 4045.3468,-1264.3256 4020.4563,-1201.5968 3977,-1115 3971.6583,-1104.3554 3964.207,-1094.7407 3955.674,-1086.1598"/>
<polygon fill="none" stroke="#000000" points="3957.955,-1083.5003 3948.2744,-1079.1951 3953.1573,-1088.5976 3957.955,-1083.5003"/>
</g>
<!-- Symfony\\Component\\Console\\Output\\ConsoleOutput&#45;&gt;Symfony\\Component\\Console\\Output\\StreamOutput -->
<g id="edge4" class="edge">
<title>Symfony\\Component\\Console\\Output\\ConsoleOutput&#45;&gt;Symfony\\Component\\Console\\Output\\StreamOutput</title>
<path fill="none" stroke="#000000" d="M3656.822,-1114.9694C3685.2988,-1103.8635 3713.4575,-1092.8816 3739.4631,-1082.7394"/>
<polygon fill="none" stroke="#000000" points="3740.8984,-1085.9364 3748.9432,-1079.0421 3738.355,-1079.4149 3740.8984,-1085.9364"/>
</g>
<!-- Symfony\\Component\\Console\\Output\\ConsoleOutputInterface -->
<g id="node11" class="node">
<title>Symfony\\Component\\Console\\Output\\ConsoleOutputInterface</title>
<polygon fill="#fefece" stroke="transparent" points="3421,-856 2899,-856 2899,-587 3421,-587 3421,-856"/>
<polygon fill="#eeeeee" stroke="transparent" points="2907,-817.5 2907,-851.5 3413,-851.5 3413,-817.5 2907,-817.5"/>
<polygon fill="none" stroke="#000000" points="2907,-817.5 2907,-851.5 3413,-851.5 3413,-817.5 2907,-817.5"/>
<text text-anchor="start" x="3127.5" y="-838.3" font-family="Times,serif" font-weight="bold" font-size="14.00" fill="#000000">«interface»</text>
<text text-anchor="start" x="3089" y="-824.3" font-family="Times,serif" font-weight="bold" font-size="14.00" fill="#000000">ConsoleOutputInterface</text>
<polygon fill="none" stroke="#000000" points="2907,-659.5 2907,-817.5 3413,-817.5 3413,-659.5 2907,-659.5"/>
<text text-anchor="start" x="2912" y="-801.3" font-family="Times,serif" font-size="14.00" fill="#000000">+ «static» VERBOSITY_QUIET : int = 16 {readOnly}</text>
<text text-anchor="start" x="2912" y="-782.3" font-family="Times,serif" font-size="14.00" fill="#000000">+ «static» VERBOSITY_NORMAL : int = 32 {readOnly}</text>
<text text-anchor="start" x="2912" y="-763.3" font-family="Times,serif" font-size="14.00" fill="#000000">+ «static» VERBOSITY_VERBOSE : int = 64 {readOnly}</text>
<text text-anchor="start" x="2912" y="-744.3" font-family="Times,serif" font-size="14.00" fill="#000000">+ «static» VERBOSITY_VERY_VERBOSE : int = 128 {readOnly}</text>
<text text-anchor="start" x="2912" y="-725.3" font-family="Times,serif" font-size="14.00" fill="#000000">+ «static» VERBOSITY_DEBUG : int = 256 {readOnly}</text>
<text text-anchor="start" x="2912" y="-706.3" font-family="Times,serif" font-size="14.00" fill="#000000">+ «static» OUTPUT_NORMAL : int = 1 {readOnly}</text>
<text text-anchor="start" x="2912" y="-687.3" font-family="Times,serif" font-size="14.00" fill="#000000">+ «static» OUTPUT_RAW : int = 2 {readOnly}</text>
<text text-anchor="start" x="2912" y="-668.3" font-family="Times,serif" font-size="14.00" fill="#000000">+ «static» OUTPUT_PLAIN : int = 4 {readOnly}</text>
<polygon fill="none" stroke="#000000" points="2907,-653.5 2907,-659.5 3413,-659.5 3413,-653.5 2907,-653.5"/>
<polygon fill="none" stroke="#000000" points="2907,-590.5 2907,-653.5 3413,-653.5 3413,-590.5 2907,-590.5"/>
<text text-anchor="start" x="2912" y="-637.3" font-family="Times,serif" font-size="14.00" fill="#000000">+ «abstract» getErrorOutput() : Symfony\Component\Console\Output\OutputInterface</text>
<text text-anchor="start" x="2912" y="-618.3" font-family="Times,serif" font-size="14.00" fill="#000000">+ «abstract» setErrorOutput(error : Symfony\Component\Console\Output\OutputInterface)</text>
<text text-anchor="start" x="2912" y="-599.3" font-family="Times,serif" font-size="14.00" fill="#000000">+ «abstract» section() : Symfony\Component\Console\Output\ConsoleSectionOutput</text>
</g>
<!-- Symfony\\Component\\Console\\Output\\ConsoleOutput&#45;&gt;Symfony\\Component\\Console\\Output\\ConsoleOutputInterface -->
<g id="edge6" class="edge">
<title>Symfony\\Component\\Console\\Output\\ConsoleOutput&#45;&gt;Symfony\\Component\\Console\\Output\\ConsoleOutputInterface</title>
<path fill="none" stroke="#000000" stroke-dasharray="5,2" d="M3316.4157,-1114.7822C3306.7687,-1103.2883 3297.7215,-1091.2557 3290,-1079 3248.9801,-1013.8926 3218.3694,-933.9913 3197.1903,-866.2512"/>
<polygon fill="none" stroke="#000000" points="3200.4274,-864.8713 3194.1339,-856.3482 3193.7387,-866.9357 3200.4274,-864.8713"/>
</g>
<!-- Symfony\\Component\\Console\\Output\\Output -->
<g id="node9" class="node">
<title>Symfony\\Component\\Console\\Output\\Output</title>
<polygon fill="#fefece" stroke="transparent" points="4435,-951 3439,-951 3439,-492 4435,-492 4435,-951"/>
<polygon fill="#eeeeee" stroke="transparent" points="3447,-912.5 3447,-946.5 4427,-946.5 4427,-912.5 3447,-912.5"/>
<polygon fill="none" stroke="#000000" points="3447,-912.5 3447,-946.5 4427,-946.5 4427,-912.5 3447,-912.5"/>
<text text-anchor="start" x="3906.5" y="-933.3" font-family="Times,serif" font-weight="bold" font-size="14.00" fill="#000000">«abstract»</text>
<text text-anchor="start" x="3915.5" y="-919.3" font-family="Times,serif" font-weight="bold" font-size="14.00" fill="#000000">Output</text>
<polygon fill="none" stroke="#000000" points="3447,-754.5 3447,-912.5 4427,-912.5 4427,-754.5 3447,-754.5"/>
<text text-anchor="start" x="3452" y="-896.3" font-family="Times,serif" font-size="14.00" fill="#000000">+ «static» VERBOSITY_QUIET : int = 16 {readOnly}</text>
<text text-anchor="start" x="3452" y="-877.3" font-family="Times,serif" font-size="14.00" fill="#000000">+ «static» VERBOSITY_NORMAL : int = 32 {readOnly}</text>
<text text-anchor="start" x="3452" y="-858.3" font-family="Times,serif" font-size="14.00" fill="#000000">+ «static» VERBOSITY_VERBOSE : int = 64 {readOnly}</text>
<text text-anchor="start" x="3452" y="-839.3" font-family="Times,serif" font-size="14.00" fill="#000000">+ «static» VERBOSITY_VERY_VERBOSE : int = 128 {readOnly}</text>
<text text-anchor="start" x="3452" y="-820.3" font-family="Times,serif" font-size="14.00" fill="#000000">+ «static» VERBOSITY_DEBUG : int = 256 {readOnly}</text>
<text text-anchor="start" x="3452" y="-801.3" font-family="Times,serif" font-size="14.00" fill="#000000">+ «static» OUTPUT_NORMAL : int = 1 {readOnly}</text>
<text text-anchor="start" x="3452" y="-782.3" font-family="Times,serif" font-size="14.00" fill="#000000">+ «static» OUTPUT_RAW : int = 2 {readOnly}</text>
<text text-anchor="start" x="3452" y="-763.3" font-family="Times,serif" font-size="14.00" fill="#000000">+ «static» OUTPUT_PLAIN : int = 4 {readOnly}</text>
<polygon fill="none" stroke="#000000" points="3447,-748.5 3447,-754.5 4427,-754.5 4427,-748.5 3447,-748.5"/>
<polygon fill="none" stroke="#000000" points="3447,-495.5 3447,-748.5 4427,-748.5 4427,-495.5 3447,-495.5"/>
<text text-anchor="start" x="3452" y="-732.3" font-family="Times,serif" font-size="14.00" fill="#000000">+ __construct(verbosity : int = VERBOSITY_NORMAL, decorated : bool = false, formatter : Symfony\Component\Console\Formatter\OutputFormatterInterface = «unknown»)</text>
<text text-anchor="start" x="3452" y="-713.3" font-family="Times,serif" font-size="14.00" fill="#000000">+ setFormatter(formatter : Symfony\Component\Console\Formatter\OutputFormatterInterface)</text>
<text text-anchor="start" x="3452" y="-694.3" font-family="Times,serif" font-size="14.00" fill="#000000">+ getFormatter() : Symfony\Component\Console\Formatter\OutputFormatterInterface</text>
<text text-anchor="start" x="3452" y="-675.3" font-family="Times,serif" font-size="14.00" fill="#000000">+ setDecorated(decorated : bool)</text>
<text text-anchor="start" x="3452" y="-656.3" font-family="Times,serif" font-size="14.00" fill="#000000">+ isDecorated() : bool</text>
<text text-anchor="start" x="3452" y="-637.3" font-family="Times,serif" font-size="14.00" fill="#000000">+ setVerbosity(level : int)</text>
<text text-anchor="start" x="3452" y="-618.3" font-family="Times,serif" font-size="14.00" fill="#000000">+ getVerbosity() : int</text>
<text text-anchor="start" x="3452" y="-599.3" font-family="Times,serif" font-size="14.00" fill="#000000">+ isQuiet() : bool</text>
<text text-anchor="start" x="3452" y="-580.3" font-family="Times,serif" font-size="14.00" fill="#000000">+ isVerbose() : bool</text>
<text text-anchor="start" x="3452" y="-561.3" font-family="Times,serif" font-size="14.00" fill="#000000">+ isVeryVerbose() : bool</text>
<text text-anchor="start" x="3452" y="-542.3" font-family="Times,serif" font-size="14.00" fill="#000000">+ isDebug() : bool</text>
<text text-anchor="start" x="3452" y="-523.3" font-family="Times,serif" font-size="14.00" fill="#000000">+ writeln(messages, options : int = OUTPUT_NORMAL)</text>
<text text-anchor="start" x="3452" y="-504.3" font-family="Times,serif" font-size="14.00" fill="#000000">+ write(messages, newline : bool = false, options : int = OUTPUT_NORMAL)</text>
</g>
<!-- Symfony\\Component\\Console\\Output\\StreamOutput&#45;&gt;Symfony\\Component\\Console\\Output\\Output -->
<g id="edge3" class="edge">
<title>Symfony\\Component\\Console\\Output\\StreamOutput&#45;&gt;Symfony\\Component\\Console\\Output\\Output</title>
<path fill="none" stroke="#000000" d="M3877.4041,-986.7017C3879.1849,-978.7771 3881.1375,-970.0881 3883.2156,-960.8405"/>
<polygon fill="none" stroke="#000000" points="3886.647,-961.534 3885.4247,-951.0099 3879.8173,-959.9992 3886.647,-961.534"/>
</g>
<!-- Symfony\\Component\\Console\\Output\\OutputInterface -->
<g id="node10" class="node">
<title>Symfony\\Component\\Console\\Output\\OutputInterface</title>
<polygon fill="#fefece" stroke="transparent" points="3871.5,-456 3266.5,-456 3266.5,-16 3871.5,-16 3871.5,-456"/>
<polygon fill="#eeeeee" stroke="transparent" points="3275,-418 3275,-452 3864,-452 3864,-418 3275,-418"/>
<polygon fill="none" stroke="#000000" points="3275,-418 3275,-452 3864,-452 3864,-418 3275,-418"/>
<text text-anchor="start" x="3537" y="-438.8" font-family="Times,serif" font-weight="bold" font-size="14.00" fill="#000000">«interface»</text>
<text text-anchor="start" x="3521.5" y="-424.8" font-family="Times,serif" font-weight="bold" font-size="14.00" fill="#000000">OutputInterface</text>
<polygon fill="none" stroke="#000000" points="3275,-260 3275,-418 3864,-418 3864,-260 3275,-260"/>
<text text-anchor="start" x="3280" y="-401.8" font-family="Times,serif" font-size="14.00" fill="#000000">+ «static» VERBOSITY_QUIET : int = 16 {readOnly}</text>
<text text-anchor="start" x="3280" y="-382.8" font-family="Times,serif" font-size="14.00" fill="#000000">+ «static» VERBOSITY_NORMAL : int = 32 {readOnly}</text>
<text text-anchor="start" x="3280" y="-363.8" font-family="Times,serif" font-size="14.00" fill="#000000">+ «static» VERBOSITY_VERBOSE : int = 64 {readOnly}</text>
<text text-anchor="start" x="3280" y="-344.8" font-family="Times,serif" font-size="14.00" fill="#000000">+ «static» VERBOSITY_VERY_VERBOSE : int = 128 {readOnly}</text>
<text text-anchor="start" x="3280" y="-325.8" font-family="Times,serif" font-size="14.00" fill="#000000">+ «static» VERBOSITY_DEBUG : int = 256 {readOnly}</text>
<text text-anchor="start" x="3280" y="-306.8" font-family="Times,serif" font-size="14.00" fill="#000000">+ «static» OUTPUT_NORMAL : int = 1 {readOnly}</text>
<text text-anchor="start" x="3280" y="-287.8" font-family="Times,serif" font-size="14.00" fill="#000000">+ «static» OUTPUT_RAW : int = 2 {readOnly}</text>
<text text-anchor="start" x="3280" y="-268.8" font-family="Times,serif" font-size="14.00" fill="#000000">+ «static» OUTPUT_PLAIN : int = 4 {readOnly}</text>
<polygon fill="none" stroke="#000000" points="3275,-254 3275,-260 3864,-260 3864,-254 3275,-254"/>
<polygon fill="none" stroke="#000000" points="3275,-20 3275,-254 3864,-254 3864,-20 3275,-20"/>
<text text-anchor="start" x="3280" y="-237.8" font-family="Times,serif" font-size="14.00" fill="#000000">+ «abstract» write(messages, newline : bool = false, options : int = 0)</text>
<text text-anchor="start" x="3280" y="-218.8" font-family="Times,serif" font-size="14.00" fill="#000000">+ «abstract» writeln(messages, options : int = 0)</text>
<text text-anchor="start" x="3280" y="-199.8" font-family="Times,serif" font-size="14.00" fill="#000000">+ «abstract» setVerbosity(level : int)</text>
<text text-anchor="start" x="3280" y="-180.8" font-family="Times,serif" font-size="14.00" fill="#000000">+ «abstract» getVerbosity() : int</text>
<text text-anchor="start" x="3280" y="-161.8" font-family="Times,serif" font-size="14.00" fill="#000000">+ «abstract» isQuiet() : bool</text>
<text text-anchor="start" x="3280" y="-142.8" font-family="Times,serif" font-size="14.00" fill="#000000">+ «abstract» isVerbose() : bool</text>
<text text-anchor="start" x="3280" y="-123.8" font-family="Times,serif" font-size="14.00" fill="#000000">+ «abstract» isVeryVerbose() : bool</text>
<text text-anchor="start" x="3280" y="-104.8" font-family="Times,serif" font-size="14.00" fill="#000000">+ «abstract» isDebug() : bool</text>
<text text-anchor="start" x="3280" y="-85.8" font-family="Times,serif" font-size="14.00" fill="#000000">+ «abstract» setDecorated(decorated : bool)</text>
<text text-anchor="start" x="3280" y="-66.8" font-family="Times,serif" font-size="14.00" fill="#000000">+ «abstract» isDecorated() : bool</text>
<text text-anchor="start" x="3280" y="-47.8" font-family="Times,serif" font-size="14.00" fill="#000000">+ «abstract» setFormatter(formatter : Symfony\Component\Console\Formatter\OutputFormatterInterface)</text>
<text text-anchor="start" x="3280" y="-28.8" font-family="Times,serif" font-size="14.00" fill="#000000">+ «abstract» getFormatter() : Symfony\Component\Console\Formatter\OutputFormatterInterface</text>
</g>
<!-- Symfony\\Component\\Console\\Output\\Output&#45;&gt;Symfony\\Component\\Console\\Output\\OutputInterface -->
<g id="edge2" class="edge">
<title>Symfony\\Component\\Console\\Output\\Output&#45;&gt;Symfony\\Component\\Console\\Output\\OutputInterface</title>
<path fill="none" stroke="#000000" stroke-dasharray="5,2" d="M3762.9683,-491.9011C3755.9935,-482.6993 3748.9995,-473.4722 3742.0266,-464.2729"/>
<polygon fill="none" stroke="#000000" points="3744.7353,-462.0523 3735.9054,-456.1972 3739.1568,-466.2808 3744.7353,-462.0523"/>
</g>
<!-- Symfony\\Component\\Console\\Output\\ConsoleOutputInterface&#45;&gt;Symfony\\Component\\Console\\Output\\OutputInterface -->
<g id="edge5" class="edge">
<title>Symfony\\Component\\Console\\Output\\ConsoleOutputInterface&#45;&gt;Symfony\\Component\\Console\\Output\\OutputInterface</title>
<path fill="none" stroke="#000000" stroke-dasharray="5,2" d="M3273.3862,-586.9059C3305.5456,-548.7313 3341.4839,-506.071 3376.9229,-464.0035"/>
<polygon fill="none" stroke="#000000" points="3379.7672,-466.0596 3383.5333,-456.1567 3374.4136,-461.5496 3379.7672,-466.0596"/>
</g>
</g>
</svg>
