<?xml version="1.0" encoding="UTF-8" standalone="no"?>
<!DOCTYPE svg PUBLIC "-//W3C//DTD SVG 1.1//EN"
 "http://www.w3.org/Graphics/SVG/1.1/DTD/svg11.dtd">
<!-- Generated by graphviz version 2.43.0 (0)
 -->
<!-- Title: %3 Pages: 1 -->
<svg width="4515pt" height="1950pt"
 viewBox="0.00 0.00 4515.00 1950.00" xmlns="http://www.w3.org/2000/svg" xmlns:xlink="http://www.w3.org/1999/xlink">
<g id="graph0" class="graph" transform="scale(1 1) rotate(0) translate(4 1946)">
<title>%3</title>
<g id="clust1" class="cluster">
<title>cluster_0</title>
<polygon fill="#cdaa7d" stroke="black" points="1178,-979 1178,-1934 4337,-1934 4337,-979 1178,-979"/>
<text text-anchor="middle" x="2757.5" y="-1918.8" font-family="Times,serif" font-size="14.00">Overtrue\PHPLint\Output</text>
</g>
<g id="clust2" class="cluster">
<title>cluster_1</title>
<polygon fill="transparent" stroke="black" points="8,-8 8,-1303 1170,-1303 1170,-8 8,-8"/>
<text text-anchor="middle" x="589" y="-1287.8" font-family="Times,serif" font-size="14.00">Symfony\Component\Console\Output</text>
</g>
<g id="clust3" class="cluster">
<title>cluster_2</title>
<polygon fill="transparent" stroke="black" points="4345,-1181.5 4345,-1293.5 4499,-1293.5 4499,-1181.5 4345,-1181.5"/>
<text text-anchor="middle" x="4422" y="-1278.3" font-family="Times,serif" font-size="14.00">0</text>
</g>
<!-- Overtrue\\PHPLint\\Output\\ChainOutput -->
<g id="node1" class="node">
<title>Overtrue\\PHPLint\\Output\\ChainOutput</title>
<polygon fill="#fefece" stroke="transparent" points="3532.5,-1757.5 3147.5,-1757.5 3147.5,-1646.5 3532.5,-1646.5 3532.5,-1757.5"/>
<polygon fill="#eeeeee" stroke="transparent" points="3156,-1719 3156,-1753 3525,-1753 3525,-1719 3156,-1719"/>
<polygon fill="none" stroke="black" points="3156,-1719 3156,-1753 3525,-1753 3525,-1719 3156,-1719"/>
<text text-anchor="start" x="3301" y="-1725.8" font-family="Times,serif" font-weight="bold" font-size="14.00">ChainOutput</text>
<polygon fill="none" stroke="black" points="3156,-1713 3156,-1719 3525,-1719 3525,-1713 3156,-1713"/>
<polygon fill="none" stroke="black" points="3156,-1650 3156,-1713 3525,-1713 3525,-1650 3156,-1650"/>
<text text-anchor="start" x="3161" y="-1696.8" font-family="Times,serif" font-size="14.00">+ __construct(handlers : array)</text>
<text text-anchor="start" x="3161" y="-1677.8" font-family="Times,serif" font-size="14.00">+ getName() : string</text>
<text text-anchor="start" x="3161" y="-1658.8" font-family="Times,serif" font-size="14.00">+ format(results : Overtrue\PHPLint\Output\LinterOutput) : void</text>
</g>
<!-- Overtrue\\PHPLint\\Output\\OutputInterface -->
<g id="node2" class="node">
<title>Overtrue\\PHPLint\\Output\\OutputInterface</title>
<polygon fill="#fefece" stroke="transparent" points="2040,-1272 1596,-1272 1596,-1180 2040,-1180 2040,-1272"/>
<polygon fill="#eeeeee" stroke="transparent" points="1604,-1234 1604,-1268 2032,-1268 2032,-1234 1604,-1234"/>
<polygon fill="none" stroke="black" points="1604,-1234 1604,-1268 2032,-1268 2032,-1234 1604,-1234"/>
<text text-anchor="start" x="1785.5" y="-1254.8" font-family="Times,serif" font-weight="bold" font-size="14.00">«interface»</text>
<text text-anchor="start" x="1770" y="-1240.8" font-family="Times,serif" font-weight="bold" font-size="14.00">OutputInterface</text>
<polygon fill="none" stroke="black" points="1604,-1228 1604,-1234 2032,-1234 2032,-1228 1604,-1228"/>
<polygon fill="none" stroke="black" points="1604,-1184 1604,-1228 2032,-1228 2032,-1184 1604,-1184"/>
<text text-anchor="start" x="1609" y="-1211.8" font-family="Times,serif" font-size="14.00">+ «abstract» getName() : string</text>
<text text-anchor="start" x="1609" y="-1192.8" font-family="Times,serif" font-size="14.00">+ «abstract» format(results : Overtrue\PHPLint\Output\LinterOutput) : void</text>
</g>
<!-- Overtrue\\PHPLint\\Output\\ChainOutput&#45;&gt;Overtrue\\PHPLint\\Output\\OutputInterface -->
<g id="edge1" class="edge">
<title>Overtrue\\PHPLint\\Output\\ChainOutput&#45;&gt;Overtrue\\PHPLint\\Output\\OutputInterface</title>
<path fill="none" stroke="black" stroke-dasharray="5,2" d="M3303.52,-1646.34C3267.92,-1598.27 3209.01,-1531.35 3139,-1501 2931.11,-1410.87 2332.74,-1542.99 2120,-1465 2015.63,-1426.74 1919.26,-1337.55 1864.64,-1279.88"/>
<polygon fill="none" stroke="black" points="1866.93,-1277.21 1857.54,-1272.31 1861.83,-1282 1866.93,-1277.21"/>
</g>
<!-- Overtrue\\PHPLint\\Output\\ConsoleOutput -->
<g id="node3" class="node">
<title>Overtrue\\PHPLint\\Output\\ConsoleOutput</title>
<polygon fill="#fefece" stroke="transparent" points="3129.5,-1903 1992.5,-1903 1992.5,-1501 3129.5,-1501 3129.5,-1903"/>
<polygon fill="#eeeeee" stroke="transparent" points="2001,-1865 2001,-1899 3122,-1899 3122,-1865 2001,-1865"/>
<polygon fill="none" stroke="black" points="2001,-1865 2001,-1899 3122,-1899 3122,-1865 2001,-1865"/>
<text text-anchor="start" x="2517" y="-1871.8" font-family="Times,serif" font-weight="bold" font-size="14.00">ConsoleOutput</text>
<polygon fill="none" stroke="black" points="2001,-1821 2001,-1865 3122,-1865 3122,-1821 2001,-1821"/>
<text text-anchor="start" x="2006" y="-1848.8" font-family="Times,serif" font-size="14.00">+ «static» MAX_LINE_LENGTH : int = 120 {readOnly}</text>
<text text-anchor="start" x="2006" y="-1829.8" font-family="Times,serif" font-size="14.00">+ «static» NO_FILE_TO_LINT : string = &quot;Could\ not\ find\ any\ files\ to\ lint&quot; {readOnly}</text>
<polygon fill="none" stroke="black" points="2001,-1815 2001,-1821 3122,-1821 3122,-1815 2001,-1815"/>
<polygon fill="none" stroke="black" points="2001,-1505 2001,-1815 3122,-1815 3122,-1505 2001,-1505"/>
<text text-anchor="start" x="2006" y="-1798.8" font-family="Times,serif" font-size="14.00">+ __construct(stream, verbosity : int = parent\:\:VERBOSITY_NORMAL, decorated : bool = «unknown», formatter : Symfony\Component\Console\Formatter\OutputFormatterInterface = «unknown»)</text>
<text text-anchor="start" x="2006" y="-1779.8" font-family="Times,serif" font-size="14.00">+ getName() : string</text>
<text text-anchor="start" x="2006" y="-1760.8" font-family="Times,serif" font-size="14.00">+ format(results : Overtrue\PHPLint\Output\LinterOutput) : void</text>
<text text-anchor="start" x="2006" y="-1741.8" font-family="Times,serif" font-size="14.00">+ createProgressBar(max = 0) : Symfony\Component\Console\Helper\ProgressBar</text>
<text text-anchor="start" x="2006" y="-1722.8" font-family="Times,serif" font-size="14.00">+ progressStart(max : int = 0) : void</text>
<text text-anchor="start" x="2006" y="-1703.8" font-family="Times,serif" font-size="14.00">+ progressAdvance(step : int = 1) : void</text>
<text text-anchor="start" x="2006" y="-1684.8" font-family="Times,serif" font-size="14.00">+ progressFinish() : void</text>
<text text-anchor="start" x="2006" y="-1665.8" font-family="Times,serif" font-size="14.00">+ progressMessage(message : string, name : string = &#39;message&#39;) : void</text>
<text text-anchor="start" x="2006" y="-1646.8" font-family="Times,serif" font-size="14.00">+ progressPrinterAdvance(maxSteps : int, status : string, fileInfo : Symfony\Component\Finder\SplFileInfo, step : int = 1) : void</text>
<text text-anchor="start" x="2006" y="-1627.8" font-family="Times,serif" font-size="14.00">+ headerBlock(appVersion : string, configFile : string) : void</text>
<text text-anchor="start" x="2006" y="-1608.8" font-family="Times,serif" font-size="14.00">+ configBlock(options : array) : void</text>
<text text-anchor="start" x="2006" y="-1589.8" font-family="Times,serif" font-size="14.00">+ consumeBlock(timeUsage : string, memUsage : string, cacheUsage : string, processCount : int) : void</text>
<text text-anchor="start" x="2006" y="-1570.8" font-family="Times,serif" font-size="14.00">+ errorBlock(fileCount : int, errorCount : int) : void</text>
<text text-anchor="start" x="2006" y="-1551.8" font-family="Times,serif" font-size="14.00">+ successBlock(fileCount : int) : void</text>
<text text-anchor="start" x="2006" y="-1532.8" font-family="Times,serif" font-size="14.00">+ warningBlock(message : string = NO_FILE_TO_LINT) : void</text>
<text text-anchor="start" x="2006" y="-1513.8" font-family="Times,serif" font-size="14.00">+ newLine(count : int = 1) : void</text>
</g>
<!-- Overtrue\\PHPLint\\Output\\ConsoleOutput&#45;&gt;Overtrue\\PHPLint\\Output\\OutputInterface -->
<g id="edge5" class="edge">
<title>Overtrue\\PHPLint\\Output\\ConsoleOutput&#45;&gt;Overtrue\\PHPLint\\Output\\OutputInterface</title>
<path fill="none" stroke="black" stroke-dasharray="5,2" d="M2177.03,-1500.87C2157.55,-1489.06 2138.44,-1477.06 2120,-1465 2031.26,-1406.93 1936.35,-1329.28 1877.11,-1278.71"/>
<polygon fill="none" stroke="black" points="1879.22,-1275.91 1869.35,-1272.07 1874.67,-1281.23 1879.22,-1275.91"/>
</g>
<!-- Overtrue\\PHPLint\\Output\\ConsoleOutputInterface -->
<g id="node4" class="node">
<title>Overtrue\\PHPLint\\Output\\ConsoleOutputInterface</title>
<polygon fill="#fefece" stroke="transparent" points="2921.5,-1465 2128.5,-1465 2128.5,-987 2921.5,-987 2921.5,-1465"/>
<polygon fill="#eeeeee" stroke="transparent" points="2137,-1427 2137,-1461 2914,-1461 2914,-1427 2137,-1427"/>
<polygon fill="none" stroke="black" points="2137,-1427 2137,-1461 2914,-1461 2914,-1427 2137,-1427"/>
<text text-anchor="start" x="2493" y="-1447.8" font-family="Times,serif" font-weight="bold" font-size="14.00">«interface»</text>
<text text-anchor="start" x="2454.5" y="-1433.8" font-family="Times,serif" font-weight="bold" font-size="14.00">ConsoleOutputInterface</text>
<polygon fill="none" stroke="black" points="2137,-1250 2137,-1427 2914,-1427 2914,-1250 2137,-1250"/>
<text text-anchor="start" x="2142" y="-1410.8" font-family="Times,serif" font-size="14.00">+ «static» NO_FILE_TO_LINT : string = &quot;Could\ not\ find\ any\ files\ to\ lint&quot; {readOnly}</text>
<text text-anchor="start" x="2142" y="-1391.8" font-family="Times,serif" font-size="14.00">+ «static» VERBOSITY_QUIET : int = 16 {readOnly}</text>
<text text-anchor="start" x="2142" y="-1372.8" font-family="Times,serif" font-size="14.00">+ «static» VERBOSITY_NORMAL : int = 32 {readOnly}</text>
<text text-anchor="start" x="2142" y="-1353.8" font-family="Times,serif" font-size="14.00">+ «static» VERBOSITY_VERBOSE : int = 64 {readOnly}</text>
<text text-anchor="start" x="2142" y="-1334.8" font-family="Times,serif" font-size="14.00">+ «static» VERBOSITY_VERY_VERBOSE : int = 128 {readOnly}</text>
<text text-anchor="start" x="2142" y="-1315.8" font-family="Times,serif" font-size="14.00">+ «static» VERBOSITY_DEBUG : int = 256 {readOnly}</text>
<text text-anchor="start" x="2142" y="-1296.8" font-family="Times,serif" font-size="14.00">+ «static» OUTPUT_NORMAL : int = 1 {readOnly}</text>
<text text-anchor="start" x="2142" y="-1277.8" font-family="Times,serif" font-size="14.00">+ «static» OUTPUT_RAW : int = 2 {readOnly}</text>
<text text-anchor="start" x="2142" y="-1258.8" font-family="Times,serif" font-size="14.00">+ «static» OUTPUT_PLAIN : int = 4 {readOnly}</text>
<polygon fill="none" stroke="black" points="2137,-1244 2137,-1250 2914,-1250 2914,-1244 2137,-1244"/>
<polygon fill="none" stroke="black" points="2137,-991 2137,-1244 2914,-1244 2914,-991 2137,-991"/>
<text text-anchor="start" x="2142" y="-1227.8" font-family="Times,serif" font-size="14.00">+ «abstract» createProgressBar(max = 0) : Symfony\Component\Console\Helper\ProgressBar</text>
<text text-anchor="start" x="2142" y="-1208.8" font-family="Times,serif" font-size="14.00">+ «abstract» progressStart(max : int = 0) : void</text>
<text text-anchor="start" x="2142" y="-1189.8" font-family="Times,serif" font-size="14.00">+ «abstract» progressAdvance(step : int = 1) : void</text>
<text text-anchor="start" x="2142" y="-1170.8" font-family="Times,serif" font-size="14.00">+ «abstract» progressFinish() : void</text>
<text text-anchor="start" x="2142" y="-1151.8" font-family="Times,serif" font-size="14.00">+ «abstract» progressMessage(message : string, name : string = &#39;message&#39;) : void</text>
<text text-anchor="start" x="2142" y="-1132.8" font-family="Times,serif" font-size="14.00">+ «abstract» progressPrinterAdvance(maxSteps : int, status : string, fileInfo : Symfony\Component\Finder\SplFileInfo, step : int = 1) : void</text>
<text text-anchor="start" x="2142" y="-1113.8" font-family="Times,serif" font-size="14.00">+ «abstract» headerBlock(appVersion : string, configFile : string) : void</text>
<text text-anchor="start" x="2142" y="-1094.8" font-family="Times,serif" font-size="14.00">+ «abstract» configBlock(options : array) : void</text>
<text text-anchor="start" x="2142" y="-1075.8" font-family="Times,serif" font-size="14.00">+ «abstract» consumeBlock(timeUsage : string, memUsage : string, cacheUsage : string, processCount : int) : void</text>
<text text-anchor="start" x="2142" y="-1056.8" font-family="Times,serif" font-size="14.00">+ «abstract» errorBlock(fileCount : int, errorCount : int) : void</text>
<text text-anchor="start" x="2142" y="-1037.8" font-family="Times,serif" font-size="14.00">+ «abstract» successBlock(fileCount : int) : void</text>
<text text-anchor="start" x="2142" y="-1018.8" font-family="Times,serif" font-size="14.00">+ «abstract» warningBlock(message : string = NO_FILE_TO_LINT) : void</text>
<text text-anchor="start" x="2142" y="-999.8" font-family="Times,serif" font-size="14.00">+ «abstract» newLine(count : int = 1) : void</text>
</g>
<!-- Overtrue\\PHPLint\\Output\\ConsoleOutput&#45;&gt;Overtrue\\PHPLint\\Output\\ConsoleOutputInterface -->
<g id="edge7" class="edge">
<title>Overtrue\\PHPLint\\Output\\ConsoleOutput&#45;&gt;Overtrue\\PHPLint\\Output\\ConsoleOutputInterface</title>
<path fill="none" stroke="black" stroke-dasharray="5,2" d="M2545.78,-1500.67C2545.14,-1492.22 2544.5,-1483.72 2543.85,-1475.19"/>
<polygon fill="none" stroke="black" points="2547.34,-1474.88 2543.09,-1465.17 2540.36,-1475.41 2547.34,-1474.88"/>
</g>
<!-- Symfony\\Component\\Console\\Output\\StreamOutput -->
<g id="node8" class="node">
<title>Symfony\\Component\\Console\\Output\\StreamOutput</title>
<polygon fill="#fefece" stroke="transparent" points="1162,-1272 16,-1272 16,-1180 1162,-1180 1162,-1272"/>
<polygon fill="#eeeeee" stroke="transparent" points="24,-1234 24,-1268 1154,-1268 1154,-1234 24,-1234"/>
<polygon fill="none" stroke="black" points="24,-1234 24,-1268 1154,-1268 1154,-1234 24,-1234"/>
<text text-anchor="start" x="546" y="-1240.8" font-family="Times,serif" font-weight="bold" font-size="14.00">StreamOutput</text>
<polygon fill="none" stroke="black" points="24,-1228 24,-1234 1154,-1234 1154,-1228 24,-1228"/>
<polygon fill="none" stroke="black" points="24,-1184 24,-1228 1154,-1228 1154,-1184 24,-1184"/>
<text text-anchor="start" x="29" y="-1211.8" font-family="Times,serif" font-size="14.00">+ __construct(stream : resource, verbosity : int = VERBOSITY_NORMAL, decorated : bool = «unknown», formatter : Symfony\Component\Console\Formatter\OutputFormatterInterface = «unknown»)</text>
<text text-anchor="start" x="29" y="-1192.8" font-family="Times,serif" font-size="14.00">+ getStream()</text>
</g>
<!-- Overtrue\\PHPLint\\Output\\ConsoleOutput&#45;&gt;Symfony\\Component\\Console\\Output\\StreamOutput -->
<g id="edge4" class="edge">
<title>Overtrue\\PHPLint\\Output\\ConsoleOutput&#45;&gt;Symfony\\Component\\Console\\Output\\StreamOutput</title>
<path fill="none" stroke="black" d="M1992.21,-1502.6C1989.47,-1502.06 1986.73,-1501.52 1984,-1501 1630.06,-1433.28 1526.03,-1542.02 1174,-1465 992.54,-1425.3 795.06,-1333.91 682.22,-1276.64"/>
<polygon fill="none" stroke="black" points="683.74,-1273.48 673.25,-1272.06 680.57,-1279.72 683.74,-1273.48"/>
</g>
<!-- Symfony\\Component\\Console\\Output\\OutputInterface -->
<g id="node10" class="node">
<title>Symfony\\Component\\Console\\Output\\OutputInterface</title>
<polygon fill="#fefece" stroke="transparent" points="1063,-456 453,-456 453,-16 1063,-16 1063,-456"/>
<polygon fill="#eeeeee" stroke="transparent" points="461,-418 461,-452 1055,-452 1055,-418 461,-418"/>
<polygon fill="none" stroke="black" points="461,-418 461,-452 1055,-452 1055,-418 461,-418"/>
<text text-anchor="start" x="725.5" y="-438.8" font-family="Times,serif" font-weight="bold" font-size="14.00">«interface»</text>
<text text-anchor="start" x="710" y="-424.8" font-family="Times,serif" font-weight="bold" font-size="14.00">OutputInterface</text>
<polygon fill="none" stroke="black" points="461,-260 461,-418 1055,-418 1055,-260 461,-260"/>
<text text-anchor="start" x="466" y="-401.8" font-family="Times,serif" font-size="14.00">+ «static» VERBOSITY_QUIET : int = 16 {readOnly}</text>
<text text-anchor="start" x="466" y="-382.8" font-family="Times,serif" font-size="14.00">+ «static» VERBOSITY_NORMAL : int = 32 {readOnly}</text>
<text text-anchor="start" x="466" y="-363.8" font-family="Times,serif" font-size="14.00">+ «static» VERBOSITY_VERBOSE : int = 64 {readOnly}</text>
<text text-anchor="start" x="466" y="-344.8" font-family="Times,serif" font-size="14.00">+ «static» VERBOSITY_VERY_VERBOSE : int = 128 {readOnly}</text>
<text text-anchor="start" x="466" y="-325.8" font-family="Times,serif" font-size="14.00">+ «static» VERBOSITY_DEBUG : int = 256 {readOnly}</text>
<text text-anchor="start" x="466" y="-306.8" font-family="Times,serif" font-size="14.00">+ «static» OUTPUT_NORMAL : int = 1 {readOnly}</text>
<text text-anchor="start" x="466" y="-287.8" font-family="Times,serif" font-size="14.00">+ «static» OUTPUT_RAW : int = 2 {readOnly}</text>
<text text-anchor="start" x="466" y="-268.8" font-family="Times,serif" font-size="14.00">+ «static» OUTPUT_PLAIN : int = 4 {readOnly}</text>
<polygon fill="none" stroke="black" points="461,-254 461,-260 1055,-260 1055,-254 461,-254"/>
<polygon fill="none" stroke="black" points="461,-20 461,-254 1055,-254 1055,-20 461,-20"/>
<text text-anchor="start" x="466" y="-237.8" font-family="Times,serif" font-size="14.00">+ «abstract» write(messages, newline : bool = false, options : int = 0)</text>
<text text-anchor="start" x="466" y="-218.8" font-family="Times,serif" font-size="14.00">+ «abstract» writeln(messages, options : int = 0)</text>
<text text-anchor="start" x="466" y="-199.8" font-family="Times,serif" font-size="14.00">+ «abstract» setVerbosity(level : int)</text>
<text text-anchor="start" x="466" y="-180.8" font-family="Times,serif" font-size="14.00">+ «abstract» getVerbosity() : int</text>
<text text-anchor="start" x="466" y="-161.8" font-family="Times,serif" font-size="14.00">+ «abstract» isQuiet() : bool</text>
<text text-anchor="start" x="466" y="-142.8" font-family="Times,serif" font-size="14.00">+ «abstract» isVerbose() : bool</text>
<text text-anchor="start" x="466" y="-123.8" font-family="Times,serif" font-size="14.00">+ «abstract» isVeryVerbose() : bool</text>
<text text-anchor="start" x="466" y="-104.8" font-family="Times,serif" font-size="14.00">+ «abstract» isDebug() : bool</text>
<text text-anchor="start" x="466" y="-85.8" font-family="Times,serif" font-size="14.00">+ «abstract» setDecorated(decorated : bool)</text>
<text text-anchor="start" x="466" y="-66.8" font-family="Times,serif" font-size="14.00">+ «abstract» isDecorated() : bool</text>
<text text-anchor="start" x="466" y="-47.8" font-family="Times,serif" font-size="14.00">+ «abstract» setFormatter(formatter : Symfony\Component\Console\Formatter\OutputFormatterInterface)</text>
<text text-anchor="start" x="466" y="-28.8" font-family="Times,serif" font-size="14.00">+ «abstract» getFormatter() : Symfony\Component\Console\Formatter\OutputFormatterInterface</text>
</g>
<!-- Overtrue\\PHPLint\\Output\\ConsoleOutputInterface&#45;&gt;Symfony\\Component\\Console\\Output\\OutputInterface -->
<g id="edge6" class="edge">
<title>Overtrue\\PHPLint\\Output\\ConsoleOutputInterface&#45;&gt;Symfony\\Component\\Console\\Output\\OutputInterface</title>
<path fill="none" stroke="black" stroke-dasharray="5,2" d="M2128.45,-1003.27C1809.46,-824.91 1367.3,-577.68 1072.4,-412.79"/>
<polygon fill="none" stroke="black" points="1073.72,-409.52 1063.28,-407.69 1070.3,-415.63 1073.72,-409.52"/>
</g>
<!-- Overtrue\\PHPLint\\Output\\JsonOutput -->
<g id="node5" class="node">
<title>Overtrue\\PHPLint\\Output\\JsonOutput</title>
<polygon fill="#fefece" stroke="transparent" points="1974.5,-1748 1589.5,-1748 1589.5,-1656 1974.5,-1656 1974.5,-1748"/>
<polygon fill="#eeeeee" stroke="transparent" points="1598,-1710 1598,-1744 1967,-1744 1967,-1710 1598,-1710"/>
<polygon fill="none" stroke="black" points="1598,-1710 1598,-1744 1967,-1744 1967,-1710 1598,-1710"/>
<text text-anchor="start" x="1747.5" y="-1716.8" font-family="Times,serif" font-weight="bold" font-size="14.00">JsonOutput</text>
<polygon fill="none" stroke="black" points="1598,-1704 1598,-1710 1967,-1710 1967,-1704 1598,-1704"/>
<polygon fill="none" stroke="black" points="1598,-1660 1598,-1704 1967,-1704 1967,-1660 1598,-1660"/>
<text text-anchor="start" x="1603" y="-1687.8" font-family="Times,serif" font-size="14.00">+ getName() : string</text>
<text text-anchor="start" x="1603" y="-1668.8" font-family="Times,serif" font-size="14.00">+ format(results : Overtrue\PHPLint\Output\LinterOutput) : void</text>
</g>
<!-- Overtrue\\PHPLint\\Output\\JsonOutput&#45;&gt;Overtrue\\PHPLint\\Output\\OutputInterface -->
<g id="edge9" class="edge">
<title>Overtrue\\PHPLint\\Output\\JsonOutput&#45;&gt;Overtrue\\PHPLint\\Output\\OutputInterface</title>
<path fill="none" stroke="black" stroke-dasharray="5,2" d="M1785.42,-1655.98C1792.04,-1568.78 1806.6,-1377.09 1813.8,-1282.31"/>
<polygon fill="none" stroke="black" points="1817.31,-1282.3 1814.58,-1272.07 1810.33,-1281.77 1817.31,-1282.3"/>
</g>
<!-- Overtrue\\PHPLint\\Output\\JsonOutput&#45;&gt;Symfony\\Component\\Console\\Output\\StreamOutput -->
<g id="edge8" class="edge">
<title>Overtrue\\PHPLint\\Output\\JsonOutput&#45;&gt;Symfony\\Component\\Console\\Output\\StreamOutput</title>
<path fill="none" stroke="black" d="M1751.46,-1655.71C1716.48,-1608.01 1654.42,-1535.17 1581,-1501 1416.36,-1424.38 1350.51,-1507.69 1174,-1465 994.75,-1421.65 798.51,-1332.52 684.99,-1276.49"/>
<polygon fill="none" stroke="black" points="686.46,-1273.31 675.95,-1272.01 683.36,-1279.59 686.46,-1273.31"/>
</g>
<!-- Overtrue\\PHPLint\\Output\\JunitOutput -->
<g id="node6" class="node">
<title>Overtrue\\PHPLint\\Output\\JunitOutput</title>
<polygon fill="#fefece" stroke="transparent" points="1571.5,-1748 1186.5,-1748 1186.5,-1656 1571.5,-1656 1571.5,-1748"/>
<polygon fill="#eeeeee" stroke="transparent" points="1195,-1710 1195,-1744 1564,-1744 1564,-1710 1195,-1710"/>
<polygon fill="none" stroke="black" points="1195,-1710 1195,-1744 1564,-1744 1564,-1710 1195,-1710"/>
<text text-anchor="start" x="1343" y="-1716.8" font-family="Times,serif" font-weight="bold" font-size="14.00">JunitOutput</text>
<polygon fill="none" stroke="black" points="1195,-1704 1195,-1710 1564,-1710 1564,-1704 1195,-1704"/>
<polygon fill="none" stroke="black" points="1195,-1660 1195,-1704 1564,-1704 1564,-1660 1195,-1660"/>
<text text-anchor="start" x="1200" y="-1687.8" font-family="Times,serif" font-size="14.00">+ getName() : string</text>
<text text-anchor="start" x="1200" y="-1668.8" font-family="Times,serif" font-size="14.00">+ format(results : Overtrue\PHPLint\Output\LinterOutput) : void</text>
</g>
<!-- Overtrue\\PHPLint\\Output\\JunitOutput&#45;&gt;Overtrue\\PHPLint\\Output\\OutputInterface -->
<g id="edge11" class="edge">
<title>Overtrue\\PHPLint\\Output\\JunitOutput&#45;&gt;Overtrue\\PHPLint\\Output\\OutputInterface</title>
<path fill="none" stroke="black" stroke-dasharray="5,2" d="M1420.7,-1655.98C1502.28,-1567.89 1682.6,-1373.2 1769.42,-1279.46"/>
<polygon fill="none" stroke="black" points="1772.03,-1281.78 1776.26,-1272.07 1766.9,-1277.02 1772.03,-1281.78"/>
</g>
<!-- Overtrue\\PHPLint\\Output\\JunitOutput&#45;&gt;Symfony\\Component\\Console\\Output\\StreamOutput -->
<g id="edge10" class="edge">
<title>Overtrue\\PHPLint\\Output\\JunitOutput&#45;&gt;Symfony\\Component\\Console\\Output\\StreamOutput</title>
<path fill="none" stroke="black" d="M1303.97,-1655.98C1155.98,-1567.19 827.45,-1370.07 672.7,-1277.22"/>
<polygon fill="none" stroke="black" points="674.49,-1274.21 664.11,-1272.07 670.88,-1280.21 674.49,-1274.21"/>
</g>
<!-- Overtrue\\PHPLint\\Output\\LinterOutput -->
<g id="node7" class="node">
<title>Overtrue\\PHPLint\\Output\\LinterOutput</title>
<polygon fill="#fefece" stroke="transparent" points="4329,-1843 3551,-1843 3551,-1561 4329,-1561 4329,-1843"/>
<polygon fill="#eeeeee" stroke="transparent" points="3559,-1805 3559,-1839 4321,-1839 4321,-1805 3559,-1805"/>
<polygon fill="none" stroke="black" points="3559,-1805 3559,-1839 4321,-1839 4321,-1805 3559,-1805"/>
<text text-anchor="start" x="3900" y="-1811.8" font-family="Times,serif" font-weight="bold" font-size="14.00">LinterOutput</text>
<polygon fill="none" stroke="black" points="3559,-1799 3559,-1805 4321,-1805 4321,-1799 3559,-1799"/>
<polygon fill="none" stroke="black" points="3559,-1565 3559,-1799 4321,-1799 4321,-1565 3559,-1565"/>
<text text-anchor="start" x="3564" y="-1782.8" font-family="Times,serif" font-size="14.00">+ __construct(results : array, finder : Symfony\Component\Finder\Finder)</text>
<text text-anchor="start" x="3564" y="-1763.8" font-family="Times,serif" font-size="14.00">+ count() : int</text>
<text text-anchor="start" x="3564" y="-1744.8" font-family="Times,serif" font-size="14.00">+ getContext() : array</text>
<text text-anchor="start" x="3564" y="-1725.8" font-family="Times,serif" font-size="14.00">+ setContext(configResolver : Overtrue\PHPLint\Configuration\Resolver, startTime : float, processCount : int, default : array = []) : void</text>
<text text-anchor="start" x="3564" y="-1706.8" font-family="Times,serif" font-size="14.00">+ hasFailures() : bool</text>
<text text-anchor="start" x="3564" y="-1687.8" font-family="Times,serif" font-size="14.00">+ getFailures() : array</text>
<text text-anchor="start" x="3564" y="-1668.8" font-family="Times,serif" font-size="14.00">+ hasErrors() : bool</text>
<text text-anchor="start" x="3564" y="-1649.8" font-family="Times,serif" font-size="14.00">+ getErrors() : array</text>
<text text-anchor="start" x="3564" y="-1630.8" font-family="Times,serif" font-size="14.00">+ hasWarnings() : bool</text>
<text text-anchor="start" x="3564" y="-1611.8" font-family="Times,serif" font-size="14.00">+ getWarnings() : array</text>
<text text-anchor="start" x="3564" y="-1592.8" font-family="Times,serif" font-size="14.00">+ getHits() : array</text>
<text text-anchor="start" x="3564" y="-1573.8" font-family="Times,serif" font-size="14.00">+ getMisses() : array</text>
</g>
<!-- Countable -->
<g id="node11" class="node">
<title>Countable</title>
<polygon fill="#fefece" stroke="transparent" points="4490.5,-1262.5 4353.5,-1262.5 4353.5,-1189.5 4490.5,-1189.5 4490.5,-1262.5"/>
<polygon fill="#eeeeee" stroke="transparent" points="4362,-1224 4362,-1258 4483,-1258 4483,-1224 4362,-1224"/>
<polygon fill="none" stroke="black" points="4362,-1224 4362,-1258 4483,-1258 4483,-1224 4362,-1224"/>
<text text-anchor="start" x="4390" y="-1244.8" font-family="Times,serif" font-weight="bold" font-size="14.00">«interface»</text>
<text text-anchor="start" x="4392" y="-1230.8" font-family="Times,serif" font-weight="bold" font-size="14.00">Countable</text>
<polygon fill="none" stroke="black" points="4362,-1218 4362,-1224 4483,-1224 4483,-1218 4362,-1218"/>
<polygon fill="none" stroke="black" points="4362,-1193 4362,-1218 4483,-1218 4483,-1193 4362,-1193"/>
<text text-anchor="start" x="4367" y="-1201.8" font-family="Times,serif" font-size="14.00">+ «abstract» count()</text>
</g>
<!-- Overtrue\\PHPLint\\Output\\LinterOutput&#45;&gt;Countable -->
<g id="edge12" class="edge">
<title>Overtrue\\PHPLint\\Output\\LinterOutput&#45;&gt;Countable</title>
<path fill="none" stroke="black" stroke-dasharray="5,2" d="M4235.73,-1560.87C4274.81,-1533.17 4311.48,-1501.25 4341,-1465 4387.03,-1408.48 4407.47,-1324.42 4416.13,-1272.81"/>
<polygon fill="none" stroke="black" points="4419.63,-1273.05 4417.75,-1262.62 4412.72,-1271.94 4419.63,-1273.05"/>
</g>
<!-- Symfony\\Component\\Console\\Output\\Output -->
<g id="node9" class="node">
<title>Symfony\\Component\\Console\\Output\\Output</title>
<polygon fill="#fefece" stroke="transparent" points="1126.5,-951 121.5,-951 121.5,-492 1126.5,-492 1126.5,-951"/>
<polygon fill="#eeeeee" stroke="transparent" points="130,-912.5 130,-946.5 1119,-946.5 1119,-912.5 130,-912.5"/>
<polygon fill="none" stroke="black" points="130,-912.5 130,-946.5 1119,-946.5 1119,-912.5 130,-912.5"/>
<text text-anchor="start" x="594" y="-933.3" font-family="Times,serif" font-weight="bold" font-size="14.00">«abstract»</text>
<text text-anchor="start" x="603" y="-919.3" font-family="Times,serif" font-weight="bold" font-size="14.00">Output</text>
<polygon fill="none" stroke="black" points="130,-754.5 130,-912.5 1119,-912.5 1119,-754.5 130,-754.5"/>
<text text-anchor="start" x="135" y="-896.3" font-family="Times,serif" font-size="14.00">+ «static» VERBOSITY_QUIET : int = 16 {readOnly}</text>
<text text-anchor="start" x="135" y="-877.3" font-family="Times,serif" font-size="14.00">+ «static» VERBOSITY_NORMAL : int = 32 {readOnly}</text>
<text text-anchor="start" x="135" y="-858.3" font-family="Times,serif" font-size="14.00">+ «static» VERBOSITY_VERBOSE : int = 64 {readOnly}</text>
<text text-anchor="start" x="135" y="-839.3" font-family="Times,serif" font-size="14.00">+ «static» VERBOSITY_VERY_VERBOSE : int = 128 {readOnly}</text>
<text text-anchor="start" x="135" y="-820.3" font-family="Times,serif" font-size="14.00">+ «static» VERBOSITY_DEBUG : int = 256 {readOnly}</text>
<text text-anchor="start" x="135" y="-801.3" font-family="Times,serif" font-size="14.00">+ «static» OUTPUT_NORMAL : int = 1 {readOnly}</text>
<text text-anchor="start" x="135" y="-782.3" font-family="Times,serif" font-size="14.00">+ «static» OUTPUT_RAW : int = 2 {readOnly}</text>
<text text-anchor="start" x="135" y="-763.3" font-family="Times,serif" font-size="14.00">+ «static» OUTPUT_PLAIN : int = 4 {readOnly}</text>
<polygon fill="none" stroke="black" points="130,-748.5 130,-754.5 1119,-754.5 1119,-748.5 130,-748.5"/>
<polygon fill="none" stroke="black" points="130,-495.5 130,-748.5 1119,-748.5 1119,-495.5 130,-495.5"/>
<text text-anchor="start" x="135" y="-732.3" font-family="Times,serif" font-size="14.00">+ __construct(verbosity : int = VERBOSITY_NORMAL, decorated : bool = false, formatter : Symfony\Component\Console\Formatter\OutputFormatterInterface = «unknown»)</text>
<text text-anchor="start" x="135" y="-713.3" font-family="Times,serif" font-size="14.00">+ setFormatter(formatter : Symfony\Component\Console\Formatter\OutputFormatterInterface)</text>
<text text-anchor="start" x="135" y="-694.3" font-family="Times,serif" font-size="14.00">+ getFormatter() : Symfony\Component\Console\Formatter\OutputFormatterInterface</text>
<text text-anchor="start" x="135" y="-675.3" font-family="Times,serif" font-size="14.00">+ setDecorated(decorated : bool)</text>
<text text-anchor="start" x="135" y="-656.3" font-family="Times,serif" font-size="14.00">+ isDecorated() : bool</text>
<text text-anchor="start" x="135" y="-637.3" font-family="Times,serif" font-size="14.00">+ setVerbosity(level : int)</text>
<text text-anchor="start" x="135" y="-618.3" font-family="Times,serif" font-size="14.00">+ getVerbosity() : int</text>
<text text-anchor="start" x="135" y="-599.3" font-family="Times,serif" font-size="14.00">+ isQuiet() : bool</text>
<text text-anchor="start" x="135" y="-580.3" font-family="Times,serif" font-size="14.00">+ isVerbose() : bool</text>
<text text-anchor="start" x="135" y="-561.3" font-family="Times,serif" font-size="14.00">+ isVeryVerbose() : bool</text>
<text text-anchor="start" x="135" y="-542.3" font-family="Times,serif" font-size="14.00">+ isDebug() : bool</text>
<text text-anchor="start" x="135" y="-523.3" font-family="Times,serif" font-size="14.00">+ writeln(messages, options : int = OUTPUT_NORMAL)</text>
<text text-anchor="start" x="135" y="-504.3" font-family="Times,serif" font-size="14.00">+ write(messages, newline : bool = false, options : int = OUTPUT_NORMAL)</text>
</g>
<!-- Symfony\\Component\\Console\\Output\\StreamOutput&#45;&gt;Symfony\\Component\\Console\\Output\\Output -->
<g id="edge3" class="edge">
<title>Symfony\\Component\\Console\\Output\\StreamOutput&#45;&gt;Symfony\\Component\\Console\\Output\\Output</title>
<path fill="none" stroke="black" d="M592.14,-1179.96C595.64,-1129.73 601.57,-1044.54 607.37,-961.19"/>
<polygon fill="none" stroke="black" points="610.88,-961.25 608.08,-951.04 603.9,-960.77 610.88,-961.25"/>
</g>
<!-- Symfony\\Component\\Console\\Output\\Output&#45;&gt;Symfony\\Component\\Console\\Output\\OutputInterface -->
<g id="edge2" class="edge">
<title>Symfony\\Component\\Console\\Output\\Output&#45;&gt;Symfony\\Component\\Console\\Output\\OutputInterface</title>
<path fill="none" stroke="black" stroke-dasharray="5,2" d="M687.37,-491.85C689.76,-483.24 692.15,-474.61 694.53,-466"/>
<polygon fill="none" stroke="black" points="697.93,-466.86 697.22,-456.29 691.18,-464.99 697.93,-466.86"/>
</g>
</g>
</svg>
