<?xml version="1.0" encoding="UTF-8" standalone="no"?>
<!DOCTYPE svg PUBLIC "-//W3C//DTD SVG 1.1//EN"
 "http://www.w3.org/Graphics/SVG/1.1/DTD/svg11.dtd">
<!-- Generated by graphviz version 2.43.0 (0)
 -->
<!-- Title: %3 Pages: 1 -->
<svg width="1581pt" height="1973pt"
 viewBox="0.00 0.00 1581.00 1973.00" xmlns="http://www.w3.org/2000/svg" xmlns:xlink="http://www.w3.org/1999/xlink">
<g id="graph0" class="graph" transform="scale(1 1) rotate(0) translate(4 1969)">
<title>%3</title>
<g id="clust1" class="cluster">
<title>cluster_0</title>
<polygon fill="#cdaa7d" stroke="black" points="8,-1712 8,-1957 1460,-1957 1460,-1712 8,-1712"/>
<text text-anchor="middle" x="734" y="-1941.8" font-family="Times,serif" font-size="14.00">Overtrue\PHPLint\Process</text>
</g>
<g id="clust2" class="cluster">
<title>cluster_1</title>
<polygon fill="transparent" stroke="black" points="349,-218 349,-1704 1565,-1704 1565,-218 349,-218"/>
<text text-anchor="middle" x="957" y="-1688.8" font-family="Times,serif" font-size="14.00">Symfony\Component\Process</text>
</g>
<g id="clust3" class="cluster">
<title>cluster_2</title>
<polygon fill="transparent" stroke="black" points="843,-8 843,-210 1071,-210 1071,-8 843,-8"/>
<text text-anchor="middle" x="957" y="-194.8" font-family="Times,serif" font-size="14.00">0</text>
</g>
<!-- Overtrue\\PHPLint\\Process\\LintProcess -->
<g id="node1" class="node">
<title>Overtrue\\PHPLint\\Process\\LintProcess</title>
<polygon fill="#fefece" stroke="transparent" points="1452.5,-1926 461.5,-1926 461.5,-1720 1452.5,-1720 1452.5,-1926"/>
<polygon fill="#eeeeee" stroke="transparent" points="470,-1888 470,-1922 1445,-1922 1445,-1888 470,-1888"/>
<polygon fill="none" stroke="black" points="470,-1888 470,-1922 1445,-1922 1445,-1888 470,-1888"/>
<text text-anchor="start" x="910.5" y="-1894.8" font-family="Times,serif" font-weight="bold" font-size="14.00">LintProcess</text>
<polygon fill="none" stroke="black" points="470,-1882 470,-1888 1445,-1888 1445,-1882 470,-1882"/>
<polygon fill="none" stroke="black" points="470,-1724 470,-1882 1445,-1882 1445,-1724 470,-1724"/>
<text text-anchor="start" x="475" y="-1865.8" font-family="Times,serif" font-size="14.00">+ __construct(command : array, cwd : string = «unknown», env : array = «unknown», input : mixed = «unknown», timeout : float = 60)</text>
<text text-anchor="start" x="475" y="-1846.8" font-family="Times,serif" font-size="14.00">+ setHelper(helper : Symfony\Component\Console\Helper\HelperInterface) : self</text>
<text text-anchor="start" x="475" y="-1827.8" font-family="Times,serif" font-size="14.00">+ setOutput(output : Symfony\Component\Console\Output\OutputInterface) : self</text>
<text text-anchor="start" x="475" y="-1808.8" font-family="Times,serif" font-size="14.00">+ setFiles(files : array) : self</text>
<text text-anchor="start" x="475" y="-1789.8" font-family="Times,serif" font-size="14.00">+ getFiles() : array</text>
<text text-anchor="start" x="475" y="-1770.8" font-family="Times,serif" font-size="14.00">+ getItem(fileInfo : Symfony\Component\Finder\SplFileInfo) : Overtrue\PHPLint\Process\LintProcessItem</text>
<text text-anchor="start" x="475" y="-1751.8" font-family="Times,serif" font-size="14.00">+ begin(callback : callable = «unknown», env : array = []) : void</text>
<text text-anchor="start" x="475" y="-1732.8" font-family="Times,serif" font-size="14.00">+ isFinished() : bool</text>
</g>
<!-- Symfony\\Component\\Process\\Process -->
<g id="node3" class="node">
<title>Symfony\\Component\\Process\\Process</title>
<polygon fill="#fefece" stroke="transparent" points="1556.5,-1673 357.5,-1673 357.5,-226 1556.5,-226 1556.5,-1673"/>
<polygon fill="#eeeeee" stroke="transparent" points="366,-1634.5 366,-1668.5 1549,-1668.5 1549,-1634.5 366,-1634.5"/>
<polygon fill="none" stroke="black" points="366,-1634.5 366,-1668.5 1549,-1668.5 1549,-1634.5 366,-1634.5"/>
<text text-anchor="start" x="927" y="-1641.3" font-family="Times,serif" font-weight="bold" font-size="14.00">Process</text>
<polygon fill="none" stroke="black" points="366,-1381.5 366,-1634.5 1549,-1634.5 1549,-1381.5 366,-1381.5"/>
<text text-anchor="start" x="371" y="-1618.3" font-family="Times,serif" font-size="14.00">+ «static» ERR : string = &quot;err&quot; {readOnly}</text>
<text text-anchor="start" x="371" y="-1599.3" font-family="Times,serif" font-size="14.00">+ «static» OUT : string = &quot;out&quot; {readOnly}</text>
<text text-anchor="start" x="371" y="-1580.3" font-family="Times,serif" font-size="14.00">+ «static» STATUS_READY : string = &quot;ready&quot; {readOnly}</text>
<text text-anchor="start" x="371" y="-1561.3" font-family="Times,serif" font-size="14.00">+ «static» STATUS_STARTED : string = &quot;started&quot; {readOnly}</text>
<text text-anchor="start" x="371" y="-1542.3" font-family="Times,serif" font-size="14.00">+ «static» STATUS_TERMINATED : string = &quot;terminated&quot; {readOnly}</text>
<text text-anchor="start" x="371" y="-1523.3" font-family="Times,serif" font-size="14.00">+ «static» STDIN : int = 0 {readOnly}</text>
<text text-anchor="start" x="371" y="-1504.3" font-family="Times,serif" font-size="14.00">+ «static» STDOUT : int = 1 {readOnly}</text>
<text text-anchor="start" x="371" y="-1485.3" font-family="Times,serif" font-size="14.00">+ «static» STDERR : int = 2 {readOnly}</text>
<text text-anchor="start" x="371" y="-1466.3" font-family="Times,serif" font-size="14.00">+ «static» TIMEOUT_PRECISION : float = 0.2 {readOnly}</text>
<text text-anchor="start" x="371" y="-1447.3" font-family="Times,serif" font-size="14.00">+ «static» ITER_NON_BLOCKING : int = 1 {readOnly}</text>
<text text-anchor="start" x="371" y="-1428.3" font-family="Times,serif" font-size="14.00">+ «static» ITER_KEEP_OUTPUT : int = 2 {readOnly}</text>
<text text-anchor="start" x="371" y="-1409.3" font-family="Times,serif" font-size="14.00">+ «static» ITER_SKIP_OUT : int = 4 {readOnly}</text>
<text text-anchor="start" x="371" y="-1390.3" font-family="Times,serif" font-size="14.00">+ «static» ITER_SKIP_ERR : int = 8 {readOnly}</text>
<polygon fill="none" stroke="black" points="366,-1356.5 366,-1381.5 1549,-1381.5 1549,-1356.5 366,-1356.5"/>
<text text-anchor="start" x="371" y="-1365.3" font-family="Times,serif" font-size="14.00">+ «static» exitCodes = […]</text>
<polygon fill="none" stroke="black" points="366,-229.5 366,-1356.5 1549,-1356.5 1549,-229.5 366,-229.5"/>
<text text-anchor="start" x="371" y="-1340.3" font-family="Times,serif" font-size="14.00">+ __construct(command : array, cwd : string = «unknown», env : array = «unknown», input : mixed = «unknown», timeout : float = 60)</text>
<text text-anchor="start" x="371" y="-1321.3" font-family="Times,serif" font-size="14.00">+ «static» fromShellCommandline(command : string, cwd : string = «unknown», env : array = «unknown», input : mixed = «unknown», timeout : float = 60) : static</text>
<text text-anchor="start" x="371" y="-1302.3" font-family="Times,serif" font-size="14.00">+ __sleep() : array</text>
<text text-anchor="start" x="371" y="-1283.3" font-family="Times,serif" font-size="14.00">+ __wakeup()</text>
<text text-anchor="start" x="371" y="-1264.3" font-family="Times,serif" font-size="14.00">+ __destruct()</text>
<text text-anchor="start" x="371" y="-1245.3" font-family="Times,serif" font-size="14.00">+ __clone()</text>
<text text-anchor="start" x="371" y="-1226.3" font-family="Times,serif" font-size="14.00">+ run(callback : callable = «unknown», env : array = []) : int</text>
<text text-anchor="start" x="371" y="-1207.3" font-family="Times,serif" font-size="14.00">+ mustRun(callback : callable = «unknown», env : array = []) : static</text>
<text text-anchor="start" x="371" y="-1188.3" font-family="Times,serif" font-size="14.00">+ start(callback : callable = «unknown», env : array = [])</text>
<text text-anchor="start" x="371" y="-1169.3" font-family="Times,serif" font-size="14.00">+ restart(callback : callable = «unknown», env : array = []) : static</text>
<text text-anchor="start" x="371" y="-1150.3" font-family="Times,serif" font-size="14.00">+ wait(callback : callable = «unknown») : int</text>
<text text-anchor="start" x="371" y="-1131.3" font-family="Times,serif" font-size="14.00">+ waitUntil(callback : callable) : bool</text>
<text text-anchor="start" x="371" y="-1112.3" font-family="Times,serif" font-size="14.00">+ getPid() : ?int</text>
<text text-anchor="start" x="371" y="-1093.3" font-family="Times,serif" font-size="14.00">+ signal(signal : int) : static</text>
<text text-anchor="start" x="371" y="-1074.3" font-family="Times,serif" font-size="14.00">+ disableOutput() : static</text>
<text text-anchor="start" x="371" y="-1055.3" font-family="Times,serif" font-size="14.00">+ enableOutput() : static</text>
<text text-anchor="start" x="371" y="-1036.3" font-family="Times,serif" font-size="14.00">+ isOutputDisabled() : bool</text>
<text text-anchor="start" x="371" y="-1017.3" font-family="Times,serif" font-size="14.00">+ getOutput() : string</text>
<text text-anchor="start" x="371" y="-998.3" font-family="Times,serif" font-size="14.00">+ getIncrementalOutput() : string</text>
<text text-anchor="start" x="371" y="-979.3" font-family="Times,serif" font-size="14.00">+ getIterator(flags : int = 0) : Generator</text>
<text text-anchor="start" x="371" y="-960.3" font-family="Times,serif" font-size="14.00">+ clearOutput() : static</text>
<text text-anchor="start" x="371" y="-941.3" font-family="Times,serif" font-size="14.00">+ getErrorOutput() : string</text>
<text text-anchor="start" x="371" y="-922.3" font-family="Times,serif" font-size="14.00">+ getIncrementalErrorOutput() : string</text>
<text text-anchor="start" x="371" y="-903.3" font-family="Times,serif" font-size="14.00">+ clearErrorOutput() : static</text>
<text text-anchor="start" x="371" y="-884.3" font-family="Times,serif" font-size="14.00">+ getExitCode() : ?int</text>
<text text-anchor="start" x="371" y="-865.3" font-family="Times,serif" font-size="14.00">+ getExitCodeText() : ?string</text>
<text text-anchor="start" x="371" y="-846.3" font-family="Times,serif" font-size="14.00">+ isSuccessful() : bool</text>
<text text-anchor="start" x="371" y="-827.3" font-family="Times,serif" font-size="14.00">+ hasBeenSignaled() : bool</text>
<text text-anchor="start" x="371" y="-808.3" font-family="Times,serif" font-size="14.00">+ getTermSignal() : int</text>
<text text-anchor="start" x="371" y="-789.3" font-family="Times,serif" font-size="14.00">+ hasBeenStopped() : bool</text>
<text text-anchor="start" x="371" y="-770.3" font-family="Times,serif" font-size="14.00">+ getStopSignal() : int</text>
<text text-anchor="start" x="371" y="-751.3" font-family="Times,serif" font-size="14.00">+ isRunning() : bool</text>
<text text-anchor="start" x="371" y="-732.3" font-family="Times,serif" font-size="14.00">+ isStarted() : bool</text>
<text text-anchor="start" x="371" y="-713.3" font-family="Times,serif" font-size="14.00">+ isTerminated() : bool</text>
<text text-anchor="start" x="371" y="-694.3" font-family="Times,serif" font-size="14.00">+ getStatus() : string</text>
<text text-anchor="start" x="371" y="-675.3" font-family="Times,serif" font-size="14.00">+ stop(timeout : float = 10, signal : int = «unknown») : ?int</text>
<text text-anchor="start" x="371" y="-656.3" font-family="Times,serif" font-size="14.00">+ addOutput(line : string) : void</text>
<text text-anchor="start" x="371" y="-637.3" font-family="Times,serif" font-size="14.00">+ addErrorOutput(line : string) : void</text>
<text text-anchor="start" x="371" y="-618.3" font-family="Times,serif" font-size="14.00">+ getLastOutputTime() : ?float</text>
<text text-anchor="start" x="371" y="-599.3" font-family="Times,serif" font-size="14.00">+ getCommandLine() : string</text>
<text text-anchor="start" x="371" y="-580.3" font-family="Times,serif" font-size="14.00">+ getTimeout() : ?float</text>
<text text-anchor="start" x="371" y="-561.3" font-family="Times,serif" font-size="14.00">+ getIdleTimeout() : ?float</text>
<text text-anchor="start" x="371" y="-542.3" font-family="Times,serif" font-size="14.00">+ setTimeout(timeout : float) : static</text>
<text text-anchor="start" x="371" y="-523.3" font-family="Times,serif" font-size="14.00">+ setIdleTimeout(timeout : float) : static</text>
<text text-anchor="start" x="371" y="-504.3" font-family="Times,serif" font-size="14.00">+ setTty(tty : bool) : static</text>
<text text-anchor="start" x="371" y="-485.3" font-family="Times,serif" font-size="14.00">+ isTty() : bool</text>
<text text-anchor="start" x="371" y="-466.3" font-family="Times,serif" font-size="14.00">+ setPty(bool : bool) : static</text>
<text text-anchor="start" x="371" y="-447.3" font-family="Times,serif" font-size="14.00">+ isPty() : bool</text>
<text text-anchor="start" x="371" y="-428.3" font-family="Times,serif" font-size="14.00">+ getWorkingDirectory() : ?string</text>
<text text-anchor="start" x="371" y="-409.3" font-family="Times,serif" font-size="14.00">+ setWorkingDirectory(cwd : string) : static</text>
<text text-anchor="start" x="371" y="-390.3" font-family="Times,serif" font-size="14.00">+ getEnv() : array</text>
<text text-anchor="start" x="371" y="-371.3" font-family="Times,serif" font-size="14.00">+ setEnv(env : array) : static</text>
<text text-anchor="start" x="371" y="-352.3" font-family="Times,serif" font-size="14.00">+ getInput()</text>
<text text-anchor="start" x="371" y="-333.3" font-family="Times,serif" font-size="14.00">+ setInput(input : mixed) : static</text>
<text text-anchor="start" x="371" y="-314.3" font-family="Times,serif" font-size="14.00">+ checkTimeout()</text>
<text text-anchor="start" x="371" y="-295.3" font-family="Times,serif" font-size="14.00">+ getStartTime() : float</text>
<text text-anchor="start" x="371" y="-276.3" font-family="Times,serif" font-size="14.00">+ setOptions(options : array)</text>
<text text-anchor="start" x="371" y="-257.3" font-family="Times,serif" font-size="14.00">+ «static» isTtySupported() : bool</text>
<text text-anchor="start" x="371" y="-238.3" font-family="Times,serif" font-size="14.00">+ «static» isPtySupported() : bool</text>
</g>
<!-- Overtrue\\PHPLint\\Process\\LintProcess&#45;&gt;Symfony\\Component\\Process\\Process -->
<g id="edge3" class="edge">
<title>Overtrue\\PHPLint\\Process\\LintProcess&#45;&gt;Symfony\\Component\\Process\\Process</title>
<path fill="none" stroke="black" d="M957,-1719.89C957,-1708.54 957,-1696.44 957,-1683.69"/>
<polygon fill="none" stroke="black" points="960.5,-1683.33 957,-1673.33 953.5,-1683.33 960.5,-1683.33"/>
</g>
<!-- Overtrue\\PHPLint\\Process\\LintProcessItem -->
<g id="node2" class="node">
<title>Overtrue\\PHPLint\\Process\\LintProcessItem</title>
<polygon fill="#fefece" stroke="transparent" points="444,-1897.5 16,-1897.5 16,-1748.5 444,-1748.5 444,-1897.5"/>
<polygon fill="#eeeeee" stroke="transparent" points="24,-1859 24,-1893 436,-1893 436,-1859 24,-1859"/>
<polygon fill="none" stroke="black" points="24,-1859 24,-1893 436,-1893 436,-1859 24,-1859"/>
<text text-anchor="start" x="164.5" y="-1865.8" font-family="Times,serif" font-weight="bold" font-size="14.00">LintProcessItem</text>
<polygon fill="none" stroke="black" points="24,-1853 24,-1859 436,-1859 436,-1853 24,-1853"/>
<polygon fill="none" stroke="black" points="24,-1752 24,-1853 436,-1853 436,-1752 24,-1752"/>
<text text-anchor="start" x="29" y="-1836.8" font-family="Times,serif" font-size="14.00">+ hasSyntaxError() : bool</text>
<text text-anchor="start" x="29" y="-1817.8" font-family="Times,serif" font-size="14.00">+ hasSyntaxWarning() : bool</text>
<text text-anchor="start" x="29" y="-1798.8" font-family="Times,serif" font-size="14.00">+ getMessage() : string</text>
<text text-anchor="start" x="29" y="-1779.8" font-family="Times,serif" font-size="14.00">+ getLine() : int</text>
<text text-anchor="start" x="29" y="-1760.8" font-family="Times,serif" font-size="14.00">+ getFileInfo() : Symfony\Component\Finder\SplFileInfo</text>
</g>
<!-- IteratorAggregate -->
<g id="node4" class="node">
<title>IteratorAggregate</title>
<polygon fill="#fefece" stroke="transparent" points="1063.5,-179 850.5,-179 850.5,-106 1063.5,-106 1063.5,-179"/>
<polygon fill="#eeeeee" stroke="transparent" points="859,-140.5 859,-174.5 1056,-174.5 1056,-140.5 859,-140.5"/>
<polygon fill="none" stroke="black" points="859,-140.5 859,-174.5 1056,-174.5 1056,-140.5 859,-140.5"/>
<text text-anchor="start" x="912.5" y="-161.3" font-family="Times,serif" font-weight="bold" font-size="14.00">«interface»</text>
<text text-anchor="start" x="885.5" y="-147.3" font-family="Times,serif" font-weight="bold" font-size="14.00">IteratorAggregate</text>
<polygon fill="none" stroke="black" points="859,-134.5 859,-140.5 1056,-140.5 1056,-134.5 859,-134.5"/>
<polygon fill="none" stroke="black" points="859,-109.5 859,-134.5 1056,-134.5 1056,-109.5 859,-109.5"/>
<text text-anchor="start" x="864" y="-118.3" font-family="Times,serif" font-size="14.00">+ «abstract» getIterator()</text>
</g>
<!-- Symfony\\Component\\Process\\Process&#45;&gt;IteratorAggregate -->
<g id="edge2" class="edge">
<title>Symfony\\Component\\Process\\Process&#45;&gt;IteratorAggregate</title>
<path fill="none" stroke="black" stroke-dasharray="5,2" d="M957,-225.87C957,-212.19 957,-199.91 957,-189.25"/>
<polygon fill="none" stroke="black" points="960.5,-189.15 957,-179.15 953.5,-189.15 960.5,-189.15"/>
</g>
<!-- Traversable -->
<g id="node5" class="node">
<title>Traversable</title>
<polygon fill="#fefece" stroke="transparent" points="1014.5,-70 899.5,-70 899.5,-16 1014.5,-16 1014.5,-70"/>
<polygon fill="#eeeeee" stroke="transparent" points="908,-32 908,-66 1007,-66 1007,-32 908,-32"/>
<polygon fill="none" stroke="black" points="908,-32 908,-66 1007,-66 1007,-32 908,-32"/>
<text text-anchor="start" x="912.5" y="-52.8" font-family="Times,serif" font-weight="bold" font-size="14.00">«interface»</text>
<text text-anchor="start" x="911" y="-38.8" font-family="Times,serif" font-weight="bold" font-size="14.00">Traversable</text>
<polygon fill="none" stroke="black" points="908,-26 908,-32 1007,-32 1007,-26 908,-26"/>
<polygon fill="none" stroke="black" points="908,-20 908,-26 1007,-26 1007,-20 908,-20"/>
</g>
<!-- IteratorAggregate&#45;&gt;Traversable -->
<g id="edge1" class="edge">
<title>IteratorAggregate&#45;&gt;Traversable</title>
<path fill="none" stroke="black" stroke-dasharray="5,2" d="M957,-105.75C957,-97.49 957,-88.7 957,-80.42"/>
<polygon fill="none" stroke="black" points="960.5,-80.28 957,-70.28 953.5,-80.28 960.5,-80.28"/>
</g>
</g>
</svg>
